<svg width="329" height="186" viewBox="0 0 329 186" fill="none" xmlns="http://www.w3.org/2000/svg">
<mask id="mask0_11074:60076" style="mask-type:alpha" maskUnits="userSpaceOnUse" x="0" y="0" width="329" height="186">
<path d="M328.568 133.249C328.618 132.486 328.64 131.706 328.661 130.927C328.791 126.09 328.558 121.06 327.818 115.944C327.53 113.937 327.169 111.929 326.721 109.904C326.385 108.421 326.019 106.937 325.596 105.454C325.511 105.183 325.426 104.911 325.341 104.625C324.365 101.339 323.128 98.0345 321.629 94.7425C321.486 94.4544 321.343 94.1517 321.214 93.8637C320.072 91.4833 318.783 89.1175 317.349 86.765C317.192 86.5246 317.048 86.2856 316.89 86.0452C316.058 84.7179 315.153 83.3886 314.189 82.0748C312.809 80.153 311.283 78.2619 309.641 76.3857C307.38 73.787 305.116 71.4445 302.894 69.3083C301.971 68.4251 301.047 67.5897 300.137 66.7863C299.358 66.0942 298.578 65.4194 297.798 64.7924C297.755 64.7442 297.712 64.712 297.668 64.6797C295.862 63.1992 294.07 61.8635 292.305 60.6542L292.182 60.5722C291.861 60.3586 291.541 60.1455 291.22 59.9449C289.484 58.7996 287.762 57.7819 286.053 56.86C285.676 56.6668 285.315 56.4724 284.938 56.2779C273.264 50.3513 262.404 49.4929 252.794 50.3799C245.354 51.0626 238.646 52.7862 232.889 53.9936C232.509 54.0859 232.145 54.1611 231.766 54.2375C228.021 55.0003 224.685 55.4971 221.835 55.265C217.299 54.8908 213.616 51.8361 209.654 47.3447C209.366 47.0075 209.079 46.6876 208.79 46.3345C206.486 43.6252 204.07 40.4859 201.335 37.1194C200.866 36.5522 200.383 35.9699 199.9 35.3876L199.795 35.2601C198.758 34.0253 197.664 32.7581 196.525 31.4919C196.353 31.3005 196.165 31.1076 195.992 30.9148C195.603 30.4812 195.213 30.0648 194.81 29.6469C194.638 29.4555 194.45 29.2626 194.277 29.0858C192.98 27.7212 191.595 26.3559 190.137 25.0072C183.845 19.1754 175.951 13.5528 165.485 9.21317L165.47 9.19711C161.034 7.36027 156.16 5.75732 150.744 4.4697C144.792 3.04857 138.385 1.9754 131.815 1.31249C130.231 1.15524 128.646 1.02986 127.047 0.920288C125.317 0.793636 123.601 0.714916 121.87 0.652004C120.838 0.627063 119.805 0.602113 118.758 0.59297C116.197 0.570626 113.622 0.611895 111.074 0.73441C110.171 0.774342 109.269 0.830207 108.366 0.886073L108.366 0.886079C97.3174 1.63295 86.664 3.83079 77.652 7.84242C71.3275 10.6518 47.5039 23.2538 40.3464 44.8659C39.7639 46.643 39.2828 48.4847 38.9457 50.3914L38.9454 50.4233C38.5649 52.4253 38.3573 54.5084 38.324 56.6556C38.2742 59.0269 38.4278 61.4625 38.8269 63.9972C39.0341 65.3031 39.298 66.6414 39.6358 67.9976C39.8318 68.7789 40.0145 69.544 40.1828 70.2932C40.7848 72.9558 41.2285 75.3952 41.5149 77.6407C41.5695 78.0556 41.6243 78.4544 41.6647 78.8359C41.8674 80.6518 41.969 82.3565 41.9699 83.9315C41.9961 85.937 41.849 87.7658 41.5721 89.4499C41.4792 90.0693 41.3574 90.6738 41.2357 91.2611C40.6922 93.5803 39.8743 95.625 38.8246 97.5095C38.2475 98.539 37.5989 99.536 36.878 100.485C34.7884 103.283 32.148 105.758 29.1711 108.389C28.2046 109.24 27.1928 110.122 26.1518 111.02C25.6245 111.478 25.0961 111.934 24.5541 112.407C23.4835 113.353 22.3993 114.33 21.2842 115.371C21.0199 115.606 20.7566 115.859 20.4923 116.096C20.3894 116.206 20.2866 116.301 20.1839 116.396L20.1838 116.396C19.7295 116.838 19.274 117.279 18.8195 117.737C16.7938 119.755 14.9131 121.856 13.1923 123.99C11.7662 125.743 10.4564 127.53 9.26164 129.35C9.03331 129.687 8.80599 130.037 8.5776 130.39L8.55414 130.426C7.4769 132.135 6.48692 133.861 5.61335 135.603C5.03627 136.76 4.50182 137.902 4.01215 139.059C3.96761 139.155 3.92293 139.266 3.89296 139.361C3.35848 140.646 2.88241 141.914 2.47796 143.184C2.26938 143.852 2.05974 144.502 1.8938 145.152C1.81916 145.359 1.77366 145.564 1.71358 145.771C1.66834 145.946 1.62311 146.121 1.59244 146.296C1.41232 147.042 1.24568 147.772 1.10819 148.503L1.10566 148.514C1.06099 148.717 1.0166 148.919 0.986229 149.122C0.970132 149.297 0.939466 149.472 0.908939 149.631C0.908661 149.663 0.893827 149.693 0.893537 149.727C0.739247 150.712 0.62866 151.698 0.54721 152.684L0.496426 153.495C0.493783 153.797 0.476446 154.115 0.473804 154.417C0.457717 154.591 0.456176 154.768 0.454797 154.926C0.425223 158.315 0.934692 161.566 2.02789 164.568C2.59538 166.18 3.33743 168.388 4.81994 170.399C6.14029 172.13 6.93468 172.969 8.4462 174.236C37.64 191.162 301.868 186.975 319.025 173.046C321.471 171.061 321.275 169.756 322.365 166.678C323.069 164.686 323.81 161.238 323.915 160.889C324.216 159.892 325.056 155.672 325.629 153.291C325.659 153.116 325.704 152.957 325.75 152.782C325.962 151.877 326.173 150.94 326.37 150.003C326.477 149.463 326.583 148.938 326.69 148.399L326.72 148.287C326.751 148.098 326.796 147.891 326.827 147.684C326.994 146.81 327.147 145.92 327.301 145.015C327.808 141.979 328.199 138.801 328.432 135.524C328.497 134.761 328.532 134.012 328.568 133.249Z" fill="#CCECFA"/>
</mask>
<g mask="url(#mask0_11074:60076)">
<path d="M328.568 133.249C328.618 132.486 328.64 131.706 328.661 130.927C328.791 126.09 328.558 121.06 327.818 115.944C327.53 113.937 327.169 111.929 326.721 109.904C326.385 108.421 326.019 106.937 325.596 105.454C325.511 105.183 325.426 104.911 325.341 104.625C324.365 101.339 323.128 98.0345 321.629 94.7425C321.486 94.4544 321.343 94.1517 321.214 93.8637C320.072 91.4833 318.783 89.1175 317.349 86.765C317.192 86.5246 317.048 86.2856 316.89 86.0452C316.058 84.7179 315.153 83.3886 314.189 82.0748C312.809 80.153 311.283 78.2619 309.641 76.3857C307.38 73.787 305.116 71.4445 302.894 69.3083C301.971 68.4251 301.047 67.5897 300.137 66.7863C299.358 66.0942 298.578 65.4194 297.798 64.7924C297.755 64.7442 297.712 64.712 297.668 64.6797C295.862 63.1992 294.07 61.8635 292.305 60.6542L292.182 60.5722C291.861 60.3586 291.541 60.1455 291.22 59.9449C289.484 58.7996 287.762 57.7819 286.053 56.86C285.676 56.6668 285.315 56.4724 284.938 56.2779C273.264 50.3513 262.404 49.4929 252.794 50.3799C245.354 51.0626 238.646 52.7862 232.889 53.9936C232.509 54.0859 232.145 54.1611 231.766 54.2375C228.021 55.0003 224.685 55.4971 221.835 55.265C217.299 54.8908 213.616 51.8361 209.654 47.3447C209.366 47.0075 209.079 46.6876 208.79 46.3345C206.486 43.6252 204.07 40.4859 201.335 37.1194C200.866 36.5522 200.383 35.9699 199.9 35.3876L199.795 35.2601C198.758 34.0253 197.664 32.7581 196.525 31.4919C196.353 31.3005 196.165 31.1076 195.992 30.9148C195.603 30.4812 195.213 30.0648 194.81 29.6469C194.638 29.4555 194.45 29.2626 194.277 29.0858C192.98 27.7212 191.595 26.3559 190.137 25.0072C183.845 19.1754 175.951 13.5528 165.485 9.21317L165.47 9.19711C161.034 7.36027 156.16 5.75732 150.744 4.4697C144.792 3.04857 138.385 1.9754 131.815 1.31249C130.231 1.15524 128.646 1.02986 127.047 0.920288C125.317 0.793636 123.601 0.714916 121.87 0.652004C120.838 0.627063 119.805 0.602113 118.758 0.59297C116.197 0.570626 113.622 0.611895 111.074 0.73441C110.171 0.774342 109.269 0.830207 108.366 0.886073L108.366 0.886079C97.3174 1.63295 86.664 3.83079 77.652 7.84242C71.3275 10.6518 47.5039 23.2538 40.3464 44.8659C39.7639 46.643 39.2828 48.4847 38.9457 50.3914L38.9454 50.4233C38.5649 52.4253 38.3573 54.5084 38.324 56.6556C38.2742 59.0269 38.4278 61.4625 38.8269 63.9972C39.0341 65.3031 39.298 66.6414 39.6358 67.9976C39.8318 68.7789 40.0145 69.544 40.1828 70.2932C40.7848 72.9558 41.2285 75.3952 41.5149 77.6407C41.5695 78.0556 41.6243 78.4544 41.6647 78.8359C41.8674 80.6518 41.969 82.3565 41.9699 83.9315C41.9961 85.937 41.849 87.7658 41.5721 89.4499C41.4792 90.0693 41.3574 90.6738 41.2357 91.2611C40.6922 93.5803 39.8743 95.625 38.8246 97.5095C38.2475 98.539 37.5989 99.536 36.878 100.485C34.7884 103.283 32.148 105.758 29.1711 108.389C28.2046 109.24 27.1928 110.122 26.1518 111.02C25.6245 111.478 25.0961 111.934 24.5541 112.407C23.4835 113.353 22.3993 114.33 21.2842 115.371C21.0199 115.606 20.7566 115.859 20.4923 116.096C20.3894 116.206 20.2866 116.301 20.1839 116.396L20.1838 116.396C19.7295 116.838 19.274 117.279 18.8195 117.737C16.7938 119.755 14.9131 121.856 13.1923 123.99C11.7662 125.743 10.4564 127.53 9.26164 129.35C9.03331 129.687 8.80599 130.037 8.5776 130.39L8.55414 130.426C7.4769 132.135 6.48692 133.861 5.61335 135.603C5.03627 136.76 4.50182 137.902 4.01215 139.059C3.96761 139.155 3.92293 139.266 3.89296 139.361C3.35848 140.646 2.88241 141.914 2.47796 143.184C2.26938 143.852 2.05974 144.502 1.8938 145.152C1.81916 145.359 1.77366 145.564 1.71358 145.771C1.66834 145.946 1.62311 146.121 1.59244 146.296C1.41232 147.042 1.24568 147.772 1.10819 148.503L1.10566 148.514C1.06099 148.717 1.0166 148.919 0.986229 149.122C0.970132 149.297 0.939466 149.472 0.908939 149.631C0.908661 149.663 0.893827 149.693 0.893537 149.727C0.739247 150.712 0.62866 151.698 0.54721 152.684L0.496426 153.495C0.493783 153.797 0.476446 154.115 0.473804 154.417C0.457717 154.591 0.456176 154.768 0.454797 154.926C0.425223 158.315 0.934692 161.566 2.02789 164.568C2.59538 166.18 3.33743 168.388 4.81994 170.399C6.14029 172.13 6.93468 172.969 8.4462 174.236C37.64 191.162 301.868 186.975 319.025 173.046C321.471 171.061 321.275 169.756 322.365 166.678C323.069 164.686 323.81 161.238 323.915 160.889C324.216 159.892 325.056 155.672 325.629 153.291C325.659 153.116 325.704 152.957 325.75 152.782C325.962 151.877 326.173 150.94 326.37 150.003C326.477 149.463 326.583 148.938 326.69 148.399L326.72 148.287C326.751 148.098 326.796 147.891 326.827 147.684C326.994 146.81 327.147 145.92 327.301 145.015C327.808 141.979 328.199 138.801 328.432 135.524C328.497 134.761 328.532 134.012 328.568 133.249Z" fill="#CCECFA"/>
<path d="M95 40C95 26.7452 105.745 16 119 16H125.663C138.918 16 149.663 26.7452 149.663 40V66.2898C149.663 68.4989 147.873 70.2898 145.663 70.2898H119C105.745 70.2898 95 59.5446 95 46.2898V40Z" fill="url(#paint0_linear_11074:60076)"/>
<path d="M122.273 47.8992C121.592 47.8992 121.055 47.6765 120.662 47.2312C120.295 46.7859 120.112 46.1572 120.112 45.3452C120.112 44.1141 120.347 43.0925 120.819 42.2805C121.29 41.4423 121.945 40.591 122.784 39.7265C123.386 39.0717 123.831 38.5085 124.119 38.037C124.434 37.5655 124.591 37.0416 124.591 36.4654C124.591 35.8891 124.381 35.4307 123.962 35.0902C123.543 34.7496 122.967 34.5794 122.233 34.5794C121.631 34.5794 121.029 34.6973 120.426 34.933C119.85 35.1426 119.195 35.4569 118.462 35.876L117.519 36.3475C116.628 36.8452 115.908 37.094 115.357 37.094C114.703 37.094 114.139 36.819 113.668 36.2689C113.223 35.6926 113 34.9985 113 34.1865C113 33.6364 113.092 33.178 113.275 32.8113C113.485 32.4445 113.812 32.0909 114.257 31.7504C115.436 30.886 116.772 30.218 118.265 29.7465C119.784 29.2488 121.304 29 122.823 29C124.525 29 126.045 29.3012 127.381 29.9037C128.717 30.48 129.764 31.292 130.524 32.3398C131.284 33.3613 131.663 34.527 131.663 35.8367C131.663 36.8059 131.454 37.6965 131.035 38.5085C130.642 39.3205 130.157 40.0147 129.581 40.591C129.005 41.1672 128.258 41.8614 127.341 42.6734C126.477 43.3806 125.809 43.9962 125.337 44.5201C124.892 45.0178 124.604 45.5417 124.473 46.0918C124.368 46.668 124.106 47.1133 123.687 47.4277C123.294 47.742 122.823 47.8992 122.273 47.8992ZM122.351 57.2898C121.277 57.2898 120.374 56.9231 119.64 56.1896C118.933 55.4562 118.579 54.5525 118.579 53.4785C118.579 52.4046 118.933 51.5009 119.64 50.7674C120.374 50.034 121.277 49.6673 122.351 49.6673C123.452 49.6673 124.355 50.034 125.062 50.7674C125.796 51.5009 126.163 52.4046 126.163 53.4785C126.163 54.5525 125.796 55.4562 125.062 56.1896C124.355 56.9231 123.452 57.2898 122.351 57.2898Z" fill="#3C91E6"/>
<path d="M88 34C88 20.7452 98.7452 10 112 10H118.663C131.918 10 142.663 20.7452 142.663 34V60.2898C142.663 62.4989 140.873 64.2898 138.663 64.2898H112C98.7451 64.2898 88 53.5446 88 40.2898V34Z" fill="url(#paint1_linear_11074:60076)"/>
<path d="M115.273 41.8992C114.592 41.8992 114.055 41.6765 113.662 41.2312C113.295 40.7859 113.112 40.1572 113.112 39.3452C113.112 38.1141 113.347 37.0925 113.819 36.2805C114.29 35.4423 114.945 34.591 115.784 33.7265C116.386 33.0717 116.831 32.5085 117.119 32.037C117.434 31.5655 117.591 31.0416 117.591 30.4654C117.591 29.8891 117.381 29.4307 116.962 29.0902C116.543 28.7496 115.967 28.5794 115.233 28.5794C114.631 28.5794 114.029 28.6973 113.426 28.933C112.85 29.1426 112.195 29.4569 111.462 29.876L110.519 30.3475C109.628 30.8452 108.908 31.094 108.357 31.094C107.703 31.094 107.139 30.819 106.668 30.2689C106.223 29.6926 106 28.9985 106 28.1865C106 27.6364 106.092 27.178 106.275 26.8113C106.485 26.4445 106.812 26.0909 107.257 25.7504C108.436 24.886 109.772 24.218 111.265 23.7465C112.784 23.2488 114.304 23 115.823 23C117.525 23 119.045 23.3012 120.381 23.9037C121.717 24.48 122.764 25.292 123.524 26.3398C124.284 27.3613 124.663 28.527 124.663 29.8367C124.663 30.8059 124.454 31.6965 124.035 32.5085C123.642 33.3205 123.157 34.0147 122.581 34.591C122.005 35.1672 121.258 35.8614 120.341 36.6734C119.477 37.3806 118.809 37.9962 118.337 38.5201C117.892 39.0178 117.604 39.5417 117.473 40.0918C117.368 40.668 117.106 41.1133 116.687 41.4277C116.294 41.742 115.823 41.8992 115.273 41.8992ZM115.351 51.2898C114.277 51.2898 113.374 50.9231 112.64 50.1896C111.933 49.4562 111.579 48.5525 111.579 47.4785C111.579 46.4046 111.933 45.5009 112.64 44.7674C113.374 44.034 114.277 43.6673 115.351 43.6673C116.452 43.6673 117.355 44.034 118.062 44.7674C118.796 45.5009 119.163 46.4046 119.163 47.4785C119.163 48.5525 118.796 49.4562 118.062 50.1896C117.355 50.9231 116.452 51.2898 115.351 51.2898Z" fill="#D30000"/>
<path d="M246.06 82.9649V168.501C246.06 172.346 242.983 175.466 239.191 175.466H95.9123C94.2046 175.466 92.6353 174.826 91.4353 173.781C89.9737 172.51 89.043 170.615 89.043 168.501V82.9649C89.043 79.1198 92.1199 76 95.9123 76H239.183C242.975 76 246.06 79.1198 246.06 82.9649Z" fill="url(#paint2_linear_11074:60076)"/>
<path d="M246.052 93.5875H89.043V112.548H246.052V93.5875Z" fill="#D30000"/>
<path d="M231.967 161.812H201.437C199.63 161.812 198.162 160.017 198.162 157.806V149.927C198.162 147.716 199.63 145.921 201.437 145.921H231.967C233.774 145.921 235.241 147.716 235.241 149.927V157.806C235.241 160.017 233.774 161.812 231.967 161.812Z" fill="#F6CCCC"/>
<path d="M109.328 135.034H98.9813C98.5274 135.034 98.1582 134.659 98.1582 134.199V128.716C98.1582 128.256 98.5274 127.882 98.9813 127.882H109.335C109.789 127.882 110.158 128.256 110.158 128.716V134.199C110.151 134.659 109.781 135.034 109.328 135.034Z" fill="#F6CCCC"/>
<path d="M130.458 135.034H120.112C119.658 135.034 119.289 134.659 119.289 134.199V128.716C119.289 128.256 119.658 127.882 120.112 127.882H130.466C130.92 127.882 131.289 128.256 131.289 128.716V134.199C131.281 134.659 130.912 135.034 130.458 135.034Z" fill="#F6CCCC"/>
<path d="M151.589 135.034H141.243C140.789 135.034 140.42 134.659 140.42 134.199V128.716C140.42 128.256 140.789 127.882 141.243 127.882H151.597C152.051 127.882 152.42 128.256 152.42 128.716V134.199C152.412 134.659 152.043 135.034 151.589 135.034Z" fill="#F6CCCC"/>
<path d="M172.73 135.034H162.376C161.922 135.034 161.553 134.659 161.553 134.199V128.716C161.553 128.256 161.922 127.882 162.376 127.882H172.73C173.184 127.882 173.553 128.256 173.553 128.716V134.199C173.553 134.659 173.184 135.034 172.73 135.034Z" fill="#F6CCCC"/>
<path d="M193.861 135.034H183.507C183.053 135.034 182.684 134.659 182.684 134.199V128.716C182.684 128.256 183.053 127.882 183.507 127.882H193.861C194.314 127.882 194.684 128.256 194.684 128.716V134.199C194.684 134.659 194.314 135.034 193.861 135.034Z" fill="#F6CCCC"/>
<path d="M214.99 135.034H204.636C204.182 135.034 203.812 134.659 203.812 134.199V128.716C203.812 128.256 204.182 127.882 204.636 127.882H214.99C215.443 127.882 215.813 128.256 215.813 128.716V134.199C215.813 134.659 215.443 135.034 214.99 135.034Z" fill="#F6CCCC"/>
<path d="M236.12 135.034H225.766C225.313 135.034 224.943 134.659 224.943 134.199V128.716C224.943 128.256 225.313 127.882 225.766 127.882H236.12C236.574 127.882 236.943 128.256 236.943 128.716V134.199C236.943 134.659 236.574 135.034 236.12 135.034Z" fill="#F6CCCC"/>
<path d="M246.052 83.5419H89.043V87.1764H246.052V83.5419Z" fill="#F6CCCC"/>
<path d="M113.958 164.168H103.481C100.535 164.168 98.1504 161.75 98.1504 158.763V148.148C98.1504 145.16 100.535 142.743 103.481 142.743H113.951C116.897 142.743 119.281 145.16 119.281 148.148V158.763C119.289 161.75 116.897 164.168 113.958 164.168Z" fill="#F6CCCC"/>
<path d="M190.911 156.07H126.157C125.149 156.07 124.326 155.244 124.326 154.214V152.015C124.326 150.993 125.142 150.158 126.157 150.158H190.911C191.919 150.158 192.742 150.985 192.742 152.015V154.214C192.734 155.244 191.919 156.07 190.911 156.07Z" fill="#F6CCCC"/>
<path d="M31.4372 149.002C29.8742 149.011 28.3086 149.065 26.7434 149.165C20.4824 149.567 14.326 150.755 9.25797 152.832C4.18998 154.909 0.267285 157.904 -1.24285 161.296C-2.26756 163.598 -2.17812 166.022 -1.41709 168.355C-0.655844 170.687 0.761158 172.94 2.37272 175.136C5.59579 179.528 9.65395 183.808 11.0215 188.488C11.9185 191.558 11.6201 194.698 11.0215 197.791C8.52022 210.712 0.823777 223.444 2.64378 236.4C3.93486 245.591 10.1077 254.517 19.8064 262.006C25.7192 266.572 32.9231 270.601 41.0035 274H296.915C299.247 273.163 301.309 272.082 302.79 270.78C305.311 268.565 306.033 265.824 305.517 263.22C305.002 260.617 303.328 258.125 301.352 255.746C299.376 253.367 297.084 251.069 295.227 248.661C293.37 246.253 291.942 243.701 291.817 241.083C291.672 238.074 293.271 235.088 295.844 232.436C298.416 229.785 301.936 227.446 305.77 225.313C313.438 221.048 322.468 217.519 329.256 212.818C335.399 208.563 339.517 203.425 341.167 198.053C342.816 192.682 341.999 187.088 338.883 181.92C332.652 171.584 316.982 163.215 298.272 159.865C286.232 157.709 273.247 157.542 260.718 158.515C248.188 159.489 236.029 161.568 224.058 163.838C200.115 168.376 175.685 173.787 150.451 172.745C134.747 172.097 119.711 168.955 105.518 165.175C91.3238 161.395 77.7171 156.945 63.3075 153.425C53.2145 150.959 42.3774 148.932 31.4369 149.002L31.4372 149.002Z" fill="#66E0A3"/>
<path d="M31.4372 149.002C29.8742 149.011 28.3086 149.065 26.7434 149.165C20.4824 149.567 14.326 150.755 9.25797 152.832C4.18998 154.909 0.267285 157.904 -1.24285 161.296C-2.26756 163.598 -2.17812 166.022 -1.41709 168.355C-0.655844 170.687 0.761158 172.94 2.37272 175.136C5.59579 179.528 9.65395 183.808 11.0215 188.488C11.9185 191.558 11.6201 194.698 11.0215 197.791C8.52022 210.712 0.823777 223.444 2.64378 236.4C3.93486 245.591 10.1077 254.517 19.8064 262.006C25.7192 266.572 32.9231 270.601 41.0035 274H296.915C299.247 273.163 301.309 272.082 302.79 270.78C305.311 268.565 306.033 265.824 305.517 263.22C305.002 260.617 303.328 258.125 301.352 255.746C299.376 253.367 297.084 251.069 295.227 248.661C293.37 246.253 291.942 243.701 291.817 241.083C291.672 238.074 293.271 235.088 295.844 232.436C298.416 229.785 301.936 227.446 305.77 225.313C313.438 221.048 322.468 217.519 329.256 212.818C335.399 208.563 339.517 203.425 341.167 198.053C342.816 192.682 341.999 187.088 338.883 181.92C332.652 171.584 316.982 163.215 298.272 159.865C286.232 157.709 273.247 157.542 260.718 158.515C248.188 159.489 236.029 161.568 224.058 163.838C200.115 168.376 175.685 173.787 150.451 172.745C134.747 172.097 119.711 168.955 105.518 165.175C91.3238 161.395 77.7171 156.945 63.3075 153.425C53.2145 150.959 42.3774 148.932 31.4369 149.002L31.4372 149.002Z" fill="url(#paint3_linear_11074:60076)"/>
<path d="M224.763 129.623C224.86 128.113 225.765 126.776 227.123 126.128L244.707 117.721C245.834 117.182 247.141 117.182 248.267 117.721L265.852 126.127C267.209 126.776 268.114 128.113 268.211 129.622C269.861 155.286 253.513 164.637 248.154 166.999C247.091 167.468 245.883 167.468 244.821 166.999C239.462 164.637 223.113 155.287 224.763 129.623Z" fill="#3C91E6"/>
<path d="M229.015 130.624C229.035 130.242 229.261 129.9 229.605 129.736L246.044 121.877C246.324 121.743 246.65 121.743 246.931 121.877L263.37 129.736C263.713 129.9 263.94 130.242 263.959 130.624C264.445 140.198 262.248 148.185 257.425 154.376C253.747 159.097 249.446 161.626 246.925 162.806C246.647 162.936 246.327 162.936 246.05 162.806C243.529 161.626 239.227 159.097 235.549 154.376C230.726 148.185 228.529 140.198 229.015 130.624Z" fill="#8ABDF0"/>
<path d="M252.149 141.263H250.999V137.812C250.999 135.282 248.928 133.211 246.398 133.211C243.867 133.211 241.797 135.282 241.797 137.812V141.263H240.646C240.071 141.263 239.496 141.838 239.496 142.413V150.465C239.496 151.04 240.071 151.615 240.646 151.615H252.149C252.724 151.615 253.299 151.04 253.299 150.465V142.413C253.299 141.838 252.724 141.263 252.149 141.263ZM247.548 149.315H245.247L245.707 146.784C245.132 146.554 244.672 145.864 244.672 145.289C244.672 144.369 245.477 143.564 246.398 143.564C247.318 143.564 248.123 144.369 248.123 145.289C248.123 145.979 247.778 146.554 247.088 146.784L247.548 149.315ZM248.698 141.263H244.097V137.812C244.097 136.547 245.132 135.512 246.398 135.512C247.663 135.512 248.698 136.547 248.698 137.812V141.263Z" fill="white"/>
<path d="M89.6229 160.768V156.978C89.6229 156.978 89.6229 156.978 89.6229 156.915L89.5621 149.968L89.5014 145.989L89.4407 139.294C89.3799 133.547 80.756 128.873 70.1279 128.999C59.4997 129.062 50.9365 133.862 50.9972 139.673L51.058 146.62L51.1187 151.926V155.652V161.084L51.1794 168.094C51.2402 173.905 59.8641 177.062 70.4922 176.999C81.1204 176.873 89.6836 173.526 89.6836 167.778L89.6229 160.768Z" fill="url(#paint4_linear_11074:60076)"/>
<path d="M70.2763 149.966C59.6436 150.06 50.9846 145.443 50.9358 139.652C50.887 133.862 59.4668 129.092 70.0995 128.998C80.7321 128.904 89.3911 133.521 89.44 139.311C89.4888 145.102 80.9089 149.872 70.2763 149.966Z" fill="#FFB82B"/>
<path d="M70.3147 149.463C80.7606 149.4 89.1417 144.789 89.3846 139.105C89.3846 139.168 89.4453 139.231 89.4453 139.358C89.4453 145.168 80.8821 149.905 70.3147 149.968C59.6866 150.095 51.0626 145.421 51.0019 139.674C51.0019 139.547 51.0626 139.484 51.0626 139.421C51.3055 145.105 59.808 149.589 70.3147 149.463Z" fill="#F5D5A4"/>
<path d="M70.1325 129.631C59.7473 129.694 51.3056 134.304 51.0626 139.989C51.0626 139.862 51.0019 139.799 51.0019 139.736C50.9412 133.925 59.5044 129.125 70.1325 129.062C80.7606 128.873 89.3846 133.546 89.4453 139.357C89.4453 139.483 89.3846 139.546 89.3846 139.673C89.0809 133.989 80.5784 129.504 70.1325 129.631Z" fill="#FFB82B"/>
<path d="M54.948 139.61C55.0088 144.221 61.8108 147.884 70.2525 147.821C78.6335 147.758 85.4355 143.968 85.4355 139.358C85.3748 134.747 78.5728 131.084 70.1311 131.147C61.75 131.273 54.948 135.063 54.948 139.61Z" fill="url(#paint5_linear_11074:60076)"/>
<path d="M70.1311 131.653C61.8715 131.716 55.191 135.379 55.0088 139.863C55.0088 139.8 54.948 139.737 54.948 139.674C54.8873 135.063 61.6893 131.274 70.1311 131.21C78.5728 131.147 85.3748 134.81 85.4355 139.421C85.4355 139.484 85.3748 139.547 85.3748 139.674C85.1319 135.126 78.3906 131.526 70.1311 131.653Z" fill="#F5D5A4"/>
<path d="M70.2521 147.379C78.5724 147.316 85.2529 143.653 85.3744 139.168C85.3744 139.231 85.4351 139.295 85.4351 139.421C85.4959 144.031 78.6939 147.758 70.2521 147.884C61.8104 147.947 55.0084 144.284 54.9476 139.674C54.9476 139.61 55.0084 139.547 55.0084 139.484C55.2513 143.905 61.9926 147.442 70.2521 147.379Z" fill="#F5D5A4"/>
<path d="M70.2524 145.737C74.3214 145.674 78.0261 144.411 79.9695 142.39C80.8198 141.505 81.3056 140.432 81.2449 139.421C81.2449 135.948 76.4471 133.232 70.3131 133.232C63.9363 133.295 59.0777 136.074 59.0777 139.611C59.0777 143.084 63.9363 145.8 70.0095 145.8H70.2524V145.737Z" fill="#F5D5A4"/>
<path d="M70.2334 145.233C64.3637 145.286 59.5838 142.755 59.5574 139.581C59.5309 136.407 64.2678 133.791 70.1375 133.738C76.0073 133.685 80.7871 136.215 80.8136 139.389C80.8401 142.564 76.1032 145.18 70.2334 145.233Z" fill="#FFD336"/>
<path d="M65.1758 141.544H66.6156V139.448H67.3545L68.4423 141.544H70.0131L68.7768 139.212C69.4313 138.907 69.8095 138.306 69.8095 137.46C69.8095 136.201 68.9746 135.421 67.6366 135.421H65.1758V141.544ZM66.6156 138.282V136.614H67.3254C67.9711 136.614 68.3173 136.892 68.3173 137.46C68.3173 138.028 67.9711 138.282 67.3254 138.282H66.6156Z" fill="white"/>
<path d="M70.5992 143.267H72.0216V140.8H72.0507C72.231 141.224 72.6324 141.61 73.3073 141.61C74.2962 141.61 75.0933 140.815 75.0933 139.251C75.0933 137.63 74.2497 136.892 73.316 136.892C72.6092 136.892 72.2223 137.316 72.0507 137.738H72.007V136.952H70.5992V143.267ZM71.9925 139.248C71.9925 138.497 72.295 138.034 72.8157 138.034C73.3422 138.034 73.633 138.509 73.633 139.248C73.633 139.99 73.3422 140.471 72.8157 140.471C72.295 140.471 71.9925 139.993 71.9925 139.248Z" fill="white"/>
<path d="M59.6172 139.863C59.9816 142.579 64.5365 144.726 70.2453 144.663C75.8934 144.663 80.4483 142.452 80.752 139.673C80.4483 142.705 75.8934 145.168 70.2453 145.231C64.5972 145.358 59.9208 142.958 59.6172 139.863Z" fill="#F5D5A4"/>
<path d="M70.1238 134.179C64.415 134.242 59.7994 136.769 59.6172 139.8C59.6172 139.737 59.5564 139.674 59.5564 139.611C59.5564 136.39 64.2328 133.8 70.1238 133.737C75.9541 133.674 80.752 136.263 80.752 139.421C80.752 139.484 80.6912 139.548 80.6912 139.674C80.509 136.579 75.8934 134.116 70.1238 134.179Z" fill="#FFB82B"/>
<path d="M70.4315 171.442C81.0596 171.379 89.6229 166.579 89.6229 160.769L89.6836 167.779C89.6836 173.526 81.1204 176.874 70.4922 177C59.8641 177.126 51.2402 173.905 51.1794 168.095L51.1187 161.084C51.1794 166.895 59.8641 171.569 70.4315 171.442Z" fill="url(#paint6_linear_11074:60076)"/>
<path d="M51.1812 167.337C51.242 173.147 59.8659 176.558 70.4941 176.495C81.1222 176.431 89.6854 172.831 89.6247 167.084V167.779C89.6854 173.526 81.1222 176.873 70.4941 177C59.8659 177.126 51.242 173.905 51.1812 168.095L51.1205 161.084L51.1812 167.337Z" fill="#F5D5A4"/>
<path d="M70.4333 165.947C81.0615 165.821 89.6247 161.084 89.5639 155.274L89.6247 160.769C89.6854 166.579 81.1222 171.379 70.4941 171.442C59.8659 171.569 51.1812 166.895 51.1205 161.084V162.537V155.59C51.1812 161.4 59.8052 166.011 70.4333 165.947Z" fill="#E66409"/>
<path d="M70.3728 160.642C81.0009 160.516 89.5641 155.779 89.5034 149.968L89.5641 156.916V155.21C89.6249 161.021 81.0616 165.821 70.4335 165.884C59.8054 165.947 51.1814 161.337 51.1207 155.526V157.168L51.06 150.221C51.1207 156.094 59.7447 160.705 70.3728 160.642Z" fill="url(#paint7_linear_11074:60076)"/>
<path d="M70.3126 155.337C80.9407 155.21 89.5039 150.41 89.4432 144.6L89.5039 149.968C89.5039 155.779 81.0014 160.516 70.3733 160.642C59.7452 160.768 51.1212 156.095 51.0605 150.284V151.989L50.9998 144.979C51.0605 150.789 59.6844 155.4 70.3126 155.337Z" fill="#FF700A"/>
<path d="M70.3144 149.968C80.8818 149.905 89.445 145.168 89.445 139.358V144.6C89.5057 150.411 80.9425 155.211 70.3144 155.274C59.6863 155.4 51.0623 150.726 51.0016 144.916V146.621L50.9408 139.674C51.0016 145.484 59.6863 150.095 70.3144 149.968Z" fill="url(#paint8_linear_11074:60076)"/>
<path d="M51.1205 160.579C51.242 166.326 59.8659 170.937 70.4333 170.811C81.0615 170.747 89.6247 165.947 89.5639 160.137L89.5032 155.337V155.274L89.6247 160.769C89.6854 166.579 81.1222 171.379 70.4941 171.442C59.8659 171.569 51.1812 166.895 51.1205 161.084V162.537V160.579Z" fill="#F5D5A4"/>
<path d="M89.5042 150.031V149.968L89.5645 156.916V156.979V155.273V155.337L89.5042 150.031Z" fill="#F5D5A4"/>
<path d="M70.373 165.315C81.0011 165.189 89.5643 160.452 89.5036 154.642V155.336C89.4429 161.084 80.9404 165.821 70.373 165.947C59.7448 166.01 51.1209 161.4 51.0601 155.589V157.231V155.021C51.2423 160.831 59.8056 165.442 70.373 165.315Z" fill="#F5D5A4"/>
<path d="M70.3733 160.01C80.9407 159.884 89.5039 155.147 89.5039 149.337L89.4432 144.663V144.6L89.5039 149.968C89.5039 155.779 81.0014 160.516 70.3733 160.642C59.7452 160.768 51.1212 156.095 51.0605 150.284V151.989V149.779C51.1819 155.526 59.8059 160.074 70.3733 160.01Z" fill="#F5D5A4"/>
<path d="M70.3144 154.705C80.9425 154.579 89.5057 149.842 89.445 144.032L89.3843 139.421C89.3843 139.358 89.3843 139.358 89.3843 139.358L89.445 144.6C89.5057 150.411 80.9425 155.211 70.3144 155.274C59.6863 155.4 51.0623 150.726 51.0016 144.916V146.621V144.411C51.123 150.221 59.747 154.768 70.3144 154.705Z" fill="#F5D5A4"/>
<path d="M104.626 149.021C115.072 148.894 123.575 153.694 123.878 159.758C123.878 159.821 123.939 159.947 123.939 160.01L124 165.631C124.06 171.821 115.497 176.873 104.869 177C94.2409 177.063 85.617 172.137 85.5563 166.01V167.842L85.4955 160.452C85.4955 154.2 94.0587 149.084 104.626 149.021Z" fill="url(#paint9_linear_11074:60076)"/>
<path d="M85.4977 160.327C85.5584 166.516 94.1824 171.442 104.81 171.316C115.439 171.253 124.002 166.137 123.941 160.011C123.88 153.821 115.256 148.895 104.628 149.021C94.0609 149.084 85.4977 154.2 85.4977 160.327Z" fill="#FFB82B"/>
<path d="M104.809 170.747C115.255 170.684 123.696 165.758 123.939 159.695C123.939 159.758 124 159.884 124 159.947C124 166.137 115.437 171.252 104.809 171.316C94.1805 171.442 85.5566 166.516 85.4958 160.326C85.4958 160.263 85.5566 160.137 85.5566 160.01C85.8602 166.137 94.3627 170.874 104.809 170.747Z" fill="#F5D5A4"/>
<path d="M104.629 149.653C94.2434 149.779 85.8016 154.642 85.5587 160.642C85.5587 160.516 85.498 160.453 85.498 160.39C85.4372 154.2 94.0005 149.148 104.629 149.021C115.257 148.895 123.941 153.821 123.941 160.011C123.941 160.137 123.881 160.263 123.881 160.39C123.577 154.327 115.075 149.527 104.629 149.653Z" fill="#FFB82B"/>
<path d="M89.5027 160.326C89.5634 165.19 96.3654 169.105 104.807 169.042C113.249 168.979 119.99 164.937 119.99 160.074C119.93 155.147 113.067 151.232 104.686 151.358C96.244 151.421 89.442 155.4 89.5027 160.326Z" fill="url(#paint10_linear_11074:60076)"/>
<path d="M104.807 168.537C113.066 168.474 119.747 164.558 119.929 159.821C119.929 159.884 119.99 159.947 119.99 160.074C120.051 165 113.249 168.979 104.807 169.042C96.365 169.105 89.563 165.253 89.5023 160.326C89.5023 160.263 89.563 160.2 89.563 160.137C89.806 164.874 96.5472 168.663 104.807 168.537Z" fill="#F5D5A4"/>
<path d="M104.81 166.832C108.879 166.768 112.584 165.442 114.527 163.295C115.378 162.284 115.803 161.211 115.803 160.074C115.803 156.411 111.005 153.505 104.871 153.505C98.4941 153.568 93.6355 156.537 93.6355 160.263C93.6962 163.926 98.4941 166.832 104.567 166.832H104.81Z" fill="#F5D5A4"/>
<path d="M104.8 166.328C98.9303 166.384 94.1473 163.658 94.117 160.24C94.0867 156.822 98.8205 154.005 104.69 153.949C110.56 153.892 115.343 156.618 115.373 160.036C115.404 163.455 110.67 166.271 104.8 166.328Z" fill="#FFD336"/>
<path d="M99.3594 162.528H100.923V160.252H101.725L102.907 162.528H104.612L103.27 159.995C103.981 159.664 104.391 159.012 104.391 158.093C104.391 156.726 103.485 155.878 102.032 155.878H99.3594V162.528ZM100.923 158.986V157.174H101.694C102.395 157.174 102.771 157.476 102.771 158.093C102.771 158.71 102.395 158.986 101.694 158.986H100.923Z" fill="white"/>
<path d="M105.249 164.398H106.793V161.72H106.825C107.021 162.181 107.457 162.599 108.189 162.599C109.263 162.599 110.129 161.736 110.129 160.038C110.129 158.278 109.213 157.476 108.199 157.476C107.431 157.476 107.011 157.937 106.825 158.395H106.778V157.541H105.249V164.398ZM106.762 160.034C106.762 159.219 107.09 158.716 107.656 158.716C108.227 158.716 108.543 159.232 108.543 160.034C108.543 160.84 108.227 161.362 107.656 161.362C107.09 161.362 106.762 160.843 106.762 160.034Z" fill="white"/>
<path d="M94.1838 160.579C94.5482 163.484 99.1031 165.758 104.812 165.695C110.399 165.631 114.954 163.295 115.258 160.389C114.954 163.673 110.399 166.263 104.751 166.326C99.1031 166.389 94.4874 163.863 94.1838 160.579Z" fill="#F5D5A4"/>
<path d="M104.688 154.516C98.9795 154.579 94.3638 157.232 94.1816 160.516C94.1816 160.453 94.1209 160.389 94.1209 160.263C94.1209 156.853 98.7973 154.074 104.688 154.01C110.519 153.947 115.316 156.663 115.316 160.074C115.316 160.137 115.256 160.263 115.256 160.326C115.073 157.042 110.397 154.453 104.688 154.516Z" fill="#FFB82B"/>
<path d="M104.808 171.316C115.436 171.253 124 166.137 123.939 160.011L124 165.632C124.06 171.821 115.497 176.874 104.869 177C94.2409 177.063 85.617 172.137 85.5563 166.011V167.842L85.4955 160.453C85.5563 166.516 94.1802 171.442 104.808 171.316Z" fill="url(#paint11_linear_11074:60076)"/>
<path d="M104.869 176.305C115.436 176.242 124 171.19 124 164.937L123.939 160.074C123.939 160.011 123.939 160.011 123.939 160.011L124 165.632C124.06 171.821 115.497 176.874 104.869 177C94.2409 177.063 85.617 172.137 85.5563 166.011V167.842V165.505C85.6777 171.569 94.3017 176.432 104.869 176.305Z" fill="#F5D5A4"/>
</g>
<defs>
<linearGradient id="paint0_linear_11074:60076" x1="22.7367" y1="-50.8394" x2="157.987" y2="58.0579" gradientUnits="userSpaceOnUse">
<stop stop-color="#2C5AA0"/>
<stop offset="1" stop-color="#2C5AA0" stop-opacity="0"/>
</linearGradient>
<linearGradient id="paint1_linear_11074:60076" x1="178.227" y1="110.899" x2="108.81" y2="18.1353" gradientUnits="userSpaceOnUse">
<stop stop-color="#EBF4FC"/>
<stop offset="1" stop-color="#EEFDFF"/>
</linearGradient>
<linearGradient id="paint2_linear_11074:60076" x1="203.766" y1="175.51" x2="221.311" y2="34.8161" gradientUnits="userSpaceOnUse">
<stop stop-color="#D30000"/>
<stop offset="1" stop-color="#F59D9D"/>
</linearGradient>
<linearGradient id="paint3_linear_11074:60076" x1="170" y1="274" x2="170" y2="149" gradientUnits="userSpaceOnUse">
<stop stop-color="#00B59C"/>
<stop offset="1" stop-color="#9CFFAC"/>
</linearGradient>
<linearGradient id="paint4_linear_11074:60076" x1="70.3192" y1="176.977" x2="70.3192" y2="128.999" gradientUnits="userSpaceOnUse">
<stop stop-color="#FF7B00"/>
<stop offset="1" stop-color="#FFBD14"/>
</linearGradient>
<linearGradient id="paint5_linear_11074:60076" x1="70.207" y1="147.815" x2="70.207" y2="131.179" gradientUnits="userSpaceOnUse">
<stop stop-color="#FF7B00"/>
<stop offset="0.0242" stop-color="#FF7D01"/>
<stop offset="0.6742" stop-color="#FFAB0F"/>
<stop offset="1" stop-color="#FFBD14"/>
</linearGradient>
<linearGradient id="paint6_linear_11074:60076" x1="70.4024" y1="176.977" x2="70.4024" y2="160.766" gradientUnits="userSpaceOnUse">
<stop stop-color="#FF7B00"/>
<stop offset="1" stop-color="#FFBD14"/>
</linearGradient>
<linearGradient id="paint7_linear_11074:60076" x1="70.32" y1="165.929" x2="70.32" y2="149.947" gradientUnits="userSpaceOnUse">
<stop stop-color="#FF7B00"/>
<stop offset="1" stop-color="#FFBD14"/>
</linearGradient>
<linearGradient id="paint8_linear_11074:60076" x1="70.2245" y1="155.31" x2="70.2245" y2="139.327" gradientUnits="userSpaceOnUse">
<stop stop-color="#FF7B00"/>
<stop offset="1" stop-color="#FFBD14"/>
</linearGradient>
<linearGradient id="paint9_linear_11074:60076" x1="124" y1="162.989" x2="85.5107" y2="162.989" gradientUnits="userSpaceOnUse">
<stop stop-color="#DD3F18"/>
<stop offset="0.4157" stop-color="#E74A1B"/>
<stop offset="1" stop-color="#FD6120"/>
</linearGradient>
<linearGradient id="paint10_linear_11074:60076" x1="104.739" y1="169.014" x2="104.739" y2="151.328" gradientUnits="userSpaceOnUse">
<stop stop-color="#FF7B00"/>
<stop offset="0.0242" stop-color="#FF7D01"/>
<stop offset="0.6742" stop-color="#FFAB0F"/>
<stop offset="1" stop-color="#FFBD14"/>
</linearGradient>
<linearGradient id="paint11_linear_11074:60076" x1="104.755" y1="176.983" x2="104.755" y2="159.995" gradientUnits="userSpaceOnUse">
<stop stop-color="#FF7B00"/>
<stop offset="1" stop-color="#FFBD14"/>
</linearGradient>
</defs>
</svg>
