<svg width="56" height="56" viewBox="0 0 56 56" fill="none" xmlns="http://www.w3.org/2000/svg">
<rect width="56" height="56" rx="8" fill="#CCECFA"/>
<mask id="mask0" style="mask-type:alpha" maskUnits="userSpaceOnUse" x="0" y="0" width="56" height="56">
<rect width="56" height="56" rx="8" fill="#CCECFA"/>
</mask>
<g mask="url(#mask0)">
<path d="M9.51669 8.92017H46.4857C46.8258 8.92017 47.1016 9.19591 47.1016 9.53604V46.505C47.1016 46.8451 46.8258 47.1209 46.4857 47.1209H9.51669C9.17656 47.1209 8.90083 46.8451 8.90083 46.505V9.53604C8.90083 9.19591 9.17656 8.92017 9.51669 8.92017Z" fill="url(#paint0_radial)"/>
<path d="M23.7006 15.9319H32.2988V47.0177H23.7006V15.9319Z" fill="url(#paint1_linear)"/>
<path d="M47.1016 18.8408V24.7687H8.90084V18.8408H47.1016Z" fill="url(#paint2_linear)"/>
<path d="M8.05217 8.92017H47.9486C48.2887 8.92017 48.5645 9.19591 48.5645 9.53604V20.3479C48.5645 20.688 48.2887 20.9638 47.9486 20.9638H8.05217C7.71205 20.9638 7.43631 20.688 7.43631 20.3479V9.53604C7.43631 9.19591 7.71205 8.92017 8.05217 8.92017Z" fill="#DEAA87"/>
<path d="M8.05217 8.92017H47.9486C48.2887 8.92017 48.5645 9.19591 48.5645 9.53604V20.3479C48.5645 20.688 48.2887 20.9638 47.9486 20.9638H8.05217C7.71205 20.9638 7.43631 20.688 7.43631 20.3479V9.53604C7.43631 9.19591 7.71205 8.92017 8.05217 8.92017Z" fill="url(#paint3_radial)"/>
<path d="M23.6751 8.87915H32.3242V20.988H23.6751V8.87915Z" fill="#F4E3D7"/>
<path d="M23.6751 8.87915H32.3242V20.988H23.6751V8.87915Z" fill="url(#paint4_linear)"/>
<rect x="7.93945" y="37.9061" width="9.16365" height="7.49153" fill="white"/>
<path d="M19.6367 42.0264C19.6367 43.8829 18.8992 45.6634 17.5865 46.9761C16.2737 48.2889 14.4932 49.0264 12.6367 49.0264C10.7802 49.0264 8.99973 48.2889 7.68697 46.9761C6.37422 45.6634 5.63672 43.8829 5.63672 42.0264C5.63672 40.1699 6.37422 38.3894 7.68697 37.0766C8.99973 35.7639 10.7802 35.0264 12.6367 35.0264C14.4932 35.0264 16.2737 35.7639 17.5865 37.0766C18.8992 38.3894 19.6367 40.1699 19.6367 42.0264ZM16.163 39.3751C16.1005 39.3128 16.026 39.2638 15.9442 39.2309C15.8623 39.1981 15.7746 39.1821 15.6864 39.1839C15.5982 39.1856 15.5112 39.2052 15.4307 39.2414C15.3502 39.2776 15.2779 39.3296 15.218 39.3944L12.1791 43.2662L10.3477 41.434C10.2233 41.3181 10.0588 41.255 9.88876 41.258C9.71875 41.261 9.55654 41.3298 9.4363 41.4501C9.31606 41.5703 9.24719 41.7325 9.24419 41.9025C9.24119 42.0725 9.3043 42.2371 9.42022 42.3615L11.7355 44.6776C11.7978 44.7399 11.8721 44.7889 11.9539 44.8219C12.0356 44.8548 12.1231 44.8709 12.2112 44.8693C12.2994 44.8677 12.3862 44.8483 12.4667 44.8124C12.5472 44.7764 12.6196 44.7246 12.6796 44.6601L16.1726 40.2939C16.2917 40.1701 16.3575 40.0045 16.3558 39.8327C16.3542 39.6609 16.2853 39.4966 16.1638 39.3751H16.163Z" fill="#3C91E6"/>
<path d="M47.5639 29.2293C47.0599 29.3169 46.7544 30.2319 46.7011 31.2413C46.6301 32.587 47.0081 34.1005 44.8581 35.0089C42.7082 35.9172 37.9661 36.2243 35.6563 36.8514C33.3467 37.4785 33.4364 38.4283 35.3742 40.1254C37.2555 41.7731 40.8749 44.1202 43.9196 45.3541C45.6746 49.5463 48.4854 53.2567 52.0847 56.0737C56.5718 59.5855 62.1101 61.5788 67.8059 61.7312C74.8408 61.9193 81.7448 59.2755 86.8544 54.4365C91.9641 49.5974 94.9791 42.8474 95.1736 35.8127L85.5906 35.5467C85.4688 39.9529 83.4607 44.444 80.2603 47.475C77.0599 50.5059 72.4669 52.2653 68.0606 52.1475C64.4669 52.0514 60.8234 50.7407 57.9924 48.525C55.1614 46.3093 53.0122 43.0858 52.0554 39.6205C51.5498 36.7143 50.2253 31.4064 48.132 29.4451C47.922 29.2633 47.7319 29.2 47.5639 29.2292L47.5639 29.2293Z" fill="#FFCCAA"/>
<path d="M36.9285 37.8204C35.6884 38.4008 35.9788 39.2385 37.5029 40.5736C39.2558 42.1087 42.6279 44.2955 45.4646 45.4451C47.0997 49.3509 49.7185 52.8079 53.0718 55.4324C57.2523 58.7043 62.4123 60.5614 67.719 60.7033C74.2733 60.8786 80.7056 58.4155 85.4661 53.907C90.2267 49.3986 93.0357 43.1097 93.2169 36.5556L92.4263 36.5339C91.6519 42.087 89.0049 47.2878 84.9069 51.1688C80.1464 55.6772 73.7141 58.1404 67.1598 57.9651C61.8531 57.8231 56.6931 55.966 52.5126 52.6941C49.1593 50.0696 46.5405 46.6127 44.9054 42.7069C42.0687 41.5573 38.6966 39.3705 36.9438 37.8354C36.9382 37.8304 36.934 37.8251 36.9285 37.8203L36.9285 37.8204Z" fill="url(#paint5_linear)"/>
</g>
<defs>
<radialGradient id="paint0_radial" cx="0" cy="0" r="1" gradientUnits="userSpaceOnUse" gradientTransform="translate(38.2971 6.54853) rotate(94.4952) scale(56.2017 82.7064)">
<stop stop-color="#FFE18C"/>
<stop offset="0.692708" stop-color="#E7BE66"/>
<stop offset="1" stop-color="#FFE18C"/>
</radialGradient>
<linearGradient id="paint1_linear" x1="31.9893" y1="52.7168" x2="14.4056" y2="27.7407" gradientUnits="userSpaceOnUse">
<stop stop-color="#FFFFFD"/>
<stop offset="1" stop-color="#FAF6EA"/>
</linearGradient>
<linearGradient id="paint2_linear" x1="28.0012" y1="18.8408" x2="28.0012" y2="24.7687" gradientUnits="userSpaceOnUse">
<stop stop-color="#CCA35B"/>
<stop offset="1" stop-color="#CCA35B" stop-opacity="0"/>
</linearGradient>
<radialGradient id="paint3_radial" cx="0" cy="0" r="1" gradientUnits="userSpaceOnUse" gradientTransform="translate(39.0853 8.17246) rotate(97.2785) scale(22.8264 107.661)">
<stop stop-color="#FFE18C"/>
<stop offset="0.692708" stop-color="#E7BE66"/>
<stop offset="1" stop-color="#FFE18C"/>
</radialGradient>
<linearGradient id="paint4_linear" x1="32.0128" y1="23.2079" x2="28.3203" y2="9.66358" gradientUnits="userSpaceOnUse">
<stop stop-color="#FFFFFD"/>
<stop offset="1" stop-color="#FAF6EA"/>
</linearGradient>
<linearGradient id="paint5_linear" x1="40.32" y1="51.0895" x2="46.2027" y2="40.8491" gradientUnits="userSpaceOnUse">
<stop stop-color="#FFAAAA"/>
<stop offset="1" stop-color="#FFAAAA" stop-opacity="0"/>
</linearGradient>
</defs>
</svg>
