<svg width="329" height="185" viewBox="0 0 329 185" fill="none" xmlns="http://www.w3.org/2000/svg">
<mask id="mask0_11217:25573" style="mask-type:alpha" maskUnits="userSpaceOnUse" x="0" y="0" width="329" height="185">
<path d="M328.758 132.677C328.808 131.913 328.829 131.134 328.851 130.355C328.98 125.518 328.747 120.488 328.008 115.371C327.719 113.365 327.358 111.356 326.911 109.331C326.574 107.849 326.208 106.365 325.785 104.882C325.7 104.61 325.615 104.339 325.53 104.052C324.555 100.766 323.317 97.4621 321.819 94.1702C321.676 93.8821 321.533 93.5793 321.404 93.2914C320.262 90.9109 318.972 88.5451 317.538 86.1926C317.381 85.9522 317.238 85.7132 317.08 85.4728C316.247 84.1455 315.342 82.8162 314.379 81.5024C312.998 79.5807 311.473 77.6896 309.831 75.8134C307.57 73.2146 305.305 70.8722 303.084 68.7359C302.16 67.8527 301.236 67.0173 300.327 66.2139C299.547 65.5218 298.768 64.847 297.988 64.22C297.944 64.1719 297.901 64.1396 297.858 64.1074C296.052 62.6268 294.259 61.2911 292.495 60.0818L292.372 59.9998C292.051 59.7862 291.731 59.5731 291.41 59.3725C289.674 58.2272 287.951 57.2095 286.243 56.2876C285.865 56.0944 285.504 55.9 285.127 55.7055C273.453 49.7789 262.593 48.9206 252.983 49.8075C245.543 50.4902 238.835 52.2139 233.078 53.4213C232.699 53.5136 232.335 53.5887 231.955 53.6651C228.211 54.4279 224.875 54.9247 222.025 54.6926C217.489 54.3184 213.805 51.2637 209.844 46.7723C209.555 46.4352 209.268 46.1152 208.98 45.7621C206.676 43.0528 204.259 39.9135 201.524 36.5471C201.055 35.9798 200.572 35.3975 200.09 34.8152L199.984 34.6877C198.947 33.4529 197.853 32.1857 196.715 30.9195C196.543 30.7281 196.355 30.5352 196.182 30.3425C195.792 29.9088 195.402 29.4924 194.999 29.0745C194.827 28.8831 194.64 28.6902 194.466 28.5134C193.169 27.1489 191.784 25.7835 190.327 24.4348C184.034 18.6031 176.14 12.9804 165.674 8.6408L165.66 8.62474C161.223 6.7879 156.35 5.18495 150.934 3.89732C144.981 2.4762 138.574 1.40303 132.004 0.74012C130.42 0.58287 128.836 0.457489 127.237 0.347916C125.506 0.221264 123.79 0.142544 122.06 0.0796312C121.028 0.054691 119.995 0.0297402 118.947 0.0205973C116.387 -0.00174638 113.811 0.0395225 111.263 0.162038C110.361 0.201969 109.458 0.257835 108.556 0.313701L108.556 0.313707C97.5069 1.06057 86.8534 3.25842 77.8414 7.27005C71.517 10.0794 47.6933 22.6815 40.5358 44.2935C39.9534 46.0706 39.4723 47.9123 39.1351 49.8191L39.1348 49.8509C38.7544 51.8529 38.5468 53.9361 38.5135 56.0832C38.4636 58.4546 38.6172 60.8902 39.0164 63.4248C39.2235 64.7307 39.4874 66.069 39.8253 67.4252C40.0212 68.2065 40.2039 68.9717 40.3722 69.7208C40.9742 72.3834 41.418 74.8229 41.7043 77.0684C41.759 77.4832 41.8138 77.8821 41.8541 78.2636C42.0568 80.0794 42.1585 81.7841 42.1593 83.3592C42.1855 85.3647 42.0384 87.1934 41.7615 88.8775C41.6687 89.4969 41.5469 90.1014 41.4252 90.6887C40.8817 93.008 40.0637 95.0526 39.0141 96.9372C38.4369 97.9667 37.7884 98.9637 37.0674 99.9122C34.9778 102.711 32.3374 105.186 29.3606 107.817C28.394 108.668 27.3823 109.55 26.3413 110.448C25.814 110.906 25.2855 111.362 24.7435 111.835C23.673 112.781 22.5887 113.758 21.4736 114.799C21.2093 115.034 20.9461 115.287 20.6818 115.523C20.5789 115.634 20.4761 115.729 20.3733 115.823L20.3732 115.823C19.9189 116.266 19.4634 116.707 19.009 117.165C16.9833 119.183 15.1025 121.283 13.3818 123.417C11.9557 125.171 10.6459 126.958 9.45109 128.777C9.22276 129.114 8.99544 129.465 8.76706 129.817L8.74359 129.853C7.66635 131.562 6.67637 133.288 5.8028 135.031C5.22572 136.188 4.69127 137.329 4.2016 138.487C4.15706 138.582 4.11239 138.693 4.08242 138.789C3.54793 140.074 3.07187 141.342 2.66742 142.612C2.45884 143.279 2.24919 143.929 2.08326 144.58C2.00861 144.787 1.96311 144.992 1.90303 145.199C1.8578 145.374 1.81256 145.548 1.7819 145.723C1.60177 146.47 1.43514 147.2 1.29764 147.93L1.29511 147.942C1.25045 148.145 1.20605 148.346 1.17568 148.549C1.15958 148.725 1.12892 148.9 1.09839 149.059C1.09811 149.091 1.08328 149.121 1.08299 149.154C0.9287 150.14 0.818113 151.125 0.736663 152.111L0.685879 152.922C0.683237 153.225 0.665899 153.542 0.663257 153.845C0.647171 154.019 0.645629 154.196 0.64425 154.354C0.614676 157.742 1.12414 160.994 2.21734 163.995C2.78483 165.607 3.52688 167.816 5.00939 169.827C6.32975 171.557 7.12414 172.396 8.63566 173.664C37.8295 190.589 302.057 186.403 319.215 172.474C321.66 170.488 321.465 169.184 322.554 166.105C323.259 164.114 324 160.665 324.105 160.317C324.405 159.32 325.245 155.1 325.818 152.719C325.849 152.544 325.894 152.385 325.939 152.21C326.151 151.304 326.362 150.367 326.56 149.43C326.666 148.891 326.773 148.366 326.88 147.826L326.91 147.715C326.94 147.525 326.986 147.318 327.017 147.112C327.183 146.238 327.337 145.348 327.491 144.442C327.998 141.407 328.389 138.228 328.621 134.952C328.686 134.189 328.722 133.44 328.758 132.677Z" fill="#CCECFA"/>
</mask>
<g mask="url(#mask0_11217:25573)">
<path d="M328.568 133.249C328.618 132.486 328.64 131.706 328.661 130.927C328.791 126.09 328.558 121.06 327.818 115.944C327.53 113.937 327.169 111.929 326.721 109.904C326.385 108.421 326.019 106.937 325.596 105.454C325.511 105.183 325.426 104.911 325.341 104.625C324.365 101.339 323.128 98.0344 321.629 94.7425C321.486 94.4544 321.343 94.1517 321.214 93.8637C320.072 91.4832 318.783 89.1174 317.349 86.7649C317.192 86.5245 317.048 86.2856 316.89 86.0451C316.058 84.7178 315.153 83.3886 314.189 82.0747C312.809 80.153 311.283 78.2619 309.641 76.3857C307.38 73.7869 305.116 71.4445 302.894 69.3083C301.971 68.425 301.047 67.5896 300.137 66.7862C299.358 66.0942 298.578 65.4194 297.798 64.7924C297.755 64.7442 297.712 64.7119 297.668 64.6797C295.862 63.1991 294.07 61.8634 292.305 60.6542L292.182 60.5721C291.861 60.3585 291.541 60.1454 291.22 59.9448C289.484 58.7995 287.762 57.7819 286.053 56.8599C285.676 56.6667 285.315 56.4723 284.938 56.2778C273.264 50.3513 262.404 49.4929 252.794 50.3798C245.354 51.0626 238.646 52.7862 232.889 53.9936C232.509 54.0859 232.145 54.1611 231.766 54.2374C228.021 55.0002 224.685 55.497 221.835 55.265C217.299 54.8907 213.616 51.836 209.654 47.3447C209.366 47.0075 209.079 46.6876 208.79 46.3345C206.486 43.6251 204.07 40.4859 201.335 37.1194C200.866 36.5522 200.383 35.9698 199.9 35.3876L199.795 35.26C198.758 34.0252 197.664 32.758 196.525 31.4918C196.353 31.3004 196.165 31.1075 195.992 30.9148C195.603 30.4811 195.213 30.0647 194.81 29.6468C194.638 29.4554 194.45 29.2626 194.277 29.0858C192.98 27.7212 191.595 26.3559 190.137 25.0072C183.845 19.1754 175.951 13.5528 165.485 9.21312L165.47 9.19706C161.034 7.36022 156.16 5.75728 150.744 4.46965C144.792 3.04852 138.385 1.97535 131.815 1.31245C130.231 1.1552 128.646 1.02982 127.047 0.920243C125.317 0.79359 123.601 0.71487 121.87 0.651958C120.838 0.627018 119.805 0.602067 118.758 0.592924C116.197 0.57058 113.622 0.611849 111.074 0.734364C110.171 0.774296 109.269 0.830161 108.366 0.886027L108.366 0.886033C97.3174 1.6329 86.664 3.83075 77.652 7.84238C71.3275 10.6517 47.5039 23.2538 40.3464 44.8658C39.7639 46.6429 39.2828 48.4847 38.9457 50.3914L38.9454 50.4233C38.5649 52.4252 38.3573 54.5084 38.324 56.6555C38.2742 59.0269 38.4278 61.4625 38.8269 63.9972C39.0341 65.3031 39.298 66.6414 39.6358 67.9976C39.8318 68.7788 40.0145 69.544 40.1828 70.2931C40.7848 72.9557 41.2285 75.3952 41.5149 77.6407C41.5695 78.0555 41.6243 78.4544 41.6647 78.8359C41.8674 80.6517 41.969 82.3565 41.9699 83.9315C41.9961 85.937 41.849 87.7657 41.5721 89.4499C41.4792 90.0692 41.3574 90.6738 41.2357 91.261C40.6922 93.5803 39.8743 95.6249 38.8246 97.5095C38.2475 98.539 37.5989 99.536 36.878 100.485C34.7884 103.283 32.148 105.758 29.1711 108.389C28.2046 109.24 27.1928 110.122 26.1518 111.02C25.6245 111.478 25.0961 111.934 24.5541 112.407C23.4835 113.353 22.3993 114.33 21.2842 115.371C21.0199 115.606 20.7566 115.859 20.4923 116.096C20.3894 116.206 20.2866 116.301 20.1839 116.396L20.1838 116.396C19.7295 116.838 19.274 117.279 18.8195 117.737C16.7938 119.755 14.9131 121.856 13.1923 123.989C11.7662 125.743 10.4564 127.53 9.26164 129.35C9.03331 129.687 8.80599 130.037 8.5776 130.39L8.55414 130.426C7.4769 132.135 6.48692 133.86 5.61335 135.603C5.03627 136.76 4.50182 137.902 4.01215 139.059C3.96761 139.155 3.92293 139.266 3.89296 139.361C3.35848 140.646 2.88241 141.914 2.47796 143.184C2.26938 143.852 2.05974 144.502 1.8938 145.152C1.81916 145.359 1.77366 145.564 1.71358 145.771C1.66834 145.946 1.62311 146.121 1.59244 146.296C1.41232 147.042 1.24568 147.772 1.10819 148.503L1.10566 148.514C1.06099 148.717 1.0166 148.919 0.986229 149.122C0.970132 149.297 0.939466 149.472 0.908939 149.631C0.908661 149.663 0.893827 149.693 0.893537 149.727C0.739247 150.712 0.62866 151.698 0.54721 152.684L0.496426 153.495C0.493783 153.797 0.476446 154.115 0.473804 154.417C0.457717 154.591 0.456176 154.768 0.454797 154.926C0.425223 158.315 0.934692 161.566 2.02789 164.568C2.59538 166.18 3.33743 168.388 4.81994 170.399C6.14029 172.13 6.93468 172.969 8.4462 174.236C37.64 191.162 301.868 186.975 319.025 173.046C321.471 171.06 321.275 169.756 322.365 166.678C323.069 164.686 323.81 161.238 323.915 160.889C324.216 159.892 325.056 155.672 325.629 153.291C325.659 153.116 325.704 152.957 325.75 152.782C325.962 151.877 326.173 150.94 326.37 150.003C326.477 149.463 326.583 148.938 326.69 148.398L326.72 148.287C326.751 148.098 326.796 147.891 326.827 147.684C326.994 146.81 327.147 145.92 327.301 145.015C327.808 141.979 328.199 138.801 328.432 135.524C328.497 134.761 328.532 134.012 328.568 133.249Z" fill="#CCECFA"/>
<path d="M68 45C68 31.7452 78.7452 21 92 21H98.6634C111.918 21 122.663 31.7452 122.663 45V71.2898C122.663 73.4989 120.873 75.2898 118.663 75.2898H92C78.7451 75.2898 68 64.5446 68 51.2898V45Z" fill="url(#paint0_linear_11217:25573)"/>
<path d="M95.2728 52.8992C94.5917 52.8992 94.0547 52.6765 93.6618 52.2312C93.2951 51.7859 93.1117 51.1572 93.1117 50.3452C93.1117 49.1141 93.3475 48.0925 93.819 47.2805C94.2905 46.4423 94.9453 45.591 95.7836 44.7265C96.386 44.0717 96.8313 43.5085 97.1195 43.037C97.4338 42.5655 97.591 42.0416 97.591 41.4654C97.591 40.8891 97.3814 40.4307 96.9623 40.0902C96.5432 39.7496 95.9669 39.5794 95.2335 39.5794C94.631 39.5794 94.0285 39.6973 93.4261 39.933C92.8498 40.1426 92.1949 40.4569 91.4615 40.876L90.5185 41.3475C89.6279 41.8452 88.9076 42.094 88.3575 42.094C87.7026 42.094 87.1395 41.819 86.668 41.2689C86.2227 40.6926 86 39.9985 86 39.1865C86 38.6364 86.0917 38.178 86.275 37.8113C86.4846 37.4445 86.812 37.0909 87.2573 36.7504C88.4361 35.886 89.772 35.218 91.265 34.7465C92.7843 34.2488 94.3036 34 95.8228 34C97.5255 34 99.0447 34.3012 100.381 34.9037C101.717 35.48 102.764 36.292 103.524 37.3398C104.284 38.3613 104.663 39.527 104.663 40.8367C104.663 41.8059 104.454 42.6965 104.035 43.5085C103.642 44.3205 103.157 45.0147 102.581 45.591C102.005 46.1672 101.258 46.8614 100.341 47.6734C99.4769 48.3806 98.809 48.9962 98.3375 49.5201C97.8922 50.0178 97.6041 50.5417 97.4731 51.0918C97.3683 51.668 97.1064 52.1133 96.6873 52.4277C96.2943 52.742 95.8228 52.8992 95.2728 52.8992ZM95.3513 62.2898C94.2774 62.2898 93.3737 61.9231 92.6402 61.1896C91.933 60.4562 91.5794 59.5525 91.5794 58.4785C91.5794 57.4046 91.933 56.5009 92.6402 55.7674C93.3737 55.034 94.2774 54.6673 95.3513 54.6673C96.4515 54.6673 97.3552 55.034 98.0625 55.7674C98.7959 56.5009 99.1626 57.4046 99.1626 58.4785C99.1626 59.5525 98.7959 60.4562 98.0625 61.1896C97.3552 61.9231 96.4515 62.2898 95.3513 62.2898Z" fill="#3C91E6"/>
<path d="M61 39C61 25.7452 71.7452 15 85 15H91.6634C104.918 15 115.663 25.7452 115.663 39V65.2898C115.663 67.4989 113.873 69.2898 111.663 69.2898H85C71.7451 69.2898 61 58.5446 61 45.2898V39Z" fill="url(#paint1_linear_11217:25573)"/>
<path d="M88.2728 46.8992C87.5917 46.8992 87.0547 46.6765 86.6618 46.2312C86.2951 45.7859 86.1117 45.1572 86.1117 44.3452C86.1117 43.1141 86.3475 42.0925 86.819 41.2805C87.2905 40.4423 87.9453 39.591 88.7836 38.7265C89.386 38.0717 89.8313 37.5085 90.1195 37.037C90.4338 36.5655 90.591 36.0416 90.591 35.4654C90.591 34.8891 90.3814 34.4307 89.9623 34.0902C89.5432 33.7496 88.9669 33.5794 88.2335 33.5794C87.631 33.5794 87.0285 33.6973 86.4261 33.933C85.8498 34.1426 85.1949 34.4569 84.4615 34.876L83.5185 35.3475C82.6279 35.8452 81.9076 36.094 81.3575 36.094C80.7026 36.094 80.1395 35.819 79.668 35.2689C79.2227 34.6926 79 33.9985 79 33.1865C79 32.6364 79.0917 32.178 79.275 31.8113C79.4846 31.4445 79.812 31.0909 80.2573 30.7504C81.4361 29.886 82.772 29.218 84.265 28.7465C85.7843 28.2488 87.3036 28 88.8228 28C90.5255 28 92.0447 28.3012 93.3806 28.9037C94.7166 29.48 95.7643 30.292 96.524 31.3398C97.2836 32.3613 97.6634 33.527 97.6634 34.8367C97.6634 35.8059 97.4539 36.6965 97.0347 37.5085C96.6418 38.3205 96.1572 39.0147 95.581 39.591C95.0047 40.1672 94.2582 40.8614 93.3414 41.6734C92.4769 42.3806 91.809 42.9962 91.3375 43.5201C90.8922 44.0178 90.6041 44.5417 90.4731 45.0918C90.3683 45.668 90.1064 46.1133 89.6873 46.4277C89.2943 46.742 88.8228 46.8992 88.2728 46.8992ZM88.3513 56.2898C87.2774 56.2898 86.3737 55.9231 85.6402 55.1896C84.933 54.4562 84.5794 53.5525 84.5794 52.4785C84.5794 51.4046 84.933 50.5009 85.6402 49.7674C86.3737 49.034 87.2774 48.6673 88.3513 48.6673C89.4515 48.6673 90.3552 49.034 91.0625 49.7674C91.7959 50.5009 92.1626 51.4046 92.1626 52.4785C92.1626 53.5525 91.7959 54.4562 91.0625 55.1896C90.3552 55.9231 89.4515 56.2898 88.3513 56.2898Z" fill="#D30000"/>
<path opacity="0.4" d="M205 93.8461L205.029 93.8077C205.717 92.8675 206.922 91.4651 207.66 90.7089C207.674 90.6755 207.697 90.642 207.711 90.6086C208.123 89.6204 208.679 88.5503 209.405 87.4822C210.126 86.4113 211.042 85.357 212.11 84.3865C212.238 84.2604 212.385 84.1494 212.522 84.0303C212.592 83.9723 212.662 83.9123 212.733 83.8543L212.837 83.766C212.873 83.7364 212.911 83.7099 212.947 83.6814C213.093 83.5704 213.24 83.4582 213.388 83.3452L213.498 83.2607L213.614 83.1819C213.691 83.1289 213.767 83.0759 213.844 83.0236C214.147 82.8042 214.474 82.6144 214.792 82.4139C214.954 82.3167 215.124 82.2271 215.29 82.1345C215.371 82.0884 215.455 82.0412 215.539 81.9958C215.624 81.9536 215.711 81.9101 215.795 81.8679C217.16 81.1786 218.649 80.6799 220.177 80.4055C220.368 80.374 220.558 80.3425 220.751 80.311C220.943 80.2845 221.138 80.2676 221.328 80.2453L221.617 80.213L221.907 80.1973L222.197 80.1796C222.294 80.1746 222.389 80.165 222.486 80.1669C222.679 80.1658 222.872 80.1638 223.066 80.1631C223.113 80.1631 223.164 80.16 223.208 80.1631L223.337 80.17L223.595 80.1838L223.851 80.1965C223.873 80.1976 223.889 80.1976 223.919 80.1996L224.181 80.2192L224.532 80.2438L224.795 80.2634L224.839 80.2664L224.855 80.2676C224.855 80.2687 224.946 80.2676 224.793 80.2707L225.361 80.3544C225.454 80.369 225.548 80.3778 225.642 80.3986L225.92 80.4547L226.198 80.5096L226.337 80.5373C226.383 80.5461 226.428 80.56 226.474 80.5707C226.656 80.6168 226.838 80.6622 227.019 80.7094C227.11 80.729 227.198 80.7605 227.287 80.787L227.553 80.8708L227.818 80.9503L228.078 81.0456C228.251 81.1106 228.424 81.1674 228.592 81.2366C228.759 81.3073 228.928 81.3784 229.094 81.4498C230.417 82.0381 231.605 82.7981 232.617 83.6664L232.808 83.8259L232.989 83.9961C233.109 84.1083 233.233 84.2155 233.347 84.3304C233.352 84.3342 233.356 84.3404 233.361 84.3442C230.455 80.7459 225.748 78.4083 220.435 78.4083C214.992 78.4083 210.183 80.862 207.298 84.6101C207.054 85.0773 206.837 85.5422 206.645 86.0018C206.052 87.4042 205.671 88.7386 205.432 89.9278C205.405 90.0772 205.377 90.2236 205.35 90.3685C205.325 90.5122 205.294 90.6528 205.278 90.7934C205.24 91.0739 205.203 91.3421 205.168 91.6007C205.139 91.8604 205.123 92.1102 205.102 92.3472C205.093 92.4652 205.081 92.5805 205.074 92.6946C205.07 92.8068 205.046 92.9167 205.042 93.025C205.035 93.2375 205 93.6563 205 93.8461Z" fill="#009444"/>
<mask id="path-8-inside-1_11217:25573" fill="white">
<path d="M205.046 93.6329L205.001 93.8465C205.689 92.9063 206.922 91.4655 207.661 90.7093C207.675 90.6759 207.698 90.6425 207.712 90.609C208.124 89.6208 208.68 88.5508 209.406 87.4826C210.126 86.4118 211.043 85.3575 212.111 84.3869C212.239 84.2609 212.386 84.1498 212.523 84.0307C212.593 83.9727 212.663 83.9128 212.734 83.8548L212.838 83.7664C212.874 83.7368 212.911 83.7103 212.948 83.6819C213.094 83.5708 213.241 83.4586 213.389 83.3457L213.499 83.2611L213.615 83.1824C213.692 83.1293 213.768 83.0763 213.845 83.0241C214.148 82.8047 214.474 82.6149 214.793 82.4143C214.955 82.3171 215.125 82.2276 215.29 82.135C215.372 82.0889 215.456 82.0416 215.539 81.9963C215.625 81.954 215.712 81.9106 215.796 81.8683C217.161 81.179 218.65 80.6803 220.177 80.4059C220.368 80.3744 220.559 80.3429 220.752 80.3114C220.944 80.2849 221.138 80.268 221.329 80.2457L221.618 80.2134L221.908 80.1977L222.198 80.18C222.295 80.175 222.39 80.1654 222.487 80.1673C222.68 80.1662 222.872 80.1643 223.066 80.1635C223.114 80.1635 223.165 80.1604 223.209 80.1635L223.338 80.1704L223.595 80.1842L223.851 80.1969C223.874 80.1981 223.89 80.1981 223.919 80.2L224.182 80.2196L224.533 80.2442L224.796 80.2638L224.84 80.2669L224.856 80.268C224.856 80.2692 224.947 80.268 224.794 80.2711L225.361 80.3548C225.455 80.3694 225.549 80.3783 225.643 80.399L225.921 80.4551L226.199 80.5101L226.338 80.5377C226.384 80.5466 226.429 80.5604 226.474 80.5712C226.657 80.6173 226.838 80.6626 227.019 80.7099C227.111 80.7295 227.199 80.761 227.288 80.7875L227.553 80.8712L227.819 80.9508L228.079 81.0461C228.252 81.111 228.425 81.1679 228.593 81.237C228.76 81.3077 228.929 81.3788 229.095 81.4503C230.417 82.0385 231.606 82.7985 232.618 83.6669L232.809 83.8263L232.99 83.9965C233.11 84.1087 233.234 84.2159 233.348 84.3308C233.353 84.3346 233.357 84.3408 233.362 84.3446C233.585 84.5748 233.81 84.7911 234.009 85.0289C234.062 85.087 234.114 85.1461 234.166 85.2049L234.244 85.2914L234.317 85.384C234.414 85.5038 234.511 85.6249 234.607 85.744C234.63 85.7736 234.656 85.802 234.68 85.8324L234.745 85.925C234.791 85.9868 234.835 86.0491 234.879 86.109C234.965 86.2331 235.06 86.3468 235.138 86.4748C235.795 87.4584 236.295 88.4416 236.635 89.3799C236.978 90.3163 237.182 91.1942 237.299 91.9704C237.312 92.0676 237.325 92.1632 237.338 92.2574C237.348 92.3507 237.367 92.4422 237.371 92.5336C237.386 92.7165 237.401 92.8906 237.415 93.0569C237.425 93.226 237.425 93.3885 237.432 93.5407C237.435 93.6175 237.44 93.6921 237.441 93.7639C237.438 93.8377 237.436 93.9095 237.435 93.9783C237.433 94.117 237.431 94.2477 237.429 94.3698C237.43 94.4044 237.424 94.4221 237.422 94.4455C237.419 94.4682 237.416 94.4909 237.413 94.5124C237.41 94.5558 237.403 94.5497 237.4 94.5892C237.396 94.6227 237.393 94.6384 237.39 94.6384H230.915L234.849 98.9986L243.994 109L257.074 94.6369H250.197C250.187 94.6369 250.176 94.5189 250.165 94.4263C250.139 94.2265 250.111 94.0321 250.079 93.795C250.061 93.6771 250.046 93.5668 250.027 93.44C250.017 93.3782 250.008 93.319 249.998 93.2541C249.989 93.1903 249.981 93.1211 249.968 93.0654C249.92 92.8276 249.87 92.5767 249.817 92.3092C249.788 92.1763 249.76 92.0407 249.731 91.9012C249.699 91.7617 249.662 91.6199 249.625 91.4743C249.55 91.1842 249.477 90.8795 249.387 90.5656C249.291 90.254 249.19 89.9305 249.087 89.5939C249.037 89.4249 248.971 89.2585 248.91 89.0864C248.848 88.9173 248.784 88.7433 248.719 88.5661C248.185 87.1649 247.456 85.6383 246.482 84.1041C245.511 82.5691 244.275 81.0395 242.808 79.6217C242.63 79.4396 242.433 79.2736 242.243 79.0996C242.147 79.0139 242.051 78.9274 241.955 78.841L241.809 78.7111L241.659 78.587C241.457 78.423 241.254 78.2566 241.051 78.0902L240.898 77.9661L240.738 77.8482C240.631 77.7686 240.525 77.6899 240.418 77.6111C239.998 77.2895 239.547 76.9994 239.098 76.7005C238.872 76.5549 238.638 76.4192 238.405 76.2786C238.29 76.2098 238.173 76.141 238.056 76.07C237.936 76.005 237.816 75.9401 237.696 75.8752C235.782 74.827 233.668 74.0313 231.473 73.5552C231.198 73.501 230.922 73.4461 230.646 73.3919C230.371 73.3408 230.091 73.3055 229.813 73.2632L229.397 73.204L228.977 73.1625L228.558 73.1222C228.418 73.1095 228.28 73.0938 228.139 73.0888C227.86 73.0761 227.58 73.0426 227.299 73.0296C227.23 73.0265 227.16 73 227.09 73H226.879L226.461 73.0234L226.043 73.0373C225.904 73.0373 225.764 73.0561 225.625 73.063L224.794 73.1133C224.605 73.1164 224.729 73.1183 224.681 73.1191L224.659 73.1222L224.615 73.1272L224.529 73.1391L224.354 73.1606L224.005 73.204L223.83 73.2255L223.744 73.2363L223.637 73.2509L223.196 73.3158L222.755 73.3827L222.537 73.4173C222.465 73.4292 222.401 73.4449 222.333 73.4584C222.064 73.5152 221.796 73.5733 221.527 73.6294C221.394 73.6559 221.262 73.6943 221.13 73.7289L220.733 73.8342L220.34 73.9394L219.952 74.0624C219.694 74.1461 219.435 74.2245 219.182 74.3152C218.929 74.4097 218.679 74.5039 218.428 74.5984C216.439 75.3891 214.623 76.4442 213.062 77.6726C212.964 77.7483 212.867 77.8251 212.769 77.9008C212.674 77.9796 212.58 78.0591 212.487 78.1398C212.3 78.2992 212.112 78.4525 211.932 78.6158C211.577 78.9493 211.223 79.269 210.899 79.6152C210.817 79.6997 210.736 79.7854 210.653 79.8688L210.532 79.9948L210.416 80.1255C210.262 80.3007 210.11 80.4747 209.959 80.6469L209.846 80.7767L209.738 80.9104C209.668 81 209.596 81.0883 209.526 81.1771C209.387 81.355 209.24 81.5244 209.114 81.7081C208.401 82.671 207.798 83.6465 207.298 84.6082C207.054 85.0754 206.837 85.5403 206.645 85.9999C206.052 87.4023 205.671 88.7367 205.431 89.9259C205.405 90.0754 205.376 90.2218 205.35 90.3666C205.324 90.5103 205.294 90.6509 205.277 90.7916C205.24 91.072 205.202 91.3402 205.168 91.5988C205.138 91.8586 205.123 92.1083 205.101 92.3454C205.092 92.4633 205.08 92.5786 205.074 92.6927C205.07 92.8049 205.046 92.9148 205.041 93.0231C205.035 93.2375 205.046 93.4431 205.046 93.6329Z"/>
</mask>
<path d="M205.046 93.6329L205.001 93.8465C205.689 92.9063 206.922 91.4655 207.661 90.7093C207.675 90.6759 207.698 90.6425 207.712 90.609C208.124 89.6208 208.68 88.5508 209.406 87.4826C210.126 86.4118 211.043 85.3575 212.111 84.3869C212.239 84.2609 212.386 84.1498 212.523 84.0307C212.593 83.9727 212.663 83.9128 212.734 83.8548L212.838 83.7664C212.874 83.7368 212.911 83.7103 212.948 83.6819C213.094 83.5708 213.241 83.4586 213.389 83.3457L213.499 83.2611L213.615 83.1824C213.692 83.1293 213.768 83.0763 213.845 83.0241C214.148 82.8047 214.474 82.6149 214.793 82.4143C214.955 82.3171 215.125 82.2276 215.29 82.135C215.372 82.0889 215.456 82.0416 215.539 81.9963C215.625 81.954 215.712 81.9106 215.796 81.8683C217.161 81.179 218.65 80.6803 220.177 80.4059C220.368 80.3744 220.559 80.3429 220.752 80.3114C220.944 80.2849 221.138 80.268 221.329 80.2457L221.618 80.2134L221.908 80.1977L222.198 80.18C222.295 80.175 222.39 80.1654 222.487 80.1673C222.68 80.1662 222.872 80.1643 223.066 80.1635C223.114 80.1635 223.165 80.1604 223.209 80.1635L223.338 80.1704L223.595 80.1842L223.851 80.1969C223.874 80.1981 223.89 80.1981 223.919 80.2L224.182 80.2196L224.533 80.2442L224.796 80.2638L224.84 80.2669L224.856 80.268C224.856 80.2692 224.947 80.268 224.794 80.2711L225.361 80.3548C225.455 80.3694 225.549 80.3783 225.643 80.399L225.921 80.4551L226.199 80.5101L226.338 80.5377C226.384 80.5466 226.429 80.5604 226.474 80.5712C226.657 80.6173 226.838 80.6626 227.019 80.7099C227.111 80.7295 227.199 80.761 227.288 80.7875L227.553 80.8712L227.819 80.9508L228.079 81.0461C228.252 81.111 228.425 81.1679 228.593 81.237C228.76 81.3077 228.929 81.3788 229.095 81.4503C230.417 82.0385 231.606 82.7985 232.618 83.6669L232.809 83.8263L232.99 83.9965C233.11 84.1087 233.234 84.2159 233.348 84.3308C233.353 84.3346 233.357 84.3408 233.362 84.3446C233.585 84.5748 233.81 84.7911 234.009 85.0289C234.062 85.087 234.114 85.1461 234.166 85.2049L234.244 85.2914L234.317 85.384C234.414 85.5038 234.511 85.6249 234.607 85.744C234.63 85.7736 234.656 85.802 234.68 85.8324L234.745 85.925C234.791 85.9868 234.835 86.0491 234.879 86.109C234.965 86.2331 235.06 86.3468 235.138 86.4748C235.795 87.4584 236.295 88.4416 236.635 89.3799C236.978 90.3163 237.182 91.1942 237.299 91.9704C237.312 92.0676 237.325 92.1632 237.338 92.2574C237.348 92.3507 237.367 92.4422 237.371 92.5336C237.386 92.7165 237.401 92.8906 237.415 93.0569C237.425 93.226 237.425 93.3885 237.432 93.5407C237.435 93.6175 237.44 93.6921 237.441 93.7639C237.438 93.8377 237.436 93.9095 237.435 93.9783C237.433 94.117 237.431 94.2477 237.429 94.3698C237.43 94.4044 237.424 94.4221 237.422 94.4455C237.419 94.4682 237.416 94.4909 237.413 94.5124C237.41 94.5558 237.403 94.5497 237.4 94.5892C237.396 94.6227 237.393 94.6384 237.39 94.6384H230.915L234.849 98.9986L243.994 109L257.074 94.6369H250.197C250.187 94.6369 250.176 94.5189 250.165 94.4263C250.139 94.2265 250.111 94.0321 250.079 93.795C250.061 93.6771 250.046 93.5668 250.027 93.44C250.017 93.3782 250.008 93.319 249.998 93.2541C249.989 93.1903 249.981 93.1211 249.968 93.0654C249.92 92.8276 249.87 92.5767 249.817 92.3092C249.788 92.1763 249.76 92.0407 249.731 91.9012C249.699 91.7617 249.662 91.6199 249.625 91.4743C249.55 91.1842 249.477 90.8795 249.387 90.5656C249.291 90.254 249.19 89.9305 249.087 89.5939C249.037 89.4249 248.971 89.2585 248.91 89.0864C248.848 88.9173 248.784 88.7433 248.719 88.5661C248.185 87.1649 247.456 85.6383 246.482 84.1041C245.511 82.5691 244.275 81.0395 242.808 79.6217C242.63 79.4396 242.433 79.2736 242.243 79.0996C242.147 79.0139 242.051 78.9274 241.955 78.841L241.809 78.7111L241.659 78.587C241.457 78.423 241.254 78.2566 241.051 78.0902L240.898 77.9661L240.738 77.8482C240.631 77.7686 240.525 77.6899 240.418 77.6111C239.998 77.2895 239.547 76.9994 239.098 76.7005C238.872 76.5549 238.638 76.4192 238.405 76.2786C238.29 76.2098 238.173 76.141 238.056 76.07C237.936 76.005 237.816 75.9401 237.696 75.8752C235.782 74.827 233.668 74.0313 231.473 73.5552C231.198 73.501 230.922 73.4461 230.646 73.3919C230.371 73.3408 230.091 73.3055 229.813 73.2632L229.397 73.204L228.977 73.1625L228.558 73.1222C228.418 73.1095 228.28 73.0938 228.139 73.0888C227.86 73.0761 227.58 73.0426 227.299 73.0296C227.23 73.0265 227.16 73 227.09 73H226.879L226.461 73.0234L226.043 73.0373C225.904 73.0373 225.764 73.0561 225.625 73.063L224.794 73.1133C224.605 73.1164 224.729 73.1183 224.681 73.1191L224.659 73.1222L224.615 73.1272L224.529 73.1391L224.354 73.1606L224.005 73.204L223.83 73.2255L223.744 73.2363L223.637 73.2509L223.196 73.3158L222.755 73.3827L222.537 73.4173C222.465 73.4292 222.401 73.4449 222.333 73.4584C222.064 73.5152 221.796 73.5733 221.527 73.6294C221.394 73.6559 221.262 73.6943 221.13 73.7289L220.733 73.8342L220.34 73.9394L219.952 74.0624C219.694 74.1461 219.435 74.2245 219.182 74.3152C218.929 74.4097 218.679 74.5039 218.428 74.5984C216.439 75.3891 214.623 76.4442 213.062 77.6726C212.964 77.7483 212.867 77.8251 212.769 77.9008C212.674 77.9796 212.58 78.0591 212.487 78.1398C212.3 78.2992 212.112 78.4525 211.932 78.6158C211.577 78.9493 211.223 79.269 210.899 79.6152C210.817 79.6997 210.736 79.7854 210.653 79.8688L210.532 79.9948L210.416 80.1255C210.262 80.3007 210.11 80.4747 209.959 80.6469L209.846 80.7767L209.738 80.9104C209.668 81 209.596 81.0883 209.526 81.1771C209.387 81.355 209.24 81.5244 209.114 81.7081C208.401 82.671 207.798 83.6465 207.298 84.6082C207.054 85.0754 206.837 85.5403 206.645 85.9999C206.052 87.4023 205.671 88.7367 205.431 89.9259C205.405 90.0754 205.376 90.2218 205.35 90.3666C205.324 90.5103 205.294 90.6509 205.277 90.7916C205.24 91.072 205.202 91.3402 205.168 91.5988C205.138 91.8586 205.123 92.1083 205.101 92.3454C205.092 92.4633 205.08 92.5786 205.074 92.6927C205.07 92.8049 205.046 92.9148 205.041 93.0231C205.035 93.2375 205.046 93.4431 205.046 93.6329Z" fill="url(#paint2_linear_11217:25573)" stroke="url(#paint3_linear_11217:25573)" stroke-width="6" mask="url(#path-8-inside-1_11217:25573)"/>
<path d="M197.655 172.828H119.577C113.735 172.828 109 168.092 109 162.251C109 156.409 113.735 151.674 119.577 151.674H197.655C203.496 151.674 208.232 156.409 208.232 162.251C208.232 168.092 203.496 172.828 197.655 172.828Z" fill="#AF0404"/>
<path d="M205.372 108.298L210.815 102.855L216.259 108.298L221.702 102.855L222 103.153V76.9916C222 69.8063 216.175 63.9813 208.99 63.9813H171.92V109.201H193.583L199.929 102.855L205.372 108.298Z" fill="#85D1F0"/>
<path d="M193.583 109.201L199.929 102.855L203.285 106.211V76.9916C203.285 71.075 207.236 66.0842 212.642 64.5049C211.483 64.1663 210.258 63.9813 208.989 63.9813H171.92V109.201H193.583V109.201Z" fill="#66C7EF"/>
<path d="M208.231 63.9813H134.911C127.725 63.9813 121.9 69.806 121.9 76.9916V173H195.221V76.9916C195.221 69.8063 201.046 63.9813 208.231 63.9813Z" fill="white"/>
<path d="M132.385 84.6027C132.385 82.7057 133.923 81.1679 135.82 81.1679H158.815C160.712 81.1679 162.249 82.7057 162.249 84.6027V84.6027C162.249 86.4997 160.712 88.0375 158.815 88.0375H135.82C133.923 88.0375 132.385 86.4997 132.385 84.6027V84.6027Z" fill="#8ABDF0"/>
<path d="M174.475 84.6027C174.475 82.7057 176.012 81.1679 177.909 81.1679H181.53C183.427 81.1679 184.965 82.7057 184.965 84.6027V84.6027C184.965 86.4997 183.427 88.0375 181.53 88.0375H177.909C176.012 88.0375 174.475 86.4997 174.475 84.6027V84.6027Z" fill="#E56666"/>
<path d="M132.385 103.35C132.385 101.453 133.923 99.9149 135.82 99.9149H158.815C160.712 99.9149 162.249 101.453 162.249 103.35V103.35C162.249 105.247 160.712 106.785 158.815 106.785H135.82C133.923 106.785 132.385 105.247 132.385 103.35V103.35Z" fill="#8ABDF0"/>
<path d="M174.475 103.35C174.475 101.453 176.012 99.9149 177.909 99.9149H181.53C183.427 99.9149 184.965 101.453 184.965 103.35V103.35C184.965 105.247 183.427 106.785 181.53 106.785H177.909C176.012 106.785 174.475 105.247 174.475 103.35V103.35Z" fill="#E56666"/>
<path d="M174.475 122.448C174.475 120.551 176.012 119.013 177.909 119.013H181.53C183.427 119.013 184.965 120.551 184.965 122.448V122.448C184.965 124.345 183.427 125.883 181.53 125.883H177.909C176.012 125.883 174.475 124.345 174.475 122.448V122.448Z" fill="#E56666"/>
<path d="M132.385 122.448C132.385 120.551 133.923 119.013 135.82 119.013H158.815C160.712 119.013 162.249 120.551 162.249 122.448V122.448C162.249 124.345 160.712 125.883 158.815 125.883H135.82C133.923 125.883 132.385 124.345 132.385 122.448V122.448Z" fill="#8ABDF0"/>
<path d="M132.385 140.448C132.385 138.551 133.923 137.013 135.82 137.013H158.815C160.712 137.013 162.249 138.551 162.249 140.448V140.448C162.249 142.345 160.712 143.883 158.815 143.883H135.82C133.923 143.883 132.385 142.345 132.385 140.448V140.448Z" fill="#8ABDF0"/>
<path opacity="0.4" d="M211.608 154.563L211.582 154.598C210.966 155.439 209.887 156.695 209.226 157.371C209.214 157.401 209.193 157.431 209.181 157.461C208.812 158.346 208.315 159.304 207.665 160.26C207.02 161.218 206.2 162.162 205.244 163.03C205.129 163.143 204.997 163.243 204.875 163.349C204.812 163.401 204.749 163.455 204.686 163.507L204.593 163.586C204.561 163.612 204.527 163.636 204.495 163.661C204.364 163.761 204.232 163.861 204.1 163.962L204.001 164.038L203.898 164.109C203.829 164.156 203.76 164.203 203.692 164.25C203.421 164.447 203.128 164.616 202.843 164.796C202.698 164.883 202.546 164.963 202.398 165.046C202.325 165.087 202.25 165.13 202.175 165.17C202.098 165.208 202.021 165.247 201.945 165.285C200.723 165.902 199.391 166.348 198.024 166.594C197.853 166.622 197.682 166.65 197.51 166.678C197.338 166.702 197.164 166.717 196.993 166.737L196.734 166.766L196.475 166.78L196.215 166.796C196.129 166.8 196.043 166.809 195.956 166.807C195.784 166.808 195.612 166.81 195.438 166.811C195.396 166.811 195.35 166.813 195.31 166.811L195.195 166.804L194.964 166.792L194.735 166.781C194.715 166.78 194.701 166.78 194.674 166.778L194.44 166.76L194.125 166.738L193.89 166.721L193.85 166.718L193.836 166.717C193.836 166.716 193.754 166.717 193.892 166.714L193.384 166.639C193.3 166.626 193.216 166.618 193.132 166.6L192.883 166.55L192.634 166.5L192.51 166.476C192.469 166.468 192.428 166.455 192.387 166.446C192.224 166.404 192.062 166.364 191.9 166.322C191.818 166.304 191.739 166.276 191.659 166.252L191.422 166.177L191.184 166.106L190.952 166.021C190.797 165.963 190.642 165.912 190.491 165.85C190.342 165.786 190.191 165.723 190.042 165.659C188.858 165.132 187.794 164.452 186.888 163.675L186.718 163.532L186.556 163.38C186.448 163.279 186.337 163.183 186.235 163.081C186.231 163.077 186.227 163.072 186.223 163.068C188.824 166.289 193.037 168.381 197.793 168.381C202.665 168.381 206.968 166.185 209.551 162.83C209.769 162.412 209.963 161.996 210.135 161.585C210.666 160.329 211.007 159.135 211.221 158.071C211.245 157.937 211.271 157.806 211.294 157.676C211.317 157.548 211.344 157.422 211.359 157.296C211.393 157.045 211.426 156.805 211.457 156.573C211.483 156.341 211.497 156.117 211.517 155.905C211.525 155.799 211.535 155.696 211.541 155.594C211.545 155.494 211.566 155.395 211.57 155.298C211.577 155.108 211.608 154.733 211.608 154.563Z" fill="#009444"/>
<mask id="path-21-inside-2_11217:25573" fill="white">
<path d="M211.568 154.754L211.609 154.563C210.992 155.405 209.889 156.694 209.227 157.371C209.215 157.401 209.194 157.431 209.182 157.461C208.813 158.345 208.316 159.303 207.666 160.259C207.021 161.218 206.201 162.161 205.245 163.03C205.13 163.143 204.998 163.242 204.876 163.349C204.813 163.401 204.75 163.454 204.687 163.506L204.594 163.585C204.562 163.612 204.528 163.636 204.496 163.661C204.365 163.76 204.233 163.861 204.101 163.962L204.002 164.038L203.899 164.108C203.83 164.156 203.761 164.203 203.693 164.25C203.422 164.446 203.129 164.616 202.844 164.796C202.699 164.883 202.547 164.963 202.399 165.046C202.326 165.087 202.251 165.129 202.176 165.17C202.099 165.208 202.022 165.246 201.946 165.284C200.724 165.901 199.392 166.348 198.025 166.593C197.854 166.621 197.683 166.65 197.511 166.678C197.339 166.702 197.165 166.717 196.994 166.737L196.735 166.765L196.476 166.78L196.216 166.795C196.13 166.8 196.044 166.808 195.957 166.807C195.785 166.808 195.613 166.81 195.439 166.81C195.397 166.81 195.351 166.813 195.311 166.81L195.196 166.804L194.965 166.792L194.736 166.78C194.716 166.779 194.702 166.779 194.675 166.778L194.441 166.76L194.126 166.738L193.891 166.72L193.851 166.718L193.837 166.717C193.837 166.716 193.755 166.717 193.893 166.714L193.385 166.639C193.301 166.626 193.217 166.618 193.133 166.599L192.884 166.549L192.635 166.5L192.511 166.475C192.47 166.467 192.429 166.455 192.388 166.445C192.225 166.404 192.063 166.363 191.901 166.321C191.819 166.304 191.74 166.275 191.66 166.252L191.423 166.177L191.185 166.106L190.953 166.02C190.798 165.962 190.643 165.911 190.492 165.849C190.343 165.786 190.192 165.722 190.043 165.658C188.859 165.132 187.795 164.452 186.889 163.674L186.719 163.532L186.557 163.379C186.449 163.279 186.338 163.183 186.236 163.08C186.232 163.077 186.228 163.071 186.224 163.068C186.025 162.862 185.823 162.668 185.645 162.455C185.597 162.403 185.55 162.35 185.505 162.298L185.434 162.22L185.369 162.138C185.282 162.03 185.196 161.922 185.109 161.815C185.088 161.789 185.065 161.763 185.044 161.736L184.986 161.653C184.945 161.598 184.905 161.542 184.866 161.489C184.789 161.378 184.704 161.276 184.634 161.161C184.046 160.281 183.598 159.401 183.294 158.561C182.987 157.723 182.805 156.937 182.7 156.242C182.688 156.155 182.677 156.07 182.665 155.986C182.656 155.902 182.639 155.82 182.635 155.738C182.622 155.575 182.609 155.419 182.596 155.27C182.587 155.119 182.587 154.973 182.581 154.837C182.578 154.768 182.574 154.701 182.573 154.637C182.576 154.571 182.578 154.507 182.578 154.445C182.58 154.321 182.582 154.204 182.583 154.095C182.583 154.064 182.588 154.048 182.59 154.027C182.592 154.007 182.595 153.986 182.598 153.967C182.601 153.928 182.606 153.934 182.61 153.898C182.613 153.868 182.616 153.854 182.619 153.854L188.414 153.854L184.892 149.952L176.707 141L165 153.856L171.156 153.856C171.164 153.856 171.174 153.961 171.184 154.044C171.207 154.223 171.233 154.397 171.261 154.609C171.277 154.715 171.291 154.813 171.308 154.927C171.316 154.982 171.325 155.035 171.333 155.093C171.341 155.151 171.349 155.212 171.36 155.262C171.403 155.475 171.449 155.7 171.496 155.939C171.521 156.058 171.546 156.179 171.573 156.304C171.601 156.429 171.634 156.556 171.668 156.686C171.734 156.946 171.8 157.219 171.88 157.5C171.967 157.779 172.057 158.068 172.149 158.369C172.194 158.521 172.253 158.67 172.308 158.824C172.363 158.975 172.42 159.131 172.479 159.289C172.957 160.544 173.609 161.91 174.481 163.283C175.35 164.657 176.456 166.026 177.769 167.295C177.929 167.458 178.105 167.607 178.275 167.762C178.361 167.839 178.446 167.917 178.533 167.994L178.664 168.11L178.797 168.221C178.978 168.368 179.16 168.517 179.341 168.666L179.479 168.777L179.621 168.883C179.717 168.954 179.813 169.024 179.908 169.095C180.284 169.383 180.688 169.642 181.09 169.91C181.292 170.04 181.502 170.162 181.71 170.287C181.813 170.349 181.918 170.411 182.023 170.474C182.13 170.532 182.237 170.59 182.345 170.649C184.058 171.587 185.95 172.299 187.915 172.725C188.161 172.773 188.408 172.823 188.654 172.871C188.901 172.917 189.152 172.949 189.4 172.986L189.773 173.039L190.149 173.076L190.524 173.113C190.649 173.124 190.773 173.138 190.899 173.142C191.149 173.154 191.399 173.184 191.65 173.195C191.712 173.198 191.775 173.222 191.838 173.222L192.026 173.222L192.4 173.201L192.775 173.189C192.899 173.189 193.025 173.172 193.149 173.166L193.893 173.12C194.062 173.118 193.951 173.116 193.994 173.115L194.013 173.113L194.053 173.108L194.13 173.097L194.287 173.078L194.598 173.039L194.755 173.02L194.833 173.01L194.929 172.997L195.323 172.939L195.717 172.879L195.913 172.848C195.977 172.838 196.034 172.824 196.096 172.812C196.336 172.761 196.576 172.709 196.817 172.659C196.936 172.635 197.054 172.6 197.172 172.57L197.527 172.475L197.879 172.381L198.227 172.271C198.458 172.196 198.689 172.126 198.915 172.045C199.142 171.96 199.366 171.876 199.59 171.791C201.371 171.084 202.996 170.139 204.393 169.04C204.481 168.972 204.568 168.903 204.655 168.835C204.741 168.765 204.825 168.694 204.908 168.622C205.075 168.479 205.244 168.342 205.405 168.195C205.723 167.897 206.039 167.611 206.329 167.301C206.403 167.225 206.475 167.149 206.549 167.074L206.658 166.961L206.762 166.844C206.9 166.687 207.036 166.532 207.171 166.378L207.272 166.261L207.369 166.142C207.431 166.062 207.496 165.982 207.558 165.903C207.683 165.744 207.814 165.592 207.927 165.428C208.565 164.566 209.105 163.693 209.553 162.832C209.771 162.414 209.965 161.998 210.137 161.586C210.668 160.331 211.009 159.137 211.223 158.072C211.247 157.939 211.273 157.808 211.296 157.678C211.319 157.549 211.346 157.423 211.361 157.298C211.395 157.046 211.428 156.806 211.459 156.575C211.485 156.342 211.499 156.119 211.519 155.907C211.527 155.801 211.537 155.698 211.544 155.596C211.547 155.495 211.568 155.397 211.572 155.3C211.578 155.108 211.568 154.924 211.568 154.754Z"/>
</mask>
<path d="M211.568 154.754L211.609 154.563C210.992 155.405 209.889 156.694 209.227 157.371C209.215 157.401 209.194 157.431 209.182 157.461C208.813 158.345 208.316 159.303 207.666 160.259C207.021 161.218 206.201 162.161 205.245 163.03C205.13 163.143 204.998 163.242 204.876 163.349C204.813 163.401 204.75 163.454 204.687 163.506L204.594 163.585C204.562 163.612 204.528 163.636 204.496 163.661C204.365 163.76 204.233 163.861 204.101 163.962L204.002 164.038L203.899 164.108C203.83 164.156 203.761 164.203 203.693 164.25C203.422 164.446 203.129 164.616 202.844 164.796C202.699 164.883 202.547 164.963 202.399 165.046C202.326 165.087 202.251 165.129 202.176 165.17C202.099 165.208 202.022 165.246 201.946 165.284C200.724 165.901 199.392 166.348 198.025 166.593C197.854 166.621 197.683 166.65 197.511 166.678C197.339 166.702 197.165 166.717 196.994 166.737L196.735 166.765L196.476 166.78L196.216 166.795C196.13 166.8 196.044 166.808 195.957 166.807C195.785 166.808 195.613 166.81 195.439 166.81C195.397 166.81 195.351 166.813 195.311 166.81L195.196 166.804L194.965 166.792L194.736 166.78C194.716 166.779 194.702 166.779 194.675 166.778L194.441 166.76L194.126 166.738L193.891 166.72L193.851 166.718L193.837 166.717C193.837 166.716 193.755 166.717 193.893 166.714L193.385 166.639C193.301 166.626 193.217 166.618 193.133 166.599L192.884 166.549L192.635 166.5L192.511 166.475C192.47 166.467 192.429 166.455 192.388 166.445C192.225 166.404 192.063 166.363 191.901 166.321C191.819 166.304 191.74 166.275 191.66 166.252L191.423 166.177L191.185 166.106L190.953 166.02C190.798 165.962 190.643 165.911 190.492 165.849C190.343 165.786 190.192 165.722 190.043 165.658C188.859 165.132 187.795 164.452 186.889 163.674L186.719 163.532L186.557 163.379C186.449 163.279 186.338 163.183 186.236 163.08C186.232 163.077 186.228 163.071 186.224 163.068C186.025 162.862 185.823 162.668 185.645 162.455C185.597 162.403 185.55 162.35 185.505 162.298L185.434 162.22L185.369 162.138C185.282 162.03 185.196 161.922 185.109 161.815C185.088 161.789 185.065 161.763 185.044 161.736L184.986 161.653C184.945 161.598 184.905 161.542 184.866 161.489C184.789 161.378 184.704 161.276 184.634 161.161C184.046 160.281 183.598 159.401 183.294 158.561C182.987 157.723 182.805 156.937 182.7 156.242C182.688 156.155 182.677 156.07 182.665 155.986C182.656 155.902 182.639 155.82 182.635 155.738C182.622 155.575 182.609 155.419 182.596 155.27C182.587 155.119 182.587 154.973 182.581 154.837C182.578 154.768 182.574 154.701 182.573 154.637C182.576 154.571 182.578 154.507 182.578 154.445C182.58 154.321 182.582 154.204 182.583 154.095C182.583 154.064 182.588 154.048 182.59 154.027C182.592 154.007 182.595 153.986 182.598 153.967C182.601 153.928 182.606 153.934 182.61 153.898C182.613 153.868 182.616 153.854 182.619 153.854L188.414 153.854L184.892 149.952L176.707 141L165 153.856L171.156 153.856C171.164 153.856 171.174 153.961 171.184 154.044C171.207 154.223 171.233 154.397 171.261 154.609C171.277 154.715 171.291 154.813 171.308 154.927C171.316 154.982 171.325 155.035 171.333 155.093C171.341 155.151 171.349 155.212 171.36 155.262C171.403 155.475 171.449 155.7 171.496 155.939C171.521 156.058 171.546 156.179 171.573 156.304C171.601 156.429 171.634 156.556 171.668 156.686C171.734 156.946 171.8 157.219 171.88 157.5C171.967 157.779 172.057 158.068 172.149 158.369C172.194 158.521 172.253 158.67 172.308 158.824C172.363 158.975 172.42 159.131 172.479 159.289C172.957 160.544 173.609 161.91 174.481 163.283C175.35 164.657 176.456 166.026 177.769 167.295C177.929 167.458 178.105 167.607 178.275 167.762C178.361 167.839 178.446 167.917 178.533 167.994L178.664 168.11L178.797 168.221C178.978 168.368 179.16 168.517 179.341 168.666L179.479 168.777L179.621 168.883C179.717 168.954 179.813 169.024 179.908 169.095C180.284 169.383 180.688 169.642 181.09 169.91C181.292 170.04 181.502 170.162 181.71 170.287C181.813 170.349 181.918 170.411 182.023 170.474C182.13 170.532 182.237 170.59 182.345 170.649C184.058 171.587 185.95 172.299 187.915 172.725C188.161 172.773 188.408 172.823 188.654 172.871C188.901 172.917 189.152 172.949 189.4 172.986L189.773 173.039L190.149 173.076L190.524 173.113C190.649 173.124 190.773 173.138 190.899 173.142C191.149 173.154 191.399 173.184 191.65 173.195C191.712 173.198 191.775 173.222 191.838 173.222L192.026 173.222L192.4 173.201L192.775 173.189C192.899 173.189 193.025 173.172 193.149 173.166L193.893 173.12C194.062 173.118 193.951 173.116 193.994 173.115L194.013 173.113L194.053 173.108L194.13 173.097L194.287 173.078L194.598 173.039L194.755 173.02L194.833 173.01L194.929 172.997L195.323 172.939L195.717 172.879L195.913 172.848C195.977 172.838 196.034 172.824 196.096 172.812C196.336 172.761 196.576 172.709 196.817 172.659C196.936 172.635 197.054 172.6 197.172 172.57L197.527 172.475L197.879 172.381L198.227 172.271C198.458 172.196 198.689 172.126 198.915 172.045C199.142 171.96 199.366 171.876 199.59 171.791C201.371 171.084 202.996 170.139 204.393 169.04C204.481 168.972 204.568 168.903 204.655 168.835C204.741 168.765 204.825 168.694 204.908 168.622C205.075 168.479 205.244 168.342 205.405 168.195C205.723 167.897 206.039 167.611 206.329 167.301C206.403 167.225 206.475 167.149 206.549 167.074L206.658 166.961L206.762 166.844C206.9 166.687 207.036 166.532 207.171 166.378L207.272 166.261L207.369 166.142C207.431 166.062 207.496 165.982 207.558 165.903C207.683 165.744 207.814 165.592 207.927 165.428C208.565 164.566 209.105 163.693 209.553 162.832C209.771 162.414 209.965 161.998 210.137 161.586C210.668 160.331 211.009 159.137 211.223 158.072C211.247 157.939 211.273 157.808 211.296 157.678C211.319 157.549 211.346 157.423 211.361 157.298C211.395 157.046 211.428 156.806 211.459 156.575C211.485 156.342 211.499 156.119 211.519 155.907C211.527 155.801 211.537 155.698 211.544 155.596C211.547 155.495 211.568 155.397 211.572 155.3C211.578 155.108 211.568 154.924 211.568 154.754Z" fill="url(#paint4_linear_11217:25573)" stroke="url(#paint5_linear_11217:25573)" stroke-width="6" mask="url(#path-21-inside-2_11217:25573)"/>
<path d="M31.4372 146.002C29.8742 146.011 28.3086 146.065 26.7434 146.165C20.4824 146.567 14.326 147.755 9.25797 149.832C4.18998 151.909 0.267285 154.904 -1.24285 158.296C-2.26756 160.598 -2.17812 163.022 -1.41709 165.355C-0.655844 167.687 0.761158 169.94 2.37272 172.136C5.59578 176.528 9.65395 180.808 11.0215 185.488C11.9185 188.558 11.6201 191.698 11.0215 194.791C8.52022 207.712 0.823777 220.444 2.64378 233.4C3.93486 242.591 10.1077 251.517 19.8064 259.006C25.7192 263.572 32.9231 267.601 41.0035 271H296.915C299.247 270.163 301.309 269.082 302.79 267.78C305.311 265.565 306.033 262.824 305.517 260.22C305.002 257.617 303.328 255.125 301.352 252.746C299.376 250.367 297.084 248.069 295.227 245.661C293.37 243.253 291.942 240.701 291.817 238.083C291.672 235.074 293.271 232.088 295.844 229.436C298.416 226.785 301.936 224.446 305.77 222.313C313.438 218.048 322.468 214.519 329.256 209.818C335.399 205.563 339.517 200.425 341.167 195.053C342.816 189.682 341.999 184.088 338.883 178.92C332.652 168.584 316.982 160.215 298.272 156.865C286.232 154.709 273.247 154.542 260.718 155.515C248.188 156.489 236.029 158.568 224.058 160.838C200.115 165.376 175.685 170.787 150.451 169.745C134.747 169.097 119.711 165.955 105.518 162.175C91.3238 158.395 77.7171 153.945 63.3075 150.425C53.2145 147.959 42.3774 145.932 31.4369 146.002L31.4372 146.002Z" fill="#66E0A3"/>
<path d="M31.4372 146.002C29.8742 146.011 28.3086 146.065 26.7434 146.165C20.4824 146.567 14.326 147.755 9.25797 149.832C4.18998 151.909 0.267285 154.904 -1.24285 158.296C-2.26756 160.598 -2.17812 163.022 -1.41709 165.355C-0.655844 167.687 0.761158 169.94 2.37272 172.136C5.59578 176.528 9.65395 180.808 11.0215 185.488C11.9185 188.558 11.6201 191.698 11.0215 194.791C8.52022 207.712 0.823777 220.444 2.64378 233.4C3.93486 242.591 10.1077 251.517 19.8064 259.006C25.7192 263.572 32.9231 267.601 41.0035 271H296.915C299.247 270.163 301.309 269.082 302.79 267.78C305.311 265.565 306.033 262.824 305.517 260.22C305.002 257.617 303.328 255.125 301.352 252.746C299.376 250.367 297.084 248.069 295.227 245.661C293.37 243.253 291.942 240.701 291.817 238.083C291.672 235.074 293.271 232.088 295.844 229.436C298.416 226.785 301.936 224.446 305.77 222.313C313.438 218.048 322.468 214.519 329.256 209.818C335.399 205.563 339.517 200.425 341.167 195.053C342.816 189.682 341.999 184.088 338.883 178.92C332.652 168.584 316.982 160.215 298.272 156.865C286.232 154.709 273.247 154.542 260.718 155.515C248.188 156.489 236.029 158.568 224.058 160.838C200.115 165.376 175.685 170.787 150.451 169.745C134.747 169.097 119.711 165.955 105.518 162.175C91.3238 158.395 77.7171 153.945 63.3075 150.425C53.2145 147.959 42.3774 145.932 31.4369 146.002L31.4372 146.002Z" fill="url(#paint6_linear_11217:25573)"/>
</g>
<g clip-path="url(#clip0_11217:25573)">
<path d="M247.244 127.882H199.438C198.257 127.882 197.301 128.839 197.301 130.019V135.759H249.381V130.019C249.381 128.839 248.424 127.882 247.244 127.882Z" fill="#AF0404"/>
<path d="M229.889 118.194L225.56 162.021C225.451 163.122 224.47 163.927 223.37 163.818L201.433 161.651C200.332 161.542 199.528 160.561 199.637 159.46L203.966 115.633C204.075 114.532 205.056 113.728 206.157 113.836L228.093 116.003C229.194 116.112 229.998 117.093 229.889 118.194Z" fill="#66E0A3"/>
<path d="M206.291 121.847L203.133 153.821C203.088 154.279 203.303 154.725 203.693 154.968C204.769 155.638 205.602 156.644 206.059 157.825C206.224 158.25 206.617 158.543 207.07 158.587L218.441 159.711C218.894 159.755 219.337 159.545 219.581 159.161C220.261 158.092 221.275 157.269 222.461 156.822C222.891 156.659 223.189 156.264 223.235 155.807L226.393 123.833C226.438 123.376 226.223 122.93 225.832 122.686C224.757 122.016 223.924 121.01 223.466 119.829C223.302 119.404 222.909 119.112 222.456 119.067L211.084 117.943C210.631 117.899 210.189 118.109 209.945 118.493C209.265 119.562 208.251 120.385 207.065 120.832C206.635 120.995 206.336 121.39 206.291 121.847Z" fill="#00CC66"/>
<path d="M248.488 124.723L223.687 161.117C223.064 162.031 221.817 162.267 220.903 161.644L202.688 149.231C201.774 148.608 201.537 147.362 202.16 146.448L226.962 110.054C227.585 109.14 228.831 108.904 229.745 109.527L247.961 121.94C248.875 122.563 249.111 123.809 248.488 124.723Z" fill="#66E0A3"/>
<path d="M226.026 116.623L207.933 143.173C207.674 143.553 207.649 144.048 207.875 144.448C208.498 145.552 208.747 146.834 208.582 148.09C208.523 148.541 208.728 148.987 209.104 149.243L218.547 155.678C218.923 155.934 219.412 155.962 219.811 155.742C220.92 155.13 222.204 154.892 223.459 155.068C223.914 155.132 224.366 154.928 224.625 154.548L242.718 127.998C242.977 127.618 243.002 127.123 242.776 126.723C242.153 125.619 241.904 124.337 242.068 123.081C242.127 122.63 241.923 122.184 241.547 121.928L232.104 115.493C231.728 115.237 231.238 115.209 230.84 115.429C229.731 116.041 228.447 116.278 227.192 116.103C226.736 116.039 226.285 116.243 226.026 116.623Z" fill="#00CC66"/>
<path d="M228.095 139.606C231.674 139.606 234.575 136.705 234.575 133.126C234.575 129.547 231.674 126.646 228.095 126.646C224.516 126.646 221.615 129.547 221.615 133.126C221.615 136.705 224.516 139.606 228.095 139.606Z" fill="#CCF5E0"/>
<path d="M247.986 168H198.064C196.362 168 194.982 166.62 194.982 164.918V134.419C194.982 132.717 196.362 131.337 198.064 131.337H247.986C249.688 131.337 251.068 132.717 251.068 134.419V164.918C251.068 166.62 249.688 168 247.986 168Z" fill="#FFB125"/>
<path d="M247.986 168H198.064C196.362 168 194.982 166.62 194.982 164.918V134.419C194.982 132.717 196.362 131.337 198.064 131.337H247.986C249.688 131.337 251.068 132.717 251.068 134.419V164.918C251.068 166.62 249.688 168 247.986 168Z" fill="url(#paint7_linear_11217:25573)"/>
<path d="M252.902 143.777H241.667C238.413 143.777 235.775 146.415 235.775 149.668C235.775 152.922 238.413 155.56 241.667 155.56H252.902C253.519 155.56 254.019 155.06 254.019 154.443V144.894C254.019 144.277 253.519 143.777 252.902 143.777Z" fill="#C81313"/>
<path d="M247.986 131.337H198.064C196.362 131.337 194.982 132.717 194.982 134.419V137.796H251.068V134.419C251.068 132.717 249.688 131.337 247.986 131.337Z" fill="#DB3434"/>
<path d="M198.064 168H247.986C249.688 168 251.068 166.62 251.068 164.918V161.541H194.982V164.918C194.982 166.62 196.362 168 198.064 168Z" fill="#C81313"/>
<path d="M241.876 152.404C243.387 152.404 244.611 151.18 244.611 149.669C244.611 148.158 243.387 146.934 241.876 146.934C240.365 146.934 239.141 148.158 239.141 149.669C239.141 151.18 240.365 152.404 241.876 152.404Z" fill="#F2F2F2"/>
</g>
<path d="M124.279 156.94V153.151C124.279 153.151 124.279 153.151 124.279 153.088L124.218 146.14L124.158 142.162L124.097 135.467C124.036 129.719 115.412 125.046 104.784 125.172C94.156 125.235 85.5928 130.035 85.6535 135.846L85.7142 142.793L85.775 148.098V151.825V157.256L85.8357 164.267C85.8964 170.077 94.5204 173.235 105.148 173.172C115.777 173.046 124.34 169.698 124.34 163.951L124.279 156.94Z" fill="url(#paint8_linear_11217:25573)"/>
<path d="M104.933 146.139C94.2999 146.233 85.6408 141.615 85.592 135.825C85.5432 130.035 94.1231 125.265 104.756 125.17C115.388 125.076 124.047 129.694 124.096 135.484C124.145 141.274 115.565 146.045 104.933 146.139Z" fill="#FFB82B"/>
<path d="M104.971 145.636C115.417 145.573 123.798 140.962 124.041 135.278C124.041 135.341 124.102 135.404 124.102 135.53C124.102 141.341 115.538 146.078 104.971 146.141C94.3428 146.267 85.7189 141.594 85.6581 135.846C85.6581 135.72 85.7189 135.657 85.7189 135.594C85.9618 141.278 94.4643 145.762 104.971 145.636Z" fill="#F5D5A4"/>
<path d="M104.789 125.803C94.4036 125.867 85.9618 130.477 85.7189 136.161C85.7189 136.035 85.6581 135.972 85.6581 135.909C85.5974 130.098 94.1606 125.298 104.789 125.235C115.417 125.045 124.041 129.719 124.102 135.53C124.102 135.656 124.041 135.719 124.041 135.845C123.737 130.161 115.235 125.677 104.789 125.803Z" fill="#FFB82B"/>
<path d="M89.6043 135.783C89.665 140.394 96.467 144.057 104.909 143.994C113.29 143.93 120.092 140.141 120.092 135.53C120.031 130.92 113.229 127.257 104.787 127.32C96.4063 127.446 89.6043 131.236 89.6043 135.783Z" fill="url(#paint9_linear_11217:25573)"/>
<path d="M104.787 127.825C96.5277 127.888 89.8472 131.552 89.665 136.036C89.665 135.973 89.6043 135.909 89.6043 135.846C89.5435 131.236 96.3455 127.446 104.787 127.383C113.229 127.32 120.031 130.983 120.092 135.594C120.092 135.657 120.031 135.72 120.031 135.846C119.788 131.299 113.047 127.699 104.787 127.825Z" fill="#F5D5A4"/>
<path d="M104.908 143.552C113.229 143.488 119.909 139.825 120.031 135.341C120.031 135.404 120.091 135.467 120.091 135.594C120.152 140.204 113.35 143.931 104.908 144.057C96.4666 144.12 89.6646 140.457 89.6039 135.846C89.6039 135.783 89.6646 135.72 89.6646 135.657C89.9075 140.078 96.6488 143.615 104.908 143.552Z" fill="#F5D5A4"/>
<path d="M104.909 141.91C108.978 141.847 112.682 140.583 114.626 138.562C115.476 137.678 115.962 136.604 115.901 135.594C115.901 132.12 111.103 129.404 104.969 129.404C98.5925 129.468 93.734 132.247 93.734 135.783C93.734 139.257 98.5925 141.973 104.666 141.973H104.909V141.91Z" fill="#F5D5A4"/>
<path d="M104.89 141.405C99.0199 141.458 94.2401 138.928 94.2136 135.754C94.1871 132.58 98.924 129.964 104.794 129.911C110.664 129.858 115.443 132.388 115.47 135.562C115.496 138.736 110.759 141.352 104.89 141.405Z" fill="#FFD336"/>
<path d="M99.832 137.717H101.272V135.621H102.011L103.099 137.717H104.669L103.433 135.385C104.088 135.08 104.466 134.479 104.466 133.633C104.466 132.374 103.631 131.593 102.293 131.593H99.832V137.717ZM101.272 134.455V132.786H101.982C102.627 132.786 102.974 133.064 102.974 133.633C102.974 134.201 102.627 134.455 101.982 134.455H101.272Z" fill="white"/>
<path d="M105.255 139.439H106.678V136.973H106.707C106.887 137.397 107.289 137.783 107.964 137.783C108.952 137.783 109.75 136.988 109.75 135.424C109.75 133.803 108.906 133.064 107.972 133.064C107.265 133.064 106.879 133.489 106.707 133.911H106.663V133.124H105.255V139.439ZM106.649 135.421C106.649 134.67 106.951 134.207 107.472 134.207C107.998 134.207 108.289 134.682 108.289 135.421C108.289 136.162 107.998 136.644 107.472 136.644C106.951 136.644 106.649 136.165 106.649 135.421Z" fill="white"/>
<path d="M94.2734 136.036C94.6378 138.751 99.1927 140.899 104.902 140.836C110.55 140.836 115.105 138.625 115.408 135.846C115.105 138.878 110.55 141.341 104.902 141.404C99.2535 141.53 94.5771 139.13 94.2734 136.036Z" fill="#F5D5A4"/>
<path d="M104.78 130.352C99.0713 130.415 94.4556 132.941 94.2734 135.973C94.2734 135.91 94.2127 135.847 94.2127 135.784C94.2127 132.562 98.8891 129.973 104.78 129.91C110.61 129.847 115.408 132.436 115.408 135.594C115.408 135.657 115.347 135.72 115.347 135.847C115.165 132.752 110.55 130.289 104.78 130.352Z" fill="#FFB82B"/>
<path d="M105.088 167.615C115.716 167.552 124.279 162.752 124.279 156.941L124.34 163.952C124.34 169.699 115.777 173.047 105.148 173.173C94.5204 173.299 85.8964 170.078 85.8357 164.268L85.775 157.257C85.8357 163.068 94.5204 167.741 105.088 167.615Z" fill="url(#paint10_linear_11217:25573)"/>
<path d="M85.8375 163.509C85.8982 169.32 94.5222 172.73 105.15 172.667C115.778 172.604 124.342 169.004 124.281 163.257V163.951C124.342 169.699 115.778 173.046 105.15 173.172C94.5222 173.299 85.8982 170.078 85.8375 164.267L85.7768 157.257L85.8375 163.509Z" fill="#F5D5A4"/>
<path d="M105.09 162.12C115.718 161.994 124.281 157.257 124.22 151.447L124.281 156.941C124.342 162.752 115.778 167.552 105.15 167.615C94.5222 167.741 85.8375 163.068 85.7768 157.257V158.71V151.762C85.8375 157.573 94.4615 162.183 105.09 162.12Z" fill="#E66409"/>
<path d="M105.029 156.815C115.657 156.688 124.22 151.951 124.16 146.141L124.22 153.088V151.383C124.281 157.193 115.718 161.993 105.09 162.057C94.4617 162.12 85.8377 157.509 85.777 151.699V153.341L85.7162 146.393C85.777 152.267 94.4009 156.878 105.029 156.815Z" fill="url(#paint11_linear_11217:25573)"/>
<path d="M104.969 151.509C115.597 151.383 124.16 146.583 124.099 140.773L124.16 146.141C124.16 151.951 115.658 156.688 105.03 156.815C94.4014 156.941 85.7775 152.267 85.7167 146.457V148.162L85.656 141.151C85.7167 146.962 94.3407 151.573 104.969 151.509Z" fill="#FF700A"/>
<path d="M104.971 146.141C115.538 146.078 124.101 141.341 124.101 135.531V140.773C124.162 146.583 115.599 151.383 104.971 151.446C94.3425 151.573 85.7185 146.899 85.6578 141.089V142.794L85.5971 135.846C85.6578 141.657 94.3425 146.267 104.971 146.141Z" fill="url(#paint12_linear_11217:25573)"/>
<path d="M85.7768 156.752C85.8982 162.499 94.5222 167.11 105.09 166.983C115.718 166.92 124.281 162.12 124.22 156.31L124.159 151.51V151.447L124.281 156.941C124.342 162.752 115.778 167.552 105.15 167.615C94.5222 167.741 85.8375 163.068 85.7768 157.257V158.71V156.752Z" fill="#F5D5A4"/>
<path d="M124.16 146.204V146.141L124.221 153.088V153.151V151.446V151.509L124.16 146.204Z" fill="#F5D5A4"/>
<path d="M105.029 161.488C115.657 161.362 124.221 156.625 124.16 150.814V151.509C124.099 157.257 115.597 161.993 105.029 162.12C94.4011 162.183 85.7771 157.572 85.7164 151.762V153.404V151.193C85.8986 157.004 94.4618 161.614 105.029 161.488Z" fill="#F5D5A4"/>
<path d="M105.03 156.183C115.597 156.057 124.16 151.32 124.16 145.509L124.099 140.836V140.773L124.16 146.141C124.16 151.951 115.658 156.688 105.03 156.815C94.4014 156.941 85.7775 152.267 85.7167 146.457V148.162V145.951C85.8382 151.699 94.4622 156.246 105.03 156.183Z" fill="#F5D5A4"/>
<path d="M104.971 150.878C115.599 150.752 124.162 146.015 124.101 140.204L124.041 135.594C124.041 135.531 124.041 135.531 124.041 135.531L124.101 140.773C124.162 146.583 115.599 151.383 104.971 151.446C94.3425 151.573 85.7185 146.899 85.6578 141.089V142.794V140.583C85.7793 146.394 94.4032 150.941 104.971 150.878Z" fill="#F5D5A4"/>
<path d="M72.13 147.193C82.576 147.067 91.0785 151.867 91.3821 157.93C91.3821 157.993 91.4429 158.12 91.4429 158.183L91.5036 163.804C91.5643 169.993 83.0011 175.046 72.373 175.172C61.7448 175.236 53.1209 170.309 53.0602 164.183V166.015L52.9994 158.625C52.9994 152.372 61.5627 147.257 72.13 147.193Z" fill="url(#paint13_linear_11217:25573)"/>
<path d="M53.0016 158.499C53.0623 164.689 61.6863 169.615 72.3144 169.489C82.9425 169.426 91.5057 164.31 91.445 158.183C91.3843 151.994 82.7603 147.068 72.1322 147.194C61.5648 147.257 53.0016 152.373 53.0016 158.499Z" fill="#FFB82B"/>
<path d="M72.3126 168.92C82.7585 168.857 91.2002 163.931 91.4432 157.867C91.4432 157.931 91.5039 158.057 91.5039 158.12C91.5039 164.309 82.9407 169.425 72.3126 169.488C61.6844 169.615 53.0605 164.688 52.9997 158.499C52.9997 158.436 53.0605 158.309 53.0605 158.183C53.3641 164.309 61.8666 169.046 72.3126 168.92Z" fill="#F5D5A4"/>
<path d="M72.1325 147.826C61.7473 147.952 53.3055 152.815 53.0626 158.815C53.0626 158.689 53.0019 158.626 53.0019 158.562C52.9412 152.373 61.5044 147.32 72.1325 147.194C82.7606 147.068 91.4453 151.994 91.4453 158.183C91.4453 158.31 91.3846 158.436 91.3846 158.562C91.0809 152.499 82.5784 147.699 72.1325 147.826Z" fill="#FFB82B"/>
<path d="M57.0066 158.499C57.0674 163.362 63.8694 167.278 72.3111 167.215C80.7529 167.152 87.4941 163.11 87.4941 158.246C87.4334 153.32 80.5707 149.404 72.1896 149.531C63.7479 149.594 56.9459 153.573 57.0066 158.499Z" fill="url(#paint14_linear_11217:25573)"/>
<path d="M72.3107 166.71C80.5703 166.646 87.2508 162.731 87.433 157.994C87.433 158.057 87.4937 158.12 87.4937 158.246C87.5545 163.173 80.7525 167.152 72.3107 167.215C63.8689 167.278 57.067 163.425 57.0062 158.499C57.0062 158.436 57.067 158.373 57.067 158.31C57.3099 163.046 64.0511 166.836 72.3107 166.71Z" fill="#F5D5A4"/>
<path d="M72.3141 165.004C76.3832 164.941 80.0878 163.615 82.0313 161.467C82.8815 160.457 83.3066 159.383 83.3066 158.246C83.3066 154.583 78.5088 151.678 72.3749 151.678C65.998 151.741 61.1394 154.71 61.1394 158.436C61.2001 162.099 65.998 165.004 72.0712 165.004H72.3141Z" fill="#F5D5A4"/>
<path d="M72.3039 164.5C66.4342 164.557 61.6512 161.831 61.6209 158.413C61.5906 154.995 66.3244 152.178 72.1941 152.121C78.0639 152.065 82.8468 154.791 82.8771 158.209C82.9075 161.627 78.1737 164.444 72.3039 164.5Z" fill="#FFD336"/>
<path d="M66.8633 160.701H68.4268V158.425H69.2291L70.4105 160.701H72.1162L70.7737 158.168C71.4844 157.837 71.895 157.184 71.895 156.265C71.895 154.898 70.9885 154.051 69.5355 154.051H66.8633V160.701ZM68.4268 157.158V155.346H69.1975C69.8988 155.346 70.2746 155.648 70.2746 156.265C70.2746 156.882 69.8988 157.158 69.1975 157.158H68.4268Z" fill="white"/>
<path d="M72.7526 162.571H74.2972V159.892H74.3288C74.5246 160.353 74.9605 160.772 75.6934 160.772C76.7673 160.772 77.6328 159.908 77.6328 158.21C77.6328 156.45 76.7168 155.648 75.7028 155.648C74.9353 155.648 74.5152 156.109 74.3288 156.567H74.2814V155.713H72.7526V162.571ZM74.2656 158.207C74.2656 157.392 74.5941 156.889 75.1595 156.889C75.7313 156.889 76.0471 157.405 76.0471 158.207C76.0471 159.012 75.7313 159.535 75.1595 159.535C74.5941 159.535 74.2656 159.016 74.2656 158.207Z" fill="white"/>
<path d="M61.6857 158.751C62.0501 161.657 66.605 163.93 72.3138 163.867C77.9012 163.804 82.4561 161.467 82.7598 158.562C82.4561 161.846 77.9012 164.436 72.2531 164.499C66.605 164.562 61.9894 162.036 61.6857 158.751Z" fill="#F5D5A4"/>
<path d="M72.1922 152.689C66.4834 152.752 61.8677 155.404 61.6855 158.689C61.6855 158.625 61.6248 158.562 61.6248 158.436C61.6248 155.025 66.3012 152.246 72.1922 152.183C78.0225 152.12 82.8203 154.836 82.8203 158.246C82.8203 158.31 82.7596 158.436 82.7596 158.499C82.5774 155.215 77.901 152.625 72.1922 152.689Z" fill="#FFB82B"/>
<path d="M72.3122 169.489C82.9404 169.425 91.5036 164.31 91.4429 158.183L91.5036 163.804C91.5643 169.994 83.0011 175.047 72.373 175.173C61.7448 175.236 53.1209 170.31 53.0602 164.183V166.015L52.9994 158.626C53.0602 164.689 61.6841 169.615 72.3122 169.489Z" fill="url(#paint15_linear_11217:25573)"/>
<path d="M72.373 174.478C82.9404 174.415 91.5036 169.362 91.5036 163.11L91.4429 158.247C91.4429 158.183 91.4429 158.183 91.4429 158.183L91.5036 163.804C91.5643 169.994 83.0011 175.047 72.373 175.173C61.7448 175.236 53.1209 170.31 53.0602 164.183V166.015V163.678C53.1816 169.741 61.8056 174.604 72.373 174.478Z" fill="#F5D5A4"/>
<defs>
<linearGradient id="paint0_linear_11217:25573" x1="-4.26332" y1="-45.8394" x2="130.987" y2="63.0579" gradientUnits="userSpaceOnUse">
<stop stop-color="#2C5AA0"/>
<stop offset="1" stop-color="#2C5AA0" stop-opacity="0"/>
</linearGradient>
<linearGradient id="paint1_linear_11217:25573" x1="151.227" y1="115.899" x2="81.8097" y2="23.1353" gradientUnits="userSpaceOnUse">
<stop stop-color="#EBF4FC"/>
<stop offset="1" stop-color="#EEFDFF"/>
</linearGradient>
<linearGradient id="paint2_linear_11217:25573" x1="221.296" y1="76.1304" x2="275.148" y2="66.403" gradientUnits="userSpaceOnUse">
<stop stop-color="#D30000"/>
<stop offset="1" stop-color="#F59D9D"/>
</linearGradient>
<linearGradient id="paint3_linear_11217:25573" x1="212.296" y1="65.5652" x2="243.209" y2="109" gradientUnits="userSpaceOnUse">
<stop stop-color="#E03B3B"/>
<stop offset="1" stop-color="#D30000" stop-opacity="0"/>
</linearGradient>
<linearGradient id="paint4_linear_11217:25573" x1="197.024" y1="170.42" x2="148.823" y2="179.127" gradientUnits="userSpaceOnUse">
<stop stop-color="#D30000"/>
<stop offset="1" stop-color="#F59D9D"/>
</linearGradient>
<linearGradient id="paint5_linear_11217:25573" x1="205.079" y1="179.876" x2="177.41" y2="141" gradientUnits="userSpaceOnUse">
<stop stop-color="#E03B3B"/>
<stop offset="1" stop-color="#D30000" stop-opacity="0"/>
</linearGradient>
<linearGradient id="paint6_linear_11217:25573" x1="170" y1="271" x2="170" y2="146" gradientUnits="userSpaceOnUse">
<stop stop-color="#00B59C"/>
<stop offset="1" stop-color="#9CFFAC"/>
</linearGradient>
<linearGradient id="paint7_linear_11217:25573" x1="228.313" y1="168" x2="227.224" y2="102.098" gradientUnits="userSpaceOnUse">
<stop stop-color="#D30000"/>
<stop offset="1" stop-color="#F6CCCC"/>
</linearGradient>
<linearGradient id="paint8_linear_11217:25573" x1="104.975" y1="173.149" x2="104.975" y2="125.172" gradientUnits="userSpaceOnUse">
<stop stop-color="#FF7B00"/>
<stop offset="1" stop-color="#FFBD14"/>
</linearGradient>
<linearGradient id="paint9_linear_11217:25573" x1="104.863" y1="143.987" x2="104.863" y2="127.351" gradientUnits="userSpaceOnUse">
<stop stop-color="#FF7B00"/>
<stop offset="0.0242" stop-color="#FF7D01"/>
<stop offset="0.6742" stop-color="#FFAB0F"/>
<stop offset="1" stop-color="#FFBD14"/>
</linearGradient>
<linearGradient id="paint10_linear_11217:25573" x1="105.059" y1="173.15" x2="105.059" y2="156.939" gradientUnits="userSpaceOnUse">
<stop stop-color="#FF7B00"/>
<stop offset="1" stop-color="#FFBD14"/>
</linearGradient>
<linearGradient id="paint11_linear_11217:25573" x1="104.976" y1="162.102" x2="104.976" y2="146.12" gradientUnits="userSpaceOnUse">
<stop stop-color="#FF7B00"/>
<stop offset="1" stop-color="#FFBD14"/>
</linearGradient>
<linearGradient id="paint12_linear_11217:25573" x1="104.881" y1="151.482" x2="104.881" y2="135.5" gradientUnits="userSpaceOnUse">
<stop stop-color="#FF7B00"/>
<stop offset="1" stop-color="#FFBD14"/>
</linearGradient>
<linearGradient id="paint13_linear_11217:25573" x1="91.5036" y1="161.162" x2="53.0146" y2="161.162" gradientUnits="userSpaceOnUse">
<stop stop-color="#DD3F18"/>
<stop offset="0.4157" stop-color="#E74A1B"/>
<stop offset="1" stop-color="#FD6120"/>
</linearGradient>
<linearGradient id="paint14_linear_11217:25573" x1="72.2425" y1="167.186" x2="72.2425" y2="149.501" gradientUnits="userSpaceOnUse">
<stop stop-color="#FF7B00"/>
<stop offset="0.0242" stop-color="#FF7D01"/>
<stop offset="0.6742" stop-color="#FFAB0F"/>
<stop offset="1" stop-color="#FFBD14"/>
</linearGradient>
<linearGradient id="paint15_linear_11217:25573" x1="72.2594" y1="175.156" x2="72.2594" y2="158.168" gradientUnits="userSpaceOnUse">
<stop stop-color="#FF7B00"/>
<stop offset="1" stop-color="#FFBD14"/>
</linearGradient>
<clipPath id="clip0_11217:25573">
<rect width="61" height="61" fill="white" transform="translate(194 107)"/>
</clipPath>
</defs>
</svg>
