<svg width="329" height="185" viewBox="0 0 329 185" fill="none" xmlns="http://www.w3.org/2000/svg">
<mask id="mask0_10979:87609" style="mask-type:alpha" maskUnits="userSpaceOnUse" x="0" y="0" width="329" height="185">
<path d="M328.758 132.677C328.808 131.913 328.829 131.134 328.851 130.355C328.98 125.518 328.747 120.488 328.008 115.371C327.719 113.365 327.358 111.356 326.911 109.331C326.574 107.849 326.208 106.365 325.785 104.882C325.7 104.61 325.615 104.339 325.53 104.052C324.555 100.766 323.317 97.4621 321.819 94.1701C321.676 93.882 321.533 93.5793 321.404 93.2914C320.262 90.9109 318.972 88.5451 317.538 86.1926C317.381 85.9522 317.238 85.7132 317.08 85.4728C316.247 84.1455 315.342 82.8162 314.379 81.5024C312.998 79.5807 311.473 77.6895 309.831 75.8133C307.57 73.2146 305.305 70.8722 303.084 68.7359C302.16 67.8527 301.236 67.0173 300.327 66.2139C299.547 65.5218 298.768 64.847 297.988 64.22C297.944 64.1718 297.901 64.1396 297.858 64.1073C296.052 62.6268 294.259 61.2911 292.495 60.0818L292.372 59.9998C292.051 59.7862 291.731 59.5731 291.41 59.3725C289.674 58.2272 287.951 57.2095 286.243 56.2876C285.865 56.0944 285.504 55.9 285.127 55.7055C273.453 49.7789 262.593 48.9206 252.983 49.8075C245.543 50.4902 238.835 52.2139 233.078 53.4212C232.699 53.5135 232.335 53.5887 231.955 53.6651C228.211 54.4279 224.875 54.9247 222.025 54.6926C217.489 54.3184 213.805 51.2637 209.844 46.7723C209.555 46.4351 209.268 46.1152 208.98 45.7621C206.676 43.0528 204.259 39.9135 201.524 36.5471C201.055 35.9798 200.572 35.3975 200.09 34.8152L199.984 34.6877C198.947 33.4529 197.853 32.1857 196.715 30.9195C196.543 30.7281 196.355 30.5352 196.182 30.3425C195.792 29.9088 195.402 29.4924 194.999 29.0745C194.827 28.8831 194.64 28.6902 194.466 28.5134C193.169 27.1489 191.784 25.7835 190.327 24.4348C184.034 18.6031 176.14 12.9804 165.674 8.64078L165.66 8.62472C161.223 6.78788 156.35 5.18493 150.934 3.89731C144.981 2.47618 138.574 1.40301 132.004 0.740105C130.42 0.582855 128.836 0.457474 127.237 0.347901C125.506 0.221249 123.79 0.142528 122.06 0.0796159C121.028 0.0546758 119.995 0.029725 118.947 0.020582C116.387 -0.00176164 113.811 0.0395073 111.263 0.162022C110.361 0.201954 109.458 0.25782 108.556 0.313686L108.556 0.313692C97.5069 1.06056 86.8534 3.25841 77.8414 7.27004C71.517 10.0794 47.6933 22.6815 40.5358 44.2935C39.9534 46.0706 39.4723 47.9123 39.1351 49.819L39.1348 49.8509C38.7544 51.8529 38.5468 53.9361 38.5135 56.0832C38.4636 58.4546 38.6172 60.8901 39.0164 63.4248C39.2235 64.7307 39.4874 66.069 39.8253 67.4252C40.0212 68.2065 40.2039 68.9717 40.3722 69.7208C40.9742 72.3834 41.418 74.8228 41.7043 77.0684C41.759 77.4832 41.8138 77.8821 41.8541 78.2635C42.0568 80.0794 42.1585 81.7841 42.1593 83.3591C42.1855 85.3647 42.0384 87.1934 41.7615 88.8775C41.6687 89.4969 41.5469 90.1014 41.4252 90.6887C40.8817 93.0079 40.0637 95.0526 39.0141 96.9372C38.4369 97.9666 37.7884 98.9636 37.0674 99.9122C34.9778 102.711 32.3374 105.186 29.3606 107.817C28.394 108.668 27.3823 109.55 26.3413 110.448C25.814 110.906 25.2855 111.362 24.7435 111.835C23.673 112.781 22.5887 113.758 21.4736 114.799C21.2093 115.034 20.9461 115.287 20.6818 115.523C20.5789 115.634 20.4761 115.729 20.3733 115.823L20.3732 115.823C19.9189 116.266 19.4634 116.707 19.009 117.165C16.9833 119.183 15.1025 121.283 13.3818 123.417C11.9557 125.171 10.6459 126.958 9.45109 128.777C9.22276 129.114 8.99544 129.465 8.76706 129.817L8.74359 129.853C7.66635 131.562 6.67637 133.288 5.8028 135.031C5.22572 136.188 4.69127 137.329 4.2016 138.487C4.15706 138.582 4.11239 138.693 4.08242 138.789C3.54793 140.074 3.07187 141.342 2.66742 142.612C2.45884 143.279 2.24919 143.929 2.08326 144.58C2.00861 144.787 1.96311 144.992 1.90303 145.199C1.8578 145.373 1.81256 145.548 1.7819 145.723C1.60177 146.47 1.43514 147.2 1.29764 147.93L1.29511 147.942C1.25045 148.145 1.20605 148.346 1.17568 148.549C1.15958 148.725 1.12892 148.9 1.09839 149.059C1.09811 149.091 1.08328 149.121 1.08299 149.154C0.9287 150.14 0.818113 151.125 0.736663 152.111L0.685879 152.922C0.683237 153.225 0.665899 153.542 0.663257 153.845C0.647171 154.019 0.645629 154.196 0.64425 154.354C0.614676 157.742 1.12414 160.994 2.21734 163.995C2.78483 165.607 3.52688 167.816 5.00939 169.827C6.32975 171.557 7.12414 172.396 8.63566 173.664C37.8295 190.589 302.057 186.403 319.215 172.474C321.66 170.488 321.465 169.184 322.554 166.105C323.259 164.114 324 160.665 324.105 160.317C324.405 159.32 325.245 155.1 325.818 152.719C325.849 152.544 325.894 152.385 325.939 152.21C326.151 151.304 326.362 150.367 326.56 149.43C326.666 148.891 326.773 148.366 326.88 147.826L326.91 147.715C326.94 147.525 326.986 147.318 327.017 147.112C327.183 146.238 327.337 145.348 327.491 144.442C327.998 141.407 328.389 138.228 328.621 134.952C328.686 134.189 328.722 133.44 328.758 132.677Z" fill="#CCECFA"/>
</mask>
<g mask="url(#mask0_10979:87609)">
<path d="M328.758 132.677C328.808 131.913 328.829 131.134 328.851 130.355C328.98 125.518 328.747 120.488 328.008 115.371C327.719 113.365 327.358 111.356 326.911 109.331C326.574 107.849 326.208 106.365 325.785 104.882C325.7 104.61 325.615 104.339 325.53 104.052C324.555 100.766 323.317 97.4621 321.819 94.1701C321.676 93.882 321.533 93.5793 321.404 93.2914C320.262 90.9109 318.972 88.5451 317.538 86.1926C317.381 85.9522 317.238 85.7132 317.08 85.4728C316.247 84.1455 315.342 82.8162 314.379 81.5024C312.998 79.5807 311.473 77.6895 309.831 75.8133C307.57 73.2146 305.305 70.8722 303.084 68.7359C302.16 67.8527 301.236 67.0173 300.327 66.2139C299.547 65.5218 298.768 64.847 297.988 64.22C297.944 64.1718 297.901 64.1396 297.858 64.1073C296.052 62.6268 294.259 61.2911 292.495 60.0818L292.372 59.9998C292.051 59.7862 291.731 59.5731 291.41 59.3725C289.674 58.2272 287.951 57.2095 286.243 56.2876C285.865 56.0944 285.504 55.9 285.127 55.7055C273.453 49.7789 262.593 48.9206 252.983 49.8075C245.543 50.4902 238.835 52.2139 233.078 53.4212C232.699 53.5135 232.335 53.5887 231.955 53.6651C228.211 54.4279 224.875 54.9247 222.025 54.6926C217.489 54.3184 213.805 51.2637 209.844 46.7723C209.555 46.4351 209.268 46.1152 208.98 45.7621C206.676 43.0528 204.259 39.9135 201.524 36.5471C201.055 35.9798 200.572 35.3975 200.09 34.8152L199.984 34.6877C198.947 33.4529 197.853 32.1857 196.715 30.9195C196.543 30.7281 196.355 30.5352 196.182 30.3425C195.792 29.9088 195.402 29.4924 194.999 29.0745C194.827 28.8831 194.64 28.6902 194.466 28.5134C193.169 27.1489 191.784 25.7835 190.327 24.4348C184.034 18.6031 176.14 12.9804 165.674 8.64078L165.66 8.62472C161.223 6.78788 156.35 5.18493 150.934 3.89731C144.981 2.47618 138.574 1.40301 132.004 0.740105C130.42 0.582855 128.836 0.457474 127.237 0.347901C125.506 0.221249 123.79 0.142528 122.06 0.0796159C121.028 0.0546758 119.995 0.029725 118.947 0.020582C116.387 -0.00176164 113.811 0.0395073 111.263 0.162022C110.361 0.201954 109.458 0.25782 108.556 0.313686L108.556 0.313692C97.5069 1.06056 86.8534 3.25841 77.8414 7.27004C71.517 10.0794 47.6933 22.6815 40.5358 44.2935C39.9534 46.0706 39.4723 47.9123 39.1351 49.819L39.1348 49.8509C38.7544 51.8529 38.5468 53.9361 38.5135 56.0832C38.4636 58.4546 38.6172 60.8901 39.0164 63.4248C39.2235 64.7307 39.4874 66.069 39.8253 67.4252C40.0212 68.2065 40.2039 68.9717 40.3722 69.7208C40.9742 72.3834 41.418 74.8228 41.7043 77.0684C41.759 77.4832 41.8138 77.8821 41.8541 78.2635C42.0568 80.0794 42.1585 81.7841 42.1593 83.3591C42.1855 85.3647 42.0384 87.1934 41.7615 88.8775C41.6687 89.4969 41.5469 90.1014 41.4252 90.6887C40.8817 93.0079 40.0637 95.0526 39.0141 96.9372C38.4369 97.9666 37.7884 98.9636 37.0674 99.9122C34.9778 102.711 32.3374 105.186 29.3606 107.817C28.394 108.668 27.3823 109.55 26.3413 110.448C25.814 110.906 25.2855 111.362 24.7435 111.835C23.673 112.781 22.5887 113.758 21.4736 114.799C21.2093 115.034 20.9461 115.287 20.6818 115.523C20.5789 115.634 20.4761 115.729 20.3733 115.823L20.3732 115.823C19.9189 116.266 19.4634 116.707 19.009 117.165C16.9833 119.183 15.1025 121.283 13.3818 123.417C11.9557 125.171 10.6459 126.958 9.45109 128.777C9.22276 129.114 8.99544 129.465 8.76706 129.817L8.74359 129.853C7.66635 131.562 6.67637 133.288 5.8028 135.031C5.22572 136.188 4.69127 137.329 4.2016 138.487C4.15706 138.582 4.11239 138.693 4.08242 138.789C3.54793 140.074 3.07187 141.342 2.66742 142.612C2.45884 143.279 2.24919 143.929 2.08326 144.58C2.00861 144.787 1.96311 144.992 1.90303 145.199C1.8578 145.373 1.81256 145.548 1.7819 145.723C1.60177 146.47 1.43514 147.2 1.29764 147.93L1.29511 147.942C1.25045 148.145 1.20605 148.346 1.17568 148.549C1.15958 148.725 1.12892 148.9 1.09839 149.059C1.09811 149.091 1.08328 149.121 1.08299 149.154C0.9287 150.14 0.818113 151.125 0.736663 152.111L0.685879 152.922C0.683237 153.225 0.665899 153.542 0.663257 153.845C0.647171 154.019 0.645629 154.196 0.64425 154.354C0.614676 157.742 1.12414 160.994 2.21734 163.995C2.78483 165.607 3.52688 167.816 5.00939 169.827C6.32975 171.557 7.12414 172.396 8.63566 173.664C37.8295 190.589 302.057 186.403 319.215 172.474C321.66 170.488 321.465 169.184 322.554 166.105C323.259 164.114 324 160.665 324.105 160.317C324.405 159.32 325.245 155.1 325.818 152.719C325.849 152.544 325.894 152.385 325.939 152.21C326.151 151.304 326.362 150.367 326.56 149.43C326.666 148.891 326.773 148.366 326.88 147.826L326.91 147.715C326.94 147.525 326.986 147.318 327.017 147.112C327.183 146.238 327.337 145.348 327.491 144.442C327.998 141.407 328.389 138.228 328.621 134.952C328.686 134.189 328.722 133.44 328.758 132.677Z" fill="#CCECFA"/>
<mask id="mask1_10979:87609" style="mask-type:alpha" maskUnits="userSpaceOnUse" x="192" y="83" width="230" height="87">
<rect x="192" y="83" width="230" height="87" fill="#C4C4C4"/>
</mask>
<g mask="url(#mask1_10979:87609)">
<path d="M-228.344 170H482V156.643H456.012V145.952H436.691V113.888H420.698V145.952H402.706V130.591H399.108V126.894H376.268V130.591H373.22V145.621H366.223V123.076H354.728V146.623H351.23V139.108H340.735V126.082H325.242V144.118H308.749V107.545H300.253V102.535H256.273V109.048H249.776V146.122H240.781V137.104H232.284V146.122H223.289V132.595H203.298V146.623V150.631H191.803H183.807V88.507H177.809V85H168.314V89.008H162.816V138.607H142.825V110.551H122.835V128.086H77.3555V146.623H57.3646V101.533H34.3752V137.104H18.3825V147.625H2.38983V138.607H-5.60651V114.559H-15.1021V108.046H-56.5832V114.559H-65.579V141.613H-73.5754V149.629H-83.5708V130.591H-129.05V141.112H-168.532V154.639H-190.522V147.124H-203.516V154.639H-220.008V163.657H-238V170H-228.344Z" fill="#8ABDF0"/>
<rect width="6.50601" height="8.71795" transform="matrix(-1 0 0 1 216.338 138.397)" fill="#EBF4FC"/>
<path d="M200.689 123.833L203.545 119.421C203.8 119.025 204.254 118.782 204.738 118.782H222.519C223.003 118.782 223.456 119.025 223.712 119.421L226.568 123.833C228.042 126.111 226.735 129.279 223.98 129.641C223.782 129.667 223.579 129.679 223.377 129.679C222.074 129.679 220.921 129.126 220.129 128.27C219.337 129.126 218.179 129.679 216.881 129.679C215.578 129.679 214.425 129.126 213.633 128.27C212.84 129.126 211.683 129.679 210.385 129.679C209.082 129.679 207.929 129.126 207.136 128.27C206.34 129.126 205.187 129.679 203.888 129.679C203.681 129.679 203.483 129.667 203.285 129.641C200.521 129.283 199.21 126.115 200.689 123.833Z" fill="#8ABDF0"/>
<rect width="6.50604" height="8.71795" transform="matrix(-1 0 0 1 300.916 116.603)" fill="#EBF4FC"/>
<rect width="6.50603" height="8.71795" transform="matrix(-1 0 0 1 277.061 116.603)" fill="#EBF4FC"/>
<rect width="6.50601" height="8.71795" transform="matrix(-1 0 0 1 288.988 116.603)" fill="#EBF4FC"/>
<rect width="6.50601" height="8.71795" transform="matrix(-1 0 0 1 265.133 116.603)" fill="#EBF4FC"/>
<rect width="6.50604" height="8.71795" transform="matrix(-1 0 0 1 300.916 129.679)" fill="#EBF4FC"/>
<rect width="6.50603" height="8.71795" transform="matrix(-1 0 0 1 277.061 129.679)" fill="#EBF4FC"/>
<rect width="6.50601" height="8.71795" transform="matrix(-1 0 0 1 288.988 129.679)" fill="#EBF4FC"/>
<rect width="6.50601" height="8.71795" transform="matrix(-1 0 0 1 265.133 129.679)" fill="#EBF4FC"/>
</g>
<mask id="mask2_10979:87609" style="mask-type:alpha" maskUnits="userSpaceOnUse" x="-113" y="83" width="230" height="87">
<rect x="-113" y="83" width="230" height="87" fill="#C4C4C4"/>
</mask>
<g mask="url(#mask2_10979:87609)">
<path d="M-304.344 170H406V156.643H380.012V145.952H360.691V113.888H344.698V145.952H326.706V130.591H323.108V126.894H300.268V130.591H297.22V145.621H290.223V123.076H278.728V146.623H275.23V139.108H264.735V126.082H249.242V144.118H232.749V107.545H224.253V102.535H180.273V109.048H173.776V146.122H164.781V137.104H156.284V146.122H147.289V132.595H127.298V146.623V150.631H115.803H107.807V88.507H101.809V85H92.3138V89.008H86.8163V138.607H66.8255V110.551H46.8346V128.086H1.35547V146.623H-18.6354V101.533H-41.6248V137.104H-57.6175V147.625H-73.6102V138.607H-81.6065V114.559H-91.1021V108.046H-132.583V114.559H-141.579V141.613H-149.575V149.629H-159.571V130.591H-205.05V141.112H-244.532V154.639H-266.522V147.124H-279.516V154.639H-296.008V163.657H-314V170H-304.344Z" fill="#8ABDF0"/>
<path d="M2.47672 116.55L6.81846 109.933C7.20648 109.338 7.89553 108.974 8.63142 108.974H35.6586C36.3945 108.974 37.0835 109.338 37.4715 109.933L41.8133 116.55C44.0544 119.968 42.0675 124.72 37.8796 125.263C37.5786 125.301 37.2708 125.321 36.9631 125.321C34.9829 125.321 33.2301 124.49 32.026 123.206C30.8218 124.49 29.0623 125.321 27.0888 125.321C25.1086 125.321 23.3559 124.49 22.1517 123.206C20.9475 124.49 19.1881 125.321 17.2146 125.321C15.2343 125.321 13.4816 124.49 12.2774 123.206C11.0665 124.49 9.31379 125.321 7.34027 125.321C7.02585 125.321 6.7248 125.301 6.42376 125.263C2.22251 124.726 0.22892 119.974 2.47672 116.55Z" fill="#8ABDF0"/>
<rect width="6.50601" height="8.71795" transform="matrix(-1 0 0 1 100.217 95.8974)" fill="#EBF4FC"/>
<rect width="6.50601" height="8.71795" transform="matrix(-1 0 0 1 100.217 108.974)" fill="#EBF4FC"/>
<rect width="6.50601" height="8.71795" transform="matrix(-1 0 0 1 100.217 122.051)" fill="#EBF4FC"/>
<rect width="6.50604" height="8.71795" transform="matrix(-1 0 0 1 60.0957 118.782)" fill="#EBF4FC"/>
<rect width="6.50604" height="8.71795" transform="matrix(-1 0 0 1 26.4805 134.038)" fill="#EBF4FC"/>
<rect width="6.50601" height="8.71795" transform="matrix(-1 0 0 1 38.4082 134.038)" fill="#EBF4FC"/>
<rect width="6.50601" height="8.71795" transform="matrix(-1 0 0 1 14.5527 134.038)" fill="#EBF4FC"/>
</g>
<path d="M191.918 128.684H155.67V173.714H191.918V128.684Z" fill="url(#paint0_linear_10979:87609)"/>
<path d="M191.913 166.701H155.609V173.691H191.913V166.701Z" fill="#8E0707"/>
<path d="M196 133.103H137.984L139.281 129.538L139.337 129.397L145.121 113.564H188.858L194.647 129.397L194.698 129.538L196 133.103Z" fill="#3A484D"/>
<path d="M196 133.103H137.984L139.281 129.538L139.337 129.397L145.121 113.564H188.858L194.647 129.397L194.698 129.538L196 133.103Z" fill="#08232D"/>
<path d="M196 133.103H137.984L139.281 129.538H194.698L196 133.103Z" fill="#00171F"/>
<path d="M182.992 140.295H172.363V160.194H182.992V140.295Z" fill="#DCE1E2"/>
<path d="M181.718 141.845H173.639V158.644H181.718V141.845Z" fill="#8ABDF0"/>
<path opacity="0.5" d="M191.919 132.963L155.609 173.691L155.682 133.109L191.919 132.963Z" fill="#9C2E2D"/>
<path d="M164.715 124.058H116.25V173.714H164.715V124.058Z" fill="url(#paint1_linear_10979:87609)"/>
<path d="M164.654 166.774H116.211V173.764H164.654V166.774Z" fill="#9D0303"/>
<path d="M164.76 123.974H116.193V129.257H164.76V123.974Z" fill="#CE3736"/>
<path d="M148.298 145.64H133.127V173.742H148.298V145.64Z" fill="white"/>
<path d="M146.771 146.982H134.654V173.736H146.771V146.982Z" fill="#923636"/>
<path d="M129.568 145.64H118.939V165.539H129.568V145.64Z" fill="white"/>
<path d="M128.294 147.196H120.215V163.995H128.294V147.196Z" fill="#8ABDF0"/>
<path d="M162.021 145.64H151.393V165.539H162.021V145.64Z" fill="white"/>
<path d="M160.747 147.196H152.668V163.995H160.747V147.196Z" fill="#8ABDF0"/>
<path d="M146.091 160.418C146.091 160.867 145.726 161.232 145.277 161.232C144.828 161.232 144.463 160.867 144.463 160.418C144.463 159.969 144.828 159.604 145.277 159.604C145.726 159.604 146.091 159.969 146.091 160.418Z" fill="#F3CD33"/>
<path d="M161.53 132.278H118.59V138.268H161.53V132.278Z" fill="white"/>
<path d="M132.122 133.17H119.904V137.37H132.122V133.17Z" fill="#8ABDF0"/>
<path d="M146.096 133.17H133.879V137.37H146.096V133.17Z" fill="#8ABDF0"/>
<path d="M160.065 133.17H147.848V137.37H160.065V133.17Z" fill="#8ABDF0"/>
<path d="M169.465 127.539H111.449L112.802 123.833L113.381 122.239L113.718 121.329L118.585 108H162.323L167.421 121.952L167.758 122.862L168.112 123.833L169.465 127.539Z" fill="#08232D"/>
<path d="M169.465 127.539H111.449L112.802 123.833H168.112L169.465 127.539Z" fill="#00171F"/>
<path d="M123.859 112.262H121.293C121.04 112.262 120.838 112.059 120.838 111.807C120.838 111.554 121.04 111.352 121.293 111.352H123.859C124.111 111.352 124.313 111.554 124.313 111.807C124.313 112.059 124.111 112.262 123.859 112.262Z" fill="#48575C"/>
<path d="M167.759 122.862H166.31C166.058 122.862 165.855 122.654 165.855 122.401C165.855 122.154 166.058 121.947 166.31 121.947H167.422L167.759 122.862Z" fill="#48575C"/>
<path d="M127.929 117.208H125.363C125.11 117.208 124.908 117.006 124.908 116.753C124.908 116.5 125.11 116.298 125.363 116.298H127.929C128.182 116.298 128.384 116.5 128.384 116.753C128.384 117.006 128.176 117.208 127.929 117.208Z" fill="#48575C"/>
<path d="M151.089 110.684H148.523C148.27 110.684 148.068 110.482 148.068 110.229C148.068 109.976 148.27 109.774 148.523 109.774H151.089C151.342 109.774 151.544 109.976 151.544 110.229C151.544 110.476 151.342 110.684 151.089 110.684Z" fill="#48575C"/>
<path d="M148.361 113.25H145.795C145.542 113.25 145.34 113.048 145.34 112.795C145.34 112.542 145.542 112.34 145.795 112.34H148.361C148.613 112.34 148.815 112.542 148.815 112.795C148.815 113.048 148.613 113.25 148.361 113.25Z" fill="#48575C"/>
<path d="M140.196 122.132H137.625C137.372 122.132 137.17 121.93 137.17 121.677C137.17 121.425 137.372 121.222 137.625 121.222H140.191C140.443 121.222 140.645 121.425 140.645 121.677C140.651 121.924 140.443 122.132 140.196 122.132Z" fill="#48575C"/>
<path d="M158.046 121.649H155.48C155.228 121.649 155.025 121.447 155.025 121.194C155.025 120.942 155.228 120.74 155.48 120.74H158.046C158.299 120.74 158.501 120.942 158.501 121.194C158.501 121.447 158.299 121.649 158.046 121.649Z" fill="#48575C"/>
<path d="M162.323 116.725H159.758C159.505 116.725 159.303 116.523 159.303 116.27C159.303 116.018 159.505 115.816 159.758 115.816H162.323C162.576 115.816 162.778 116.018 162.778 116.27C162.778 116.523 162.576 116.725 162.323 116.725Z" fill="#48575C"/>
<path d="M115.649 121.778C115.649 122.031 115.447 122.239 115.195 122.239H113.387L113.718 121.329H115.195C115.447 121.329 115.649 121.531 115.649 121.778Z" fill="#48575C"/>
<path d="M166.76 39.0766C166.76 51.074 149.997 72.9671 142.411 82.2603C140.523 84.573 136.994 84.573 135.107 82.2603C127.521 72.9667 110.758 51.074 110.758 39.0766C110.758 23.5704 123.294 11 138.759 11C154.223 11 166.76 23.5704 166.76 39.0766Z" fill="url(#paint2_linear_10979:87609)"/>
<path d="M138.758 101.658C141.919 101.658 144.482 99.0891 144.482 95.9198C144.482 92.7505 141.919 90.1812 138.758 90.1812C135.598 90.1812 133.035 92.7505 133.035 95.9198C133.035 99.0891 135.598 101.658 138.758 101.658Z" fill="#D30000"/>
<path d="M166.002 39.0766C166.002 51.074 149.24 72.9671 141.653 82.2603C139.765 84.573 136.237 84.573 134.349 82.2603C126.763 72.9667 110 51.074 110 39.0766C110 23.5704 122.537 11 138.001 11C153.466 11 166.002 23.5704 166.002 39.0766Z" fill="#D30000"/>
<path d="M138.002 54.7353C146.626 54.7353 153.618 47.7247 153.618 39.0766C153.618 30.4285 146.626 23.4179 138.002 23.4179C129.377 23.4179 122.385 30.4285 122.385 39.0766C122.385 47.7247 129.377 54.7353 138.002 54.7353Z" fill="white"/>
<mask id="mask3_10979:87609" style="mask-type:alpha" maskUnits="userSpaceOnUse" x="122" y="23" width="32" height="32">
<path d="M138.002 54.7353C146.626 54.7353 153.618 47.7247 153.618 39.0766C153.618 30.4285 146.626 23.4179 138.002 23.4179C129.377 23.4179 122.385 30.4285 122.385 39.0766C122.385 47.7247 129.377 54.7353 138.002 54.7353Z" fill="white"/>
</mask>
<g mask="url(#mask3_10979:87609)">
<path d="M137.955 42.3611C137.481 42.3611 137.107 42.2037 136.833 41.8889C136.577 41.5741 136.45 41.1297 136.45 40.5556C136.45 39.6852 136.614 38.963 136.942 38.3889C137.271 37.7963 137.727 37.1945 138.311 36.5834C138.73 36.1204 139.041 35.7223 139.241 35.3889C139.46 35.0556 139.57 34.6852 139.57 34.2778C139.57 33.8704 139.424 33.5463 139.132 33.3056C138.84 33.0648 138.439 32.9445 137.928 32.9445C137.508 32.9445 137.088 33.0278 136.669 33.1945C136.267 33.3426 135.811 33.5648 135.3 33.8611L134.643 34.1945C134.023 34.5463 133.521 34.7223 133.138 34.7223C132.682 34.7223 132.29 34.5278 131.961 34.1389C131.651 33.7315 131.496 33.2408 131.496 32.6667C131.496 32.2778 131.56 31.9537 131.688 31.6945C131.834 31.4352 132.062 31.1852 132.372 30.9445C133.193 30.3334 134.123 29.8611 135.163 29.5278C136.222 29.176 137.28 29 138.338 29C139.524 29 140.582 29.213 141.513 29.6389C142.443 30.0463 143.173 30.6204 143.702 31.3611C144.232 32.0834 144.496 32.9074 144.496 33.8334C144.496 34.5185 144.35 35.1482 144.058 35.7223C143.785 36.2963 143.447 36.7871 143.046 37.1945C142.644 37.6019 142.124 38.0926 141.486 38.6667C140.883 39.1667 140.418 39.6019 140.09 39.9723C139.78 40.3241 139.579 40.6945 139.488 41.0834C139.415 41.4908 139.232 41.8056 138.94 42.0278C138.667 42.25 138.338 42.3611 137.955 42.3611ZM138.01 49C137.262 49 136.632 48.7408 136.121 48.2223C135.629 47.7037 135.382 47.0648 135.382 46.3056C135.382 45.5463 135.629 44.9074 136.121 44.3889C136.632 43.8704 137.262 43.6111 138.01 43.6111C138.776 43.6111 139.406 43.8704 139.898 44.3889C140.409 44.9074 140.665 45.5463 140.665 46.3056C140.665 47.0648 140.409 47.7037 139.898 48.2223C139.406 48.7408 138.776 49 138.01 49Z" fill="#D30000"/>
</g>
<g opacity="0.5">
<path opacity="0.6" d="M137.877 70.7324C139.654 59.0018 147.38 55.2468 146.054 44.1703C144.524 31.3958 133.244 27.9936 132.972 16.6243C132.928 14.794 133.176 13.0287 133.645 11.3387C120.249 13.4374 110 25.0563 110 39.0766C110 51.074 126.763 72.9671 134.349 82.2603C135.46 83.6216 137.14 84.1805 138.719 83.9392C137.361 78.8012 137.32 74.4136 137.877 70.7324Z" fill="white"/>
</g>
<path d="M31.4372 149.002C29.8742 149.011 28.3086 149.065 26.7434 149.165C20.4824 149.567 14.326 150.755 9.25797 152.832C4.18998 154.909 0.267285 157.904 -1.24285 161.296C-2.26756 163.598 -2.17812 166.022 -1.41709 168.355C-0.655844 170.687 0.761158 172.94 2.37272 175.136C5.59579 179.528 9.65395 183.808 11.0215 188.488C11.9185 191.558 11.6201 194.698 11.0215 197.791C8.52022 210.712 0.823777 223.444 2.64378 236.4C3.93486 245.591 10.1077 254.517 19.8064 262.006C25.7192 266.572 32.9231 270.601 41.0035 274H296.915C299.247 273.163 301.309 272.082 302.79 270.78C305.311 268.565 306.033 265.824 305.517 263.22C305.002 260.617 303.328 258.125 301.352 255.746C299.376 253.367 297.084 251.069 295.227 248.661C293.37 246.253 291.942 243.701 291.817 241.083C291.672 238.074 293.271 235.088 295.844 232.436C298.416 229.785 301.936 227.446 305.77 225.313C313.438 221.048 322.468 217.519 329.256 212.818C335.399 208.563 339.517 203.425 341.167 198.053C342.816 192.682 341.999 187.088 338.883 181.92C332.652 171.584 316.982 163.215 298.272 159.865C286.232 157.709 273.247 157.542 260.718 158.515C248.188 159.489 236.029 161.568 224.058 163.838C200.115 168.376 175.685 173.787 150.451 172.745C134.747 172.097 119.711 168.955 105.518 165.175C91.3238 161.395 77.7171 156.945 63.3075 153.425C53.2145 150.959 42.3774 148.932 31.4369 149.002L31.4372 149.002Z" fill="#66E0A3"/>
<path d="M31.4372 149.002C29.8742 149.011 28.3086 149.065 26.7434 149.165C20.4824 149.567 14.326 150.755 9.25797 152.832C4.18998 154.909 0.267285 157.904 -1.24285 161.296C-2.26756 163.598 -2.17812 166.022 -1.41709 168.355C-0.655844 170.687 0.761158 172.94 2.37272 175.136C5.59579 179.528 9.65395 183.808 11.0215 188.488C11.9185 191.558 11.6201 194.698 11.0215 197.791C8.52022 210.712 0.823777 223.444 2.64378 236.4C3.93486 245.591 10.1077 254.517 19.8064 262.006C25.7192 266.572 32.9231 270.601 41.0035 274H296.915C299.247 273.163 301.309 272.082 302.79 270.78C305.311 268.565 306.033 265.824 305.517 263.22C305.002 260.617 303.328 258.125 301.352 255.746C299.376 253.367 297.084 251.069 295.227 248.661C293.37 246.253 291.942 243.701 291.817 241.083C291.672 238.074 293.271 235.088 295.844 232.436C298.416 229.785 301.936 227.446 305.77 225.313C313.438 221.048 322.468 217.519 329.256 212.818C335.399 208.563 339.517 203.425 341.167 198.053C342.816 192.682 341.999 187.088 338.883 181.92C332.652 171.584 316.982 163.215 298.272 159.865C286.232 157.709 273.247 157.542 260.718 158.515C248.188 159.489 236.029 161.568 224.058 163.838C200.115 168.376 175.685 173.787 150.451 172.745C134.747 172.097 119.711 168.955 105.518 165.175C91.3238 161.395 77.7171 156.945 63.3075 153.425C53.2145 150.959 42.3774 148.932 31.4369 149.002L31.4372 149.002Z" fill="url(#paint3_linear_10979:87609)"/>
</g>
<defs>
<linearGradient id="paint0_linear_10979:87609" x1="177.211" y1="173.714" x2="175.647" y2="89.6673" gradientUnits="userSpaceOnUse">
<stop offset="0.196301" stop-color="#D30000"/>
<stop offset="1" stop-color="#F6CCCC"/>
</linearGradient>
<linearGradient id="paint1_linear_10979:87609" x1="145.052" y1="173.714" x2="143.629" y2="81.0219" gradientUnits="userSpaceOnUse">
<stop offset="0.196301" stop-color="#D30000"/>
<stop offset="1" stop-color="#F6CCCC"/>
</linearGradient>
<linearGradient id="paint2_linear_10979:87609" x1="114.039" y1="28.3952" x2="142.174" y2="47.3002" gradientUnits="userSpaceOnUse">
<stop stop-color="#FFC444"/>
<stop offset="0.9964" stop-color="#F36F56"/>
</linearGradient>
<linearGradient id="paint3_linear_10979:87609" x1="170" y1="274" x2="170" y2="149" gradientUnits="userSpaceOnUse">
<stop stop-color="#00B59C"/>
<stop offset="1" stop-color="#9CFFAC"/>
</linearGradient>
</defs>
</svg>
