<svg width="329" height="185" viewBox="0 0 329 185" fill="none" xmlns="http://www.w3.org/2000/svg">
<mask id="mask0_10857:330713" style="mask-type:alpha" maskUnits="userSpaceOnUse" x="0" y="0" width="329" height="185">
<path d="M0.242424 132.677C0.192061 131.913 0.170672 131.134 0.149313 130.355C0.0196971 125.518 0.252638 120.488 0.992286 115.371C1.28073 113.365 1.64197 111.356 2.08928 109.331C2.42599 107.849 2.79187 106.365 3.2148 104.882C3.29983 104.61 3.38487 104.339 3.46978 104.052C4.44517 100.766 5.68261 97.4621 7.18123 94.1701C7.32441 93.882 7.46746 93.5793 7.59606 93.2914C8.73839 90.9109 10.0278 88.5451 11.4617 86.1926C11.6187 85.9522 11.7623 85.7132 11.9205 85.4728C12.7527 84.1455 13.6577 82.8162 14.6211 81.5024C16.0018 79.5807 17.5272 77.6895 19.1693 75.8133C21.4303 73.2146 23.6948 70.8722 25.9161 68.7359C26.8396 67.8527 27.7635 67.0173 28.6732 66.2139C29.4526 65.5218 30.2323 64.847 31.0123 64.22C31.0556 64.1718 31.099 64.1396 31.1425 64.1073C32.9482 62.6268 34.7408 61.2911 36.5052 60.0818L36.6285 59.9998C36.9493 59.7862 37.2693 59.5731 37.5905 59.3725C39.3263 58.2272 41.0488 57.2095 42.7575 56.2876C43.1346 56.0944 43.4959 55.9 43.873 55.7055C55.5469 49.7789 66.4068 48.9206 76.0168 49.8075C83.4567 50.4902 90.165 52.2139 95.9219 53.4212C96.3015 53.5135 96.6651 53.5887 97.0446 53.6651C100.789 54.4279 104.125 54.9247 106.975 54.6926C111.511 54.3184 115.195 51.2637 119.156 46.7723C119.445 46.4351 119.732 46.1152 120.02 45.7621C122.324 43.0528 124.741 39.9135 127.476 36.5471C127.945 35.9798 128.428 35.3975 128.91 34.8152L129.016 34.6877C130.053 33.4529 131.147 32.1857 132.285 30.9195C132.457 30.7281 132.645 30.5352 132.818 30.3425C133.208 29.9088 133.598 29.4924 134.001 29.0745C134.173 28.8831 134.36 28.6902 134.534 28.5134C135.831 27.1489 137.216 25.7835 138.673 24.4348C144.966 18.6031 152.86 12.9804 163.326 8.64078L163.34 8.62472C167.777 6.78788 172.65 5.18493 178.066 3.89731C184.019 2.47618 190.426 1.40301 196.996 0.740105C198.58 0.582855 200.164 0.457474 201.763 0.347901C203.494 0.221249 205.21 0.142528 206.94 0.0796159C207.972 0.0546758 209.005 0.029725 210.053 0.020582C212.613 -0.00176164 215.189 0.0395073 217.737 0.162022C218.639 0.201954 219.542 0.25782 220.444 0.313686L220.444 0.313692C231.493 1.06056 242.147 3.25841 251.159 7.27004C257.483 10.0794 281.307 22.6815 288.464 44.2935C289.047 46.0706 289.528 47.9123 289.865 49.819L289.865 49.8509C290.246 51.8529 290.453 53.9361 290.487 56.0832C290.536 58.4546 290.383 60.8901 289.984 63.4248C289.776 64.7307 289.513 66.069 289.175 67.4252C288.979 68.2065 288.796 68.9717 288.628 69.7208C288.026 72.3834 287.582 74.8228 287.296 77.0684C287.241 77.4832 287.186 77.8821 287.146 78.2635C286.943 80.0794 286.842 81.7841 286.841 83.3591C286.814 85.3647 286.962 87.1934 287.238 88.8775C287.331 89.4969 287.453 90.1014 287.575 90.6887C288.118 93.0079 288.936 95.0526 289.986 96.9372C290.563 97.9666 291.212 98.9636 291.933 99.9122C294.022 102.711 296.663 105.186 299.639 107.817C300.606 108.668 301.618 109.55 302.659 110.448C303.186 110.906 303.714 111.362 304.256 111.835C305.327 112.781 306.411 113.758 307.526 114.799C307.791 115.034 308.054 115.287 308.318 115.523C308.421 115.634 308.524 115.729 308.627 115.823L308.627 115.823C309.081 116.266 309.537 116.707 309.991 117.165C312.017 119.183 313.897 121.283 315.618 123.417C317.044 125.171 318.354 126.958 319.549 128.777C319.777 129.114 320.005 129.465 320.233 129.817L320.256 129.853C321.334 131.562 322.324 133.288 323.197 135.031C323.774 136.188 324.309 137.329 324.798 138.487C324.843 138.582 324.888 138.693 324.918 138.789C325.452 140.074 325.928 141.342 326.333 142.612C326.541 143.279 326.751 143.929 326.917 144.58C326.991 144.787 327.037 144.992 327.097 145.199C327.142 145.373 327.187 145.548 327.218 145.723C327.398 146.47 327.565 147.2 327.702 147.93L327.705 147.942C327.75 148.145 327.794 148.346 327.824 148.549C327.84 148.725 327.871 148.9 327.902 149.059C327.902 149.091 327.917 149.121 327.917 149.154C328.071 150.14 328.182 151.125 328.263 152.111L328.314 152.922C328.317 153.225 328.334 153.542 328.337 153.845C328.353 154.019 328.354 154.196 328.356 154.354C328.385 157.742 327.876 160.994 326.783 163.995C326.215 165.607 325.473 167.816 323.991 169.827C322.67 171.557 321.876 172.396 320.364 173.664C291.171 190.589 26.943 186.403 9.7853 172.474C7.33972 170.488 7.53522 169.184 6.44603 166.105C5.74134 164.114 5.00049 160.665 4.89546 160.317C4.59475 159.32 3.75501 155.1 3.18181 152.719C3.15113 152.544 3.10607 152.385 3.06084 152.21C2.84899 151.304 2.63801 150.367 2.44044 149.43C2.33373 148.891 2.22719 148.366 2.12049 147.826L2.0904 147.715C2.0596 147.525 2.01412 147.318 1.98317 147.112C1.81651 146.238 1.66305 145.348 1.50945 144.442C1.00217 141.407 0.611382 138.228 0.378829 134.952C0.313879 134.189 0.278231 133.44 0.242424 132.677Z" fill="#CCECFA"/>
</mask>
<g mask="url(#mask0_10857:330713)">
<path d="M0.242424 132.677C0.192061 131.913 0.170672 131.134 0.149313 130.355C0.0196971 125.518 0.252638 120.488 0.992286 115.371C1.28073 113.365 1.64197 111.356 2.08928 109.331C2.42599 107.849 2.79187 106.365 3.2148 104.882C3.29983 104.61 3.38487 104.339 3.46978 104.052C4.44517 100.766 5.68261 97.4621 7.18123 94.1701C7.32441 93.882 7.46746 93.5793 7.59606 93.2914C8.73839 90.9109 10.0278 88.5451 11.4617 86.1926C11.6187 85.9522 11.7623 85.7132 11.9205 85.4728C12.7527 84.1455 13.6577 82.8162 14.6211 81.5024C16.0018 79.5807 17.5272 77.6895 19.1693 75.8133C21.4303 73.2146 23.6948 70.8722 25.9161 68.7359C26.8396 67.8527 27.7635 67.0173 28.6732 66.2139C29.4526 65.5218 30.2323 64.847 31.0123 64.22C31.0556 64.1718 31.099 64.1396 31.1425 64.1073C32.9482 62.6268 34.7408 61.2911 36.5052 60.0818L36.6285 59.9998C36.9493 59.7862 37.2693 59.5731 37.5905 59.3725C39.3263 58.2272 41.0488 57.2095 42.7575 56.2876C43.1346 56.0944 43.4959 55.9 43.873 55.7055C55.5469 49.7789 66.4068 48.9206 76.0168 49.8075C83.4567 50.4902 90.165 52.2139 95.9219 53.4212C96.3015 53.5135 96.6651 53.5887 97.0446 53.6651C100.789 54.4279 104.125 54.9247 106.975 54.6926C111.511 54.3184 115.195 51.2637 119.156 46.7723C119.445 46.4351 119.732 46.1152 120.02 45.7621C122.324 43.0528 124.741 39.9135 127.476 36.5471C127.945 35.9798 128.428 35.3975 128.91 34.8152L129.016 34.6877C130.053 33.4529 131.147 32.1857 132.285 30.9195C132.457 30.7281 132.645 30.5352 132.818 30.3425C133.208 29.9088 133.598 29.4924 134.001 29.0745C134.173 28.8831 134.36 28.6902 134.534 28.5134C135.831 27.1489 137.216 25.7835 138.673 24.4348C144.966 18.6031 152.86 12.9804 163.326 8.64078L163.34 8.62472C167.777 6.78788 172.65 5.18493 178.066 3.89731C184.019 2.47618 190.426 1.40301 196.996 0.740105C198.58 0.582855 200.164 0.457474 201.763 0.347901C203.494 0.221249 205.21 0.142528 206.94 0.0796159C207.972 0.0546758 209.005 0.029725 210.053 0.020582C212.613 -0.00176164 215.189 0.0395073 217.737 0.162022C218.639 0.201954 219.542 0.25782 220.444 0.313686L220.444 0.313692C231.493 1.06056 242.147 3.25841 251.159 7.27004C257.483 10.0794 281.307 22.6815 288.464 44.2935C289.047 46.0706 289.528 47.9123 289.865 49.819L289.865 49.8509C290.246 51.8529 290.453 53.9361 290.487 56.0832C290.536 58.4546 290.383 60.8901 289.984 63.4248C289.776 64.7307 289.513 66.069 289.175 67.4252C288.979 68.2065 288.796 68.9717 288.628 69.7208C288.026 72.3834 287.582 74.8228 287.296 77.0684C287.241 77.4832 287.186 77.8821 287.146 78.2635C286.943 80.0794 286.842 81.7841 286.841 83.3591C286.814 85.3647 286.962 87.1934 287.238 88.8775C287.331 89.4969 287.453 90.1014 287.575 90.6887C288.118 93.0079 288.936 95.0526 289.986 96.9372C290.563 97.9666 291.212 98.9636 291.933 99.9122C294.022 102.711 296.663 105.186 299.639 107.817C300.606 108.668 301.618 109.55 302.659 110.448C303.186 110.906 303.714 111.362 304.256 111.835C305.327 112.781 306.411 113.758 307.526 114.799C307.791 115.034 308.054 115.287 308.318 115.523C308.421 115.634 308.524 115.729 308.627 115.823L308.627 115.823C309.081 116.266 309.537 116.707 309.991 117.165C312.017 119.183 313.897 121.283 315.618 123.417C317.044 125.171 318.354 126.958 319.549 128.777C319.777 129.114 320.005 129.465 320.233 129.817L320.256 129.853C321.334 131.562 322.324 133.288 323.197 135.031C323.774 136.188 324.309 137.329 324.798 138.487C324.843 138.582 324.888 138.693 324.918 138.789C325.452 140.074 325.928 141.342 326.333 142.612C326.541 143.279 326.751 143.929 326.917 144.58C326.991 144.787 327.037 144.992 327.097 145.199C327.142 145.373 327.187 145.548 327.218 145.723C327.398 146.47 327.565 147.2 327.702 147.93L327.705 147.942C327.75 148.145 327.794 148.346 327.824 148.549C327.84 148.725 327.871 148.9 327.902 149.059C327.902 149.091 327.917 149.121 327.917 149.154C328.071 150.14 328.182 151.125 328.263 152.111L328.314 152.922C328.317 153.225 328.334 153.542 328.337 153.845C328.353 154.019 328.354 154.196 328.356 154.354C328.385 157.742 327.876 160.994 326.783 163.995C326.215 165.607 325.473 167.816 323.991 169.827C322.67 171.557 321.876 172.396 320.364 173.664C291.171 190.589 26.943 186.403 9.7853 172.474C7.33972 170.488 7.53522 169.184 6.44603 166.105C5.74134 164.114 5.00049 160.665 4.89546 160.317C4.59475 159.32 3.75501 155.1 3.18181 152.719C3.15113 152.544 3.10607 152.385 3.06084 152.21C2.84899 151.304 2.63801 150.367 2.44044 149.43C2.33373 148.891 2.22719 148.366 2.12049 147.826L2.0904 147.715C2.0596 147.525 2.01412 147.318 1.98317 147.112C1.81651 146.238 1.66305 145.348 1.50945 144.442C1.00217 141.407 0.611382 138.228 0.378829 134.952C0.313879 134.189 0.278231 133.44 0.242424 132.677Z" fill="#CCECFA"/>
<path d="M92.4825 114.114C91.3989 111.83 89.2325 107.265 86.4384 104.908C83.6442 102.551 80.2261 102.405 78.2561 103.888C76.2861 105.372 75.7698 108.485 76.6725 110.841C77.5752 113.196 79.8991 114.797 82.9515 115.597C86.0037 116.397 89.7856 116.397 91.6758 116.397C93.5661 116.397 93.5661 116.397 92.4825 114.114V114.114Z" stroke="#F6CCCC" stroke-width="4"/>
<path d="M93.9976 114.114C95.0812 111.83 97.2476 107.265 100.042 104.908C102.836 102.551 106.254 102.405 108.224 103.888C110.194 105.372 110.71 108.485 109.808 110.841C108.905 113.196 106.581 114.797 103.529 115.597C100.476 116.397 96.6945 116.397 94.8043 116.397C92.914 116.397 92.914 116.397 93.9976 114.114V114.114Z" stroke="#F6CCCC" stroke-width="4"/>
<path d="M63.8341 122.821V177.575H109.004V122.821H63.8341Z" fill="url(#paint0_linear_10857:330713)"/>
<path d="M129.448 122.821H109.004V177.575H129.448V122.821Z" fill="url(#paint1_linear_10857:330713)"/>
<path d="M63.8344 128.458V142.391H129.449V128.458H63.8344Z" fill="url(#paint2_linear_10857:330713)"/>
<path d="M92.0908 142.398H80.7463V177.576H92.0908V142.398Z" fill="#F6CCCC"/>
<path d="M63.8344 128.458V142.391H109.142V128.458H63.8344Z" fill="url(#paint3_linear_10857:330713)"/>
<path d="M134.282 116.38H59V138.925H134.282V116.38Z" fill="url(#paint4_linear_10857:330713)"/>
<path d="M92.0908 133.395H80.7463V142.398H92.0908V133.395Z" fill="#D99C9C"/>
<path d="M107.061 116.38H59V138.925H107.061V116.38Z" fill="url(#paint5_linear_10857:330713)"/>
<path d="M88.7027 116.397H77.3583V138.854H88.7027V116.397Z" fill="#F6CCCC"/>
<path d="M207.474 119.442L213.178 113.738L218.882 119.442L224.586 113.738L224.899 114.05V86.6342C224.899 79.1044 218.795 73 211.265 73H172.417V120.388H195.119L201.77 113.737L207.474 119.442Z" fill="#85D1F0"/>
<path d="M195.119 120.388L201.77 113.738L205.287 117.255V86.6342C205.287 80.4339 209.427 75.2038 215.093 73.5487C213.877 73.1939 212.594 73 211.264 73H172.417V120.388H195.119V120.388Z" fill="#66C7EF"/>
<path d="M210.47 73H133.634C126.104 73 120 79.104 120 86.6342V207.5H196.836V86.6342C196.836 79.1044 202.94 73 210.47 73Z" fill="white"/>
<path d="M131 94.6103C131 92.6223 132.612 91.0107 134.6 91.0107H158.697C160.685 91.0107 162.297 92.6223 162.297 94.6103C162.297 96.5982 160.685 98.2098 158.697 98.2098H134.6C132.612 98.2098 131 96.5982 131 94.6103Z" fill="#8ABDF0"/>
<path d="M175.094 94.6103C175.094 92.6223 176.706 91.0107 178.694 91.0107H182.488C184.476 91.0107 186.087 92.6223 186.087 94.6103C186.087 96.5982 184.476 98.2098 182.488 98.2098H178.694C176.706 98.2098 175.094 96.5982 175.094 94.6103Z" fill="#E56666"/>
<path d="M131 115.809C131 113.821 132.612 112.21 134.6 112.21H158.697C160.685 112.21 162.297 113.821 162.297 115.809C162.297 117.797 160.685 119.409 158.697 119.409H134.6C132.612 119.409 131 117.797 131 115.809Z" fill="#8ABDF0"/>
<path d="M175.094 114.256C175.094 112.268 176.706 110.657 178.694 110.657H182.488C184.476 110.657 186.087 112.268 186.087 114.256C186.087 116.244 184.476 117.856 182.488 117.856H178.694C176.706 117.856 175.094 116.244 175.094 114.256Z" fill="#E56666"/>
<path d="M131 137.008C131 135.02 132.612 133.409 134.6 133.409H158.697C160.685 133.409 162.297 135.02 162.297 137.008C162.297 138.996 160.685 140.608 158.697 140.608H134.6C132.612 140.608 131 138.996 131 137.008Z" fill="#8ABDF0"/>
<path d="M131 158.208C131 156.22 132.612 154.608 134.6 154.608H158.697C160.685 154.608 162.297 156.22 162.297 158.208C162.297 160.196 160.685 161.807 158.697 161.807H134.6C132.612 161.807 131 160.196 131 158.208Z" fill="#8ABDF0"/>
<path d="M30.2784 158.571C28.716 158.579 27.1508 158.629 25.586 158.722C19.3268 159.094 13.1722 160.193 8.10558 162.114C3.03904 164.036 -0.882533 166.807 -2.39224 169.945C-3.41665 172.075 -3.32724 174.318 -2.56642 176.476C-1.8054 178.634 -0.388802 180.718 1.2223 182.75C4.44444 186.814 8.50145 190.773 9.86859 195.104C10.7654 197.945 10.467 200.849 9.86859 203.711C7.36804 215.665 -0.3262 227.446 1.49329 239.433C2.78399 247.937 8.95503 256.195 18.651 263.124C24.5621 267.349 31.7639 271.077 39.842 274.221H295.681C298.012 273.447 300.073 272.446 301.554 271.242C304.074 269.192 304.796 266.656 304.28 264.247C303.765 261.839 302.092 259.533 300.116 257.332C298.14 255.131 295.849 253.005 293.993 250.777C292.136 248.549 290.709 246.188 290.584 243.766C290.439 240.981 292.038 238.219 294.609 235.765C297.181 233.312 300.699 231.148 304.532 229.175C312.198 225.229 321.226 221.964 328.012 217.614C334.153 213.678 338.271 208.924 339.919 203.954C341.568 198.984 340.751 193.809 337.637 189.027C331.407 179.464 315.741 171.721 297.037 168.621C285.001 166.627 272.019 166.472 259.493 167.373C246.967 168.273 234.812 170.197 222.844 172.297C198.908 176.496 174.485 181.503 149.258 180.538C133.559 179.938 118.527 177.032 104.338 173.534C90.1479 170.037 76.5452 165.92 62.1397 162.662C52.0496 160.381 41.2156 158.506 30.2782 158.57L30.2784 158.571Z" fill="#66E0A3"/>
<path d="M30.2784 158.571C28.716 158.579 27.1508 158.629 25.586 158.722C19.3268 159.094 13.1722 160.193 8.10558 162.114C3.03904 164.036 -0.882533 166.807 -2.39224 169.945C-3.41665 172.075 -3.32724 174.318 -2.56642 176.476C-1.8054 178.634 -0.388802 180.718 1.2223 182.75C4.44444 186.814 8.50145 190.773 9.86859 195.104C10.7654 197.945 10.467 200.849 9.86859 203.711C7.36804 215.665 -0.3262 227.446 1.49329 239.433C2.78399 247.937 8.95503 256.195 18.651 263.124C24.5621 267.349 31.7639 271.077 39.842 274.221H295.681C298.012 273.447 300.073 272.446 301.554 271.242C304.074 269.192 304.796 266.656 304.28 264.247C303.765 261.839 302.092 259.533 300.116 257.332C298.14 255.131 295.849 253.005 293.993 250.777C292.136 248.549 290.709 246.188 290.584 243.766C290.439 240.981 292.038 238.219 294.609 235.765C297.181 233.312 300.699 231.148 304.532 229.175C312.198 225.229 321.226 221.964 328.012 217.614C334.153 213.678 338.271 208.924 339.919 203.954C341.568 198.984 340.751 193.809 337.637 189.027C331.407 179.464 315.741 171.721 297.037 168.621C285.001 166.627 272.019 166.472 259.493 167.373C246.967 168.273 234.812 170.197 222.844 172.297C198.908 176.496 174.485 181.503 149.258 180.538C133.559 179.938 118.527 177.032 104.338 173.534C90.1479 170.037 76.5452 165.92 62.1397 162.662C52.0496 160.381 41.2156 158.506 30.2782 158.57L30.2784 158.571Z" fill="url(#paint6_linear_10857:330713)"/>
<path d="M228.663 120.92C227.412 118.283 224.91 113.012 221.684 110.29C218.457 107.569 214.51 107.4 212.235 109.113C209.961 110.826 209.364 114.421 210.407 117.141C211.449 119.861 214.133 121.71 217.657 122.634C221.182 123.557 225.549 123.557 227.732 123.557C229.914 123.557 229.914 123.557 228.663 120.92V120.92Z" stroke="#F6CCCC" stroke-width="4"/>
<path d="M230.413 120.92C231.664 118.283 234.165 113.012 237.392 110.29C240.618 107.569 244.565 107.4 246.84 109.113C249.115 110.826 249.711 114.421 248.669 117.141C247.626 119.861 244.943 121.71 241.418 122.634C237.894 123.557 233.527 123.557 231.344 123.557C229.161 123.557 229.161 123.557 230.413 120.92V120.92Z" stroke="#F6CCCC" stroke-width="4"/>
<path d="M195.582 130.975V194.201H247.74V130.975H195.582Z" fill="url(#paint7_linear_10857:330713)"/>
<path d="M271.348 130.975H247.741V194.2H271.348V130.975Z" fill="url(#paint8_linear_10857:330713)"/>
<path d="M195.582 137.485V153.573H271.349V137.485H195.582Z" fill="url(#paint9_linear_10857:330713)"/>
<path d="M228.211 153.581H215.111V194.201H228.211V153.581Z" fill="#F6CCCC"/>
<path d="M195.582 137.485V153.573H247.901V137.485H195.582Z" fill="url(#paint10_linear_10857:330713)"/>
<path d="M276.93 123.537H190V149.571H276.93V123.537Z" fill="url(#paint11_linear_10857:330713)"/>
<path d="M228.211 143.185H215.111V153.581H228.211V143.185Z" fill="#D99C9C"/>
<path d="M245.497 123.537H190V149.571H245.497V123.537Z" fill="url(#paint12_linear_10857:330713)"/>
<path d="M224.298 123.557H211.199V149.488H224.298V123.557Z" fill="#F6CCCC"/>
<path d="M216 42C216 28.7452 226.745 18 240 18H246.663C259.918 18 270.663 28.7452 270.663 42V48.2898C270.663 61.5446 259.918 72.2898 246.663 72.2898H220C217.791 72.2898 216 70.4989 216 68.2898V42Z" fill="url(#paint13_linear_10857:330713)"/>
<path d="M243.273 49.8992C242.592 49.8992 242.055 49.6765 241.662 49.2312C241.295 48.7859 241.112 48.1572 241.112 47.3452C241.112 46.1141 241.347 45.0925 241.819 44.2805C242.29 43.4423 242.945 42.591 243.784 41.7265C244.386 41.0717 244.831 40.5085 245.119 40.037C245.434 39.5655 245.591 39.0416 245.591 38.4654C245.591 37.8891 245.381 37.4307 244.962 37.0902C244.543 36.7496 243.967 36.5794 243.233 36.5794C242.631 36.5794 242.029 36.6973 241.426 36.933C240.85 37.1426 240.195 37.4569 239.462 37.876L238.519 38.3475C237.628 38.8452 236.908 39.094 236.357 39.094C235.703 39.094 235.139 38.819 234.668 38.2689C234.223 37.6926 234 36.9985 234 36.1865C234 35.6364 234.092 35.178 234.275 34.8113C234.485 34.4445 234.812 34.0909 235.257 33.7504C236.436 32.886 237.772 32.218 239.265 31.7465C240.784 31.2488 242.304 31 243.823 31C245.525 31 247.045 31.3012 248.381 31.9037C249.717 32.48 250.764 33.292 251.524 34.3398C252.284 35.3613 252.663 36.527 252.663 37.8367C252.663 38.8059 252.454 39.6965 252.035 40.5085C251.642 41.3205 251.157 42.0147 250.581 42.591C250.005 43.1672 249.258 43.8614 248.341 44.6734C247.477 45.3806 246.809 45.9962 246.337 46.5201C245.892 47.0178 245.604 47.5417 245.473 48.0918C245.368 48.668 245.106 49.1133 244.687 49.4277C244.294 49.742 243.823 49.8992 243.273 49.8992ZM243.351 59.2898C242.277 59.2898 241.374 58.9231 240.64 58.1896C239.933 57.4562 239.579 56.5525 239.579 55.4785C239.579 54.4046 239.933 53.5009 240.64 52.7674C241.374 52.034 242.277 51.6673 243.351 51.6673C244.452 51.6673 245.355 52.034 246.062 52.7674C246.796 53.5009 247.163 54.4046 247.163 55.4785C247.163 56.5525 246.796 57.4562 246.062 58.1896C245.355 58.9231 244.452 59.2898 243.351 59.2898Z" fill="#3C91E6"/>
<path d="M209 36C209 22.7452 219.745 12 233 12H239.663C252.918 12 263.663 22.7452 263.663 36V42.2898C263.663 55.5446 252.918 66.2898 239.663 66.2898H213C210.791 66.2898 209 64.4989 209 62.2898V36Z" fill="url(#paint14_linear_10857:330713)"/>
<path d="M236.273 43.8992C235.592 43.8992 235.055 43.6765 234.662 43.2312C234.295 42.7859 234.112 42.1572 234.112 41.3452C234.112 40.1141 234.347 39.0925 234.819 38.2805C235.29 37.4423 235.945 36.591 236.784 35.7265C237.386 35.0717 237.831 34.5085 238.119 34.037C238.434 33.5655 238.591 33.0416 238.591 32.4654C238.591 31.8891 238.381 31.4307 237.962 31.0902C237.543 30.7496 236.967 30.5794 236.233 30.5794C235.631 30.5794 235.029 30.6973 234.426 30.933C233.85 31.1426 233.195 31.4569 232.462 31.876L231.519 32.3475C230.628 32.8452 229.908 33.094 229.357 33.094C228.703 33.094 228.139 32.819 227.668 32.2689C227.223 31.6926 227 30.9985 227 30.1865C227 29.6364 227.092 29.178 227.275 28.8113C227.485 28.4445 227.812 28.0909 228.257 27.7504C229.436 26.886 230.772 26.218 232.265 25.7465C233.784 25.2488 235.304 25 236.823 25C238.525 25 240.045 25.3012 241.381 25.9037C242.717 26.48 243.764 27.292 244.524 28.3398C245.284 29.3613 245.663 30.527 245.663 31.8367C245.663 32.8059 245.454 33.6965 245.035 34.5085C244.642 35.3205 244.157 36.0147 243.581 36.591C243.005 37.1672 242.258 37.8614 241.341 38.6734C240.477 39.3806 239.809 39.9962 239.337 40.5201C238.892 41.0178 238.604 41.5417 238.473 42.0918C238.368 42.668 238.106 43.1133 237.687 43.4277C237.294 43.742 236.823 43.8992 236.273 43.8992ZM236.351 53.2898C235.277 53.2898 234.374 52.9231 233.64 52.1896C232.933 51.4562 232.579 50.5525 232.579 49.4785C232.579 48.4046 232.933 47.5009 233.64 46.7674C234.374 46.034 235.277 45.6673 236.351 45.6673C237.452 45.6673 238.355 46.034 239.062 46.7674C239.796 47.5009 240.163 48.4046 240.163 49.4785C240.163 50.5525 239.796 51.4562 239.062 52.1896C238.355 52.9231 237.452 53.2898 236.351 53.2898Z" fill="#D30000"/>
</g>
<defs>
<linearGradient id="paint0_linear_10857:330713" x1="109.004" y1="220.737" x2="54.6995" y2="95.2102" gradientUnits="userSpaceOnUse">
<stop stop-color="#D30000"/>
<stop offset="1" stop-color="#F6CCCC"/>
</linearGradient>
<linearGradient id="paint1_linear_10857:330713" x1="136.591" y1="163.524" x2="74.5357" y2="94.4575" gradientUnits="userSpaceOnUse">
<stop stop-color="#D30000"/>
<stop offset="1" stop-color="#F6CCCC"/>
</linearGradient>
<linearGradient id="paint2_linear_10857:330713" x1="117.919" y1="136.859" x2="118.277" y2="174.527" gradientUnits="userSpaceOnUse">
<stop stop-color="#D30000"/>
<stop offset="1" stop-color="#F6CCCC"/>
</linearGradient>
<linearGradient id="paint3_linear_10857:330713" x1="102.78" y1="130.772" x2="102.78" y2="152.954" gradientUnits="userSpaceOnUse">
<stop stop-color="#D30000"/>
<stop offset="1" stop-color="#F6CCCC"/>
</linearGradient>
<linearGradient id="paint4_linear_10857:330713" x1="139.267" y1="143.85" x2="100.615" y2="102.376" gradientUnits="userSpaceOnUse">
<stop stop-color="#D30000"/>
<stop offset="1" stop-color="#F6CCCC"/>
</linearGradient>
<linearGradient id="paint5_linear_10857:330713" x1="100.981" y1="162.146" x2="81.5401" y2="108.26" gradientUnits="userSpaceOnUse">
<stop stop-color="#D30000"/>
<stop offset="1" stop-color="#F6CCCC"/>
</linearGradient>
<linearGradient id="paint6_linear_10857:330713" x1="168.802" y1="274.221" x2="168.802" y2="158.569" gradientUnits="userSpaceOnUse">
<stop stop-color="#00B59C"/>
<stop offset="1" stop-color="#9CFFAC"/>
</linearGradient>
<linearGradient id="paint7_linear_10857:330713" x1="247.74" y1="244.041" x2="185.034" y2="99.0921" gradientUnits="userSpaceOnUse">
<stop stop-color="#D30000"/>
<stop offset="1" stop-color="#F6CCCC"/>
</linearGradient>
<linearGradient id="paint8_linear_10857:330713" x1="279.596" y1="177.975" x2="207.939" y2="98.223" gradientUnits="userSpaceOnUse">
<stop stop-color="#D30000"/>
<stop offset="1" stop-color="#F6CCCC"/>
</linearGradient>
<linearGradient id="paint9_linear_10857:330713" x1="258.036" y1="147.185" x2="258.448" y2="190.682" gradientUnits="userSpaceOnUse">
<stop stop-color="#D30000"/>
<stop offset="1" stop-color="#F6CCCC"/>
</linearGradient>
<linearGradient id="paint10_linear_10857:330713" x1="240.554" y1="140.157" x2="240.554" y2="165.77" gradientUnits="userSpaceOnUse">
<stop stop-color="#D30000"/>
<stop offset="1" stop-color="#F6CCCC"/>
</linearGradient>
<linearGradient id="paint11_linear_10857:330713" x1="282.686" y1="155.258" x2="238.053" y2="107.367" gradientUnits="userSpaceOnUse">
<stop stop-color="#D30000"/>
<stop offset="1" stop-color="#F6CCCC"/>
</linearGradient>
<linearGradient id="paint12_linear_10857:330713" x1="238.476" y1="176.384" x2="216.028" y2="114.161" gradientUnits="userSpaceOnUse">
<stop stop-color="#D30000"/>
<stop offset="1" stop-color="#F6CCCC"/>
</linearGradient>
<linearGradient id="paint13_linear_10857:330713" x1="143.737" y1="-48.8394" x2="278.987" y2="60.0579" gradientUnits="userSpaceOnUse">
<stop stop-color="#2C5AA0"/>
<stop offset="1" stop-color="#2C5AA0" stop-opacity="0"/>
</linearGradient>
<linearGradient id="paint14_linear_10857:330713" x1="299.227" y1="112.899" x2="229.81" y2="20.1353" gradientUnits="userSpaceOnUse">
<stop stop-color="#EBF4FC"/>
<stop offset="1" stop-color="#EEFDFF"/>
</linearGradient>
</defs>
</svg>
