<svg width="56" height="56" viewBox="0 0 56 56" fill="none" xmlns="http://www.w3.org/2000/svg">
<rect width="56" height="56" rx="8" fill="#CCECFA"/>
<path d="M45.8965 24.9639L30.9859 24.8486C30.9492 29.4967 35.8118 32.3019 35.7969 34.3244C35.783 36.5743 30.8856 37.9205 30.8453 43.73L45.7576 43.8406C45.801 38.0376 40.931 36.6195 40.9466 34.3648C40.9615 32.3423 45.8662 29.609 45.8965 24.9639Z" fill="#FDF1CC"/>
<path d="M33.5633 41.8484C34.0463 40.0935 35.1376 38.9909 36.1337 37.99C37.1741 36.9398 38.2539 35.8547 38.2648 34.3499C38.2767 32.9807 37.2635 31.7586 36.1967 30.4582C35.2958 29.3622 34.3063 28.1647 33.7991 26.7802L43.0583 26.8514C42.5301 28.2281 41.5246 29.4096 40.6078 30.4925C39.5182 31.7742 38.4929 32.9811 38.481 34.3504C38.47 35.8551 39.5305 36.9587 40.5561 38.0229C41.5341 39.0379 42.6104 40.1579 43.0661 41.9189L33.5633 41.8484Z" fill="#F5B700"/>
<path d="M47.9477 24.9775L28.9372 24.8347C28.4147 24.8291 27.996 24.4058 27.9968 23.8816L27.9995 23.6284C28.0051 23.1059 28.4284 22.6872 28.9526 22.688L47.9679 22.8325C48.4904 22.8381 48.9139 23.2631 48.9083 23.7856L48.9056 24.0388C48.9 24.5614 48.4702 24.9831 47.9477 24.9775Z" fill="#847F82"/>
<path d="M47.7934 46.0058L28.7829 45.863C28.2604 45.8574 27.8369 45.4324 27.8426 44.9099L27.8452 44.6567C27.8508 44.1342 28.2758 43.7107 28.7983 43.7163L47.8088 43.8592C48.3313 43.8648 48.7548 44.2897 48.7491 44.8123L48.7465 45.0655C48.7457 45.5897 48.3159 46.0115 47.7934 46.0058Z" fill="#847F82"/>
<path d="M32.5499 10.0483C32.5499 10.0483 32.1155 4.90039 27.7653 4.90039C23.4151 4.90039 10.6787 4.90039 10.6787 4.90039C10.6787 4.90039 6.37891 5.03976 6.37891 10.0483C12.3764 10.0483 32.5499 10.0483 32.5499 10.0483Z" fill="white"/>
<path d="M13.1983 45.9799C13.1968 45.9636 13.1953 45.9503 13.1953 45.9503H13.1983V10.0216H32.5489V45.9517H39.3678C39.3678 48.6932 37.8599 50.0203 36.7346 50.6296C36.0629 50.9929 35.5277 51.0997 35.5277 51.0997C35.5277 51.0997 22.3332 51.0997 17.9829 51.0997C13.8299 51.0997 13.2442 46.4114 13.1998 45.9858V45.9799H13.1983Z" fill="white"/>
<path opacity="0.1" d="M13.1998 10.0203C13.1998 10.0203 13.4177 5.38538 10.5013 5.38538C6.65664 5.38538 6.58398 10.0484 6.58398 10.0484L13.1998 10.0203Z" fill="url(#paint0_linear)"/>
<path opacity="0.1" d="M20.3804 44.6987C20.3804 44.7076 20.3819 44.7284 20.3819 44.7551H32.6097V47.9444H20.0557C19.7191 49.3322 19.0415 50.6384 17.6834 50.6384C17.6078 50.6384 17.5351 50.6355 17.4669 50.6325C13.9336 50.4649 13.7735 44.9197 13.7676 44.6973H20.3804V44.6987Z" fill="url(#paint1_linear)"/>
<path d="M25.0982 23.8806H17.0027C16.6572 23.8806 16.377 24.1608 16.377 24.5063V24.5374C16.377 24.8829 16.6572 25.1631 17.0027 25.1631H25.0982C25.4436 25.1631 25.7239 24.8829 25.7239 24.5374V24.5063C25.7224 24.1608 25.4422 23.8806 25.0982 23.8806Z" fill="#8ABDF0"/>
<path d="M25.0982 26.6947H17.0027C16.6572 26.6947 16.377 26.9749 16.377 27.3204V27.3515C16.377 27.697 16.6572 27.9772 17.0027 27.9772H25.0982C25.4436 27.9772 25.7239 27.697 25.7239 27.3515V27.3204C25.7224 26.9749 25.4422 26.6947 25.0982 26.6947Z" fill="#8ABDF0"/>
<path d="M19.7086 29.5089H17.0027C16.6572 29.5089 16.377 29.7891 16.377 30.1346V30.1657C16.377 30.5112 16.6572 30.7914 17.0027 30.7914H19.7086C20.0629 30.7914 20.3491 30.5053 20.3491 30.1509C20.3491 29.7951 20.0614 29.5089 19.7086 29.5089Z" fill="#8ABDF0"/>
<path d="M29.3056 23.9235H27.5398C27.1943 23.9235 26.9141 24.2037 26.9141 24.5492V24.5803C26.9141 24.9258 27.1943 25.206 27.5398 25.206H29.3056C29.66 25.206 29.9462 24.9198 29.9462 24.5655C29.9462 24.2096 29.66 23.9235 29.3056 23.9235Z" fill="#8ABDF0"/>
<path d="M29.3056 26.6874H27.5398C27.1943 26.6874 26.9141 26.9676 26.9141 27.3131V27.3442C26.9141 27.6897 27.1943 27.9699 27.5398 27.9699H29.3056C29.66 27.9699 29.9462 27.6837 29.9462 27.3294C29.9462 26.975 29.66 26.6874 29.3056 26.6874Z" fill="#8ABDF0"/>
<path d="M29.3056 29.4525H27.5398C27.1943 29.4525 26.9141 29.7327 26.9141 30.0782V30.1094C26.9141 30.4548 27.1943 30.735 27.5398 30.735H29.3056C29.66 30.735 29.9462 30.4489 29.9462 30.0945C29.9462 29.7402 29.66 29.4525 29.3056 29.4525Z" fill="#8ABDF0"/>
<path d="M25.0982 32.8077H17.0027C16.6572 32.8077 16.377 33.088 16.377 33.4334V33.4646C16.377 33.81 16.6572 34.0903 17.0027 34.0903H25.0982C25.4436 34.0903 25.7239 33.81 25.7239 33.4646V33.4334C25.7224 33.088 25.4422 32.8077 25.0982 32.8077Z" fill="#8ABDF0"/>
<path d="M25.0982 35.6219H17.0027C16.6572 35.6219 16.377 35.9022 16.377 36.2476V36.2788C16.377 36.6242 16.6572 36.9045 17.0027 36.9045H25.0982C25.4436 36.9045 25.7239 36.6242 25.7239 36.2788V36.2476C25.7224 35.9007 25.4422 35.6219 25.0982 35.6219Z" fill="#8ABDF0"/>
<path d="M19.7086 38.4344H17.0027C16.6572 38.4344 16.377 38.7147 16.377 39.0601V39.0913C16.377 39.4367 16.6572 39.717 17.0027 39.717H19.7086C20.0629 39.717 20.3491 39.4308 20.3491 39.0765C20.3491 38.7221 20.0614 38.4344 19.7086 38.4344Z" fill="#8ABDF0"/>
<path d="M29.3056 32.8494H27.5398C27.1943 32.8494 26.9141 33.1296 26.9141 33.4751V33.5062C26.9141 33.8517 27.1943 34.1319 27.5398 34.1319H29.3056C29.66 34.1319 29.9462 33.8457 29.9462 33.4914C29.9462 33.1355 29.66 32.8494 29.3056 32.8494Z" fill="#8ABDF0"/>
<path d="M29.3056 35.6146H27.5398C27.1943 35.6146 26.9141 35.8949 26.9141 36.2403V36.27C26.9141 36.6154 27.1943 36.8957 27.5398 36.8957H29.3056C29.66 36.8957 29.9462 36.6095 29.9462 36.2551C29.9462 35.9008 29.66 35.6146 29.3056 35.6146Z" fill="#8ABDF0"/>
<path d="M29.3056 38.3798H27.5398C27.1943 38.3798 26.9141 38.66 26.9141 39.0055V39.0366C26.9141 39.3821 27.1943 39.6623 27.5398 39.6623H29.3056C29.66 39.6623 29.9462 39.3761 29.9462 39.0218C29.9462 38.6659 29.66 38.3798 29.3056 38.3798Z" fill="#8ABDF0"/>
<path d="M29.1608 10.8757H17.4049C16.8373 10.8757 16.377 11.156 16.377 11.5014V11.5326C16.377 11.878 16.8373 12.1583 17.4049 12.1583H29.1608C29.7284 12.1583 30.1888 11.878 30.1888 11.5326V11.5014C30.1888 11.156 29.7284 10.8757 29.1608 10.8757Z" fill="#8ABDF0"/>
<path d="M29.1608 14.108H17.4049C16.8373 14.108 16.377 14.3883 16.377 14.7337V14.7649C16.377 15.1103 16.8373 15.3906 17.4049 15.3906H29.1608C29.7284 15.3906 30.1888 15.1103 30.1888 14.7649V14.7337C30.1888 14.3883 29.7284 14.108 29.1608 14.108Z" fill="#8ABDF0"/>
<path d="M29.564 17.3418H17.0027C16.6572 17.3418 16.377 17.622 16.377 17.9675V17.9986C16.377 18.3441 16.6572 18.6243 17.0027 18.6243H29.564C29.9095 18.6243 30.1897 18.3441 30.1897 17.9986V17.9675C30.1897 17.6205 29.9095 17.3418 29.564 17.3418Z" fill="#8ABDF0"/>
<defs>
<linearGradient id="paint0_linear" x1="9.89372" y1="4.69116" x2="9.89372" y2="10.0484" gradientUnits="userSpaceOnUse">
<stop stop-opacity="0"/>
<stop offset="1"/>
</linearGradient>
<linearGradient id="paint1_linear" x1="23.1886" y1="43.8128" x2="23.1886" y2="50.6384" gradientUnits="userSpaceOnUse">
<stop stop-opacity="0"/>
<stop offset="1"/>
</linearGradient>
</defs>
</svg>
