<svg width="328" height="185" viewBox="0 0 328 185" fill="none" xmlns="http://www.w3.org/2000/svg">
<mask id="mask0" style="mask-type:alpha" maskUnits="userSpaceOnUse" x="0" y="0" width="328" height="185">
<path d="M0.0155029 135.205C0.0300598 136.025 0.0446472 136.846 0.0883484 137.649C0.117493 138.453 0.146637 139.241 0.204895 140.044C0.408875 143.494 0.771881 146.842 1.25266 150.04C1.39835 150.995 1.54404 151.932 1.70306 152.853C1.73221 153.071 1.77588 153.289 1.80502 153.489L1.83414 153.606C1.93613 154.175 2.03809 154.728 2.14008 155.297C2.32947 156.285 2.53226 157.273 2.73621 158.227C2.77991 158.411 2.82361 158.579 2.85272 158.763C3.40512 161.274 4.00244 163.636 4.62769 165.846C4.72964 166.214 4.83163 166.583 4.93359 166.952C5.21042 167.923 5.48602 168.843 5.76282 169.747C5.96677 170.4 6.17072 171.02 6.35889 171.623C7.42117 174.871 8.45438 177.567 9.28357 179.61C10.0545 181.501 10.7089 183.093 11.0439 183.896C11.1896 184.248 11.277 184.45 11.277 184.45C11.277 184.45 172.57 184.483 261.605 184.5C295.546 184.5 318.982 184.5 318.982 184.5C318.982 184.483 318.997 184.483 318.997 184.483C319.201 184.299 319.39 184.131 319.578 183.948C319.593 183.948 319.593 183.948 319.593 183.948C319.68 183.864 319.768 183.797 319.84 183.713L324.074 178.439C325.005 176.914 325.761 175.291 326.343 173.6C327.462 170.452 328 167.035 328 163.469C328 163.303 328 163.117 327.985 162.934C327.985 162.616 327.971 162.282 327.971 161.963C327.956 161.678 327.942 161.395 327.927 161.109C327.854 160.071 327.752 159.033 327.607 157.995C327.607 157.96 327.592 157.928 327.592 157.894C327.563 157.727 327.534 157.542 327.519 157.358C327.49 157.14 327.446 156.923 327.403 156.705C327.272 155.935 327.111 155.165 326.938 154.379C326.909 154.194 326.865 154.01 326.821 153.825C326.763 153.607 326.719 153.391 326.646 153.173C326.486 152.487 326.282 151.801 326.079 151.097C325.686 149.757 325.221 148.418 324.698 147.061C324.669 146.961 324.625 146.843 324.581 146.743C324.102 145.52 323.577 144.314 323.01 143.092C322.152 141.25 321.177 139.425 320.115 137.617C319.882 137.231 319.65 136.847 319.417 136.478C318.238 134.553 316.944 132.661 315.533 130.802C313.831 128.542 311.969 126.314 309.96 124.172C309.51 123.686 309.058 123.218 308.608 122.748C308.506 122.648 308.404 122.547 308.302 122.43C308.04 122.178 307.779 121.91 307.517 121.66C306.411 120.555 305.335 119.517 304.273 118.512C303.735 118.009 303.21 117.524 302.687 117.038C301.654 116.083 300.65 115.146 299.691 114.242C296.737 111.446 294.118 108.818 292.053 105.854C291.341 104.849 290.701 103.794 290.133 102.706C289.1 100.713 288.299 98.5545 287.776 96.1093C287.66 95.4903 287.543 94.8531 287.456 94.2006C287.193 92.4261 287.062 90.5006 287.106 88.3907C287.121 86.7335 287.237 84.9408 287.456 83.0321C287.499 82.6311 287.558 82.2119 287.616 81.776C287.922 79.416 288.387 76.8533 289.012 74.0574C289.187 73.2707 289.376 72.4673 289.579 71.6471C289.929 70.2232 290.204 68.8176 290.423 67.4454C290.844 64.7822 291.019 62.221 290.99 59.7254C290.975 57.466 290.786 55.2723 290.423 53.1624V53.1289C290.102 51.1196 289.637 49.1774 289.07 47.3022C282.102 24.4972 258.389 11.019 252.089 8.00503C243.113 3.7014 232.479 1.29109 221.437 0.403815C220.535 0.336745 219.633 0.269676 218.731 0.219373C216.184 0.0670696 213.609 0 211.048 0C210.001 0 208.968 0.0167674 207.936 0.0335348C206.204 0.083837 204.488 0.150907 202.756 0.268278C201.156 0.368883 199.571 0.486254 197.985 0.637161C191.41 1.27432 184.994 2.34464 179.029 3.78524C173.602 5.0903 168.715 6.73211 164.263 8.62403C164.263 8.62403 164.263 8.62403 164.248 8.6408C153.744 13.1107 145.802 18.9541 139.459 25.0323C137.99 26.438 136.592 27.8618 135.283 29.2856C135.109 29.4701 134.919 29.6713 134.746 29.8711C134.339 30.3071 133.946 30.7416 133.552 31.1943C133.377 31.3955 133.188 31.5968 133.014 31.7966C131.865 33.1184 130.76 34.4416 129.712 35.7313C129.189 36.3838 128.664 37.0378 128.156 37.6735C125.391 41.1905 122.947 44.4713 120.62 47.3008C120.329 47.6697 120.039 48.0036 119.747 48.3558C115.747 53.045 112.037 56.2253 107.498 56.5774C104.646 56.7953 101.314 56.242 97.5763 55.405C97.1976 55.3212 96.8345 55.2388 96.4558 55.1382C90.7097 53.8149 84.0166 51.9398 76.583 51.1531C66.9811 50.1317 56.1142 50.9351 44.3889 57.0636C44.0101 57.2648 43.6472 57.466 43.2684 57.6659C41.5517 58.6202 39.8205 59.6751 38.0747 60.8642C37.7104 61.099 37.3474 61.3505 36.9832 61.6006C35.2083 62.8568 33.4042 64.2457 31.5856 65.7869C31.5419 65.8204 31.4982 65.8539 31.4545 65.9042C30.669 66.5568 29.8835 67.2596 29.098 67.9806C28.1814 68.8176 27.2502 69.6881 26.3191 70.6089C24.0792 72.8362 21.7943 75.28 19.5107 77.9935C17.8523 79.9525 16.3105 81.9283 14.9131 83.9376C13.9382 85.3111 13.0216 86.7014 12.1779 88.0903C12.0176 88.3418 11.8719 88.5919 11.7129 88.8434C10.2584 91.3054 8.94846 93.7828 7.7854 96.277C7.6543 96.5788 7.50861 96.896 7.36292 97.1978C5.83566 100.648 4.5694 104.113 3.56537 107.561C3.47797 107.862 3.39056 108.147 3.30316 108.432C2.86731 109.989 2.48849 111.546 2.13885 113.103C1.67389 115.23 1.29514 117.34 0.989197 119.448C0.204926 124.825 -0.0718994 130.115 0.0155029 135.205Z" fill="#CCECFA"/>
</mask>
<g mask="url(#mask0)">
<path d="M0.0155029 135.205C0.0300598 136.025 0.0446472 136.846 0.0883484 137.649C0.117493 138.453 0.146637 139.241 0.204895 140.044C0.408875 143.494 0.771881 146.842 1.25266 150.04C1.39835 150.995 1.54404 151.932 1.70306 152.853C1.73221 153.071 1.77588 153.289 1.80502 153.489L1.83414 153.606C1.93613 154.175 2.03809 154.728 2.14008 155.297C2.32947 156.285 2.53226 157.273 2.73621 158.227C2.77991 158.411 2.82361 158.579 2.85272 158.763C3.40512 161.274 4.00244 163.636 4.62769 165.846C4.72964 166.214 4.83163 166.583 4.93359 166.952C5.21042 167.923 5.48602 168.843 5.76282 169.747C5.96677 170.4 6.17072 171.02 6.35889 171.623C7.42117 174.871 8.45438 177.567 9.28357 179.61C10.0545 181.501 10.7089 183.093 11.0439 183.896C11.1896 184.248 11.277 184.45 11.277 184.45C11.277 184.45 172.57 184.483 261.605 184.5C295.546 184.5 318.982 184.5 318.982 184.5C318.982 184.483 318.997 184.483 318.997 184.483C319.201 184.299 319.39 184.131 319.578 183.948C319.593 183.948 319.593 183.948 319.593 183.948C319.68 183.864 319.768 183.797 319.84 183.713L324.074 178.439C325.005 176.914 325.761 175.291 326.343 173.6C327.462 170.452 328 167.035 328 163.469C328 163.303 328 163.117 327.985 162.934C327.985 162.616 327.971 162.282 327.971 161.963C327.956 161.678 327.942 161.395 327.927 161.109C327.854 160.071 327.752 159.033 327.607 157.995C327.607 157.96 327.592 157.928 327.592 157.894C327.563 157.727 327.534 157.542 327.519 157.358C327.49 157.14 327.446 156.923 327.403 156.705C327.272 155.935 327.111 155.165 326.938 154.379C326.909 154.194 326.865 154.01 326.821 153.825C326.763 153.607 326.719 153.391 326.646 153.173C326.486 152.487 326.282 151.801 326.079 151.097C325.686 149.757 325.221 148.418 324.698 147.061C324.669 146.961 324.625 146.843 324.581 146.743C324.102 145.52 323.577 144.314 323.01 143.092C322.152 141.25 321.177 139.425 320.115 137.617C319.882 137.231 319.65 136.847 319.417 136.478C318.238 134.553 316.944 132.661 315.533 130.802C313.831 128.542 311.969 126.314 309.96 124.172C309.51 123.686 309.058 123.218 308.608 122.748C308.506 122.648 308.404 122.547 308.302 122.43C308.04 122.178 307.779 121.91 307.517 121.66C306.411 120.555 305.335 119.517 304.273 118.512C303.735 118.009 303.21 117.524 302.687 117.038C301.654 116.083 300.65 115.146 299.691 114.242C296.737 111.446 294.118 108.818 292.053 105.854C291.341 104.849 290.701 103.794 290.133 102.706C289.1 100.713 288.299 98.5545 287.776 96.1093C287.66 95.4903 287.543 94.8531 287.456 94.2006C287.193 92.4261 287.062 90.5006 287.106 88.3907C287.121 86.7335 287.237 84.9408 287.456 83.0321C287.499 82.6311 287.558 82.2119 287.616 81.776C287.922 79.416 288.387 76.8533 289.012 74.0574C289.187 73.2707 289.376 72.4673 289.579 71.6471C289.929 70.2232 290.204 68.8176 290.423 67.4454C290.844 64.7822 291.019 62.221 290.99 59.7254C290.975 57.466 290.786 55.2723 290.423 53.1624V53.1289C290.102 51.1196 289.637 49.1774 289.07 47.3022C282.102 24.4972 258.389 11.019 252.089 8.00503C243.113 3.7014 232.479 1.29109 221.437 0.403815C220.535 0.336745 219.633 0.269676 218.731 0.219373C216.184 0.0670696 213.609 0 211.048 0C210.001 0 208.968 0.0167674 207.936 0.0335348C206.204 0.083837 204.488 0.150907 202.756 0.268278C201.156 0.368883 199.571 0.486254 197.985 0.637161C191.41 1.27432 184.994 2.34464 179.029 3.78524C173.602 5.0903 168.715 6.73211 164.263 8.62403C164.263 8.62403 164.263 8.62403 164.248 8.6408C153.744 13.1107 145.802 18.9541 139.459 25.0323C137.99 26.438 136.592 27.8618 135.283 29.2856C135.109 29.4701 134.919 29.6713 134.746 29.8711C134.339 30.3071 133.946 30.7416 133.552 31.1943C133.377 31.3955 133.188 31.5968 133.014 31.7966C131.865 33.1184 130.76 34.4416 129.712 35.7313C129.189 36.3838 128.664 37.0378 128.156 37.6735C125.391 41.1905 122.947 44.4713 120.62 47.3008C120.329 47.6697 120.039 48.0036 119.747 48.3558C115.747 53.045 112.037 56.2253 107.498 56.5774C104.646 56.7953 101.314 56.242 97.5763 55.405C97.1976 55.3212 96.8345 55.2388 96.4558 55.1382C90.7097 53.8149 84.0166 51.9398 76.583 51.1531C66.9811 50.1317 56.1142 50.9351 44.3889 57.0636C44.0101 57.2648 43.6472 57.466 43.2684 57.6659C41.5517 58.6202 39.8205 59.6751 38.0747 60.8642C37.7104 61.099 37.3474 61.3505 36.9832 61.6006C35.2083 62.8568 33.4042 64.2457 31.5856 65.7869C31.5419 65.8204 31.4982 65.8539 31.4545 65.9042C30.669 66.5568 29.8835 67.2596 29.098 67.9806C28.1814 68.8176 27.2502 69.6881 26.3191 70.6089C24.0792 72.8362 21.7943 75.28 19.5107 77.9935C17.8523 79.9525 16.3105 81.9283 14.9131 83.9376C13.9382 85.3111 13.0216 86.7014 12.1779 88.0903C12.0176 88.3418 11.8719 88.5919 11.7129 88.8434C10.2584 91.3054 8.94846 93.7828 7.7854 96.277C7.6543 96.5788 7.50861 96.896 7.36292 97.1978C5.83566 100.648 4.5694 104.113 3.56537 107.561C3.47797 107.862 3.39056 108.147 3.30316 108.432C2.86731 109.989 2.48849 111.546 2.13885 113.103C1.67389 115.23 1.29514 117.34 0.989197 119.448C0.204926 124.825 -0.0718994 130.115 0.0155029 135.205Z" fill="#CCECFA"/>
<path d="M30.2784 158.571C28.716 158.579 27.1508 158.629 25.586 158.722C19.3268 159.094 13.1722 160.193 8.10558 162.114C3.03904 164.036 -0.882533 166.807 -2.39224 169.945C-3.41665 172.075 -3.32724 174.318 -2.56642 176.476C-1.8054 178.634 -0.388802 180.718 1.2223 182.75C4.44444 186.814 8.50145 190.773 9.86859 195.104C10.7654 197.945 10.467 200.849 9.86859 203.711C7.36804 215.665 -0.3262 227.446 1.49329 239.433C2.78399 247.937 8.95503 256.195 18.651 263.124C24.5621 267.349 31.7639 271.077 39.842 274.221H295.681C298.012 273.447 300.073 272.446 301.554 271.242C304.074 269.192 304.796 266.656 304.28 264.247C303.765 261.839 302.092 259.533 300.116 257.332C298.14 255.131 295.849 253.005 293.993 250.777C292.136 248.549 290.709 246.188 290.584 243.766C290.439 240.981 292.038 238.219 294.609 235.765C297.181 233.312 300.699 231.148 304.532 229.175C312.198 225.229 321.226 221.964 328.012 217.614C334.153 213.678 338.271 208.924 339.919 203.954C341.568 198.984 340.751 193.809 337.637 189.027C331.407 179.464 315.741 171.721 297.037 168.621C285.001 166.627 272.019 166.472 259.493 167.373C246.967 168.273 234.812 170.197 222.844 172.297C198.908 176.496 174.485 181.503 149.258 180.538C133.559 179.938 118.527 177.032 104.338 173.534C90.1479 170.037 76.5452 165.92 62.1397 162.662C52.0496 160.381 41.2156 158.506 30.2782 158.57L30.2784 158.571Z" fill="#66E0A3"/>
<path d="M30.2784 158.571C28.716 158.579 27.1508 158.629 25.586 158.722C19.3268 159.094 13.1722 160.193 8.10558 162.114C3.03904 164.036 -0.882533 166.807 -2.39224 169.945C-3.41665 172.075 -3.32724 174.318 -2.56642 176.476C-1.8054 178.634 -0.388802 180.718 1.2223 182.75C4.44444 186.814 8.50145 190.773 9.86859 195.104C10.7654 197.945 10.467 200.849 9.86859 203.711C7.36804 215.665 -0.3262 227.446 1.49329 239.433C2.78399 247.937 8.95503 256.195 18.651 263.124C24.5621 267.349 31.7639 271.077 39.842 274.221H295.681C298.012 273.447 300.073 272.446 301.554 271.242C304.074 269.192 304.796 266.656 304.28 264.247C303.765 261.839 302.092 259.533 300.116 257.332C298.14 255.131 295.849 253.005 293.993 250.777C292.136 248.549 290.709 246.188 290.584 243.766C290.439 240.981 292.038 238.219 294.609 235.765C297.181 233.312 300.699 231.148 304.532 229.175C312.198 225.229 321.226 221.964 328.012 217.614C334.153 213.678 338.271 208.924 339.919 203.954C341.568 198.984 340.751 193.809 337.637 189.027C331.407 179.464 315.741 171.721 297.037 168.621C285.001 166.627 272.019 166.472 259.493 167.373C246.967 168.273 234.812 170.197 222.844 172.297C198.908 176.496 174.485 181.503 149.258 180.538C133.559 179.938 118.527 177.032 104.338 173.534C90.1479 170.037 76.5452 165.92 62.1397 162.662C52.0496 160.381 41.2156 158.506 30.2782 158.57L30.2784 158.571Z" fill="url(#paint0_linear)"/>
<path d="M75.4048 112.281C74.1717 109.682 71.7064 104.486 68.5266 101.804C65.3469 99.1221 61.457 98.956 59.2152 100.644C56.9734 102.333 56.3858 105.875 57.4131 108.556C58.4403 111.237 61.085 113.059 64.5585 113.969C68.032 114.879 72.3357 114.879 74.4868 114.879C76.638 114.879 76.6379 114.879 75.4048 112.281V112.281Z" stroke="#F6CCCC" stroke-width="4"/>
<path d="M77.129 112.281C78.3621 109.682 80.8275 104.486 84.0072 101.804C87.1869 99.1221 91.0768 98.956 93.3186 100.644C95.5604 102.333 96.148 105.875 95.1208 108.556C94.0935 111.237 91.4488 113.059 87.9753 113.969C84.5018 114.879 80.1981 114.879 78.047 114.879C75.8958 114.879 75.8959 114.879 77.129 112.281V112.281Z" stroke="#F6CCCC" stroke-width="4"/>
<path d="M42.8029 122.19V184.499H94.2059V122.19H42.8029Z" fill="url(#paint1_linear)"/>
<path d="M117.471 122.19H94.2061V184.499H117.471V122.19Z" fill="url(#paint2_linear)"/>
<path d="M42.8032 128.605V144.461H117.472V128.605H42.8032Z" fill="url(#paint3_linear)"/>
<path d="M74.959 144.469H62.0491V184.5H74.959V144.469Z" fill="#F6CCCC"/>
<path d="M42.8032 128.605V144.461H94.3638V128.605H42.8032Z" fill="url(#paint4_linear)"/>
<path d="M122.973 114.859H37.3018V140.516H122.973V114.859Z" fill="url(#paint5_linear)"/>
<path d="M74.959 134.223H62.0491V144.468H74.959V134.223Z" fill="#D99C9C"/>
<path d="M91.9946 114.859H37.3018V140.516H91.9946V114.859Z" fill="url(#paint6_linear)"/>
<path d="M71.1033 114.879H58.1934V140.435H71.1033V114.879Z" fill="#F6CCCC"/>
<path d="M239.586 122.178C238.521 119.935 236.394 115.452 233.65 113.137C230.906 110.823 227.549 110.679 225.615 112.136C223.68 113.593 223.173 116.65 224.06 118.964C224.946 121.277 227.228 122.849 230.226 123.635C233.223 124.42 236.937 124.42 238.793 124.42C240.65 124.42 240.65 124.42 239.586 122.178V122.178Z" stroke="#F6CCCC" stroke-width="4"/>
<path d="M241.074 122.178C242.138 119.935 244.265 115.452 247.009 113.137C249.753 110.823 253.11 110.679 255.044 112.136C256.979 113.593 257.486 116.65 256.6 118.964C255.713 121.277 253.431 122.849 250.433 123.635C247.436 124.42 243.722 124.42 241.866 124.42C240.009 124.42 240.009 124.42 241.074 122.178V122.178Z" stroke="#F6CCCC" stroke-width="4"/>
<path d="M211.452 130.729V184.499H255.81V130.729H211.452Z" fill="url(#paint7_linear)"/>
<path d="M275.887 130.729H255.81V184.499H275.887V130.729Z" fill="url(#paint8_linear)"/>
<path d="M211.452 136.265V149.948H275.888V136.265H211.452Z" fill="url(#paint9_linear)"/>
<path d="M239.201 149.955H228.06V184.5H239.201V149.955Z" fill="#F6CCCC"/>
<path d="M211.452 136.265V149.948H255.946V136.265H211.452Z" fill="url(#paint10_linear)"/>
<path d="M280.635 124.403H206.704V146.544H280.635V124.403Z" fill="url(#paint11_linear)"/>
<path d="M239.201 141.113H228.06V149.954H239.201V141.113Z" fill="#D99C9C"/>
<path d="M253.902 124.403H206.704V146.544H253.902V124.403Z" fill="url(#paint12_linear)"/>
<path d="M235.874 124.42H224.733V146.474H235.874V124.42Z" fill="#F6CCCC"/>
<path d="M208.598 55.8658C208.598 42.611 219.343 31.8658 232.598 31.8658H239.261C252.516 31.8658 263.261 42.611 263.261 55.8658V62.1556C263.261 75.4105 252.516 86.1556 239.261 86.1556H212.598C210.389 86.1556 208.598 84.3648 208.598 82.1556V55.8658Z" fill="url(#paint13_linear)"/>
<path d="M235.87 63.765C235.189 63.765 234.652 63.5424 234.259 63.0971C233.893 62.6517 233.709 62.0231 233.709 61.2111C233.709 59.9799 233.945 58.9584 234.417 58.1463C234.888 57.3081 235.543 56.4568 236.381 55.5924C236.984 54.9375 237.429 54.3744 237.717 53.9029C238.031 53.4314 238.189 52.9075 238.189 52.3312C238.189 51.7549 237.979 51.2965 237.56 50.956C237.141 50.6155 236.565 50.4452 235.831 50.4452C235.229 50.4452 234.626 50.5631 234.024 50.7988C233.447 51.0084 232.793 51.3227 232.059 51.7418L231.116 52.2133C230.226 52.711 229.505 52.9599 228.955 52.9599C228.3 52.9599 227.737 52.6848 227.266 52.1348C226.82 51.5585 226.598 50.8643 226.598 50.0523C226.598 49.5022 226.689 49.0438 226.873 48.6771C227.082 48.3104 227.41 47.9568 227.855 47.6162C229.034 46.7518 230.37 46.0839 231.863 45.6124C233.382 45.1147 234.901 44.8658 236.421 44.8658C238.123 44.8658 239.642 45.1671 240.978 45.7695C242.314 46.3458 243.362 47.1578 244.122 48.2056C244.881 49.2272 245.261 50.3928 245.261 51.7025C245.261 52.6717 245.052 53.5623 244.632 54.3744C244.239 55.1864 243.755 55.8805 243.179 56.4568C242.602 57.0331 241.856 57.7272 240.939 58.5392C240.075 59.2465 239.407 59.8621 238.935 60.3859C238.49 60.8836 238.202 61.4075 238.071 61.9576C237.966 62.5339 237.704 62.9792 237.285 63.2935C236.892 63.6078 236.421 63.765 235.87 63.765ZM235.949 73.1556C234.875 73.1556 233.971 72.7889 233.238 72.0555C232.531 71.322 232.177 70.4183 232.177 69.3444C232.177 68.2704 232.531 67.3667 233.238 66.6333C233.971 65.8998 234.875 65.5331 235.949 65.5331C237.049 65.5331 237.953 65.8998 238.66 66.6333C239.394 67.3667 239.76 68.2704 239.76 69.3444C239.76 70.4183 239.394 71.322 238.66 72.0555C237.953 72.7889 237.049 73.1556 235.949 73.1556Z" fill="#3C91E6"/>
<path d="M201.598 49.8658C201.598 36.611 212.343 25.8658 225.598 25.8658H232.261C245.516 25.8658 256.261 36.611 256.261 49.8658V56.1556C256.261 69.4105 245.516 80.1556 232.261 80.1556H205.598C203.389 80.1556 201.598 78.3648 201.598 76.1556V49.8658Z" fill="url(#paint14_linear)"/>
<path d="M228.87 57.765C228.189 57.765 227.652 57.5424 227.259 57.0971C226.893 56.6517 226.709 56.0231 226.709 55.2111C226.709 53.9799 226.945 52.9584 227.417 52.1463C227.888 51.3081 228.543 50.4568 229.381 49.5924C229.984 48.9375 230.429 48.3744 230.717 47.9029C231.031 47.4314 231.189 46.9075 231.189 46.3312C231.189 45.7549 230.979 45.2965 230.56 44.956C230.141 44.6155 229.565 44.4452 228.831 44.4452C228.229 44.4452 227.626 44.5631 227.024 44.7988C226.447 45.0084 225.793 45.3227 225.059 45.7418L224.116 46.2133C223.226 46.711 222.505 46.9599 221.955 46.9599C221.3 46.9599 220.737 46.6848 220.266 46.1348C219.82 45.5585 219.598 44.8643 219.598 44.0523C219.598 43.5022 219.689 43.0438 219.873 42.6771C220.082 42.3104 220.41 41.9568 220.855 41.6162C222.034 40.7518 223.37 40.0839 224.863 39.6124C226.382 39.1147 227.901 38.8658 229.421 38.8658C231.123 38.8658 232.642 39.1671 233.978 39.7695C235.314 40.3458 236.362 41.1578 237.122 42.2056C237.881 43.2272 238.261 44.3928 238.261 45.7025C238.261 46.6717 238.052 47.5623 237.632 48.3744C237.239 49.1864 236.755 49.8805 236.179 50.4568C235.602 51.0331 234.856 51.7272 233.939 52.5392C233.075 53.2465 232.407 53.8621 231.935 54.3859C231.49 54.8836 231.202 55.4075 231.071 55.9576C230.966 56.5339 230.704 56.9792 230.285 57.2935C229.892 57.6078 229.421 57.765 228.87 57.765ZM228.949 67.1556C227.875 67.1556 226.971 66.7889 226.238 66.0555C225.531 65.322 225.177 64.4183 225.177 63.3444C225.177 62.2704 225.531 61.3667 226.238 60.6333C226.971 59.8998 227.875 59.5331 228.949 59.5331C230.049 59.5331 230.953 59.8998 231.66 60.6333C232.394 61.3667 232.76 62.2704 232.76 63.3444C232.76 64.4183 232.394 65.322 231.66 66.0555C230.953 66.7889 230.049 67.1556 228.949 67.1556Z" fill="#D30000"/>
<path d="M157.646 87.5381C155.99 84.049 152.681 77.0735 148.411 73.4725C144.142 69.8715 138.92 69.6484 135.91 71.9151C132.9 74.1818 132.111 78.9378 133.49 82.5372C134.87 86.1366 138.42 88.5826 143.084 89.8049C147.747 91.0271 153.526 91.027 156.414 91.027C159.302 91.027 159.302 91.0271 157.646 87.5381V87.5381Z" stroke="#F6CCCC" stroke-width="4"/>
<path d="M159.961 87.5381C161.617 84.049 164.927 77.0735 169.196 73.4725C173.465 69.8715 178.687 69.6484 181.697 71.9151C184.707 74.1818 185.496 78.9378 184.117 82.5372C182.738 86.1366 179.187 88.5826 174.523 89.8049C169.86 91.0271 164.082 91.027 161.194 91.027C158.305 91.027 158.306 91.0271 159.961 87.5381V87.5381Z" stroke="#F6CCCC" stroke-width="4"/>
<path d="M113.875 100.842V184.499H182.888V100.842H113.875Z" fill="url(#paint15_linear)"/>
<path d="M214.125 100.842H182.889V184.498H214.125V100.842Z" fill="url(#paint16_linear)"/>
<path d="M113.875 109.455V130.743H214.126V109.455H113.875Z" fill="url(#paint17_linear)"/>
<path d="M157.048 130.754H139.715V184.5H157.048V130.754Z" fill="#F6CCCC"/>
<path d="M113.875 109.455V130.743H183.1V109.455H113.875Z" fill="url(#paint18_linear)"/>
<path d="M221.511 91.0004H106.489V125.447H221.511V91.0004Z" fill="url(#paint19_linear)"/>
<path d="M157.048 116.997H139.715V130.753H157.048V116.997Z" fill="#D99C9C"/>
<path d="M179.92 91.0004H106.489V125.447H179.92V91.0004Z" fill="url(#paint20_linear)"/>
<path d="M151.871 91.027H134.538V125.338H151.871V91.027Z" fill="#F6CCCC"/>
</g>
<defs>
<linearGradient id="paint0_linear" x1="168.802" y1="274.221" x2="168.802" y2="158.569" gradientUnits="userSpaceOnUse">
<stop stop-color="#00B59C"/>
<stop offset="1" stop-color="#9CFFAC"/>
</linearGradient>
<linearGradient id="paint1_linear" x1="94.2059" y1="233.617" x2="32.4077" y2="90.7684" gradientUnits="userSpaceOnUse">
<stop stop-color="#D30000"/>
<stop offset="1" stop-color="#F6CCCC"/>
</linearGradient>
<linearGradient id="paint2_linear" x1="125.6" y1="168.509" x2="54.9813" y2="89.9119" gradientUnits="userSpaceOnUse">
<stop stop-color="#D30000"/>
<stop offset="1" stop-color="#F6CCCC"/>
</linearGradient>
<linearGradient id="paint3_linear" x1="104.352" y1="138.165" x2="104.758" y2="181.031" gradientUnits="userSpaceOnUse">
<stop stop-color="#D30000"/>
<stop offset="1" stop-color="#F6CCCC"/>
</linearGradient>
<linearGradient id="paint4_linear" x1="87.1236" y1="131.238" x2="87.1236" y2="156.481" gradientUnits="userSpaceOnUse">
<stop stop-color="#D30000"/>
<stop offset="1" stop-color="#F6CCCC"/>
</linearGradient>
<linearGradient id="paint5_linear" x1="128.645" y1="146.121" x2="84.659" y2="98.9238" gradientUnits="userSpaceOnUse">
<stop stop-color="#D30000"/>
<stop offset="1" stop-color="#F6CCCC"/>
</linearGradient>
<linearGradient id="paint6_linear" x1="85.0758" y1="166.941" x2="62.9523" y2="105.62" gradientUnits="userSpaceOnUse">
<stop stop-color="#D30000"/>
<stop offset="1" stop-color="#F6CCCC"/>
</linearGradient>
<linearGradient id="paint7_linear" x1="255.81" y1="226.886" x2="202.481" y2="103.614" gradientUnits="userSpaceOnUse">
<stop stop-color="#D30000"/>
<stop offset="1" stop-color="#F6CCCC"/>
</linearGradient>
<linearGradient id="paint8_linear" x1="282.902" y1="170.701" x2="221.961" y2="102.875" gradientUnits="userSpaceOnUse">
<stop stop-color="#D30000"/>
<stop offset="1" stop-color="#F6CCCC"/>
</linearGradient>
<linearGradient id="paint9_linear" x1="264.566" y1="144.515" x2="264.916" y2="181.507" gradientUnits="userSpaceOnUse">
<stop stop-color="#D30000"/>
<stop offset="1" stop-color="#F6CCCC"/>
</linearGradient>
<linearGradient id="paint10_linear" x1="249.698" y1="138.537" x2="249.698" y2="160.321" gradientUnits="userSpaceOnUse">
<stop stop-color="#D30000"/>
<stop offset="1" stop-color="#F6CCCC"/>
</linearGradient>
<linearGradient id="paint11_linear" x1="285.53" y1="151.381" x2="247.572" y2="110.652" gradientUnits="userSpaceOnUse">
<stop stop-color="#D30000"/>
<stop offset="1" stop-color="#F6CCCC"/>
</linearGradient>
<linearGradient id="paint12_linear" x1="247.931" y1="169.347" x2="228.84" y2="116.43" gradientUnits="userSpaceOnUse">
<stop stop-color="#D30000"/>
<stop offset="1" stop-color="#F6CCCC"/>
</linearGradient>
<linearGradient id="paint13_linear" x1="136.334" y1="-34.9736" x2="271.585" y2="73.9237" gradientUnits="userSpaceOnUse">
<stop stop-color="#2C5AA0"/>
<stop offset="1" stop-color="#2C5AA0" stop-opacity="0"/>
</linearGradient>
<linearGradient id="paint14_linear" x1="291.824" y1="126.765" x2="222.407" y2="34.0012" gradientUnits="userSpaceOnUse">
<stop stop-color="#EBF4FC"/>
<stop offset="1" stop-color="#EEFDFF"/>
</linearGradient>
<linearGradient id="paint15_linear" x1="182.888" y1="250.445" x2="99.9181" y2="58.6556" gradientUnits="userSpaceOnUse">
<stop stop-color="#D30000"/>
<stop offset="1" stop-color="#F6CCCC"/>
</linearGradient>
<linearGradient id="paint16_linear" x1="225.038" y1="163.03" x2="130.226" y2="57.5057" gradientUnits="userSpaceOnUse">
<stop stop-color="#D30000"/>
<stop offset="1" stop-color="#F6CCCC"/>
</linearGradient>
<linearGradient id="paint17_linear" x1="196.511" y1="122.29" x2="197.056" y2="179.843" gradientUnits="userSpaceOnUse">
<stop stop-color="#D30000"/>
<stop offset="1" stop-color="#F6CCCC"/>
</linearGradient>
<linearGradient id="paint18_linear" x1="173.38" y1="112.99" x2="173.38" y2="146.881" gradientUnits="userSpaceOnUse">
<stop stop-color="#D30000"/>
<stop offset="1" stop-color="#F6CCCC"/>
</linearGradient>
<linearGradient id="paint19_linear" x1="229.127" y1="132.972" x2="170.071" y2="69.605" gradientUnits="userSpaceOnUse">
<stop stop-color="#D30000"/>
<stop offset="1" stop-color="#F6CCCC"/>
</linearGradient>
<linearGradient id="paint20_linear" x1="170.63" y1="160.925" x2="140.927" y2="78.5949" gradientUnits="userSpaceOnUse">
<stop stop-color="#D30000"/>
<stop offset="1" stop-color="#F6CCCC"/>
</linearGradient>
</defs>
</svg>
