<svg width="57" height="56" viewBox="0 0 57 56" fill="none" xmlns="http://www.w3.org/2000/svg">
<mask id="mask0" style="mask-type:alpha" maskUnits="userSpaceOnUse" x="0" y="0" width="57" height="56">
<rect x="0.945312" width="56" height="56" rx="8" fill="#CCECFA"/>
</mask>
<g mask="url(#mask0)">
<rect x="0.945312" width="56" height="56" rx="8" fill="#CCECFA"/>
<path d="M34.4953 10.0483C34.4953 10.0483 34.0608 4.90039 29.7106 4.90039C25.3604 4.90039 12.624 4.90039 12.624 4.90039C12.624 4.90039 8.32422 5.03976 8.32422 10.0483C14.3217 10.0483 34.4953 10.0483 34.4953 10.0483Z" fill="white"/>
<path d="M15.1436 45.9799C15.1421 45.9636 15.1406 45.9503 15.1406 45.9503H15.1436V10.0216H34.4942V44.8773L41.3132 45.9517C41.3132 48.6932 39.8053 50.0203 38.6799 50.6296C38.0082 50.9929 37.473 51.0997 37.473 51.0997C37.473 51.0997 24.2785 51.0997 19.9282 51.0997C15.7752 51.0997 15.1896 46.4114 15.1451 45.9858V45.9799H15.1436Z" fill="white"/>
<path opacity="0.1" d="M15.1431 10.0203C15.1431 10.0203 15.3611 5.38538 12.4446 5.38538C8.6 5.38538 8.52734 10.0484 8.52734 10.0484L15.1431 10.0203Z" fill="url(#paint0_linear)"/>
<path opacity="0.1" d="M22.3277 44.6987C22.3277 44.7076 22.3291 44.7284 22.3291 44.7551H34.5569V47.9444H22.003C21.6664 49.3322 20.9888 50.6384 19.6306 50.6384C19.555 50.6384 19.4824 50.6355 19.4142 50.6325C15.8809 50.4649 15.7208 44.9197 15.7148 44.6973H22.3277V44.6987Z" fill="url(#paint1_linear)"/>
<path d="M27.0454 23.8806H18.9499C18.6044 23.8806 18.3242 24.1608 18.3242 24.5063V24.5374C18.3242 24.8829 18.6044 25.1631 18.9499 25.1631H27.0454C27.3909 25.1631 27.6711 24.8829 27.6711 24.5374V24.5063C27.6696 24.1608 27.3894 23.8806 27.0454 23.8806Z" fill="#8ABDF0"/>
<path d="M27.0454 26.6947H18.9499C18.6044 26.6947 18.3242 26.9749 18.3242 27.3204V27.3515C18.3242 27.697 18.6044 27.9772 18.9499 27.9772H27.0454C27.3909 27.9772 27.6711 27.697 27.6711 27.3515V27.3204C27.6696 26.9749 27.3894 26.6947 27.0454 26.6947Z" fill="#8ABDF0"/>
<path d="M21.6558 29.5089H18.9499C18.6044 29.5089 18.3242 29.7891 18.3242 30.1346V30.1657C18.3242 30.5112 18.6044 30.7914 18.9499 30.7914H21.6558C22.0102 30.7914 22.2964 30.5053 22.2964 30.1509C22.2964 29.7951 22.0087 29.5089 21.6558 29.5089Z" fill="#8ABDF0"/>
<path d="M31.251 23.9235H29.4851C29.1396 23.9235 28.8594 24.2037 28.8594 24.5492V24.5803C28.8594 24.9258 29.1396 25.206 29.4851 25.206H31.251C31.6053 25.206 31.8915 24.9198 31.8915 24.5655C31.8915 24.2096 31.6053 23.9235 31.251 23.9235Z" fill="#8ABDF0"/>
<path d="M31.251 26.6874H29.4851C29.1396 26.6874 28.8594 26.9676 28.8594 27.3131V27.3442C28.8594 27.6897 29.1396 27.9699 29.4851 27.9699H31.251C31.6053 27.9699 31.8915 27.6837 31.8915 27.3294C31.8915 26.975 31.6053 26.6874 31.251 26.6874Z" fill="#8ABDF0"/>
<path d="M31.251 29.4525H29.4851C29.1396 29.4525 28.8594 29.7327 28.8594 30.0782V30.1094C28.8594 30.4548 29.1396 30.735 29.4851 30.735H31.251C31.6053 30.735 31.8915 30.4489 31.8915 30.0945C31.8915 29.7402 31.6053 29.4525 31.251 29.4525Z" fill="#8ABDF0"/>
<path d="M27.0454 32.8077H18.9499C18.6044 32.8077 18.3242 33.088 18.3242 33.4334V33.4646C18.3242 33.81 18.6044 34.0903 18.9499 34.0903H27.0454C27.3909 34.0903 27.6711 33.81 27.6711 33.4646V33.4334C27.6696 33.088 27.3894 32.8077 27.0454 32.8077Z" fill="#8ABDF0"/>
<path d="M27.0454 35.6219H18.9499C18.6044 35.6219 18.3242 35.9022 18.3242 36.2476V36.2788C18.3242 36.6242 18.6044 36.9045 18.9499 36.9045H27.0454C27.3909 36.9045 27.6711 36.6242 27.6711 36.2788V36.2476C27.6696 35.9007 27.3894 35.6219 27.0454 35.6219Z" fill="#8ABDF0"/>
<path d="M21.6558 38.4344H18.9499C18.6044 38.4344 18.3242 38.7147 18.3242 39.0601V39.0913C18.3242 39.4367 18.6044 39.717 18.9499 39.717H21.6558C22.0102 39.717 22.2964 39.4308 22.2964 39.0765C22.2964 38.7221 22.0087 38.4344 21.6558 38.4344Z" fill="#8ABDF0"/>
<path d="M31.251 32.8494H29.4851C29.1396 32.8494 28.8594 33.1296 28.8594 33.4751V33.5062C28.8594 33.8517 29.1396 34.1319 29.4851 34.1319H31.251C31.6053 34.1319 31.8915 33.8457 31.8915 33.4914C31.8915 33.1355 31.6053 32.8494 31.251 32.8494Z" fill="#8ABDF0"/>
<path d="M31.251 35.6146H29.4851C29.1396 35.6146 28.8594 35.8949 28.8594 36.2403V36.27C28.8594 36.6154 29.1396 36.8957 29.4851 36.8957H31.251C31.6053 36.8957 31.8915 36.6095 31.8915 36.2551C31.8915 35.9008 31.6053 35.6146 31.251 35.6146Z" fill="#8ABDF0"/>
<path d="M31.251 38.3798H29.4851C29.1396 38.3798 28.8594 38.66 28.8594 39.0055V39.0366C28.8594 39.3821 29.1396 39.6623 29.4851 39.6623H31.251C31.6053 39.6623 31.8915 39.3761 31.8915 39.0218C31.8915 38.6659 31.6053 38.3798 31.251 38.3798Z" fill="#8ABDF0"/>
<path d="M31.1081 10.8757H19.3522C18.7846 10.8757 18.3242 11.156 18.3242 11.5014V11.5326C18.3242 11.878 18.7846 12.1583 19.3522 12.1583H31.1081C31.6757 12.1583 32.1361 11.878 32.1361 11.5326V11.5014C32.1361 11.156 31.6757 10.8757 31.1081 10.8757Z" fill="#8ABDF0"/>
<path d="M31.1081 14.108H19.3522C18.7846 14.108 18.3242 14.3883 18.3242 14.7337V14.7649C18.3242 15.1103 18.7846 15.3906 19.3522 15.3906H31.1081C31.6757 15.3906 32.1361 15.1103 32.1361 14.7649V14.7337C32.1361 14.3883 31.6757 14.108 31.1081 14.108Z" fill="#8ABDF0"/>
<path d="M31.5113 17.3418H18.9499C18.6044 17.3418 18.3242 17.622 18.3242 17.9675V17.9986C18.3242 18.3441 18.6044 18.6243 18.9499 18.6243H31.5113C31.8568 18.6243 32.137 18.3441 32.137 17.9986V17.9675C32.137 17.6205 31.8568 17.3418 31.5113 17.3418Z" fill="#8ABDF0"/>
<rect x="33.5156" y="31.3201" width="13.0909" height="10.7022" fill="white"/>
<path d="M42.039 37.5L44.868 34.672C44.9609 34.5791 45.0346 34.4688 45.0849 34.3474C45.1352 34.226 45.1611 34.0959 45.1611 33.9645C45.1611 33.8331 45.1352 33.703 45.0849 33.5816C45.0346 33.4602 44.9609 33.3499 44.868 33.257C44.7751 33.1641 44.6648 33.0904 44.5434 33.0401C44.422 32.9898 44.2919 32.9639 44.1605 32.9639C44.0291 32.9639 43.899 32.9898 43.7776 33.0401C43.6562 33.0904 43.5459 33.1641 43.453 33.257L40.625 36.086L37.797 33.257C37.6094 33.0694 37.3549 32.9639 37.0895 32.9639C36.8241 32.9639 36.5696 33.0694 36.382 33.257C36.1944 33.4446 36.0889 33.6991 36.0889 33.9645C36.0889 34.0959 36.1148 34.226 36.1651 34.3474C36.2154 34.4688 36.2891 34.5791 36.382 34.672L39.211 37.5L36.382 40.328C36.1944 40.5156 36.0889 40.7701 36.0889 41.0355C36.0889 41.3009 36.1944 41.5554 36.382 41.743C36.5696 41.9306 36.8241 42.0361 37.0895 42.0361C37.3549 42.0361 37.6094 41.9306 37.797 41.743L40.625 38.914L43.453 41.743C43.6406 41.9306 43.8951 42.0361 44.1605 42.0361C44.4259 42.0361 44.6804 41.9306 44.868 41.743C45.0556 41.5554 45.1611 41.3009 45.1611 41.0355C45.1611 40.7701 45.0556 40.5156 44.868 40.328L42.039 37.5ZM40.625 47.5C35.102 47.5 30.625 43.023 30.625 37.5C30.625 31.977 35.102 27.5 40.625 27.5C46.148 27.5 50.625 31.977 50.625 37.5C50.625 43.023 46.148 47.5 40.625 47.5Z" fill="#F5B700"/>
</g>
<defs>
<linearGradient id="paint0_linear" x1="11.8371" y1="4.69116" x2="11.8371" y2="10.0484" gradientUnits="userSpaceOnUse">
<stop stop-opacity="0"/>
<stop offset="1"/>
</linearGradient>
<linearGradient id="paint1_linear" x1="25.1359" y1="43.8128" x2="25.1359" y2="50.6384" gradientUnits="userSpaceOnUse">
<stop stop-opacity="0"/>
<stop offset="1"/>
</linearGradient>
</defs>
</svg>
