<svg width="329" height="185" viewBox="0 0 329 185" fill="none" xmlns="http://www.w3.org/2000/svg">
<mask id="mask0_10907:63552" style="mask-type:alpha" maskUnits="userSpaceOnUse" x="0" y="0" width="329" height="185">
<path d="M0.242424 132.677C0.192061 131.913 0.170672 131.134 0.149313 130.355C0.0196971 125.518 0.252638 120.488 0.992286 115.371C1.28073 113.365 1.64197 111.356 2.08928 109.331C2.42599 107.849 2.79187 106.365 3.2148 104.882C3.29983 104.61 3.38487 104.339 3.46978 104.052C4.44517 100.766 5.68261 97.4621 7.18123 94.1701C7.32441 93.882 7.46746 93.5793 7.59606 93.2914C8.73839 90.9109 10.0278 88.5451 11.4617 86.1926C11.6187 85.9522 11.7623 85.7132 11.9205 85.4728C12.7527 84.1455 13.6577 82.8162 14.6211 81.5024C16.0018 79.5807 17.5272 77.6895 19.1693 75.8133C21.4303 73.2146 23.6948 70.8722 25.9161 68.7359C26.8396 67.8527 27.7635 67.0173 28.6732 66.2139C29.4526 65.5218 30.2323 64.847 31.0123 64.22C31.0556 64.1718 31.099 64.1396 31.1425 64.1073C32.9482 62.6268 34.7408 61.2911 36.5052 60.0818L36.6285 59.9998C36.9493 59.7862 37.2693 59.5731 37.5905 59.3725C39.3263 58.2272 41.0488 57.2095 42.7575 56.2876C43.1346 56.0944 43.4959 55.9 43.873 55.7055C55.5469 49.7789 66.4068 48.9206 76.0168 49.8075C83.4567 50.4902 90.165 52.2139 95.9219 53.4212C96.3015 53.5135 96.6651 53.5887 97.0446 53.6651C100.789 54.4279 104.125 54.9247 106.975 54.6926C111.511 54.3184 115.195 51.2637 119.156 46.7723C119.445 46.4351 119.732 46.1152 120.02 45.7621C122.324 43.0528 124.741 39.9135 127.476 36.5471C127.945 35.9798 128.428 35.3975 128.91 34.8152L129.016 34.6877C130.053 33.4529 131.147 32.1857 132.285 30.9195C132.457 30.7281 132.645 30.5352 132.818 30.3425C133.208 29.9088 133.598 29.4924 134.001 29.0745C134.173 28.8831 134.36 28.6902 134.534 28.5134C135.831 27.1489 137.216 25.7835 138.673 24.4348C144.966 18.6031 152.86 12.9804 163.326 8.64078L163.34 8.62472C167.777 6.78788 172.65 5.18493 178.066 3.89731C184.019 2.47618 190.426 1.40301 196.996 0.740105C198.58 0.582855 200.164 0.457474 201.763 0.347901C203.494 0.221249 205.21 0.142528 206.94 0.0796159C207.972 0.0546758 209.005 0.029725 210.053 0.020582C212.613 -0.00176164 215.189 0.0395073 217.737 0.162022C218.639 0.201954 219.542 0.25782 220.444 0.313686L220.444 0.313692C231.493 1.06056 242.147 3.25841 251.159 7.27004C257.483 10.0794 281.307 22.6815 288.464 44.2935C289.047 46.0706 289.528 47.9123 289.865 49.819L289.865 49.8509C290.246 51.8529 290.453 53.9361 290.487 56.0832C290.536 58.4546 290.383 60.8901 289.984 63.4248C289.776 64.7307 289.513 66.069 289.175 67.4252C288.979 68.2065 288.796 68.9717 288.628 69.7208C288.026 72.3834 287.582 74.8228 287.296 77.0684C287.241 77.4832 287.186 77.8821 287.146 78.2635C286.943 80.0794 286.842 81.7841 286.841 83.3591C286.814 85.3647 286.962 87.1934 287.238 88.8775C287.331 89.4969 287.453 90.1014 287.575 90.6887C288.118 93.0079 288.936 95.0526 289.986 96.9372C290.563 97.9666 291.212 98.9636 291.933 99.9122C294.022 102.711 296.663 105.186 299.639 107.817C300.606 108.668 301.618 109.55 302.659 110.448C303.186 110.906 303.714 111.362 304.256 111.835C305.327 112.781 306.411 113.758 307.526 114.799C307.791 115.034 308.054 115.287 308.318 115.523C308.421 115.634 308.524 115.729 308.627 115.823L308.627 115.823C309.081 116.266 309.537 116.707 309.991 117.165C312.017 119.183 313.897 121.283 315.618 123.417C317.044 125.171 318.354 126.958 319.549 128.777C319.777 129.114 320.005 129.465 320.233 129.817L320.256 129.853C321.334 131.562 322.324 133.288 323.197 135.031C323.774 136.188 324.309 137.329 324.798 138.487C324.843 138.582 324.888 138.693 324.918 138.789C325.452 140.074 325.928 141.342 326.333 142.612C326.541 143.279 326.751 143.929 326.917 144.58C326.991 144.787 327.037 144.992 327.097 145.199C327.142 145.373 327.187 145.548 327.218 145.723C327.398 146.47 327.565 147.2 327.702 147.93L327.705 147.942C327.75 148.145 327.794 148.346 327.824 148.549C327.84 148.725 327.871 148.9 327.902 149.059C327.902 149.091 327.917 149.121 327.917 149.154C328.071 150.14 328.182 151.125 328.263 152.111L328.314 152.922C328.317 153.225 328.334 153.542 328.337 153.845C328.353 154.019 328.354 154.196 328.356 154.354C328.385 157.742 327.876 160.994 326.783 163.995C326.215 165.607 325.473 167.816 323.991 169.827C322.67 171.557 321.876 172.396 320.364 173.664C291.171 190.589 26.943 186.403 9.7853 172.474C7.33972 170.488 7.53522 169.184 6.44603 166.105C5.74134 164.114 5.00049 160.665 4.89546 160.317C4.59475 159.32 3.75501 155.1 3.18181 152.719C3.15113 152.544 3.10607 152.385 3.06084 152.21C2.84899 151.304 2.63801 150.367 2.44044 149.43C2.33373 148.891 2.22719 148.366 2.12049 147.826L2.0904 147.715C2.0596 147.525 2.01412 147.318 1.98317 147.112C1.81651 146.238 1.66305 145.348 1.50945 144.442C1.00217 141.407 0.611382 138.228 0.378829 134.952C0.313879 134.189 0.278231 133.44 0.242424 132.677Z" fill="#CCECFA"/>
</mask>
<g mask="url(#mask0_10907:63552)">
<path d="M0.242424 132.677C0.192061 131.913 0.170672 131.134 0.149313 130.355C0.0196971 125.518 0.252638 120.488 0.992286 115.371C1.28073 113.365 1.64197 111.356 2.08928 109.331C2.42599 107.849 2.79187 106.365 3.2148 104.882C3.29983 104.61 3.38487 104.339 3.46978 104.052C4.44517 100.766 5.68261 97.4621 7.18123 94.1701C7.32441 93.882 7.46746 93.5793 7.59606 93.2914C8.73839 90.9109 10.0278 88.5451 11.4617 86.1926C11.6187 85.9522 11.7623 85.7132 11.9205 85.4728C12.7527 84.1455 13.6577 82.8162 14.6211 81.5024C16.0018 79.5807 17.5272 77.6895 19.1693 75.8133C21.4303 73.2146 23.6948 70.8722 25.9161 68.7359C26.8396 67.8527 27.7635 67.0173 28.6732 66.2139C29.4526 65.5218 30.2323 64.847 31.0123 64.22C31.0556 64.1718 31.099 64.1396 31.1425 64.1073C32.9482 62.6268 34.7408 61.2911 36.5052 60.0818L36.6285 59.9998C36.9493 59.7862 37.2693 59.5731 37.5905 59.3725C39.3263 58.2272 41.0488 57.2095 42.7575 56.2876C43.1346 56.0944 43.4959 55.9 43.873 55.7055C55.5469 49.7789 66.4068 48.9206 76.0168 49.8075C83.4567 50.4902 90.165 52.2139 95.9219 53.4212C96.3015 53.5135 96.6651 53.5887 97.0446 53.6651C100.789 54.4279 104.125 54.9247 106.975 54.6926C111.511 54.3184 115.195 51.2637 119.156 46.7723C119.445 46.4351 119.732 46.1152 120.02 45.7621C122.324 43.0528 124.741 39.9135 127.476 36.5471C127.945 35.9798 128.428 35.3975 128.91 34.8152L129.016 34.6877C130.053 33.4529 131.147 32.1857 132.285 30.9195C132.457 30.7281 132.645 30.5352 132.818 30.3425C133.208 29.9088 133.598 29.4924 134.001 29.0745C134.173 28.8831 134.36 28.6902 134.534 28.5134C135.831 27.1489 137.216 25.7835 138.673 24.4348C144.966 18.6031 152.86 12.9804 163.326 8.64078L163.34 8.62472C167.777 6.78788 172.65 5.18493 178.066 3.89731C184.019 2.47618 190.426 1.40301 196.996 0.740105C198.58 0.582855 200.164 0.457474 201.763 0.347901C203.494 0.221249 205.21 0.142528 206.94 0.0796159C207.972 0.0546758 209.005 0.029725 210.053 0.020582C212.613 -0.00176164 215.189 0.0395073 217.737 0.162022C218.639 0.201954 219.542 0.25782 220.444 0.313686L220.444 0.313692C231.493 1.06056 242.147 3.25841 251.159 7.27004C257.483 10.0794 281.307 22.6815 288.464 44.2935C289.047 46.0706 289.528 47.9123 289.865 49.819L289.865 49.8509C290.246 51.8529 290.453 53.9361 290.487 56.0832C290.536 58.4546 290.383 60.8901 289.984 63.4248C289.776 64.7307 289.513 66.069 289.175 67.4252C288.979 68.2065 288.796 68.9717 288.628 69.7208C288.026 72.3834 287.582 74.8228 287.296 77.0684C287.241 77.4832 287.186 77.8821 287.146 78.2635C286.943 80.0794 286.842 81.7841 286.841 83.3591C286.814 85.3647 286.962 87.1934 287.238 88.8775C287.331 89.4969 287.453 90.1014 287.575 90.6887C288.118 93.0079 288.936 95.0526 289.986 96.9372C290.563 97.9666 291.212 98.9636 291.933 99.9122C294.022 102.711 296.663 105.186 299.639 107.817C300.606 108.668 301.618 109.55 302.659 110.448C303.186 110.906 303.714 111.362 304.256 111.835C305.327 112.781 306.411 113.758 307.526 114.799C307.791 115.034 308.054 115.287 308.318 115.523C308.421 115.634 308.524 115.729 308.627 115.823L308.627 115.823C309.081 116.266 309.537 116.707 309.991 117.165C312.017 119.183 313.897 121.283 315.618 123.417C317.044 125.171 318.354 126.958 319.549 128.777C319.777 129.114 320.005 129.465 320.233 129.817L320.256 129.853C321.334 131.562 322.324 133.288 323.197 135.031C323.774 136.188 324.309 137.329 324.798 138.487C324.843 138.582 324.888 138.693 324.918 138.789C325.452 140.074 325.928 141.342 326.333 142.612C326.541 143.279 326.751 143.929 326.917 144.58C326.991 144.787 327.037 144.992 327.097 145.199C327.142 145.373 327.187 145.548 327.218 145.723C327.398 146.47 327.565 147.2 327.702 147.93L327.705 147.942C327.75 148.145 327.794 148.346 327.824 148.549C327.84 148.725 327.871 148.9 327.902 149.059C327.902 149.091 327.917 149.121 327.917 149.154C328.071 150.14 328.182 151.125 328.263 152.111L328.314 152.922C328.317 153.225 328.334 153.542 328.337 153.845C328.353 154.019 328.354 154.196 328.356 154.354C328.385 157.742 327.876 160.994 326.783 163.995C326.215 165.607 325.473 167.816 323.991 169.827C322.67 171.557 321.876 172.396 320.364 173.664C291.171 190.589 26.943 186.403 9.7853 172.474C7.33972 170.488 7.53522 169.184 6.44603 166.105C5.74134 164.114 5.00049 160.665 4.89546 160.317C4.59475 159.32 3.75501 155.1 3.18181 152.719C3.15113 152.544 3.10607 152.385 3.06084 152.21C2.84899 151.304 2.63801 150.367 2.44044 149.43C2.33373 148.891 2.22719 148.366 2.12049 147.826L2.0904 147.715C2.0596 147.525 2.01412 147.318 1.98317 147.112C1.81651 146.238 1.66305 145.348 1.50945 144.442C1.00217 141.407 0.611382 138.228 0.378829 134.952C0.313879 134.189 0.278231 133.44 0.242424 132.677Z" fill="#CCECFA"/>
<path d="M30.2782 146.002C28.7157 146.01 27.1505 146.06 25.5858 146.153C19.3266 146.525 13.1719 147.624 8.10534 149.545C3.03879 151.467 -0.882777 154.238 -2.39248 157.376C-3.41689 159.506 -3.32748 161.749 -2.56667 163.907C-1.80564 166.066 -0.389046 168.15 1.22205 170.181C4.4442 174.245 8.50121 178.205 9.86834 182.535C10.7651 185.376 10.4668 188.281 9.86834 191.142C7.3678 203.097 -0.326445 214.877 1.49304 226.864C2.78375 235.368 8.95478 243.626 18.6508 250.555C24.5618 254.78 31.7637 258.508 39.8418 261.652H295.68C298.012 260.878 300.073 259.877 301.554 258.673C304.074 256.623 304.795 254.087 304.28 251.678C303.765 249.27 302.091 246.964 300.116 244.763C298.14 242.562 295.849 240.436 293.993 238.208C292.136 235.98 290.709 233.619 290.583 231.197C290.439 228.412 292.037 225.65 294.609 223.197C297.181 220.743 300.699 218.579 304.532 216.606C312.198 212.66 321.226 209.395 328.012 205.045C334.153 201.109 338.27 196.355 339.919 191.385C341.568 186.415 340.751 181.24 337.636 176.458C331.407 166.895 315.741 159.152 297.037 156.052C285 154.058 272.019 153.903 259.493 154.804C246.967 155.704 234.812 157.629 222.843 159.728C198.907 163.927 174.485 168.934 149.258 167.969C133.558 167.369 118.527 164.463 104.337 160.965C90.1477 157.468 76.5449 153.351 62.1394 150.094C52.0493 147.812 41.2153 145.937 30.2779 146.002L30.2782 146.002Z" fill="#66E0A3"/>
<path d="M30.2782 146.002C28.7157 146.01 27.1505 146.06 25.5858 146.153C19.3266 146.525 13.1719 147.624 8.10534 149.545C3.03879 151.467 -0.882777 154.238 -2.39248 157.376C-3.41689 159.506 -3.32748 161.749 -2.56667 163.907C-1.80564 166.066 -0.389046 168.15 1.22205 170.181C4.4442 174.245 8.50121 178.205 9.86834 182.535C10.7651 185.376 10.4668 188.281 9.86834 191.142C7.3678 203.097 -0.326445 214.877 1.49304 226.864C2.78375 235.368 8.95478 243.626 18.6508 250.555C24.5618 254.78 31.7637 258.508 39.8418 261.652H295.68C298.012 260.878 300.073 259.877 301.554 258.673C304.074 256.623 304.795 254.087 304.28 251.678C303.765 249.27 302.091 246.964 300.116 244.763C298.14 242.562 295.849 240.436 293.993 238.208C292.136 235.98 290.709 233.619 290.583 231.197C290.439 228.412 292.037 225.65 294.609 223.197C297.181 220.743 300.699 218.579 304.532 216.606C312.198 212.66 321.226 209.395 328.012 205.045C334.153 201.109 338.27 196.355 339.919 191.385C341.568 186.415 340.751 181.24 337.636 176.458C331.407 166.895 315.741 159.152 297.037 156.052C285 154.058 272.019 153.903 259.493 154.804C246.967 155.704 234.812 157.629 222.843 159.728C198.907 163.927 174.485 168.934 149.258 167.969C133.558 167.369 118.527 164.463 104.337 160.965C90.1477 157.468 76.5449 153.351 62.1394 150.094C52.0493 147.812 41.2153 145.937 30.2779 146.002L30.2782 146.002Z" fill="url(#paint0_linear_10907:63552)"/>
<path d="M90.022 120.713C88.8865 118.32 86.6165 113.536 83.6885 111.066C80.7606 108.596 77.1788 108.443 75.1145 109.998C73.0502 111.552 72.5091 114.814 73.455 117.283C74.401 119.752 76.8362 121.429 80.0346 122.267C83.2331 123.106 87.196 123.106 89.1768 123.106C91.1576 123.106 91.1575 123.106 90.022 120.713V120.713Z" stroke="#F6CCCC" stroke-width="4"/>
<path d="M91.6098 120.713C92.7453 118.32 95.0154 113.536 97.9433 111.066C100.871 108.596 104.453 108.443 106.517 109.998C108.582 111.552 109.123 114.814 108.177 117.283C107.231 119.752 104.796 121.429 101.597 122.267C98.3988 123.106 94.4359 123.106 92.4551 123.106C90.4743 123.106 90.4743 123.106 91.6098 120.713V120.713Z" stroke="#F6CCCC" stroke-width="4"/>
<path d="M60.002 129.837V187.213H107.334V129.837H60.002Z" fill="url(#paint1_linear_10907:63552)"/>
<path d="M128.758 129.837H107.335V187.212H128.758V129.837Z" fill="url(#paint2_linear_10907:63552)"/>
<path d="M60.002 135.744V150.344H128.758V135.744H60.002Z" fill="url(#paint3_linear_10907:63552)"/>
<path d="M89.6122 150.352H77.7246V187.213H89.6122V150.352Z" fill="#F6CCCC"/>
<path d="M60.002 135.744V150.344H107.479V135.744H60.002Z" fill="url(#paint4_linear_10907:63552)"/>
<path d="M133.823 123.087H54.9365V146.712H133.823V123.087Z" fill="url(#paint5_linear_10907:63552)"/>
<path d="M89.6122 140.917H77.7246V150.351H89.6122V140.917Z" fill="#D99C9C"/>
<path d="M105.298 123.087H54.9365V146.712H105.298V123.087Z" fill="url(#paint6_linear_10907:63552)"/>
<path d="M86.0614 123.106H74.1738V146.638H86.0614V123.106Z" fill="#F6CCCC"/>
<path d="M241.201 129.826C240.221 127.761 238.262 123.633 235.735 121.501C233.208 119.37 230.117 119.238 228.336 120.58C226.555 121.921 226.088 124.736 226.904 126.866C227.72 128.997 229.822 130.444 232.582 131.168C235.342 131.891 238.762 131.891 240.471 131.891C242.181 131.891 242.181 131.891 241.201 129.826V129.826Z" stroke="#F6CCCC" stroke-width="4"/>
<path d="M242.572 129.826C243.552 127.761 245.511 123.633 248.037 121.501C250.564 119.37 253.655 119.238 255.436 120.58C257.218 121.921 257.685 124.736 256.868 126.866C256.052 128.997 253.951 130.444 251.19 131.168C248.43 131.891 245.011 131.891 243.301 131.891C241.592 131.891 241.592 131.891 242.572 129.826V129.826Z" stroke="#F6CCCC" stroke-width="4"/>
<path d="M215.295 137.7V187.212H256.141V137.7H215.295Z" fill="url(#paint7_linear_10907:63552)"/>
<path d="M274.628 137.7H256.141V187.212H274.628V137.7Z" fill="url(#paint8_linear_10907:63552)"/>
<path d="M215.295 142.798V155.397H274.628V142.798H215.295Z" fill="url(#paint9_linear_10907:63552)"/>
<path d="M240.846 155.403H230.588V187.213H240.846V155.403Z" fill="#F6CCCC"/>
<path d="M215.295 142.798V155.397H256.266V142.798H215.295Z" fill="url(#paint10_linear_10907:63552)"/>
<path d="M279 131.875H210.924V152.263H279V131.875Z" fill="url(#paint11_linear_10907:63552)"/>
<path d="M240.846 147.261H230.588V155.403H240.846V147.261Z" fill="#D99C9C"/>
<path d="M254.384 131.875H210.924V152.263H254.384V131.875Z" fill="url(#paint12_linear_10907:63552)"/>
<path d="M237.783 131.891H227.524V152.198H237.783V131.891Z" fill="#F6CCCC"/>
<path d="M165.751 97.9295C164.226 94.7168 161.178 88.2936 157.247 84.9778C153.316 81.6619 148.507 81.4565 145.736 83.5438C142.964 85.6309 142.238 90.0103 143.508 93.3247C144.778 96.639 148.047 98.8913 152.341 100.017C156.636 101.142 161.956 101.142 164.616 101.142C167.275 101.142 167.275 101.142 165.751 97.9295V97.9295Z" stroke="#F6CCCC" stroke-width="4"/>
<path d="M167.882 97.9295C169.407 94.7168 172.455 88.2936 176.386 84.9778C180.317 81.6619 185.126 81.4565 187.897 83.5438C190.669 85.6309 191.395 90.0103 190.125 93.3247C188.855 96.639 185.586 98.8913 181.291 100.017C176.997 101.142 171.676 101.142 169.017 101.142C166.358 101.142 166.358 101.142 167.882 97.9295V97.9295Z" stroke="#F6CCCC" stroke-width="4"/>
<path d="M125.445 110.18V187.212H188.994V110.18H125.445Z" fill="url(#paint13_linear_10907:63552)"/>
<path d="M217.757 110.18H188.994V187.212H217.757V110.18Z" fill="url(#paint14_linear_10907:63552)"/>
<path d="M125.445 118.111V137.713H217.757V118.111H125.445Z" fill="url(#paint15_linear_10907:63552)"/>
<path d="M165.2 137.723H149.239V187.213H165.2V137.723Z" fill="#F6CCCC"/>
<path d="M125.445 118.111V137.713H189.189V118.111H125.445Z" fill="url(#paint16_linear_10907:63552)"/>
<path d="M224.558 101.118H118.645V132.836H224.558V101.118Z" fill="url(#paint17_linear_10907:63552)"/>
<path d="M165.2 125.056H149.239V137.722H165.2V125.056Z" fill="#D99C9C"/>
<path d="M186.26 101.118H118.645V132.836H186.26V101.118Z" fill="url(#paint18_linear_10907:63552)"/>
<path d="M160.433 101.142H144.473V132.736H160.433V101.142Z" fill="#F6CCCC"/>
<path d="M68.1662 82.1069C71.2373 91.503 86.711 94.5759 88.9336 94.9324C89.1157 94.9616 89.2996 94.9015 89.4293 94.7704C91.0124 93.1701 101.793 81.8845 98.6133 72.1554C98.6134 72.1555 98.6136 72.1556 98.6137 72.1555C98.5473 72.0017 98.4773 71.8485 98.4032 71.696C93.8323 62.2781 82.2117 67.1542 82.2927 73.7747C78.4478 68.3844 66.1907 71.3126 68.0643 81.6121C68.0947 81.7791 68.1288 81.9441 68.166 82.1075C68.1661 82.1072 68.1661 82.1071 68.1662 82.1069Z" fill="#D30000"/>
<path d="M66.9387 80.9269C70.0097 90.3229 85.4834 93.3959 87.7061 93.7524C87.8882 93.7816 88.0721 93.7215 88.2018 93.5904C89.7849 91.9901 100.566 80.7045 97.3857 70.9754C97.3859 70.9755 97.386 70.9755 97.3861 70.9755C97.3197 70.8217 97.2498 70.6685 97.1757 70.5159C92.6047 61.0981 80.9842 65.9742 81.0651 72.5946C77.2203 67.2044 64.9632 70.1326 66.8368 80.4321C66.8672 80.5991 66.9012 80.7641 66.9385 80.9274C66.9385 80.9272 66.9386 80.9271 66.9387 80.9269Z" fill="url(#paint19_linear_10907:63552)"/>
<mask id="mask1_10907:63552" style="mask-type:alpha" maskUnits="userSpaceOnUse" x="66" y="65" width="32" height="29">
<path d="M66.9387 80.9269C70.0097 90.3229 85.4834 93.3959 87.7061 93.7524C87.8882 93.7816 88.0721 93.7215 88.2018 93.5904C89.7849 91.9901 100.566 80.7045 97.3857 70.9754C97.3859 70.9755 97.386 70.9755 97.3861 70.9755C97.3197 70.8217 97.2498 70.6685 97.1757 70.5159C92.6047 61.0981 80.9842 65.9742 81.0651 72.5946C77.2203 67.2044 64.9632 70.1326 66.8368 80.4321C66.8672 80.5991 66.9012 80.7641 66.9385 80.9274C66.9385 80.9272 66.9386 80.9271 66.9387 80.9269Z" fill="url(#paint20_linear_10907:63552)"/>
</mask>
<g mask="url(#mask1_10907:63552)">
<rect opacity="0.3" x="71.3232" y="63.7912" width="5.85145" height="34.2907" transform="rotate(-27.8901 71.3232 63.7912)" fill="url(#paint21_linear_10907:63552)"/>
<rect opacity="0.3" x="80.0889" y="61.5807" width="5.85145" height="34.2907" transform="rotate(-27.8901 80.0889 61.5807)" fill="url(#paint22_linear_10907:63552)"/>
<rect opacity="0.3" x="63.5117" y="67.5946" width="5.85145" height="34.2907" transform="rotate(-27.8901 63.5117 67.5946)" fill="url(#paint23_linear_10907:63552)"/>
</g>
<path d="M155.531 60.5294C155.531 67.8578 165.727 73.5871 167.211 74.3502C167.332 74.4127 167.476 74.4127 167.597 74.3502C169.081 73.5871 179.278 68.1175 179.278 60.5294C179.278 60.5294 179.278 60.5295 179.278 60.5295C179.267 60.4059 179.253 60.2818 179.235 60.1572C178.184 52.4679 168.872 53.2275 167.404 57.9114C165.936 53.2275 156.625 52.4679 155.573 60.1572C155.556 60.2819 155.542 60.406 155.53 60.5297C155.53 60.5295 155.53 60.5294 155.531 60.5294Z" fill="#D30000"/>
<path d="M154.937 59.415C154.937 66.7434 165.133 72.4727 166.617 73.2359C166.739 73.2984 166.882 73.2984 167.004 73.2359C168.488 72.4728 178.684 67.0032 178.684 59.415C178.684 59.4151 178.684 59.4152 178.684 59.4152C178.673 59.2915 178.659 59.1674 178.642 59.0429C177.59 51.3536 168.278 52.1132 166.81 56.7971C165.342 52.1132 156.031 51.3536 154.979 59.0429C154.962 59.1675 154.948 59.2917 154.937 59.4153C154.937 59.4152 154.937 59.4151 154.937 59.415Z" fill="url(#paint24_linear_10907:63552)"/>
<mask id="mask2_10907:63552" style="mask-type:alpha" maskUnits="userSpaceOnUse" x="154" y="53" width="25" height="21">
<path d="M154.937 59.415C154.937 66.7434 165.133 72.4727 166.617 73.2359C166.739 73.2984 166.882 73.2984 167.004 73.2359C168.488 72.4728 178.684 67.0032 178.684 59.415C178.684 59.4151 178.684 59.4152 178.684 59.4152C178.673 59.2915 178.659 59.1674 178.642 59.0429C177.59 51.3536 168.278 52.1132 166.81 56.7971C165.342 52.1132 156.031 51.3536 154.979 59.0429C154.962 59.1675 154.948 59.2917 154.937 59.4153C154.937 59.4152 154.937 59.4151 154.937 59.415Z" fill="url(#paint25_linear_10907:63552)"/>
</mask>
<g mask="url(#mask2_10907:63552)">
<rect opacity="0.3" x="155.392" y="53.2632" width="4.33799" height="25.4215" transform="rotate(-45 155.392 53.2632)" fill="url(#paint26_linear_10907:63552)"/>
<rect opacity="0.3" x="161.12" y="49.7852" width="4.33799" height="25.4215" transform="rotate(-45 161.12 49.7852)" fill="url(#paint27_linear_10907:63552)"/>
<rect opacity="0.3" x="150.686" y="57.6622" width="4.33799" height="25.4215" transform="rotate(-45 150.686 57.6622)" fill="url(#paint28_linear_10907:63552)"/>
</g>
<path d="M222.828 55.8658C222.828 42.611 233.573 31.8658 246.828 31.8658H253.492C266.746 31.8658 277.492 42.611 277.492 55.8658V62.1556C277.492 75.4105 266.746 86.1556 253.492 86.1556H226.828C224.619 86.1556 222.828 84.3648 222.828 82.1556V55.8658Z" fill="url(#paint29_linear_10907:63552)"/>
<path d="M250.101 63.765C249.42 63.765 248.883 63.5424 248.49 63.0971C248.123 62.6517 247.94 62.0231 247.94 61.2111C247.94 59.9799 248.176 58.9584 248.647 58.1463C249.119 57.3081 249.773 56.4568 250.612 55.5924C251.214 54.9375 251.659 54.3744 251.948 53.9029C252.262 53.4314 252.419 52.9075 252.419 52.3312C252.419 51.7549 252.21 51.2965 251.79 50.956C251.371 50.6155 250.795 50.4452 250.062 50.4452C249.459 50.4452 248.857 50.5631 248.254 50.7988C247.678 51.0084 247.023 51.3227 246.29 51.7418L245.347 52.2133C244.456 52.711 243.736 52.9599 243.186 52.9599C242.531 52.9599 241.968 52.6848 241.496 52.1348C241.051 51.5585 240.828 50.8643 240.828 50.0523C240.828 49.5022 240.92 49.0438 241.103 48.6771C241.313 48.3104 241.64 47.9568 242.085 47.6162C243.264 46.7518 244.6 46.0839 246.093 45.6124C247.612 45.1147 249.132 44.8658 250.651 44.8658C252.354 44.8658 253.873 45.1671 255.209 45.7695C256.545 46.3458 257.592 47.1578 258.352 48.2056C259.112 49.2272 259.492 50.3928 259.492 51.7025C259.492 52.6717 259.282 53.5623 258.863 54.3744C258.47 55.1864 257.985 55.8805 257.409 56.4568C256.833 57.0331 256.086 57.7272 255.169 58.5392C254.305 59.2465 253.637 59.8621 253.166 60.3859C252.72 60.8836 252.432 61.4075 252.301 61.9576C252.196 62.5339 251.934 62.9792 251.515 63.2935C251.122 63.6078 250.651 63.765 250.101 63.765ZM250.179 73.1556C249.106 73.1556 248.202 72.7889 247.468 72.0555C246.761 71.322 246.408 70.4183 246.408 69.3444C246.408 68.2704 246.761 67.3667 247.468 66.6333C248.202 65.8998 249.106 65.5331 250.179 65.5331C251.28 65.5331 252.183 65.8998 252.891 66.6333C253.624 67.3667 253.991 68.2704 253.991 69.3444C253.991 70.4183 253.624 71.322 252.891 72.0555C252.183 72.7889 251.28 73.1556 250.179 73.1556Z" fill="#3C91E6"/>
<path d="M215.828 49.8658C215.828 36.611 226.573 25.8658 239.828 25.8658H246.492C259.746 25.8658 270.492 36.611 270.492 49.8658V56.1556C270.492 69.4105 259.746 80.1556 246.492 80.1556H219.828C217.619 80.1556 215.828 78.3648 215.828 76.1556V49.8658Z" fill="url(#paint30_linear_10907:63552)"/>
<path d="M243.101 57.765C242.42 57.765 241.883 57.5424 241.49 57.0971C241.123 56.6517 240.94 56.0231 240.94 55.2111C240.94 53.9799 241.176 52.9584 241.647 52.1463C242.119 51.3081 242.773 50.4568 243.612 49.5924C244.214 48.9375 244.659 48.3744 244.948 47.9029C245.262 47.4314 245.419 46.9075 245.419 46.3312C245.419 45.7549 245.21 45.2965 244.79 44.956C244.371 44.6155 243.795 44.4452 243.062 44.4452C242.459 44.4452 241.857 44.5631 241.254 44.7988C240.678 45.0084 240.023 45.3227 239.29 45.7418L238.347 46.2133C237.456 46.711 236.736 46.9599 236.186 46.9599C235.531 46.9599 234.968 46.6848 234.496 46.1348C234.051 45.5585 233.828 44.8643 233.828 44.0523C233.828 43.5022 233.92 43.0438 234.103 42.6771C234.313 42.3104 234.64 41.9568 235.085 41.6162C236.264 40.7518 237.6 40.0839 239.093 39.6124C240.612 39.1147 242.132 38.8658 243.651 38.8658C245.354 38.8658 246.873 39.1671 248.209 39.7695C249.545 40.3458 250.592 41.1578 251.352 42.2056C252.112 43.2272 252.492 44.3928 252.492 45.7025C252.492 46.6717 252.282 47.5623 251.863 48.3744C251.47 49.1864 250.985 49.8805 250.409 50.4568C249.833 51.0331 249.086 51.7272 248.169 52.5392C247.305 53.2465 246.637 53.8621 246.166 54.3859C245.72 54.8836 245.432 55.4075 245.301 55.9576C245.196 56.5339 244.934 56.9792 244.515 57.2935C244.122 57.6078 243.651 57.765 243.101 57.765ZM243.179 67.1556C242.106 67.1556 241.202 66.7889 240.468 66.0555C239.761 65.322 239.408 64.4183 239.408 63.3444C239.408 62.2704 239.761 61.3667 240.468 60.6333C241.202 59.8998 242.106 59.5331 243.179 59.5331C244.28 59.5331 245.183 59.8998 245.891 60.6333C246.624 61.3667 246.991 62.2704 246.991 63.3444C246.991 64.4183 246.624 65.322 245.891 66.0555C245.183 66.7889 244.28 67.1556 243.179 67.1556Z" fill="#D30000"/>
</g>
<defs>
<linearGradient id="paint0_linear_10907:63552" x1="168.801" y1="261.652" x2="168.801" y2="146" gradientUnits="userSpaceOnUse">
<stop stop-color="#00B59C"/>
<stop offset="1" stop-color="#9CFFAC"/>
</linearGradient>
<linearGradient id="paint1_linear_10907:63552" x1="107.334" y1="232.441" x2="50.43" y2="100.904" gradientUnits="userSpaceOnUse">
<stop stop-color="#D30000"/>
<stop offset="1" stop-color="#F6CCCC"/>
</linearGradient>
<linearGradient id="paint2_linear_10907:63552" x1="136.242" y1="172.489" x2="71.2164" y2="100.115" gradientUnits="userSpaceOnUse">
<stop stop-color="#D30000"/>
<stop offset="1" stop-color="#F6CCCC"/>
</linearGradient>
<linearGradient id="paint3_linear_10907:63552" x1="116.677" y1="144.547" x2="117.051" y2="184.019" gradientUnits="userSpaceOnUse">
<stop stop-color="#D30000"/>
<stop offset="1" stop-color="#F6CCCC"/>
</linearGradient>
<linearGradient id="paint4_linear_10907:63552" x1="100.813" y1="138.169" x2="100.813" y2="161.413" gradientUnits="userSpaceOnUse">
<stop stop-color="#D30000"/>
<stop offset="1" stop-color="#F6CCCC"/>
</linearGradient>
<linearGradient id="paint5_linear_10907:63552" x1="139.047" y1="151.873" x2="98.5436" y2="108.414" gradientUnits="userSpaceOnUse">
<stop stop-color="#D30000"/>
<stop offset="1" stop-color="#F6CCCC"/>
</linearGradient>
<linearGradient id="paint6_linear_10907:63552" x1="98.9274" y1="171.045" x2="78.5558" y2="114.579" gradientUnits="userSpaceOnUse">
<stop stop-color="#D30000"/>
<stop offset="1" stop-color="#F6CCCC"/>
</linearGradient>
<linearGradient id="paint7_linear_10907:63552" x1="256.141" y1="226.242" x2="207.035" y2="112.732" gradientUnits="userSpaceOnUse">
<stop stop-color="#D30000"/>
<stop offset="1" stop-color="#F6CCCC"/>
</linearGradient>
<linearGradient id="paint8_linear_10907:63552" x1="281.087" y1="174.506" x2="224.972" y2="112.051" gradientUnits="userSpaceOnUse">
<stop stop-color="#D30000"/>
<stop offset="1" stop-color="#F6CCCC"/>
</linearGradient>
<linearGradient id="paint9_linear_10907:63552" x1="264.203" y1="150.394" x2="264.526" y2="184.457" gradientUnits="userSpaceOnUse">
<stop stop-color="#D30000"/>
<stop offset="1" stop-color="#F6CCCC"/>
</linearGradient>
<linearGradient id="paint10_linear_10907:63552" x1="250.513" y1="144.89" x2="250.513" y2="164.948" gradientUnits="userSpaceOnUse">
<stop stop-color="#D30000"/>
<stop offset="1" stop-color="#F6CCCC"/>
</linearGradient>
<linearGradient id="paint11_linear_10907:63552" x1="283.507" y1="156.716" x2="248.555" y2="119.213" gradientUnits="userSpaceOnUse">
<stop stop-color="#D30000"/>
<stop offset="1" stop-color="#F6CCCC"/>
</linearGradient>
<linearGradient id="paint12_linear_10907:63552" x1="248.886" y1="173.26" x2="231.306" y2="124.533" gradientUnits="userSpaceOnUse">
<stop stop-color="#D30000"/>
<stop offset="1" stop-color="#F6CCCC"/>
</linearGradient>
<linearGradient id="paint13_linear_10907:63552" x1="188.994" y1="247.936" x2="112.594" y2="71.3343" gradientUnits="userSpaceOnUse">
<stop stop-color="#D30000"/>
<stop offset="1" stop-color="#F6CCCC"/>
</linearGradient>
<linearGradient id="paint14_linear_10907:63552" x1="227.805" y1="167.444" x2="140.501" y2="70.2755" gradientUnits="userSpaceOnUse">
<stop stop-color="#D30000"/>
<stop offset="1" stop-color="#F6CCCC"/>
</linearGradient>
<linearGradient id="paint15_linear_10907:63552" x1="201.537" y1="129.93" x2="202.039" y2="182.925" gradientUnits="userSpaceOnUse">
<stop stop-color="#D30000"/>
<stop offset="1" stop-color="#F6CCCC"/>
</linearGradient>
<linearGradient id="paint16_linear_10907:63552" x1="180.238" y1="121.366" x2="180.238" y2="152.573" gradientUnits="userSpaceOnUse">
<stop stop-color="#D30000"/>
<stop offset="1" stop-color="#F6CCCC"/>
</linearGradient>
<linearGradient id="paint17_linear_10907:63552" x1="231.571" y1="139.766" x2="177.191" y2="81.4166" gradientUnits="userSpaceOnUse">
<stop stop-color="#D30000"/>
<stop offset="1" stop-color="#F6CCCC"/>
</linearGradient>
<linearGradient id="paint18_linear_10907:63552" x1="177.707" y1="165.505" x2="150.356" y2="89.6945" gradientUnits="userSpaceOnUse">
<stop stop-color="#D30000"/>
<stop offset="1" stop-color="#F6CCCC"/>
</linearGradient>
<linearGradient id="paint19_linear_10907:63552" x1="111.682" y1="78.6919" x2="101.767" y2="45.6563" gradientUnits="userSpaceOnUse">
<stop stop-color="#D30000"/>
<stop offset="1" stop-color="#F6CCCC"/>
</linearGradient>
<linearGradient id="paint20_linear_10907:63552" x1="111.682" y1="78.6919" x2="101.767" y2="45.6563" gradientUnits="userSpaceOnUse">
<stop stop-color="#D30000"/>
<stop offset="1" stop-color="#F6CCCC"/>
</linearGradient>
<linearGradient id="paint21_linear_10907:63552" x1="74.249" y1="63.7912" x2="74.249" y2="98.0819" gradientUnits="userSpaceOnUse">
<stop stop-color="white"/>
<stop offset="1" stop-color="white" stop-opacity="0"/>
</linearGradient>
<linearGradient id="paint22_linear_10907:63552" x1="83.0146" y1="61.5807" x2="83.0146" y2="95.8714" gradientUnits="userSpaceOnUse">
<stop stop-color="white"/>
<stop offset="1" stop-color="white" stop-opacity="0"/>
</linearGradient>
<linearGradient id="paint23_linear_10907:63552" x1="66.4374" y1="67.5946" x2="66.4374" y2="101.885" gradientUnits="userSpaceOnUse">
<stop stop-color="white"/>
<stop offset="1" stop-color="white" stop-opacity="0"/>
</linearGradient>
<linearGradient id="paint24_linear_10907:63552" x1="186.981" y1="68.1453" x2="187.603" y2="42.5825" gradientUnits="userSpaceOnUse">
<stop stop-color="#D30000"/>
<stop offset="1" stop-color="#F6CCCC"/>
</linearGradient>
<linearGradient id="paint25_linear_10907:63552" x1="186.981" y1="68.1453" x2="187.603" y2="42.5825" gradientUnits="userSpaceOnUse">
<stop stop-color="#D30000"/>
<stop offset="1" stop-color="#F6CCCC"/>
</linearGradient>
<linearGradient id="paint26_linear_10907:63552" x1="157.561" y1="53.2632" x2="157.561" y2="78.6848" gradientUnits="userSpaceOnUse">
<stop stop-color="white"/>
<stop offset="1" stop-color="white" stop-opacity="0"/>
</linearGradient>
<linearGradient id="paint27_linear_10907:63552" x1="163.289" y1="49.7852" x2="163.289" y2="75.2067" gradientUnits="userSpaceOnUse">
<stop stop-color="white"/>
<stop offset="1" stop-color="white" stop-opacity="0"/>
</linearGradient>
<linearGradient id="paint28_linear_10907:63552" x1="152.855" y1="57.6622" x2="152.855" y2="83.0837" gradientUnits="userSpaceOnUse">
<stop stop-color="white"/>
<stop offset="1" stop-color="white" stop-opacity="0"/>
</linearGradient>
<linearGradient id="paint29_linear_10907:63552" x1="150.565" y1="-34.9736" x2="285.815" y2="73.9237" gradientUnits="userSpaceOnUse">
<stop stop-color="#2C5AA0"/>
<stop offset="1" stop-color="#2C5AA0" stop-opacity="0"/>
</linearGradient>
<linearGradient id="paint30_linear_10907:63552" x1="306.055" y1="126.765" x2="236.638" y2="34.0012" gradientUnits="userSpaceOnUse">
<stop stop-color="#EBF4FC"/>
<stop offset="1" stop-color="#EEFDFF"/>
</linearGradient>
</defs>
</svg>
