<svg width="328" height="185" viewBox="0 0 328 185" fill="none" xmlns="http://www.w3.org/2000/svg">
<mask id="mask0" style="mask-type:alpha" maskUnits="userSpaceOnUse" x="0" y="0" width="328" height="185">
<path d="M327.984 135.205C327.97 136.025 327.955 136.846 327.912 137.649C327.883 138.453 327.853 139.241 327.795 140.044C327.591 143.494 327.228 146.842 326.747 150.04C326.602 150.995 326.456 151.932 326.297 152.853C326.268 153.071 326.224 153.289 326.195 153.489L326.166 153.606C326.064 154.175 325.962 154.728 325.86 155.297C325.671 156.285 325.468 157.273 325.264 158.227C325.22 158.411 325.176 158.579 325.147 158.763C324.595 161.274 323.998 163.636 323.372 165.846C323.27 166.214 323.168 166.583 323.066 166.952C322.79 167.923 322.514 168.843 322.237 169.747C322.033 170.4 321.829 171.02 321.641 171.623C320.579 174.871 319.546 177.567 318.716 179.61C317.946 181.501 317.291 183.093 316.956 183.896C316.81 184.248 316.723 184.45 316.723 184.45C316.723 184.45 155.43 184.483 66.395 184.5C32.4539 184.5 9.01794 184.5 9.01794 184.5C9.01794 184.483 9.00337 184.483 9.00337 184.483C8.79941 184.299 8.61002 184.131 8.42184 183.948C8.40728 183.948 8.40728 183.948 8.40728 183.948C8.31986 183.864 8.23245 183.797 8.15961 183.713L3.92623 178.439C2.99505 176.914 2.2387 175.291 1.65717 173.6C0.537823 170.452 0 167.035 0 163.469C0 163.303 0 163.117 0.0145686 162.934C0.0145686 162.616 0.0291371 162.282 0.0291371 161.963C0.0437057 161.678 0.0582743 161.395 0.0728428 161.109C0.145686 160.071 0.247666 159.033 0.393351 157.995C0.393351 157.96 0.40792 157.928 0.40792 157.894C0.437057 157.727 0.466194 157.542 0.480763 157.358C0.5099 157.14 0.553605 156.923 0.597311 156.705C0.728428 155.935 0.888682 155.165 1.06229 154.379C1.09143 154.194 1.13513 154.01 1.17884 153.825C1.23711 153.607 1.28082 153.391 1.35366 153.173C1.51392 152.487 1.71788 151.801 1.92062 151.097C2.31397 149.757 2.77895 148.418 3.30221 147.061C3.33134 146.961 3.37505 146.843 3.41876 146.743C3.8983 145.52 4.42277 144.314 4.98973 143.092C5.84806 141.25 6.82294 139.425 7.88523 137.617C8.11833 137.231 8.35021 136.847 8.58331 136.478C9.76215 134.553 11.0563 132.661 12.467 130.802C14.1691 128.542 16.0315 126.314 18.0395 124.172C18.4899 123.686 18.9416 123.218 19.392 122.748C19.494 122.648 19.5959 122.547 19.6979 122.43C19.9601 122.178 20.2212 121.91 20.4834 121.66C21.5894 120.555 22.665 119.517 23.7273 118.512C24.2652 118.009 24.7896 117.524 25.3129 117.038C26.346 116.083 27.35 115.146 28.3091 114.242C31.2629 111.446 33.8816 108.818 35.9467 105.854C36.6594 104.849 37.2992 103.794 37.8673 102.706C38.9005 100.713 39.7006 98.5545 40.2238 96.1093C40.3404 95.4903 40.4569 94.8531 40.5443 94.2006C40.8065 92.4261 40.9377 90.5006 40.894 88.3907C40.8794 86.7335 40.7628 84.9408 40.5443 83.0321C40.5006 82.6311 40.4423 82.2119 40.3841 81.776C40.0781 79.416 39.6131 76.8533 38.9879 74.0574C38.8131 73.2707 38.6237 72.4673 38.4209 71.6471C38.0713 70.2232 37.7957 68.8176 37.5772 67.4454C37.1559 64.7822 36.9811 62.221 37.0102 59.7254C37.0248 57.466 37.2142 55.2723 37.5772 53.1624V53.1289C37.8977 51.1196 38.3627 49.1774 38.9296 47.3022C45.8983 24.4972 69.611 11.019 75.9107 8.00503C84.8874 3.7014 95.5212 1.29109 106.563 0.403815C107.465 0.336745 108.367 0.269676 109.269 0.219373C111.816 0.0670696 114.391 0 116.952 0C117.999 0 119.032 0.0167674 120.064 0.0335348C121.796 0.083837 123.512 0.150907 125.244 0.268278C126.844 0.368883 128.429 0.486254 130.015 0.637161C136.59 1.27432 143.006 2.34464 148.971 3.78524C154.398 5.0903 159.285 6.73211 163.737 8.62403C163.737 8.62403 163.737 8.62403 163.752 8.6408C174.256 13.1107 182.198 18.9541 188.541 25.0323C190.01 26.438 191.408 27.8618 192.717 29.2856C192.891 29.4701 193.081 29.6713 193.254 29.8711C193.661 30.3071 194.054 30.7416 194.448 31.1943C194.623 31.3955 194.812 31.5968 194.986 31.7966C196.135 33.1184 197.24 34.4416 198.288 35.7313C198.811 36.3838 199.336 37.0378 199.844 37.6735C202.609 41.1905 205.053 44.4713 207.38 47.3008C207.671 47.6697 207.961 48.0036 208.253 48.3558C212.253 53.045 215.963 56.2253 220.502 56.5774C223.354 56.7953 226.686 56.242 230.424 55.405C230.802 55.3212 231.165 55.2388 231.544 55.1382C237.29 53.8149 243.983 51.9398 251.417 51.1531C261.019 50.1317 271.886 50.9351 283.611 57.0636C283.99 57.2648 284.353 57.466 284.732 57.6659C286.448 58.6202 288.18 59.6751 289.925 60.8642C290.29 61.099 290.653 61.3505 291.017 61.6006C292.792 62.8568 294.596 64.2457 296.414 65.7869C296.458 65.8204 296.502 65.8539 296.546 65.9042C297.331 66.5568 298.117 67.2596 298.902 67.9806C299.819 68.8176 300.75 69.6881 301.681 70.6089C303.921 72.8362 306.206 75.28 308.489 77.9935C310.148 79.9525 311.69 81.9283 313.087 83.9376C314.062 85.3111 314.978 86.7014 315.822 88.0903C315.982 88.3418 316.128 88.5919 316.287 88.8434C317.742 91.3054 319.052 93.7828 320.215 96.277C320.346 96.5788 320.491 96.896 320.637 97.1978C322.164 100.648 323.431 104.113 324.435 107.561C324.522 107.862 324.609 108.147 324.697 108.432C325.133 109.989 325.512 111.546 325.861 113.103C326.326 115.23 326.705 117.34 327.011 119.448C327.795 124.825 328.072 130.115 327.984 135.205Z" fill="#CCECFA"/>
</mask>
<g mask="url(#mask0)">
<path d="M327.984 135.205C327.97 136.025 327.955 136.846 327.912 137.649C327.883 138.453 327.853 139.241 327.795 140.044C327.591 143.494 327.228 146.842 326.747 150.04C326.602 150.995 326.456 151.932 326.297 152.853C326.268 153.071 326.224 153.289 326.195 153.489L326.166 153.606C326.064 154.175 325.962 154.728 325.86 155.297C325.671 156.285 325.468 157.273 325.264 158.227C325.22 158.411 325.176 158.579 325.147 158.763C324.595 161.274 323.998 163.636 323.372 165.846C323.27 166.214 323.168 166.583 323.066 166.952C322.79 167.923 322.514 168.843 322.237 169.747C322.033 170.4 321.829 171.02 321.641 171.623C320.579 174.871 319.546 177.567 318.716 179.61C317.946 181.501 317.291 183.093 316.956 183.896C316.81 184.248 316.723 184.45 316.723 184.45C316.723 184.45 155.43 184.483 66.395 184.5C32.4539 184.5 9.01794 184.5 9.01794 184.5C9.01794 184.483 9.00337 184.483 9.00337 184.483C8.79941 184.299 8.61002 184.131 8.42184 183.948C8.40728 183.948 8.40728 183.948 8.40728 183.948C8.31986 183.864 8.23245 183.797 8.15961 183.713L3.92623 178.439C2.99505 176.914 2.2387 175.291 1.65717 173.6C0.537823 170.452 0 167.035 0 163.469C0 163.303 0 163.117 0.0145686 162.934C0.0145686 162.616 0.0291371 162.282 0.0291371 161.963C0.0437057 161.678 0.0582743 161.395 0.0728428 161.109C0.145686 160.071 0.247666 159.033 0.393351 157.995C0.393351 157.96 0.40792 157.928 0.40792 157.894C0.437057 157.727 0.466194 157.542 0.480763 157.358C0.5099 157.14 0.553605 156.923 0.597311 156.705C0.728428 155.935 0.888682 155.165 1.06229 154.379C1.09143 154.194 1.13513 154.01 1.17884 153.825C1.23711 153.607 1.28082 153.391 1.35366 153.173C1.51392 152.487 1.71788 151.801 1.92062 151.097C2.31397 149.757 2.77895 148.418 3.30221 147.061C3.33134 146.961 3.37505 146.843 3.41876 146.743C3.8983 145.52 4.42277 144.314 4.98973 143.092C5.84806 141.25 6.82294 139.425 7.88523 137.617C8.11833 137.231 8.35021 136.847 8.58331 136.478C9.76215 134.553 11.0563 132.661 12.467 130.802C14.1691 128.542 16.0315 126.314 18.0395 124.172C18.4899 123.686 18.9416 123.218 19.392 122.748C19.494 122.648 19.5959 122.547 19.6979 122.43C19.9601 122.178 20.2212 121.91 20.4834 121.66C21.5894 120.555 22.665 119.517 23.7273 118.512C24.2652 118.009 24.7896 117.524 25.3129 117.038C26.346 116.083 27.35 115.146 28.3091 114.242C31.2629 111.446 33.8816 108.818 35.9467 105.854C36.6594 104.849 37.2992 103.794 37.8673 102.706C38.9005 100.713 39.7006 98.5545 40.2238 96.1093C40.3404 95.4903 40.4569 94.8531 40.5443 94.2006C40.8065 92.4261 40.9377 90.5006 40.894 88.3907C40.8794 86.7335 40.7628 84.9408 40.5443 83.0321C40.5006 82.6311 40.4423 82.2119 40.3841 81.776C40.0781 79.416 39.6131 76.8533 38.9879 74.0574C38.8131 73.2707 38.6237 72.4673 38.4209 71.6471C38.0713 70.2232 37.7957 68.8176 37.5772 67.4454C37.1559 64.7822 36.9811 62.221 37.0102 59.7254C37.0248 57.466 37.2142 55.2723 37.5772 53.1624V53.1289C37.8977 51.1196 38.3627 49.1774 38.9296 47.3022C45.8983 24.4972 69.611 11.019 75.9107 8.00503C84.8874 3.7014 95.5212 1.29109 106.563 0.403815C107.465 0.336745 108.367 0.269676 109.269 0.219373C111.816 0.0670696 114.391 0 116.952 0C117.999 0 119.032 0.0167674 120.064 0.0335348C121.796 0.083837 123.512 0.150907 125.244 0.268278C126.844 0.368883 128.429 0.486254 130.015 0.637161C136.59 1.27432 143.006 2.34464 148.971 3.78524C154.398 5.0903 159.285 6.73211 163.737 8.62403C163.737 8.62403 163.737 8.62403 163.752 8.6408C174.256 13.1107 182.198 18.9541 188.541 25.0323C190.01 26.438 191.408 27.8618 192.717 29.2856C192.891 29.4701 193.081 29.6713 193.254 29.8711C193.661 30.3071 194.054 30.7416 194.448 31.1943C194.623 31.3955 194.812 31.5968 194.986 31.7966C196.135 33.1184 197.24 34.4416 198.288 35.7313C198.811 36.3838 199.336 37.0378 199.844 37.6735C202.609 41.1905 205.053 44.4713 207.38 47.3008C207.671 47.6697 207.961 48.0036 208.253 48.3558C212.253 53.045 215.963 56.2253 220.502 56.5774C223.354 56.7953 226.686 56.242 230.424 55.405C230.802 55.3212 231.165 55.2388 231.544 55.1382C237.29 53.8149 243.983 51.9398 251.417 51.1531C261.019 50.1317 271.886 50.9351 283.611 57.0636C283.99 57.2648 284.353 57.466 284.732 57.6659C286.448 58.6202 288.18 59.6751 289.925 60.8642C290.29 61.099 290.653 61.3505 291.017 61.6006C292.792 62.8568 294.596 64.2457 296.414 65.7869C296.458 65.8204 296.502 65.8539 296.546 65.9042C297.331 66.5568 298.117 67.2596 298.902 67.9806C299.819 68.8176 300.75 69.6881 301.681 70.6089C303.921 72.8362 306.206 75.28 308.489 77.9935C310.148 79.9525 311.69 81.9283 313.087 83.9376C314.062 85.3111 314.978 86.7014 315.822 88.0903C315.982 88.3418 316.128 88.5919 316.287 88.8434C317.742 91.3054 319.052 93.7828 320.215 96.277C320.346 96.5788 320.491 96.896 320.637 97.1978C322.164 100.648 323.431 104.113 324.435 107.561C324.522 107.862 324.609 108.147 324.697 108.432C325.133 109.989 325.512 111.546 325.861 113.103C326.326 115.23 326.705 117.34 327.011 119.448C327.795 124.825 328.072 130.115 327.984 135.205Z" fill="#CCECFA"/>
<path d="M72 47.5C72 34.2452 82.7452 23.5 96 23.5H102.663C115.918 23.5 126.663 34.2452 126.663 47.5V73.7898C126.663 75.9989 124.873 77.7898 122.663 77.7898H96C82.7451 77.7898 72 67.0446 72 53.7898V47.5Z" fill="url(#paint0_linear)"/>
<path d="M99.2728 55.3992C98.5917 55.3992 98.0547 55.1765 97.6618 54.7312C97.2951 54.2859 97.1117 53.6572 97.1117 52.8452C97.1117 51.6141 97.3475 50.5925 97.819 49.7805C98.2905 48.9423 98.9453 48.091 99.7836 47.2265C100.386 46.5717 100.831 46.0085 101.119 45.537C101.434 45.0655 101.591 44.5416 101.591 43.9654C101.591 43.3891 101.381 42.9307 100.962 42.5902C100.543 42.2496 99.9669 42.0794 99.2335 42.0794C98.631 42.0794 98.0285 42.1973 97.4261 42.433C96.8498 42.6426 96.1949 42.9569 95.4615 43.376L94.5185 43.8475C93.6279 44.3452 92.9076 44.594 92.3575 44.594C91.7026 44.594 91.1395 44.319 90.668 43.7689C90.2227 43.1926 90 42.4985 90 41.6865C90 41.1364 90.0917 40.678 90.275 40.3113C90.4846 39.9445 90.812 39.5909 91.2573 39.2504C92.4361 38.386 93.772 37.718 95.265 37.2465C96.7843 36.7488 98.3036 36.5 99.8228 36.5C101.525 36.5 103.045 36.8012 104.381 37.4037C105.717 37.98 106.764 38.792 107.524 39.8398C108.284 40.8613 108.663 42.027 108.663 43.3367C108.663 44.3059 108.454 45.1965 108.035 46.0085C107.642 46.8205 107.157 47.5147 106.581 48.091C106.005 48.6672 105.258 49.3614 104.341 50.1734C103.477 50.8806 102.809 51.4962 102.337 52.0201C101.892 52.5178 101.604 53.0417 101.473 53.5918C101.368 54.168 101.106 54.6133 100.687 54.9277C100.294 55.242 99.8228 55.3992 99.2728 55.3992ZM99.3513 64.7898C98.2774 64.7898 97.3737 64.4231 96.6402 63.6896C95.933 62.9562 95.5794 62.0525 95.5794 60.9785C95.5794 59.9046 95.933 59.0009 96.6402 58.2674C97.3737 57.534 98.2774 57.1673 99.3513 57.1673C100.452 57.1673 101.355 57.534 102.062 58.2674C102.796 59.0009 103.163 59.9046 103.163 60.9785C103.163 62.0525 102.796 62.9562 102.062 63.6896C101.355 64.4231 100.452 64.7898 99.3513 64.7898Z" fill="#3C91E6"/>
<path d="M65 41.5C65 28.2452 75.7452 17.5 89 17.5H95.6634C108.918 17.5 119.663 28.2452 119.663 41.5V67.7898C119.663 69.9989 117.873 71.7898 115.663 71.7898H89C75.7451 71.7898 65 61.0446 65 47.7898V41.5Z" fill="url(#paint1_linear)"/>
<path d="M92.2728 49.3992C91.5917 49.3992 91.0547 49.1765 90.6618 48.7312C90.2951 48.2859 90.1117 47.6572 90.1117 46.8452C90.1117 45.6141 90.3475 44.5925 90.819 43.7805C91.2905 42.9423 91.9453 42.091 92.7836 41.2265C93.386 40.5717 93.8313 40.0085 94.1195 39.537C94.4338 39.0655 94.591 38.5416 94.591 37.9654C94.591 37.3891 94.3814 36.9307 93.9623 36.5902C93.5432 36.2496 92.9669 36.0794 92.2335 36.0794C91.631 36.0794 91.0285 36.1973 90.4261 36.433C89.8498 36.6426 89.1949 36.9569 88.4615 37.376L87.5185 37.8475C86.6279 38.3452 85.9076 38.594 85.3575 38.594C84.7026 38.594 84.1395 38.319 83.668 37.7689C83.2227 37.1926 83 36.4985 83 35.6865C83 35.1364 83.0917 34.678 83.275 34.3113C83.4846 33.9445 83.812 33.5909 84.2573 33.2504C85.4361 32.386 86.772 31.718 88.265 31.2465C89.7843 30.7488 91.3036 30.5 92.8228 30.5C94.5255 30.5 96.0447 30.8012 97.3806 31.4037C98.7166 31.98 99.7643 32.792 100.524 33.8398C101.284 34.8613 101.663 36.027 101.663 37.3367C101.663 38.3059 101.454 39.1965 101.035 40.0085C100.642 40.8205 100.157 41.5147 99.581 42.091C99.0047 42.6672 98.2582 43.3614 97.3414 44.1734C96.4769 44.8806 95.809 45.4962 95.3375 46.0201C94.8922 46.5178 94.6041 47.0417 94.4731 47.5918C94.3683 48.168 94.1064 48.6133 93.6873 48.9277C93.2943 49.242 92.8228 49.3992 92.2728 49.3992ZM92.3513 58.7898C91.2774 58.7898 90.3737 58.4231 89.6402 57.6896C88.933 56.9562 88.5794 56.0525 88.5794 54.9785C88.5794 53.9046 88.933 53.0009 89.6402 52.2674C90.3737 51.534 91.2774 51.1673 92.3513 51.1673C93.4515 51.1673 94.3552 51.534 95.0625 52.2674C95.7959 53.0009 96.1626 53.9046 96.1626 54.9785C96.1626 56.0525 95.7959 56.9562 95.0625 57.6896C94.3552 58.4231 93.4515 58.7898 92.3513 58.7898Z" fill="#D30000"/>
<path d="M152.676 54.9239C152.807 55.0219 156.873 55.0812 157.057 55.1079C158.717 55.35 158.401 52.985 159.876 53.0042C161.342 53.0225 164.831 55.449 166.51 55.2858C166.708 55.2675 170.157 55.3759 170.298 55.2749C171.637 54.3287 166.896 49.2216 167.423 47.6692C167.95 46.1169 172.121 43.0881 171.635 41.5225C171.149 39.957 165.995 39.8243 164.682 38.8436C163.46 37.9312 165.712 33.6243 164.194 33.0108C164.08 32.9648 160.252 32.9395 160.138 32.9381C158.498 32.9161 156.78 37.7769 155.441 38.7232C154.102 39.6694 148.947 39.6677 148.42 41.2201C147.893 42.7724 151.985 45.9088 152.471 47.4744C152.957 49.0399 151.363 53.9423 152.676 54.9231V54.9239Z" fill="#FF7F2A"/>
<path d="M156.547 54.9234C157.861 55.9041 162.108 52.9823 163.747 53.0037C165.386 53.025 169.556 56.0565 170.895 55.1103C172.233 54.1641 170.767 49.2218 171.294 47.6695C171.821 46.1171 175.992 43.0884 175.506 41.5228C175.02 39.9572 169.866 39.8246 168.553 38.8439C167.239 37.8631 165.648 32.9598 164.008 32.9384C162.369 32.917 160.651 37.7773 159.312 38.7235C157.973 39.6697 152.818 39.6681 152.291 41.2204C151.764 42.7728 155.856 45.9092 156.342 47.4747C156.828 49.0403 155.234 53.9426 156.547 54.9234Z" fill="#FFAA00"/>
<path d="M166 34.8594C166.823 36.2055 167.606 37.8826 168.316 38.6284L156.253 50.3892C156.398 49.2081 156.529 48.0788 156.342 47.4745C156.186 46.9731 155.636 46.2931 155.011 45.573L166 34.8594ZM170.476 39.5376C171.359 39.7505 172.348 39.9494 173.24 40.1954L158.024 55.0258C157.403 55.1676 156.881 55.1726 156.547 54.9238C156.228 54.6854 156.083 54.2132 156.035 53.6158L170.476 39.5376ZM174.841 40.8097C175.178 41.0111 175.419 41.2424 175.506 41.5223C175.992 43.0879 171.82 46.1169 171.293 47.6692C171.106 48.2212 171.18 49.2326 171.281 50.3098L167.181 54.3057C165.851 53.6917 164.517 53.0134 163.747 53.0033C163.26 52.9966 162.523 53.2667 161.721 53.6006L174.841 40.8097Z" fill="url(#paint2_linear)"/>
<path d="M277.119 117.334C277.176 117.376 278.933 117.402 279.012 117.414C279.73 117.518 279.593 116.496 280.231 116.504C280.864 116.512 282.372 117.561 283.098 117.49C283.184 117.483 284.674 117.529 284.735 117.486C285.314 117.077 283.265 114.869 283.492 114.198C283.72 113.527 285.523 112.218 285.313 111.542C285.103 110.865 282.876 110.808 282.308 110.384C281.78 109.989 282.753 108.128 282.097 107.863C282.048 107.843 280.393 107.832 280.344 107.831C279.635 107.822 278.892 109.923 278.314 110.332C277.735 110.741 275.507 110.74 275.279 111.411C275.052 112.082 276.82 113.438 277.03 114.114C277.24 114.791 276.551 116.91 277.119 117.334V117.334Z" fill="#FF7F2A"/>
<path d="M278.792 117.334C279.36 117.758 281.195 116.495 281.904 116.504C282.612 116.513 284.414 117.823 284.993 117.414C285.572 117.005 284.938 114.869 285.165 114.198C285.393 113.527 287.196 112.218 286.986 111.542C286.776 110.865 284.548 110.808 283.981 110.384C283.413 109.96 282.725 107.841 282.017 107.831C281.308 107.822 280.565 109.923 279.987 110.332C279.408 110.741 277.18 110.74 276.952 111.411C276.725 112.082 278.493 113.438 278.703 114.114C278.913 114.791 278.224 116.91 278.792 117.334Z" fill="#FFAA00"/>
<path d="M282.878 108.662C283.233 109.243 283.572 109.968 283.879 110.291L278.665 115.374C278.728 114.863 278.784 114.375 278.703 114.114C278.636 113.897 278.398 113.603 278.128 113.292L282.878 108.662ZM284.812 110.684C285.194 110.776 285.621 110.862 286.007 110.968L279.43 117.378C279.162 117.439 278.936 117.441 278.792 117.334C278.654 117.231 278.591 117.027 278.571 116.768L284.812 110.684ZM286.699 111.233C286.844 111.32 286.949 111.42 286.986 111.541C287.197 112.218 285.393 113.527 285.165 114.198C285.084 114.437 285.117 114.874 285.16 115.34L283.388 117.067C282.813 116.801 282.237 116.508 281.904 116.504C281.693 116.501 281.375 116.618 281.028 116.762L286.699 111.233Z" fill="url(#paint3_linear)"/>
<path fill-rule="evenodd" clip-rule="evenodd" d="M214.901 178.851H69.9571C64.5072 178.851 60.0938 174.437 60.0938 168.992V97.1133C60.0938 91.6635 64.5072 87.25 69.9571 87.25H214.901L214.916 87.2861C216.177 89.8226 218.624 91.0806 221.062 91.0633V175.252C221.29 175.265 221.516 175.291 221.739 175.328C219.229 174.918 216.502 175.975 215.076 178.541L214.901 178.851ZM253.734 173.355C254.385 172.038 254.751 170.556 254.751 168.987V97.1133C254.751 96.305 254.653 95.5195 254.469 94.7678C254.65 95.5148 254.746 96.2951 254.746 97.0979V168.998C254.746 170.562 254.382 172.041 253.734 173.355ZM244.895 87.25C244.891 87.25 244.887 87.25 244.883 87.25H227.131C227.121 87.2696 227.112 87.2891 227.102 87.3085L227.136 87.25H244.895Z" fill="url(#paint4_linear)"/>
<rect x="73.0708" y="109.484" width="132.128" height="12.0778" rx="2" fill="#F6CCCC"/>
<rect x="104.414" y="127.646" width="14.8478" height="6.2331" rx="2" fill="#F6CCCC"/>
<rect x="104.414" y="138.093" width="14.8478" height="12.6028" rx="2" fill="#F6CCCC"/>
<path d="M134.08 103.644H74.7483C73.825 103.644 73.0708 102.892 73.0708 101.956V99.9553C73.0708 99.026 73.8179 98.2668 74.7483 98.2668H134.08C135.003 98.2668 135.757 99.0189 135.757 99.9553V101.956C135.75 102.892 135.003 103.644 134.08 103.644Z" fill="#F6CCCC"/>
<path d="M126.015 133.012C126.015 131.297 126.502 129.975 127.476 129.043C128.47 128.112 129.751 127.646 131.317 127.646C132.884 127.646 134.153 128.112 135.127 129.043C136.101 129.975 136.588 131.297 136.588 133.012C136.588 134.726 136.101 136.049 135.127 136.98C134.153 137.912 132.884 138.377 131.317 138.377C129.751 138.377 128.47 137.912 127.476 136.98C126.502 136.049 126.015 134.726 126.015 133.012ZM147.573 127.995L135.349 150.347H130.111L142.334 127.995H147.573ZM131.285 130.821C130.27 130.821 129.762 131.551 129.762 133.012C129.762 134.451 130.27 135.171 131.285 135.171C131.772 135.171 132.153 134.991 132.428 134.631C132.704 134.271 132.841 133.731 132.841 133.012C132.841 131.551 132.323 130.821 131.285 130.821ZM141.128 145.33C141.128 143.616 141.614 142.293 142.588 141.362C143.562 140.431 144.832 139.965 146.398 139.965C147.964 139.965 149.234 140.431 150.208 141.362C151.182 142.293 151.668 143.616 151.668 145.33C151.668 147.045 151.182 148.368 150.208 149.299C149.234 150.23 147.964 150.696 146.398 150.696C144.832 150.696 143.562 150.23 142.588 149.299C141.614 148.368 141.128 147.045 141.128 145.33ZM146.366 143.14C145.879 143.14 145.498 143.32 145.223 143.68C144.969 144.039 144.842 144.59 144.842 145.33C144.842 146.77 145.35 147.489 146.366 147.489C146.853 147.489 147.234 147.309 147.509 146.95C147.784 146.59 147.922 146.05 147.922 145.33C147.922 144.611 147.784 144.071 147.509 143.711C147.234 143.33 146.853 143.14 146.366 143.14Z" fill="#F6CCCC"/>
<path d="M251.686 178.851H233.238L233.057 178.526C231.995 176.618 230.031 175.381 227.855 175.252V91.0602C230.299 90.9932 232.531 89.663 233.753 87.549L233.929 87.25H251.691C257.13 87.25 261.539 91.6583 261.539 97.0979V168.998C261.539 174.442 257.13 178.851 251.686 178.851Z" fill="#D30000"/>
<path d="M220.387 154.936H60.0938V164.477H220.387V154.936Z" fill="url(#paint5_linear)"/>
<path d="M187.442 87.25H177.357V178.851H187.442V87.25Z" fill="url(#paint6_linear)"/>
<path d="M187.442 87.25H177.357V178.851H187.442V87.25Z" fill="url(#paint7_linear)"/>
<path d="M160.311 164.477H151.03C149.599 160.488 150.312 156.031 150.522 154.937H159.997L160.311 164.477Z" fill="url(#paint8_linear)"/>
<path d="M214.814 164.477H208.092L210.161 154.937H215.02C215.166 157.713 215.706 161.197 214.814 164.477Z" fill="url(#paint9_linear)"/>
<path d="M187.442 152.015V156.571L177.357 155.552V151.851C178.482 151.67 182.924 151.067 187.442 152.015Z" fill="url(#paint10_linear)"/>
<path d="M187.442 152.015V156.571L177.357 155.552V151.851C178.482 151.67 182.924 151.067 187.442 152.015Z" fill="url(#paint11_linear)"/>
<path d="M197.235 169.157C202.915 170.52 207.761 170.622 208.057 169.386C208.354 168.149 203.99 166.042 198.31 164.679C192.63 163.316 187.784 163.214 187.488 164.451C187.191 165.687 191.555 167.794 197.235 169.157Z" fill="#FF7B00"/>
<path d="M208.053 169.391C208.053 169.391 215.388 154.248 206.411 146.431C201.648 148.319 187.052 154.957 187.052 154.957L187.483 164.454L208.053 169.391Z" fill="url(#paint12_linear)"/>
<path d="M208.053 169.391C208.053 169.391 215.388 154.248 206.411 146.431C201.648 148.319 187.052 154.957 187.052 154.957L187.483 164.454L208.053 169.391Z" fill="url(#paint13_linear)"/>
<path d="M197.66 152.806C203.006 150.452 206.924 147.6 206.411 146.436C205.899 145.273 201.15 146.238 195.804 148.592C190.458 150.946 186.539 153.797 187.052 154.961C187.564 156.125 192.314 155.16 197.66 152.806Z" fill="#F97801"/>
<path d="M166.379 164.68C160.699 166.043 156.334 168.15 156.631 169.386C156.928 170.623 161.773 170.521 167.453 169.158C173.133 167.795 177.497 165.688 177.201 164.451C176.904 163.215 172.059 163.317 166.379 164.68Z" fill="#F97801"/>
<path d="M156.628 169.391C156.628 169.391 149.293 154.249 158.271 146.432C163.034 148.32 177.63 154.957 177.63 154.957L177.199 164.455L156.628 169.391Z" fill="url(#paint14_linear)"/>
<path d="M156.628 169.391C156.628 169.391 149.293 154.249 158.271 146.432C163.034 148.32 177.63 154.957 177.63 154.957L177.199 164.455L156.628 169.391Z" fill="url(#paint15_linear)"/>
<path d="M168.875 148.589C163.529 146.235 158.78 145.27 158.267 146.434C157.755 147.597 161.673 150.449 167.019 152.803C172.365 155.157 177.114 156.122 177.627 154.958C178.139 153.795 174.221 150.943 168.875 148.589Z" fill="#F97801"/>
<path d="M186.034 165.935H178.571C177.547 165.935 176.718 165.106 176.718 164.083V156.206C176.718 155.182 177.547 154.353 178.571 154.353H186.034C187.057 154.353 187.887 155.182 187.887 156.206V164.083C187.887 165.106 187.057 165.935 186.034 165.935Z" fill="#ED7505"/>
<path d="M188.781 160.6C188.781 160.6 196.552 161.399 201.199 159.656C199.965 161.326 194.736 162.125 193.066 161.834C195.68 163.068 203.741 164.957 207.444 163.431C202.579 165.393 192.34 164.521 188.781 160.6Z" fill="#FF7B00"/>
<path d="M188.727 159.169C190.4 156.627 198.769 153.094 206.208 156.503C202.799 156.069 193.253 156.751 188.727 159.169Z" fill="#FF7B00"/>
<path d="M176.27 160.6C176.27 160.6 168.499 161.399 163.852 159.656C165.086 161.326 170.315 162.125 171.985 161.834C169.371 163.068 161.31 164.957 157.607 163.431C162.472 165.393 172.711 164.521 176.27 160.6Z" fill="#FF7B00"/>
<path d="M176.325 159.169C174.651 156.627 166.282 153.094 158.843 156.503C162.252 156.069 171.799 156.751 176.325 159.169Z" fill="#FF7B00"/>
<path d="M158.152 146.677C162.842 151.736 170.254 153.498 176.644 155.479C170.28 155.027 161.516 152.555 158.152 146.677Z" fill="#ED7505"/>
<path d="M187.615 155.5C194.482 154.375 201.158 151.516 206.533 147.057C202.092 152.608 194.663 155.788 187.615 155.5Z" fill="#ED7505"/>
<path d="M224.357 91.6995V174.784" stroke="#D30000" stroke-width="2" stroke-dasharray="5 5"/>
<path d="M30.2782 156.571C28.7157 156.579 27.1505 156.629 25.5858 156.722C19.3266 157.094 13.1719 158.193 8.10534 160.114C3.03879 162.036 -0.882777 164.807 -2.39248 167.945C-3.41689 170.075 -3.32748 172.318 -2.56667 174.476C-1.80564 176.634 -0.389046 178.718 1.22205 180.75C4.4442 184.814 8.50121 188.773 9.86834 193.104C10.7651 195.945 10.4668 198.849 9.86834 201.711C7.3678 213.665 -0.326445 225.446 1.49304 237.433C2.78375 245.937 8.95478 254.195 18.6508 261.124C24.5618 265.349 31.7637 269.077 39.8418 272.221H295.68C298.012 271.447 300.073 270.446 301.554 269.242C304.074 267.192 304.795 264.656 304.28 262.247C303.765 259.839 302.091 257.533 300.116 255.332C298.14 253.131 295.849 251.005 293.993 248.777C292.136 246.549 290.709 244.188 290.583 241.766C290.439 238.981 292.037 236.219 294.609 233.765C297.181 231.312 300.699 229.148 304.532 227.175C312.198 223.229 321.226 219.964 328.012 215.614C334.153 211.678 338.27 206.924 339.919 201.954C341.568 196.984 340.751 191.809 337.636 187.027C331.407 177.464 315.741 169.721 297.037 166.621C285 164.627 272.019 164.472 259.493 165.373C246.967 166.273 234.812 168.197 222.843 170.297C198.907 174.496 174.485 179.503 149.258 178.538C133.558 177.938 118.527 175.032 104.337 171.534C90.1477 168.037 76.5449 163.92 62.1394 160.662C52.0493 158.381 41.2153 156.506 30.2779 156.57L30.2782 156.571Z" fill="#66E0A3"/>
<path d="M30.2782 156.571C28.7157 156.579 27.1505 156.629 25.5858 156.722C19.3266 157.094 13.1719 158.193 8.10534 160.114C3.03879 162.036 -0.882777 164.807 -2.39248 167.945C-3.41689 170.075 -3.32748 172.318 -2.56667 174.476C-1.80564 176.634 -0.389046 178.718 1.22205 180.75C4.4442 184.814 8.50121 188.773 9.86834 193.104C10.7651 195.945 10.4668 198.849 9.86834 201.711C7.3678 213.665 -0.326445 225.446 1.49304 237.433C2.78375 245.937 8.95478 254.195 18.6508 261.124C24.5618 265.349 31.7637 269.077 39.8418 272.221H295.68C298.012 271.447 300.073 270.446 301.554 269.242C304.074 267.192 304.795 264.656 304.28 262.247C303.765 259.839 302.091 257.533 300.116 255.332C298.14 253.131 295.849 251.005 293.993 248.777C292.136 246.549 290.709 244.188 290.583 241.766C290.439 238.981 292.037 236.219 294.609 233.765C297.181 231.312 300.699 229.148 304.532 227.175C312.198 223.229 321.226 219.964 328.012 215.614C334.153 211.678 338.27 206.924 339.919 201.954C341.568 196.984 340.751 191.809 337.636 187.027C331.407 177.464 315.741 169.721 297.037 166.621C285 164.627 272.019 164.472 259.493 165.373C246.967 166.273 234.812 168.197 222.843 170.297C198.907 174.496 174.485 179.503 149.258 178.538C133.558 177.938 118.527 175.032 104.337 171.534C90.1477 168.037 76.5449 163.92 62.1394 160.662C52.0493 158.381 41.2153 156.506 30.2779 156.57L30.2782 156.571Z" fill="url(#paint16_linear)"/>
<path d="M253.319 132.46C252.431 130.588 250.654 126.844 248.363 124.911C246.072 122.979 243.269 122.859 241.653 124.076C240.038 125.292 239.614 127.845 240.355 129.776C241.095 131.708 243.001 133.021 245.504 133.677C248.006 134.333 251.108 134.333 252.658 134.333C254.208 134.333 254.208 134.333 253.319 132.46V132.46Z" stroke="#F6CCCC" stroke-width="4"/>
<path d="M254.561 132.46C255.45 130.588 257.226 126.844 259.518 124.911C261.809 122.979 264.612 122.859 266.227 124.076C267.842 125.292 268.266 127.845 267.526 129.776C266.785 131.708 264.88 133.021 262.377 133.677C259.874 134.333 256.773 134.333 255.223 134.333C253.673 134.333 253.673 134.333 254.561 132.46V132.46Z" stroke="#F6CCCC" stroke-width="4"/>
<path d="M229.827 139.601V184.499H266.866V139.601H229.827Z" fill="url(#paint17_linear)"/>
<path d="M283.631 139.601H266.867V184.499H283.631V139.601Z" fill="url(#paint18_linear)"/>
<path d="M229.827 144.223V155.648H283.632V144.223H229.827Z" fill="url(#paint19_linear)"/>
<path d="M252.998 155.654H243.695V184.5H252.998V155.654Z" fill="#F6CCCC"/>
<path d="M229.827 144.223V155.648H266.98V144.223H229.827Z" fill="url(#paint20_linear)"/>
<path d="M287.595 134.319H225.863V152.806H287.595V134.319Z" fill="url(#paint21_linear)"/>
<path d="M252.998 148.271H243.695V155.654H252.998V148.271Z" fill="#D99C9C"/>
<path d="M265.273 134.319H225.863V152.806H265.273V134.319Z" fill="url(#paint22_linear)"/>
<path d="M250.219 134.333H240.917V152.748H250.219V134.333Z" fill="#F6CCCC"/>
<path d="M43.5495 174.16L72.2535 181.543C76.2104 182.561 80.2574 180.17 81.2752 176.213L90.0003 142.29C90.1092 141.866 90.0778 141.419 89.911 141.015L82.1954 122.338C81.9526 121.75 81.4472 121.311 80.8311 121.152L65.1743 117.125C64.5582 116.967 63.9037 117.108 63.4073 117.506L47.6378 130.142C47.2966 130.415 47.0532 130.792 46.9444 131.215L38.2192 165.138C37.2015 169.095 39.5927 173.142 43.5495 174.16Z" fill="url(#paint23_linear)"/>
<path d="M64.2881 131.368C64.5512 131.813 64.9842 132.158 65.5246 132.297L73.353 134.311C74.4338 134.589 75.5354 133.938 75.8134 132.857C76.0914 131.776 75.4405 130.675 74.3597 130.396L66.5313 128.383C65.4505 128.105 64.3489 128.756 64.0709 129.837C63.9319 130.377 64.025 130.923 64.2881 131.368Z" fill="white"/>
<path d="M53.7264 167.038C54.4444 167.222 55.2374 167.004 55.7567 166.406L75.5156 143.667C76.2476 142.825 76.1582 141.549 75.3158 140.817C74.4732 140.084 73.1972 140.174 72.465 141.016L52.7061 163.755C51.974 164.597 52.0635 165.874 52.9059 166.606C53.1508 166.819 53.4323 166.962 53.7264 167.038Z" fill="#F3F3F3"/>
<path d="M59.3224 137.175C62.5614 138.008 64.5186 141.321 63.6855 144.56C62.8524 147.799 59.5397 149.756 56.3007 148.923C53.0617 148.09 51.1045 144.777 51.9376 141.538C52.7706 138.299 56.0835 136.342 59.3224 137.175ZM55.8535 142.546C55.5759 143.625 56.2283 144.729 57.3079 145.007C58.3875 145.285 59.4918 144.632 59.7695 143.553C60.0472 142.473 59.3947 141.369 58.3151 141.091C57.2355 140.813 56.1313 141.466 55.8535 142.546Z" fill="#F3F3F3"/>
<path d="M71.921 158.499C75.16 159.332 77.1172 162.645 76.2841 165.884C75.451 169.123 72.1383 171.08 68.8993 170.247C65.6603 169.414 63.7031 166.102 64.5362 162.863C65.3693 159.624 68.6821 157.666 71.921 158.499ZM68.4522 163.87C68.1745 164.949 68.8269 166.054 69.9065 166.331C70.9862 166.609 72.0905 165.957 72.3681 164.877C72.6458 163.797 71.9934 162.693 70.9138 162.415C69.8342 162.138 68.73 162.79 68.4522 163.87Z" fill="#F3F3F3"/>
</g>
<defs>
<linearGradient id="paint0_linear" x1="-0.263325" y1="-43.3394" x2="134.987" y2="65.5579" gradientUnits="userSpaceOnUse">
<stop stop-color="#2C5AA0"/>
<stop offset="1" stop-color="#2C5AA0" stop-opacity="0"/>
</linearGradient>
<linearGradient id="paint1_linear" x1="155.227" y1="118.399" x2="85.8097" y2="25.6353" gradientUnits="userSpaceOnUse">
<stop stop-color="#EBF4FC"/>
<stop offset="1" stop-color="#EEFDFF"/>
</linearGradient>
<linearGradient id="paint2_linear" x1="175.991" y1="32.0322" x2="148.042" y2="54.4771" gradientUnits="userSpaceOnUse">
<stop stop-color="#FFE680"/>
<stop offset="1" stop-color="#FFE680" stop-opacity="0"/>
</linearGradient>
<linearGradient id="paint3_linear" x1="287.196" y1="107.44" x2="275.116" y2="117.141" gradientUnits="userSpaceOnUse">
<stop stop-color="#FFE680"/>
<stop offset="1" stop-color="#FFE680" stop-opacity="0"/>
</linearGradient>
<linearGradient id="paint4_linear" x1="322.758" y1="155.344" x2="324.347" y2="38.3325" gradientUnits="userSpaceOnUse">
<stop stop-color="#D30000"/>
<stop offset="1" stop-color="#F6CCCC"/>
</linearGradient>
<linearGradient id="paint5_linear" x1="252.981" y1="159.707" x2="215.899" y2="83.6964" gradientUnits="userSpaceOnUse">
<stop stop-color="#FF7B00"/>
<stop offset="0.0242" stop-color="#FF7D01"/>
<stop offset="0.571919" stop-color="#FFAB0F"/>
<stop offset="1" stop-color="#FFD336"/>
</linearGradient>
<linearGradient id="paint6_linear" x1="182.4" y1="87.25" x2="177.357" y2="208.819" gradientUnits="userSpaceOnUse">
<stop stop-color="#1CD671"/>
<stop offset="1" stop-color="#009444"/>
</linearGradient>
<linearGradient id="paint7_linear" x1="182.058" y1="178.851" x2="148.147" y2="140.422" gradientUnits="userSpaceOnUse">
<stop stop-color="#FF7B00"/>
<stop offset="0.0242" stop-color="#FF7D01"/>
<stop offset="0.571919" stop-color="#FFAB0F"/>
<stop offset="1" stop-color="#FFD336"/>
</linearGradient>
<linearGradient id="paint8_linear" x1="156.182" y1="161.265" x2="140.761" y2="160.685" gradientUnits="userSpaceOnUse">
<stop stop-color="#FF7B00"/>
<stop offset="0.0242" stop-color="#FF7D01"/>
<stop offset="0.571919" stop-color="#FFAB0F"/>
<stop offset="1" stop-color="#FFD336"/>
</linearGradient>
<linearGradient id="paint9_linear" x1="210.32" y1="159.707" x2="222.63" y2="160.036" gradientUnits="userSpaceOnUse">
<stop stop-color="#FF7B00"/>
<stop offset="0.0242" stop-color="#FF7D01"/>
<stop offset="0.571919" stop-color="#FFAB0F"/>
<stop offset="1" stop-color="#FFD336"/>
</linearGradient>
<linearGradient id="paint10_linear" x1="154.381" y1="154.033" x2="194.329" y2="154.033" gradientUnits="userSpaceOnUse">
<stop stop-color="#1CD671"/>
<stop offset="1" stop-color="#009444"/>
</linearGradient>
<linearGradient id="paint11_linear" x1="183.341" y1="154.862" x2="168.076" y2="153.79" gradientUnits="userSpaceOnUse">
<stop stop-color="#FF7B00"/>
<stop offset="0.0242" stop-color="#FF7D01"/>
<stop offset="0.571919" stop-color="#FFAB0F"/>
<stop offset="1" stop-color="#FFD336"/>
</linearGradient>
<linearGradient id="paint12_linear" x1="212.946" y1="155.872" x2="184.923" y2="157.911" gradientUnits="userSpaceOnUse">
<stop stop-color="#1CD671"/>
<stop offset="1" stop-color="#009444"/>
</linearGradient>
<linearGradient id="paint13_linear" x1="187.052" y1="160.711" x2="210.891" y2="160.268" gradientUnits="userSpaceOnUse">
<stop stop-color="#FF7B00"/>
<stop offset="0.0242" stop-color="#FF7D01"/>
<stop offset="0.571919" stop-color="#FFAB0F"/>
<stop offset="1" stop-color="#FFD336"/>
</linearGradient>
<linearGradient id="paint14_linear" x1="155.572" y1="157.912" x2="177.63" y2="159.25" gradientUnits="userSpaceOnUse">
<stop stop-color="#1CD671"/>
<stop offset="1" stop-color="#009444"/>
</linearGradient>
<linearGradient id="paint15_linear" x1="175.88" y1="161.072" x2="152.104" y2="159.17" gradientUnits="userSpaceOnUse">
<stop stop-color="#FF7B00"/>
<stop offset="0.0242" stop-color="#FF7D01"/>
<stop offset="0.571919" stop-color="#FFAB0F"/>
<stop offset="1" stop-color="#FFD336"/>
</linearGradient>
<linearGradient id="paint16_linear" x1="168.801" y1="272.221" x2="168.801" y2="156.569" gradientUnits="userSpaceOnUse">
<stop stop-color="#00B59C"/>
<stop offset="1" stop-color="#9CFFAC"/>
</linearGradient>
<linearGradient id="paint17_linear" x1="266.866" y1="219.893" x2="222.336" y2="116.959" gradientUnits="userSpaceOnUse">
<stop stop-color="#D30000"/>
<stop offset="1" stop-color="#F6CCCC"/>
</linearGradient>
<linearGradient id="paint18_linear" x1="289.488" y1="172.977" x2="238.602" y2="116.342" gradientUnits="userSpaceOnUse">
<stop stop-color="#D30000"/>
<stop offset="1" stop-color="#F6CCCC"/>
</linearGradient>
<linearGradient id="paint19_linear" x1="274.178" y1="151.112" x2="274.471" y2="182" gradientUnits="userSpaceOnUse">
<stop stop-color="#D30000"/>
<stop offset="1" stop-color="#F6CCCC"/>
</linearGradient>
<linearGradient id="paint20_linear" x1="261.763" y1="146.121" x2="261.763" y2="164.31" gradientUnits="userSpaceOnUse">
<stop stop-color="#D30000"/>
<stop offset="1" stop-color="#F6CCCC"/>
</linearGradient>
<linearGradient id="paint21_linear" x1="291.683" y1="156.845" x2="259.987" y2="122.836" gradientUnits="userSpaceOnUse">
<stop stop-color="#D30000"/>
<stop offset="1" stop-color="#F6CCCC"/>
</linearGradient>
<linearGradient id="paint22_linear" x1="260.288" y1="171.847" x2="244.346" y2="127.661" gradientUnits="userSpaceOnUse">
<stop stop-color="#D30000"/>
<stop offset="1" stop-color="#F6CCCC"/>
</linearGradient>
<linearGradient id="paint23_linear" x1="72.3572" y1="121.649" x2="60.9765" y2="176.572" gradientUnits="userSpaceOnUse">
<stop stop-color="#6BB5FF"/>
<stop offset="1" stop-color="#3C91E6"/>
</linearGradient>
</defs>
</svg>
