<svg width="56" height="56" viewBox="0 0 56 56" fill="none" xmlns="http://www.w3.org/2000/svg">
<rect width="56" height="56" rx="8" fill="#CCECFA"/>
<path d="M9.51669 8.92017H46.4857C46.8258 8.92017 47.1016 9.19591 47.1016 9.53604V46.505C47.1016 46.8451 46.8258 47.1209 46.4857 47.1209H9.51669C9.17656 47.1209 8.90083 46.8451 8.90083 46.505V9.53604C8.90083 9.19591 9.17656 8.92017 9.51669 8.92017Z" fill="url(#paint0_radial)"/>
<path d="M23.7006 15.9319H32.2988V47.12H23.7006V15.9319Z" fill="url(#paint1_linear)"/>
<path d="M47.1016 18.8408V24.7687H8.90084V18.8408H47.1016Z" fill="url(#paint2_linear)"/>
<path d="M8.05217 8.92017H47.9486C48.2887 8.92017 48.5645 9.19591 48.5645 9.53604V20.3479C48.5645 20.688 48.2887 20.9638 47.9486 20.9638H8.05217C7.71205 20.9638 7.43631 20.688 7.43631 20.3479V9.53604C7.43631 9.19591 7.71205 8.92017 8.05217 8.92017Z" fill="#DEAA87"/>
<path d="M8.05217 8.92017H47.9486C48.2887 8.92017 48.5645 9.19591 48.5645 9.53604V20.3479C48.5645 20.688 48.2887 20.9638 47.9486 20.9638H8.05217C7.71205 20.9638 7.43631 20.688 7.43631 20.3479V9.53604C7.43631 9.19591 7.71205 8.92017 8.05217 8.92017Z" fill="url(#paint3_radial)"/>
<path d="M23.6751 8.87915H32.3242V20.988H23.6751V8.87915Z" fill="#F4E3D7"/>
<path d="M23.6751 8.87915H32.3242V20.988H23.6751V8.87915Z" fill="url(#paint4_linear)"/>
<path d="M47.3813 28.7439L34.2657 28.6425C34.2333 32.7311 38.5106 35.1985 38.4975 36.9775C38.4852 38.9566 34.1774 40.1408 34.1419 45.2509L47.2591 45.3482C47.2973 40.2438 43.0136 38.9964 43.0273 37.0131C43.0404 35.2341 47.3547 32.8298 47.3813 28.7439Z" fill="#F0F8FF"/>
<path d="M36.5324 43.5958C36.9572 42.0521 37.9172 41.0823 38.7933 40.2018C39.7085 39.278 40.6583 38.3236 40.6679 37C40.6784 35.7956 39.7871 34.7206 38.8487 33.5767C38.0563 32.6126 37.1859 31.5593 36.7397 30.3415L44.8843 30.4042C44.4197 31.6151 43.5352 32.6543 42.7288 33.6069C41.7704 34.7343 40.8685 35.7959 40.858 37.0004C40.8484 38.324 41.7812 39.2947 42.6833 40.2308C43.5436 41.1236 44.4904 42.1087 44.8912 43.6578L36.5324 43.5958Z" fill="#3C91E6"/>
<path d="M49.1856 28.7559L32.4636 28.6302C32.004 28.6253 31.6357 28.253 31.6364 27.7919L31.6388 27.5691C31.6437 27.1095 32.016 26.7412 32.4771 26.742L49.2033 26.8691C49.663 26.874 50.0355 27.2478 50.0305 27.7074L50.0282 27.9302C50.0232 28.3898 49.6452 28.7608 49.1856 28.7559Z" fill="#847F82"/>
<path d="M49.0489 47.2528L32.3269 47.1272C31.8673 47.1222 31.4948 46.7484 31.4997 46.2888L31.5021 46.0661C31.507 45.6065 31.8808 45.234 32.3404 45.2389L49.0624 45.3645C49.522 45.3695 49.8945 45.7433 49.8896 46.2029L49.8872 46.4256C49.8865 46.8867 49.5085 47.2578 49.0489 47.2528Z" fill="#847F82"/>
<defs>
<radialGradient id="paint0_radial" cx="0" cy="0" r="1" gradientUnits="userSpaceOnUse" gradientTransform="translate(38.2971 6.54853) rotate(94.4952) scale(56.2017 82.7064)">
<stop stop-color="#FFE18C"/>
<stop offset="0.692708" stop-color="#E7BE66"/>
<stop offset="1" stop-color="#FFE18C"/>
</radialGradient>
<linearGradient id="paint1_linear" x1="31.9893" y1="52.8378" x2="14.3282" y2="27.8341" gradientUnits="userSpaceOnUse">
<stop stop-color="#FFFFFD"/>
<stop offset="1" stop-color="#FAF6EA"/>
</linearGradient>
<linearGradient id="paint2_linear" x1="28.0012" y1="18.8408" x2="28.0012" y2="24.7687" gradientUnits="userSpaceOnUse">
<stop stop-color="#CCA35B"/>
<stop offset="1" stop-color="#CCA35B" stop-opacity="0"/>
</linearGradient>
<radialGradient id="paint3_radial" cx="0" cy="0" r="1" gradientUnits="userSpaceOnUse" gradientTransform="translate(39.0853 8.17246) rotate(97.2785) scale(22.8264 107.661)">
<stop stop-color="#FFE18C"/>
<stop offset="0.692708" stop-color="#E7BE66"/>
<stop offset="1" stop-color="#FFE18C"/>
</radialGradient>
<linearGradient id="paint4_linear" x1="32.0128" y1="23.2079" x2="28.3203" y2="9.66358" gradientUnits="userSpaceOnUse">
<stop stop-color="#FFFFFD"/>
<stop offset="1" stop-color="#FAF6EA"/>
</linearGradient>
</defs>
</svg>
