<svg width="57" height="56" viewBox="0 0 57 56" fill="none" xmlns="http://www.w3.org/2000/svg">
<mask id="mask0" style="mask-type:alpha" maskUnits="userSpaceOnUse" x="0" y="0" width="57" height="56">
<rect x="0.40625" width="56" height="56" rx="8" fill="#CCECFA"/>
</mask>
<g mask="url(#mask0)">
<rect x="0.40625" width="56" height="56" rx="8" fill="#CCECFA"/>
<path d="M33.9562 10.0483C33.9562 10.0483 33.5218 4.90039 29.1715 4.90039C24.8213 4.90039 12.085 4.90039 12.085 4.90039C12.085 4.90039 7.78516 5.03976 7.78516 10.0483C13.7827 10.0483 33.9562 10.0483 33.9562 10.0483Z" fill="white"/>
<path d="M14.6045 45.9799C14.603 45.9636 14.6016 45.9503 14.6016 45.9503H14.6045V10.0216H33.9552V44.4749L40.7741 45.9517C40.7741 48.6932 39.2662 50.0203 38.1408 50.6296C37.4692 50.9929 36.9339 51.0997 36.9339 51.0997C36.9339 51.0997 23.7394 51.0997 19.3892 51.0997C15.2362 51.0997 14.6505 46.4114 14.606 45.9858V45.9799H14.6045Z" fill="white"/>
<path opacity="0.1" d="M14.6041 10.0203C14.6041 10.0203 14.822 5.38538 11.9056 5.38538C8.06093 5.38538 7.98828 10.0484 7.98828 10.0484L14.6041 10.0203Z" fill="url(#paint0_linear)"/>
<path opacity="0.1" d="M21.7886 44.6987C21.7886 44.7076 21.7901 44.7284 21.7901 44.7551H34.0179V47.9444H21.4639C21.1273 49.3322 20.4497 50.6384 19.0916 50.6384C19.016 50.6384 18.9433 50.6355 18.8751 50.6325C15.3418 50.4649 15.1817 44.9197 15.1758 44.6973H21.7886V44.6987Z" fill="url(#paint1_linear)"/>
<path d="M26.5064 23.8806H18.4109C18.0654 23.8806 17.7852 24.1608 17.7852 24.5063V24.5374C17.7852 24.8829 18.0654 25.1631 18.4109 25.1631H26.5064C26.8518 25.1631 27.1321 24.8829 27.1321 24.5374V24.5063C27.1306 24.1608 26.8504 23.8806 26.5064 23.8806Z" fill="#8ABDF0"/>
<path d="M26.5064 26.6947H18.4109C18.0654 26.6947 17.7852 26.9749 17.7852 27.3204V27.3515C17.7852 27.697 18.0654 27.9772 18.4109 27.9772H26.5064C26.8518 27.9772 27.1321 27.697 27.1321 27.3515V27.3204C27.1306 26.9749 26.8504 26.6947 26.5064 26.6947Z" fill="#8ABDF0"/>
<path d="M21.1168 29.5089H18.4109C18.0654 29.5089 17.7852 29.7891 17.7852 30.1346V30.1657C17.7852 30.5112 18.0654 30.7914 18.4109 30.7914H21.1168C21.4711 30.7914 21.7573 30.5053 21.7573 30.1509C21.7573 29.7951 21.4697 29.5089 21.1168 29.5089Z" fill="#8ABDF0"/>
<path d="M30.7119 23.9235H28.946C28.6005 23.9235 28.3203 24.2037 28.3203 24.5492V24.5803C28.3203 24.9258 28.6005 25.206 28.946 25.206H30.7119C31.0663 25.206 31.3524 24.9198 31.3524 24.5655C31.3524 24.2096 31.0663 23.9235 30.7119 23.9235Z" fill="#8ABDF0"/>
<path d="M30.7119 26.6874H28.946C28.6005 26.6874 28.3203 26.9676 28.3203 27.3131V27.3442C28.3203 27.6897 28.6005 27.9699 28.946 27.9699H30.7119C31.0663 27.9699 31.3524 27.6837 31.3524 27.3294C31.3524 26.975 31.0663 26.6874 30.7119 26.6874Z" fill="#8ABDF0"/>
<path d="M30.7119 29.4525H28.946C28.6005 29.4525 28.3203 29.7327 28.3203 30.0782V30.1094C28.3203 30.4548 28.6005 30.735 28.946 30.735H30.7119C31.0663 30.735 31.3524 30.4489 31.3524 30.0945C31.3524 29.7402 31.0663 29.4525 30.7119 29.4525Z" fill="#8ABDF0"/>
<path d="M26.5064 32.8077H18.4109C18.0654 32.8077 17.7852 33.088 17.7852 33.4334V33.4646C17.7852 33.81 18.0654 34.0903 18.4109 34.0903H26.5064C26.8518 34.0903 27.1321 33.81 27.1321 33.4646V33.4334C27.1306 33.088 26.8504 32.8077 26.5064 32.8077Z" fill="#8ABDF0"/>
<path d="M26.5064 35.6219H18.4109C18.0654 35.6219 17.7852 35.9022 17.7852 36.2476V36.2788C17.7852 36.6242 18.0654 36.9045 18.4109 36.9045H26.5064C26.8518 36.9045 27.1321 36.6242 27.1321 36.2788V36.2476C27.1306 35.9007 26.8504 35.6219 26.5064 35.6219Z" fill="#8ABDF0"/>
<path d="M21.1168 38.4344H18.4109C18.0654 38.4344 17.7852 38.7147 17.7852 39.0601V39.0913C17.7852 39.4367 18.0654 39.717 18.4109 39.717H21.1168C21.4711 39.717 21.7573 39.4308 21.7573 39.0765C21.7573 38.7221 21.4697 38.4344 21.1168 38.4344Z" fill="#8ABDF0"/>
<path d="M30.7119 32.8494H28.946C28.6005 32.8494 28.3203 33.1296 28.3203 33.4751V33.5062C28.3203 33.8517 28.6005 34.1319 28.946 34.1319H30.7119C31.0663 34.1319 31.3524 33.8457 31.3524 33.4914C31.3524 33.1355 31.0663 32.8494 30.7119 32.8494Z" fill="#8ABDF0"/>
<path d="M30.7119 35.6146H28.946C28.6005 35.6146 28.3203 35.8949 28.3203 36.2403V36.27C28.3203 36.6154 28.6005 36.8957 28.946 36.8957H30.7119C31.0663 36.8957 31.3524 36.6095 31.3524 36.2551C31.3524 35.9008 31.0663 35.6146 30.7119 35.6146Z" fill="#8ABDF0"/>
<path d="M30.7119 38.3798H28.946C28.6005 38.3798 28.3203 38.66 28.3203 39.0055V39.0366C28.3203 39.3821 28.6005 39.6623 28.946 39.6623H30.7119C31.0663 39.6623 31.3524 39.3761 31.3524 39.0218C31.3524 38.6659 31.0663 38.3798 30.7119 38.3798Z" fill="#8ABDF0"/>
<path d="M30.569 10.8757H18.8131C18.2456 10.8757 17.7852 11.156 17.7852 11.5014V11.5326C17.7852 11.878 18.2456 12.1583 18.8131 12.1583H30.569C31.1366 12.1583 31.597 11.878 31.597 11.5326V11.5014C31.597 11.156 31.1366 10.8757 30.569 10.8757Z" fill="#8ABDF0"/>
<path d="M30.569 14.108H18.8131C18.2456 14.108 17.7852 14.3883 17.7852 14.7337V14.7649C17.7852 15.1103 18.2456 15.3906 18.8131 15.3906H30.569C31.1366 15.3906 31.597 15.1103 31.597 14.7649V14.7337C31.597 14.3883 31.1366 14.108 30.569 14.108Z" fill="#8ABDF0"/>
<path d="M30.9722 17.3418H18.4109C18.0654 17.3418 17.7852 17.622 17.7852 17.9675V17.9986C17.7852 18.3441 18.0654 18.6243 18.4109 18.6243H30.9722C31.3177 18.6243 31.5979 18.3441 31.5979 17.9986V17.9675C31.5979 17.6205 31.3177 17.3418 30.9722 17.3418Z" fill="#8ABDF0"/>
<rect x="32.9766" y="31.3201" width="13.0909" height="10.7022" fill="white"/>
<path d="M49.6875 37.2061C49.6875 39.8582 48.6339 42.4018 46.7586 44.2771C44.8832 46.1525 42.3397 47.2061 39.6875 47.2061C37.0353 47.2061 34.4918 46.1525 32.6164 44.2771C30.7411 42.4018 29.6875 39.8582 29.6875 37.2061C29.6875 34.5539 30.7411 32.0104 32.6164 30.135C34.4918 28.2596 37.0353 27.2061 39.6875 27.2061C42.3397 27.2061 44.8832 28.2596 46.7586 30.135C48.6339 32.0104 49.6875 34.5539 49.6875 37.2061ZM44.725 33.4186C44.6357 33.3296 44.5294 33.2595 44.4124 33.2126C44.2954 33.1656 44.1702 33.1428 44.0442 33.1453C43.9181 33.1479 43.7939 33.1758 43.6789 33.2275C43.564 33.2792 43.4606 33.3535 43.375 33.4461L39.0338 38.9773L36.4175 36.3598C36.2398 36.1942 36.0047 36.1041 35.7618 36.1083C35.519 36.1126 35.2872 36.211 35.1155 36.3828C34.9437 36.5545 34.8453 36.7863 34.841 37.0292C34.8367 37.272 34.9269 37.5071 35.0925 37.6848L38.4 40.9936C38.4891 41.0825 38.5952 41.1526 38.712 41.1996C38.8288 41.2467 38.9538 41.2697 39.0797 41.2674C39.2056 41.265 39.3297 41.2374 39.4446 41.186C39.5596 41.1347 39.663 41.0607 39.7487 40.9686L44.7388 34.7311C44.9089 34.5542 45.0028 34.3176 45.0005 34.0723C44.9982 33.8269 44.8997 33.5922 44.7262 33.4186H44.725Z" fill="#3C91E6"/>
</g>
<defs>
<linearGradient id="paint0_linear" x1="11.298" y1="4.69116" x2="11.298" y2="10.0484" gradientUnits="userSpaceOnUse">
<stop stop-opacity="0"/>
<stop offset="1"/>
</linearGradient>
<linearGradient id="paint1_linear" x1="24.5968" y1="43.8128" x2="24.5968" y2="50.6384" gradientUnits="userSpaceOnUse">
<stop stop-opacity="0"/>
<stop offset="1"/>
</linearGradient>
</defs>
</svg>
