<svg width="328" height="185" viewBox="0 0 328 185" fill="none" xmlns="http://www.w3.org/2000/svg">
<mask id="mask0" mask-type="alpha" maskUnits="userSpaceOnUse" x="0" y="0" width="328" height="185">
<path d="M327.984 135.205C327.97 136.025 327.955 136.846 327.912 137.649C327.883 138.453 327.853 139.241 327.795 140.044C327.591 143.494 327.228 146.842 326.747 150.04C326.602 150.995 326.456 151.932 326.297 152.853C326.268 153.071 326.224 153.289 326.195 153.489L326.166 153.606C326.064 154.175 325.962 154.728 325.86 155.297C325.671 156.285 325.468 157.273 325.264 158.227C325.22 158.411 325.176 158.579 325.147 158.763C324.595 161.274 323.998 163.636 323.372 165.846C323.27 166.214 323.168 166.583 323.066 166.952C322.79 167.923 322.514 168.843 322.237 169.747C322.033 170.4 321.829 171.02 321.641 171.623C320.579 174.871 319.546 177.567 318.716 179.61C317.946 181.501 317.291 183.093 316.956 183.896C316.81 184.248 316.723 184.45 316.723 184.45C316.723 184.45 155.43 184.483 66.395 184.5C32.4539 184.5 9.01794 184.5 9.01794 184.5C9.01794 184.483 9.00337 184.483 9.00337 184.483C8.79941 184.299 8.61002 184.131 8.42184 183.948C8.40728 183.948 8.40728 183.948 8.40728 183.948C8.31986 183.864 8.23245 183.797 8.15961 183.713L3.92623 178.439C2.99505 176.914 2.2387 175.291 1.65717 173.6C0.537823 170.452 0 167.035 0 163.469C0 163.303 0 163.117 0.0145686 162.934C0.0145686 162.616 0.0291371 162.282 0.0291371 161.963C0.0437057 161.678 0.0582743 161.395 0.0728428 161.109C0.145686 160.071 0.247666 159.033 0.393351 157.995C0.393351 157.96 0.40792 157.928 0.40792 157.894C0.437057 157.727 0.466194 157.542 0.480763 157.358C0.5099 157.14 0.553605 156.923 0.597311 156.705C0.728428 155.935 0.888682 155.165 1.06229 154.379C1.09143 154.194 1.13513 154.01 1.17884 153.825C1.23711 153.607 1.28082 153.391 1.35366 153.173C1.51392 152.487 1.71788 151.801 1.92062 151.097C2.31397 149.757 2.77895 148.418 3.30221 147.061C3.33134 146.961 3.37505 146.843 3.41876 146.743C3.8983 145.52 4.42277 144.314 4.98973 143.092C5.84806 141.25 6.82294 139.425 7.88523 137.617C8.11833 137.231 8.35021 136.847 8.58331 136.478C9.76215 134.553 11.0563 132.661 12.467 130.802C14.1691 128.542 16.0315 126.314 18.0395 124.172C18.4899 123.686 18.9416 123.218 19.392 122.748C19.494 122.648 19.5959 122.547 19.6979 122.43C19.9601 122.178 20.2212 121.91 20.4834 121.66C21.5894 120.555 22.665 119.517 23.7273 118.512C24.2652 118.009 24.7896 117.524 25.3129 117.038C26.346 116.083 27.35 115.146 28.3091 114.242C31.2629 111.446 33.8816 108.818 35.9467 105.854C36.6594 104.849 37.2992 103.794 37.8673 102.706C38.9005 100.713 39.7006 98.5545 40.2238 96.1093C40.3404 95.4903 40.4569 94.8531 40.5443 94.2006C40.8065 92.4261 40.9377 90.5006 40.894 88.3907C40.8794 86.7335 40.7628 84.9408 40.5443 83.0321C40.5006 82.6311 40.4423 82.2119 40.3841 81.776C40.0781 79.416 39.6131 76.8533 38.9879 74.0574C38.8131 73.2707 38.6237 72.4673 38.4209 71.6471C38.0713 70.2232 37.7957 68.8176 37.5772 67.4454C37.1559 64.7822 36.9811 62.221 37.0102 59.7254C37.0248 57.466 37.2142 55.2723 37.5772 53.1624V53.1289C37.8977 51.1196 38.3627 49.1774 38.9296 47.3022C45.8983 24.4972 69.611 11.019 75.9107 8.00503C84.8874 3.7014 95.5212 1.29109 106.563 0.403815C107.465 0.336745 108.367 0.269676 109.269 0.219373C111.816 0.0670696 114.391 0 116.952 0C117.999 0 119.032 0.0167674 120.064 0.0335348C121.796 0.083837 123.512 0.150907 125.244 0.268278C126.844 0.368883 128.429 0.486254 130.015 0.637161C136.59 1.27432 143.006 2.34464 148.971 3.78524C154.398 5.0903 159.285 6.73211 163.737 8.62403C163.737 8.62403 163.737 8.62403 163.752 8.6408C174.256 13.1107 182.198 18.9541 188.541 25.0323C190.01 26.438 191.408 27.8618 192.717 29.2856C192.891 29.4701 193.081 29.6713 193.254 29.8711C193.661 30.3071 194.054 30.7416 194.448 31.1943C194.623 31.3955 194.812 31.5968 194.986 31.7966C196.135 33.1184 197.24 34.4416 198.288 35.7313C198.811 36.3838 199.336 37.0378 199.844 37.6735C202.609 41.1905 205.053 44.4713 207.38 47.3008C207.671 47.6697 207.961 48.0036 208.253 48.3558C212.253 53.045 215.963 56.2253 220.502 56.5774C223.354 56.7953 226.686 56.242 230.424 55.405C230.802 55.3212 231.165 55.2388 231.544 55.1382C237.29 53.8149 243.983 51.9398 251.417 51.1531C261.019 50.1317 271.886 50.9351 283.611 57.0636C283.99 57.2648 284.353 57.466 284.732 57.6659C286.448 58.6202 288.18 59.6751 289.925 60.8642C290.29 61.099 290.653 61.3505 291.017 61.6006C292.792 62.8568 294.596 64.2457 296.414 65.7869C296.458 65.8204 296.502 65.8539 296.546 65.9042C297.331 66.5568 298.117 67.2596 298.902 67.9806C299.819 68.8176 300.75 69.6881 301.681 70.6089C303.921 72.8362 306.206 75.28 308.489 77.9935C310.148 79.9525 311.69 81.9283 313.087 83.9376C314.062 85.3111 314.978 86.7014 315.822 88.0903C315.982 88.3418 316.128 88.5919 316.287 88.8434C317.742 91.3054 319.052 93.7828 320.215 96.277C320.346 96.5788 320.491 96.896 320.637 97.1978C322.164 100.648 323.431 104.113 324.435 107.561C324.522 107.862 324.609 108.147 324.697 108.432C325.133 109.989 325.512 111.546 325.861 113.103C326.326 115.23 326.705 117.34 327.011 119.448C327.795 124.825 328.072 130.115 327.984 135.205Z" fill="#CCECFA"/>
</mask>
<g mask="url(#mask0)">
<path d="M327.984 135.205C327.97 136.025 327.955 136.846 327.912 137.649C327.883 138.453 327.853 139.241 327.795 140.044C327.591 143.494 327.228 146.842 326.747 150.04C326.602 150.995 326.456 151.932 326.297 152.853C326.268 153.071 326.224 153.289 326.195 153.489L326.166 153.606C326.064 154.175 325.962 154.728 325.86 155.297C325.671 156.285 325.468 157.273 325.264 158.227C325.22 158.411 325.176 158.579 325.147 158.763C324.595 161.274 323.998 163.636 323.372 165.846C323.27 166.214 323.168 166.583 323.066 166.952C322.79 167.923 322.514 168.843 322.237 169.747C322.033 170.4 321.829 171.02 321.641 171.623C320.579 174.871 319.546 177.567 318.716 179.61C317.946 181.501 317.291 183.093 316.956 183.896C316.81 184.248 316.723 184.45 316.723 184.45C316.723 184.45 155.43 184.483 66.395 184.5C32.4539 184.5 9.01794 184.5 9.01794 184.5C9.01794 184.483 9.00337 184.483 9.00337 184.483C8.79941 184.299 8.61002 184.131 8.42184 183.948C8.40728 183.948 8.40728 183.948 8.40728 183.948C8.31986 183.864 8.23245 183.797 8.15961 183.713L3.92623 178.439C2.99505 176.914 2.2387 175.291 1.65717 173.6C0.537823 170.452 0 167.035 0 163.469C0 163.303 0 163.117 0.0145686 162.934C0.0145686 162.616 0.0291371 162.282 0.0291371 161.963C0.0437057 161.678 0.0582743 161.395 0.0728428 161.109C0.145686 160.071 0.247666 159.033 0.393351 157.995C0.393351 157.96 0.40792 157.928 0.40792 157.894C0.437057 157.727 0.466194 157.542 0.480763 157.358C0.5099 157.14 0.553605 156.923 0.597311 156.705C0.728428 155.935 0.888682 155.165 1.06229 154.379C1.09143 154.194 1.13513 154.01 1.17884 153.825C1.23711 153.607 1.28082 153.391 1.35366 153.173C1.51392 152.487 1.71788 151.801 1.92062 151.097C2.31397 149.757 2.77895 148.418 3.30221 147.061C3.33134 146.961 3.37505 146.843 3.41876 146.743C3.8983 145.52 4.42277 144.314 4.98973 143.092C5.84806 141.25 6.82294 139.425 7.88523 137.617C8.11833 137.231 8.35021 136.847 8.58331 136.478C9.76215 134.553 11.0563 132.661 12.467 130.802C14.1691 128.542 16.0315 126.314 18.0395 124.172C18.4899 123.686 18.9416 123.218 19.392 122.748C19.494 122.648 19.5959 122.547 19.6979 122.43C19.9601 122.178 20.2212 121.91 20.4834 121.66C21.5894 120.555 22.665 119.517 23.7273 118.512C24.2652 118.009 24.7896 117.524 25.3129 117.038C26.346 116.083 27.35 115.146 28.3091 114.242C31.2629 111.446 33.8816 108.818 35.9467 105.854C36.6594 104.849 37.2992 103.794 37.8673 102.706C38.9005 100.713 39.7006 98.5545 40.2238 96.1093C40.3404 95.4903 40.4569 94.8531 40.5443 94.2006C40.8065 92.4261 40.9377 90.5006 40.894 88.3907C40.8794 86.7335 40.7628 84.9408 40.5443 83.0321C40.5006 82.6311 40.4423 82.2119 40.3841 81.776C40.0781 79.416 39.6131 76.8533 38.9879 74.0574C38.8131 73.2707 38.6237 72.4673 38.4209 71.6471C38.0713 70.2232 37.7957 68.8176 37.5772 67.4454C37.1559 64.7822 36.9811 62.221 37.0102 59.7254C37.0248 57.466 37.2142 55.2723 37.5772 53.1624V53.1289C37.8977 51.1196 38.3627 49.1774 38.9296 47.3022C45.8983 24.4972 69.611 11.019 75.9107 8.00503C84.8874 3.7014 95.5212 1.29109 106.563 0.403815C107.465 0.336745 108.367 0.269676 109.269 0.219373C111.816 0.0670696 114.391 0 116.952 0C117.999 0 119.032 0.0167674 120.064 0.0335348C121.796 0.083837 123.512 0.150907 125.244 0.268278C126.844 0.368883 128.429 0.486254 130.015 0.637161C136.59 1.27432 143.006 2.34464 148.971 3.78524C154.398 5.0903 159.285 6.73211 163.737 8.62403C163.737 8.62403 163.737 8.62403 163.752 8.6408C174.256 13.1107 182.198 18.9541 188.541 25.0323C190.01 26.438 191.408 27.8618 192.717 29.2856C192.891 29.4701 193.081 29.6713 193.254 29.8711C193.661 30.3071 194.054 30.7416 194.448 31.1943C194.623 31.3955 194.812 31.5968 194.986 31.7966C196.135 33.1184 197.24 34.4416 198.288 35.7313C198.811 36.3838 199.336 37.0378 199.844 37.6735C202.609 41.1905 205.053 44.4713 207.38 47.3008C207.671 47.6697 207.961 48.0036 208.253 48.3558C212.253 53.045 215.963 56.2253 220.502 56.5774C223.354 56.7953 226.686 56.242 230.424 55.405C230.802 55.3212 231.165 55.2388 231.544 55.1382C237.29 53.8149 243.983 51.9398 251.417 51.1531C261.019 50.1317 271.886 50.9351 283.611 57.0636C283.99 57.2648 284.353 57.466 284.732 57.6659C286.448 58.6202 288.18 59.6751 289.925 60.8642C290.29 61.099 290.653 61.3505 291.017 61.6006C292.792 62.8568 294.596 64.2457 296.414 65.7869C296.458 65.8204 296.502 65.8539 296.546 65.9042C297.331 66.5568 298.117 67.2596 298.902 67.9806C299.819 68.8176 300.75 69.6881 301.681 70.6089C303.921 72.8362 306.206 75.28 308.489 77.9935C310.148 79.9525 311.69 81.9283 313.087 83.9376C314.062 85.3111 314.978 86.7014 315.822 88.0903C315.982 88.3418 316.128 88.5919 316.287 88.8434C317.742 91.3054 319.052 93.7828 320.215 96.277C320.346 96.5788 320.491 96.896 320.637 97.1978C322.164 100.648 323.431 104.113 324.435 107.561C324.522 107.862 324.609 108.147 324.697 108.432C325.133 109.989 325.512 111.546 325.861 113.103C326.326 115.23 326.705 117.34 327.011 119.448C327.795 124.825 328.072 130.115 327.984 135.205Z" fill="#CCECFA"/>
<path d="M227.467 111.141C226.313 108.707 224.005 103.843 221.027 101.332C218.05 98.8203 214.408 98.6647 212.309 100.245C210.21 101.826 209.66 105.143 210.622 107.653C211.584 110.163 214.06 111.869 217.312 112.721C220.564 113.574 224.594 113.574 226.608 113.574C228.622 113.574 228.622 113.574 227.467 111.141V111.141Z" stroke="#F6CCCC" stroke-width="4"/>
<path d="M229.083 111.141C230.238 108.707 232.546 103.843 235.523 101.332C238.501 98.8203 242.143 98.6647 244.242 100.245C246.341 101.826 246.891 105.143 245.929 107.653C244.967 110.163 242.491 111.869 239.239 112.721C235.986 113.574 231.957 113.574 229.943 113.574C227.929 113.574 227.929 113.574 229.083 111.141V111.141Z" stroke="#F6CCCC" stroke-width="4"/>
<path d="M196.945 120.419V178.759H245.074V120.419H196.945Z" fill="url(#paint0_linear)"/>
<path d="M266.858 120.419H245.074V178.759H266.858V120.419Z" fill="url(#paint1_linear)"/>
<path d="M196.945 126.425V141.271H266.858V126.425H196.945Z" fill="url(#paint2_linear)"/>
<path d="M227.052 141.278H214.965V178.76H227.052V141.278Z" fill="#F6CCCC"/>
<path d="M196.945 126.425V141.271H245.222V126.425H196.945Z" fill="url(#paint3_linear)"/>
<path d="M272.007 113.555H191.793V137.578H272.007V113.555Z" fill="url(#paint4_linear)"/>
<path d="M227.052 131.685H214.965V141.278H227.052V131.685Z" fill="#D99C9C"/>
<path d="M243.002 113.555H191.793V137.578H243.002V113.555Z" fill="url(#paint5_linear)"/>
<path d="M223.443 113.574H211.355V137.502H223.443V113.574Z" fill="#F6CCCC"/>
<path d="M30.2792 158.571C28.7167 158.579 27.1515 158.629 25.5868 158.722C19.3275 159.094 13.1729 160.193 8.10631 162.114C3.03977 164.036 -0.881801 166.807 -2.3915 169.945C-3.41592 172.075 -3.32651 174.318 -2.56569 176.476C-1.80467 178.634 -0.388069 180.718 1.22303 182.75C4.44517 186.814 8.50218 190.773 9.86932 195.104C10.7661 197.945 10.4678 200.849 9.86932 203.711C7.36877 215.665 -0.325468 227.446 1.49402 239.433C2.78472 247.937 8.95576 256.195 18.6518 263.124C24.5628 267.349 31.7647 271.077 39.8428 274.221H295.681C298.013 273.447 300.074 272.446 301.555 271.242C304.075 269.192 304.796 266.656 304.281 264.247C303.766 261.839 302.092 259.533 300.117 257.332C298.141 255.131 295.85 253.005 293.994 250.777C292.137 248.549 290.71 246.188 290.584 243.766C290.44 240.981 292.038 238.219 294.61 235.765C297.182 233.312 300.7 231.148 304.533 229.175C312.199 225.229 321.227 221.964 328.013 217.614C334.154 213.678 338.271 208.924 339.92 203.954C341.569 198.984 340.752 193.809 337.637 189.027C331.408 179.464 315.742 171.721 297.038 168.621C285.001 166.627 272.02 166.472 259.494 167.373C246.968 168.273 234.813 170.197 222.844 172.297C198.908 176.496 174.486 181.503 149.259 180.538C133.559 179.938 118.528 177.032 104.338 173.534C90.1486 170.037 76.5459 165.92 62.1404 162.662C52.0503 160.381 41.2163 158.506 30.2789 158.57L30.2792 158.571Z" fill="#66E0A3"/>
<path d="M30.2792 158.571C28.7167 158.579 27.1515 158.629 25.5868 158.722C19.3275 159.094 13.1729 160.193 8.10631 162.114C3.03977 164.036 -0.881801 166.807 -2.3915 169.945C-3.41592 172.075 -3.32651 174.318 -2.56569 176.476C-1.80467 178.634 -0.388069 180.718 1.22303 182.75C4.44517 186.814 8.50218 190.773 9.86932 195.104C10.7661 197.945 10.4678 200.849 9.86932 203.711C7.36877 215.665 -0.325468 227.446 1.49402 239.433C2.78472 247.937 8.95576 256.195 18.6518 263.124C24.5628 267.349 31.7647 271.077 39.8428 274.221H295.681C298.013 273.447 300.074 272.446 301.555 271.242C304.075 269.192 304.796 266.656 304.281 264.247C303.766 261.839 302.092 259.533 300.117 257.332C298.141 255.131 295.85 253.005 293.994 250.777C292.137 248.549 290.71 246.188 290.584 243.766C290.44 240.981 292.038 238.219 294.61 235.765C297.182 233.312 300.7 231.148 304.533 229.175C312.199 225.229 321.227 221.964 328.013 217.614C334.154 213.678 338.271 208.924 339.92 203.954C341.569 198.984 340.752 193.809 337.637 189.027C331.408 179.464 315.742 171.721 297.038 168.621C285.001 166.627 272.02 166.472 259.494 167.373C246.968 168.273 234.813 170.197 222.844 172.297C198.908 176.496 174.486 181.503 149.259 180.538C133.559 179.938 118.528 177.032 104.338 173.534C90.1486 170.037 76.5459 165.92 62.1404 162.662C52.0503 160.381 41.2163 158.506 30.2789 158.57L30.2792 158.571Z" fill="url(#paint6_linear)"/>
<path d="M97.5469 136.566L97.6937 137.095C98.6186 140.295 101.533 144.267 105.343 144.267H165.162C168.972 144.267 171.886 140.303 172.811 137.095L172.958 136.566H97.5469Z" fill="#AF0404"/>
<path d="M77.5859 79.338L92.7078 131.824C93.7575 135.45 97.0535 139.943 101.37 139.943H169.125C173.441 139.943 176.737 135.45 177.787 131.824L191.352 79.338H77.5859ZM104.952 133.057C102.61 133.769 100.129 132.448 99.4172 130.099L87.3124 90.2536C86.6003 87.912 87.9216 85.4381 90.2633 84.7188C92.605 84.0067 95.0862 85.328 95.7982 87.6697L107.903 127.522C108.615 129.871 107.294 132.345 104.952 133.057ZM125.924 133.057C123.583 133.769 121.109 132.448 120.397 130.099L108.292 90.2536C107.58 87.912 108.901 85.4381 111.243 84.7188C113.585 84.0067 116.066 85.328 116.771 87.6697L128.875 127.522C129.595 129.871 128.274 132.345 125.924 133.057ZM146.904 133.057C144.563 133.769 142.089 132.448 141.377 130.099L129.272 90.2463C128.56 87.9046 129.881 85.4308 132.223 84.7114C134.564 83.9994 137.038 85.3207 137.75 87.6624L149.855 127.53C150.567 129.871 149.246 132.345 146.904 133.057ZM167.884 133.057C165.542 133.769 163.061 132.448 162.349 130.099L150.244 90.2463C149.532 87.9046 150.854 85.4308 153.195 84.7114C155.537 83.9994 158.011 85.3207 158.723 87.6624L170.828 127.515C171.547 129.871 170.226 132.345 167.884 133.057ZM179.974 103.944C177.632 104.656 175.159 103.335 174.447 100.993L171.224 90.261C170.512 87.9193 171.833 85.4455 174.182 84.7261C176.524 84.014 178.998 85.3354 179.71 87.6771L182.932 98.4165C183.637 100.758 182.316 103.232 179.974 103.944Z" fill="#B42627"/>
<path d="M77.5859 79.338L92.7078 131.824C93.7575 135.45 97.0535 139.943 101.37 139.943H169.125C173.441 139.943 176.737 135.45 177.787 131.824L191.352 79.338H77.5859ZM104.952 133.057C102.61 133.769 100.129 132.448 99.4172 130.099L87.3124 90.2536C86.6003 87.912 87.9216 85.4381 90.2633 84.7188C92.605 84.0067 95.0862 85.328 95.7982 87.6697L107.903 127.522C108.615 129.871 107.294 132.345 104.952 133.057ZM125.924 133.057C123.583 133.769 121.109 132.448 120.397 130.099L108.292 90.2536C107.58 87.912 108.901 85.4381 111.243 84.7188C113.585 84.0067 116.066 85.328 116.771 87.6697L128.875 127.522C129.595 129.871 128.274 132.345 125.924 133.057ZM146.904 133.057C144.563 133.769 142.089 132.448 141.377 130.099L129.272 90.2463C128.56 87.9046 129.881 85.4308 132.223 84.7114C134.564 83.9994 137.038 85.3207 137.75 87.6624L149.855 127.53C150.567 129.871 149.246 132.345 146.904 133.057ZM167.884 133.057C165.542 133.769 163.061 132.448 162.349 130.099L150.244 90.2463C149.532 87.9046 150.854 85.4308 153.195 84.7114C155.537 83.9994 158.011 85.3207 158.723 87.6624L170.828 127.515C171.547 129.871 170.226 132.345 167.884 133.057ZM179.974 103.944C177.632 104.656 175.159 103.335 174.447 100.993L171.224 90.261C170.512 87.9193 171.833 85.4455 174.182 84.7261C176.524 84.014 178.998 85.3354 179.71 87.6771L182.932 98.4165C183.637 100.758 182.316 103.232 179.974 103.944Z" fill="url(#paint7_linear)"/>
<path d="M116.002 164.549C105.262 164.549 94.5449 156.474 91.5866 146.146L72.3099 78.6847C70.0857 70.9036 63.7506 64.407 59.4563 63.4454L48.0342 60.8908C45.8613 60.4063 44.496 58.2482 44.9805 56.0753C45.4649 53.9025 47.6231 52.5371 49.7886 53.0216L61.2108 55.5762C68.9258 57.3012 77.2061 66.4771 80.0617 76.4605L99.3384 143.922C101.284 150.734 108.911 156.481 116.002 156.481C116.009 156.481 116.016 156.481 116.024 156.481L179.235 156.371H179.242C181.466 156.371 183.272 158.17 183.272 160.394C183.279 162.618 181.473 164.424 179.249 164.431L116.031 164.542C116.031 164.549 116.016 164.549 116.002 164.549Z" fill="#D30000"/>
<path d="M115.334 182.673C122.234 182.673 127.828 177.079 127.828 170.179C127.828 163.279 122.234 157.685 115.334 157.685C108.434 157.685 102.84 163.279 102.84 170.179C102.84 177.079 108.434 182.673 115.334 182.673Z" fill="#00171F"/>
<path d="M115.333 178.371C119.857 178.371 123.525 174.704 123.525 170.179C123.525 165.655 119.857 161.987 115.333 161.987C110.808 161.987 107.141 165.655 107.141 170.179C107.141 174.704 110.808 178.371 115.333 178.371Z" fill="#847F82"/>
<path d="M115.333 176.492C118.819 176.492 121.646 173.666 121.646 170.179C121.646 166.693 118.819 163.866 115.333 163.866C111.846 163.866 109.02 166.693 109.02 170.179C109.02 173.666 111.846 176.492 115.333 176.492Z" fill="#D6D4D5"/>
<path d="M165.318 182.673C172.218 182.673 177.812 177.079 177.812 170.179C177.812 163.279 172.218 157.685 165.318 157.685C158.418 157.685 152.824 163.279 152.824 170.179C152.824 177.079 158.418 182.673 165.318 182.673Z" fill="#00171F"/>
<path d="M165.317 178.371C169.842 178.371 173.509 174.704 173.509 170.179C173.509 165.655 169.842 161.987 165.317 161.987C160.793 161.987 157.125 165.655 157.125 170.179C157.125 174.704 160.793 178.371 165.317 178.371Z" fill="#847F82"/>
<path d="M165.317 176.492C168.803 176.492 171.63 173.666 171.63 170.179C171.63 166.693 168.803 163.866 165.317 163.866C161.83 163.866 159.004 166.693 159.004 170.179C159.004 173.666 161.83 176.492 165.317 176.492Z" fill="#D6D4D5"/>
<path d="M194.02 79.2573C194.02 80.4465 193.098 81.4081 191.958 81.4081H82.9724C81.8322 81.4081 81.7812 81.8044 80.8391 79.7485C80.5396 79.0949 79.7743 76.6604 80.5197 77.1064H191.958C193.098 77.1138 194.02 78.0754 194.02 79.2573Z" fill="#F6CCCC"/>
<path d="M158.676 36.5789C158.676 23.324 147.931 12.5789 134.676 12.5789H108.012C105.803 12.5789 104.012 14.3697 104.012 16.5789V42.8687C104.012 56.1235 114.758 66.8687 128.012 66.8687H134.676C147.931 66.8687 158.676 56.1235 158.676 42.8687V36.5789Z" fill="url(#paint8_linear)"/>
<path d="M131.403 44.478C132.084 44.478 132.621 44.2554 133.014 43.8101C133.381 43.3648 133.564 42.7361 133.564 41.9241C133.564 40.6929 133.328 39.6714 132.857 38.8593C132.385 38.0211 131.73 37.1698 130.892 36.3054C130.29 35.6505 129.844 35.0874 129.556 34.6159C129.242 34.1444 129.085 33.6205 129.085 33.0442C129.085 32.4679 129.294 32.0095 129.713 31.669C130.133 31.3285 130.709 31.1582 131.442 31.1582C132.045 31.1582 132.647 31.2761 133.25 31.5119C133.826 31.7214 134.481 32.0357 135.214 32.4549L136.157 32.9263C137.048 33.424 137.768 33.6729 138.318 33.6729C138.973 33.6729 139.536 33.3978 140.008 32.8478C140.453 32.2715 140.676 31.5773 140.676 30.7653C140.676 30.2152 140.584 29.7568 140.401 29.3901C140.191 29.0234 139.864 28.6698 139.418 28.3293C138.24 27.4648 136.904 26.7969 135.411 26.3254C133.891 25.8277 132.372 25.5789 130.853 25.5789C129.15 25.5789 127.631 25.8801 126.295 26.4826C124.959 27.0588 123.911 27.8709 123.152 28.9186C122.392 29.9402 122.012 31.1058 122.012 32.4156C122.012 33.3847 122.222 34.2754 122.641 35.0874C123.034 35.8994 123.519 36.5935 124.095 37.1698C124.671 37.7461 125.418 38.4402 126.334 39.2523C127.199 39.9595 127.867 40.5751 128.338 41.099C128.784 41.5966 129.072 42.1205 129.203 42.6706C129.307 43.2469 129.569 43.6922 129.989 44.0065C130.381 44.3209 130.853 44.478 131.403 44.478ZM131.324 53.8687C132.398 53.8687 133.302 53.5019 134.036 52.7685C134.743 52.0351 135.096 51.1314 135.096 50.0574C135.096 48.9834 134.743 48.0797 134.036 47.3463C133.302 46.6128 132.398 46.2461 131.324 46.2461C130.224 46.2461 129.321 46.6128 128.613 47.3463C127.88 48.0797 127.513 48.9834 127.513 50.0574C127.513 51.1314 127.88 52.0351 128.613 52.7685C129.321 53.5019 130.224 53.8687 131.324 53.8687Z" fill="#3C91E6"/>
<path d="M97.0117 30.5789C97.0117 17.324 107.757 6.57886 121.012 6.57886H127.675C140.93 6.57886 151.675 17.324 151.675 30.5789V36.8687C151.675 50.1235 140.93 60.8687 127.675 60.8687H101.012C98.8026 60.8687 97.0117 59.0778 97.0117 56.8687V30.5789Z" fill="url(#paint9_linear)"/>
<path d="M124.284 38.478C123.603 38.478 123.066 38.2554 122.674 37.8101C122.307 37.3648 122.123 36.7361 122.123 35.9241C122.123 34.6929 122.359 33.6714 122.831 32.8593C123.302 32.0211 123.957 31.1698 124.795 30.3054C125.398 29.6505 125.843 29.0874 126.131 28.6159C126.446 28.1444 126.603 27.6205 126.603 27.0442C126.603 26.4679 126.393 26.0095 125.974 25.669C125.555 25.3285 124.979 25.1582 124.245 25.1582C123.643 25.1582 123.04 25.2761 122.438 25.5119C121.862 25.7214 121.207 26.0357 120.473 26.4549L119.53 26.9263C118.64 27.424 117.919 27.6729 117.369 27.6729C116.714 27.6729 116.151 27.3978 115.68 26.8478C115.234 26.2715 115.012 25.5773 115.012 24.7653C115.012 24.2152 115.103 23.7568 115.287 23.3901C115.496 23.0234 115.824 22.6698 116.269 22.3293C117.448 21.4648 118.784 20.7969 120.277 20.3254C121.796 19.8277 123.315 19.5789 124.835 19.5789C126.537 19.5789 128.056 19.8801 129.392 20.4826C130.728 21.0588 131.776 21.8709 132.536 22.9186C133.295 23.9402 133.675 25.1058 133.675 26.4156C133.675 27.3847 133.466 28.2754 133.046 29.0874C132.654 29.8994 132.169 30.5935 131.593 31.1698C131.016 31.7461 130.27 32.4402 129.353 33.2523C128.489 33.9595 127.821 34.5751 127.349 35.099C126.904 35.5966 126.616 36.1205 126.485 36.6706C126.38 37.2469 126.118 37.6922 125.699 38.0065C125.306 38.3209 124.835 38.478 124.284 38.478ZM124.363 47.8687C123.289 47.8687 122.385 47.5019 121.652 46.7685C120.945 46.0351 120.591 45.1314 120.591 44.0574C120.591 42.9834 120.945 42.0797 121.652 41.3463C122.385 40.6128 123.289 40.2461 124.363 40.2461C125.463 40.2461 126.367 40.6128 127.074 41.3463C127.808 42.0797 128.174 42.9834 128.174 44.0574C128.174 45.1314 127.808 46.0351 127.074 46.7685C126.367 47.5019 125.463 47.8687 124.363 47.8687Z" fill="#D30000"/>
</g>
<defs>
<linearGradient id="paint0_linear" x1="245.074" y1="224.749" x2="187.212" y2="90.9987" gradientUnits="userSpaceOnUse">
<stop stop-color="#D30000"/>
<stop offset="1" stop-color="#F6CCCC"/>
</linearGradient>
<linearGradient id="paint1_linear" x1="274.468" y1="163.788" x2="208.348" y2="90.1968" gradientUnits="userSpaceOnUse">
<stop stop-color="#D30000"/>
<stop offset="1" stop-color="#F6CCCC"/>
</linearGradient>
<linearGradient id="paint2_linear" x1="254.574" y1="135.376" x2="254.954" y2="175.512" gradientUnits="userSpaceOnUse">
<stop stop-color="#D30000"/>
<stop offset="1" stop-color="#F6CCCC"/>
</linearGradient>
<linearGradient id="paint3_linear" x1="238.443" y1="128.891" x2="238.443" y2="152.525" gradientUnits="userSpaceOnUse">
<stop stop-color="#D30000"/>
<stop offset="1" stop-color="#F6CCCC"/>
</linearGradient>
<linearGradient id="paint4_linear" x1="277.318" y1="142.825" x2="236.134" y2="98.6345" gradientUnits="userSpaceOnUse">
<stop stop-color="#D30000"/>
<stop offset="1" stop-color="#F6CCCC"/>
</linearGradient>
<linearGradient id="paint5_linear" x1="236.524" y1="162.319" x2="215.81" y2="104.904" gradientUnits="userSpaceOnUse">
<stop stop-color="#D30000"/>
<stop offset="1" stop-color="#F6CCCC"/>
</linearGradient>
<linearGradient id="paint6_linear" x1="168.802" y1="274.221" x2="168.802" y2="158.569" gradientUnits="userSpaceOnUse">
<stop stop-color="#00B59C"/>
<stop offset="1" stop-color="#9CFFAC"/>
</linearGradient>
<linearGradient id="paint7_linear" x1="231.098" y1="124.39" x2="232.288" y2="46.9772" gradientUnits="userSpaceOnUse">
<stop stop-color="#D30000"/>
<stop offset="1" stop-color="#F6CCCC"/>
</linearGradient>
<linearGradient id="paint8_linear" x1="230.939" y1="-54.2606" x2="95.6888" y2="54.6367" gradientUnits="userSpaceOnUse">
<stop stop-color="#2C5AA0"/>
<stop offset="1" stop-color="#2C5AA0" stop-opacity="0"/>
</linearGradient>
<linearGradient id="paint9_linear" x1="187.238" y1="107.478" x2="117.821" y2="14.7142" gradientUnits="userSpaceOnUse">
<stop stop-color="#EBF4FC"/>
<stop offset="1" stop-color="#EEFDFF"/>
</linearGradient>
</defs>
</svg>
