<svg width="241" height="241" viewBox="0 0 241 241" fill="none" xmlns="http://www.w3.org/2000/svg">
<rect x="0.202881" y="0.331299" width="240" height="240" fill="#CCECFA"/>
<path d="M153.238 82.2772H98.991C91.8803 82.2772 86.116 88.0415 86.116 95.1522V151.932C86.116 159.043 91.8803 164.807 98.991 164.807H153.238C160.348 164.807 166.113 159.043 166.113 151.932V95.1522C166.113 88.0415 160.348 82.2772 153.238 82.2772Z" fill="url(#paint0_linear)"/>
<path d="M141.415 75.8554H87.1679C80.0572 75.8554 74.2928 81.6198 74.2928 88.7305V145.511C74.2928 152.621 80.0572 158.386 87.1679 158.386H141.415C148.525 158.386 154.29 152.621 154.29 145.511V88.7305C154.29 81.6198 148.525 75.8554 141.415 75.8554Z" fill="url(#paint1_linear)"/>
<path fill-rule="evenodd" clip-rule="evenodd" d="M107.068 133.787H121.513C127.163 133.787 130.958 129.824 130.958 123.926V110.315C130.958 104.417 127.163 100.454 121.514 100.454H107.068C101.419 100.454 97.6246 104.417 97.6246 110.315V123.926C97.6246 129.824 101.419 133.787 107.068 133.787ZM108.456 115.454C106.158 115.454 104.291 113.584 104.291 111.287C104.291 108.99 106.158 107.121 108.456 107.121C110.752 107.121 112.621 108.99 112.621 111.287C112.621 113.584 110.752 115.454 108.456 115.454ZM127.326 122.011C127.884 123.442 127.594 125.162 126.998 126.579C126.29 128.264 124.936 129.541 123.23 130.098C122.472 130.346 121.678 130.454 120.885 130.454H106.839C105.441 130.454 104.204 130.119 103.19 129.494C102.555 129.102 102.443 128.197 102.914 127.611C103.702 126.63 104.479 125.647 105.264 124.654C106.759 122.755 107.766 122.205 108.885 122.688C109.34 122.888 109.795 123.187 110.265 123.503C111.515 124.353 113.253 125.521 115.542 124.253C117.109 123.376 118.018 121.871 118.809 120.56L118.822 120.538C118.878 120.446 118.934 120.354 118.989 120.263L118.989 120.263C119.255 119.823 119.518 119.388 119.814 118.988C120.186 118.488 121.566 116.923 123.352 118.037C124.49 118.739 125.447 119.689 126.471 120.705C126.862 121.094 127.14 121.536 127.326 122.011Z" fill="#D30000"/>
<path d="M87.1667 75.8552C80.0339 75.8552 74.2928 81.598 74.2928 88.7307V145.511C74.2928 149.536 76.1223 153.116 78.9971 155.473C77.1767 153.253 76.085 150.411 76.085 147.303V90.5229C76.085 83.3901 81.826 77.6473 88.9588 77.6473H143.205C146.313 77.6473 149.157 78.739 151.377 80.5595C149.019 77.6846 145.438 75.8552 141.413 75.8552H87.1667Z" fill="white"/>
<path d="M139.621 75.8552C146.754 75.8552 152.497 81.598 152.497 88.7307V145.511C152.497 152.644 146.754 158.385 139.621 158.385H141.414C148.546 158.385 154.289 152.644 154.289 145.511V88.7307C154.289 81.598 148.546 75.8552 141.414 75.8552H139.621Z" fill="#D6EBFF"/>
<defs>
<linearGradient id="paint0_linear" x1="-19.6372" y1="-19.3308" x2="184.165" y2="138.637" gradientUnits="userSpaceOnUse">
<stop stop-color="#2C5AA0"/>
<stop offset="1" stop-color="#2C5AA0" stop-opacity="0"/>
</linearGradient>
<linearGradient id="paint1_linear" x1="206.335" y1="229.24" x2="99.7413" y2="92.1134" gradientUnits="userSpaceOnUse">
<stop stop-color="#EBF4FC"/>
<stop offset="1" stop-color="#EEFDFF"/>
</linearGradient>
</defs>
</svg>
